# MagicaVoxel @ Ephtracy

# group
o 

# material
mtllib door.mtl
usemtl palette

# normals
vn -1 0 0
vn 1 0 0
vn 0 0 1
vn 0 0 -1
vn 0 -1 0
vn 0 1 0

# texcoords
vt 0.533203 0.5
vt 0.537109 0.5
vt 0.986328 0.5
vt 0.990234 0.5

# verts
v -1.6 0 -1.5
v -1.6 0 -2
v -1.6 0.2 -1.5
v -1.6 0.2 -1.6
v -1.6 0.3 -1.5
v -1.6 0.3 -1.6
v -1.6 0.5 -1.5
v -1.6 0.5 -1.6
v -1.6 0.6 -1.5
v -1.6 0.6 -1.6
v -1.6 0.9 -1.5
v -1.6 0.9 -1.6
v -1.6 1 -1.5
v -1.6 1 -1.6
v -1.6 1.2 -1.5
v -1.6 1.2 -1.6
v -1.6 1.3 -1.5
v -1.6 1.3 -1.6
v -1.6 1.8 -1.5
v -1.6 1.8 -1.6
v -1.6 1.9 -1.5
v -1.6 1.9 -1.6
v -1.6 2.1 -1.5
v -1.6 2.1 -1.6
v -1.6 2.2 -1.5
v -1.6 2.2 -1.6
v -1.6 2.6 -1.5
v -1.6 2.6 -1.6
v -1.6 3.1 -1.5
v -1.6 3.1 -1.6
v -1.6 3.2 -1.5
v -1.6 3.2 -2
v -1.5 3.2 -1.5
v -1.5 3.2 -2
v -1.5 3.4 -1.5
v -1.5 3.4 -1.6
v -1.5 3.5 -1.5
v -1.5 3.5 -1.6
v -1.5 3.5 -2
v -1.4 3.5 -1.5
v -1.4 3.5 -1.6
v -1.4 3.5 -2
v -1.4 3.6 -1.5
v -1.4 3.6 -1.6
v -1.4 3.7 -1.5
v -1.4 3.7 -1.6
v -1.4 3.7 -2
v -1.3 3.7 -1.5
v -1.3 3.7 -1.6
v -1.3 3.7 -2
v -1.3 3.9 -1.5
v -1.3 3.9 -2
v 0.7 3.6 -1.5
v 0.7 3.6 -1.6
v 0.7 3.6 -2
v 0.7 3.7 -1.5
v 0.7 3.7 -1.6
v 0.7 3.7 -1.7
v 0.7 3.7 -2
v 0.8 3.2 -1.6
v 0.8 3.2 -2
v 0.8 3.4 -1.5
v 0.8 3.4 -1.6
v 0.8 3.5 -1.5
v 0.8 3.5 -1.6
v 0.8 3.6 -1.5
v 0.8 3.6 -1.6
v 0.8 3.6 -2
v 0.9 0 -1.6
v 0.9 0 -2
v 0.9 3.2 -1.6
v 0.9 3.2 -2
v -0.9 0 -1.6
v -0.9 0 -2
v -0.9 3.2 -1.6
v -0.9 3.2 -2
v -0.8 3.2 -1.6
v -0.8 3.2 -2
v -0.8 3.4 -1.5
v -0.8 3.4 -1.6
v -0.8 3.5 -1.5
v -0.8 3.5 -1.6
v -0.8 3.6 -1.5
v -0.8 3.6 -1.6
v -0.8 3.6 -2
v -0.7 3.6 -1.5
v -0.7 3.6 -1.6
v -0.7 3.6 -2
v -0.7 3.7 -1.5
v -0.7 3.7 -1.6
v -0.7 3.7 -1.7
v -0.7 3.7 -2
v 1.3 3.7 -1.5
v 1.3 3.7 -1.6
v 1.3 3.7 -2
v 1.3 3.9 -1.5
v 1.3 3.9 -2
v 1.4 3.5 -1.5
v 1.4 3.5 -1.6
v 1.4 3.5 -2
v 1.4 3.6 -1.5
v 1.4 3.6 -1.6
v 1.4 3.7 -1.5
v 1.4 3.7 -1.6
v 1.4 3.7 -2
v 1.5 3.2 -1.5
v 1.5 3.2 -2
v 1.5 3.4 -1.5
v 1.5 3.4 -1.6
v 1.5 3.5 -1.5
v 1.5 3.5 -1.6
v 1.5 3.5 -2
v 1.6 0 -1.5
v 1.6 0 -2
v 1.6 0.2 -1.5
v 1.6 0.2 -1.6
v 1.6 0.3 -1.5
v 1.6 0.3 -1.6
v 1.6 0.5 -1.5
v 1.6 0.5 -1.6
v 1.6 0.6 -1.5
v 1.6 0.6 -1.6
v 1.6 0.9 -1.5
v 1.6 0.9 -1.6
v 1.6 1 -1.5
v 1.6 1 -1.6
v 1.6 1.2 -1.5
v 1.6 1.2 -1.6
v 1.6 1.3 -1.5
v 1.6 1.3 -1.6
v 1.6 1.8 -1.5
v 1.6 1.8 -1.6
v 1.6 1.9 -1.5
v 1.6 1.9 -1.6
v 1.6 2.1 -1.5
v 1.6 2.1 -1.6
v 1.6 2.2 -1.5
v 1.6 2.2 -1.6
v 1.6 2.6 -1.5
v 1.6 2.6 -1.6
v 1.6 3.1 -1.5
v 1.6 3.1 -1.6
v 1.6 3.2 -1.5
v 1.6 3.2 -2
v -1.6 0 -1.5
v -1.6 0.2 -1.5
v -1.6 0.3 -1.5
v -1.6 0.5 -1.5
v -1.6 0.6 -1.5
v -1.6 0.9 -1.5
v -1.6 1 -1.5
v -1.6 1.2 -1.5
v -1.6 1.3 -1.5
v -1.6 1.8 -1.5
v -1.6 1.9 -1.5
v -1.6 2.1 -1.5
v -1.6 2.2 -1.5
v -1.6 2.6 -1.5
v -1.6 3.1 -1.5
v -1.6 3.2 -1.5
v -1.5 0.3 -1.5
v -1.5 0.5 -1.5
v -1.5 1.9 -1.5
v -1.5 2.1 -1.5
v -1.5 2.7 -1.5
v -1.5 3 -1.5
v -1.5 3.2 -1.5
v -1.5 3.4 -1.5
v -1.5 3.5 -1.5
v -1.4 0.3 -1.5
v -1.4 0.5 -1.5
v -1.4 1.9 -1.5
v -1.4 2.1 -1.5
v -1.4 3.5 -1.5
v -1.4 3.6 -1.5
v -1.4 3.7 -1.5
v -1.3 0.6 -1.5
v -1.3 0.9 -1.5
v -1.3 1.3 -1.5
v -1.3 1.8 -1.5
v -1.3 3.7 -1.5
v -1.3 3.9 -1.5
v -1.2 0 -1.5
v -1.2 0.2 -1.5
v -1.2 0.6 -1.5
v -1.2 0.9 -1.5
v -1.2 1.3 -1.5
v -1.2 1.8 -1.5
v -1.2 2.2 -1.5
v -1.2 2.6 -1.5
v -1.1 0 -1.5
v -1.1 0.2 -1.5
v -1.1 1 -1.5
v -1.1 1.2 -1.5
v -1.1 2.2 -1.5
v -1.1 2.6 -1.5
v -1.1 3.1 -1.5
v -1.1 3.4 -1.5
v -1 1 -1.5
v -1 1.2 -1.5
v -1 3.1 -1.5
v -1 3.4 -1.5
v -0.9 0 -1.5
v -0.9 0.2 -1.5
v -0.9 0.3 -1.5
v -0.9 0.5 -1.5
v -0.9 0.6 -1.5
v -0.9 0.9 -1.5
v -0.9 1 -1.5
v -0.9 1.2 -1.5
v -0.9 1.3 -1.5
v -0.9 1.8 -1.5
v -0.9 1.9 -1.5
v -0.9 2.1 -1.5
v -0.9 2.2 -1.5
v -0.9 2.6 -1.5
v -0.9 2.7 -1.5
v -0.9 3 -1.5
v -0.9 3.1 -1.5
v -0.9 3.2 -1.5
v -0.8 3.2 -1.5
v -0.8 3.4 -1.5
v -0.8 3.5 -1.5
v -0.8 3.6 -1.5
v -0.7 3.6 -1.5
v -0.7 3.7 -1.5
v -0.7 3.9 -1.5
v -0.6 3.7 -1.5
v -0.6 3.9 -1.5
v -0.4 0 -1.5
v -0.4 3.4 -1.5
v -0.3 0 -1.5
v -0.3 3.4 -1.5
v -0.3 3.7 -1.5
v -0.3 3.9 -1.5
v -0.2 3.7 -1.5
v -0.2 3.9 -1.5
v 0.2 3.7 -1.5
v 0.2 3.9 -1.5
v 0.3 0 -1.5
v 0.3 3.4 -1.5
v 0.3 3.7 -1.5
v 0.3 3.9 -1.5
v 0.4 0 -1.5
v 0.4 3.4 -1.5
v 0.6 3.7 -1.5
v 0.6 3.9 -1.5
v 0.7 3.6 -1.5
v 0.7 3.7 -1.5
v 0.7 3.9 -1.5
v 0.8 3.2 -1.5
v 0.8 3.4 -1.5
v 0.8 3.5 -1.5
v 0.8 3.6 -1.5
v 0.9 0 -1.5
v 0.9 0.2 -1.5
v 0.9 0.3 -1.5
v 0.9 0.5 -1.5
v 0.9 0.6 -1.5
v 0.9 0.9 -1.5
v 0.9 1 -1.5
v 0.9 1.2 -1.5
v 0.9 1.3 -1.5
v 0.9 1.8 -1.5
v 0.9 1.9 -1.5
v 0.9 2.1 -1.5
v 0.9 2.2 -1.5
v 0.9 2.6 -1.5
v 0.9 2.7 -1.5
v 0.9 3 -1.5
v 0.9 3.1 -1.5
v 0.9 3.2 -1.5
v 1 1 -1.5
v 1 1.2 -1.5
v 1 3.1 -1.5
v 1 3.4 -1.5
v 1.1 0 -1.5
v 1.1 0.2 -1.5
v 1.1 1 -1.5
v 1.1 1.2 -1.5
v 1.1 2.2 -1.5
v 1.1 2.6 -1.5
v 1.1 3.1 -1.5
v 1.1 3.4 -1.5
v 1.2 0 -1.5
v 1.2 0.2 -1.5
v 1.2 0.6 -1.5
v 1.2 0.9 -1.5
v 1.2 1.3 -1.5
v 1.2 1.8 -1.5
v 1.2 2.2 -1.5
v 1.2 2.6 -1.5
v 1.3 0.6 -1.5
v 1.3 0.9 -1.5
v 1.3 1.3 -1.5
v 1.3 1.8 -1.5
v 1.3 3.7 -1.5
v 1.3 3.9 -1.5
v 1.4 0.3 -1.5
v 1.4 0.5 -1.5
v 1.4 1.9 -1.5
v 1.4 2.1 -1.5
v 1.4 3.5 -1.5
v 1.4 3.6 -1.5
v 1.4 3.7 -1.5
v 1.5 0.3 -1.5
v 1.5 0.5 -1.5
v 1.5 1.9 -1.5
v 1.5 2.1 -1.5
v 1.5 2.7 -1.5
v 1.5 3 -1.5
v 1.5 3.2 -1.5
v 1.5 3.4 -1.5
v 1.5 3.5 -1.5
v 1.6 0 -1.5
v 1.6 0.2 -1.5
v 1.6 0.3 -1.5
v 1.6 0.5 -1.5
v 1.6 0.6 -1.5
v 1.6 0.9 -1.5
v 1.6 1 -1.5
v 1.6 1.2 -1.5
v 1.6 1.3 -1.5
v 1.6 1.8 -1.5
v 1.6 1.9 -1.5
v 1.6 2.1 -1.5
v 1.6 2.2 -1.5
v 1.6 2.6 -1.5
v 1.6 3.1 -1.5
v 1.6 3.2 -1.5
v -0.9 0 -1.6
v -0.9 3.2 -1.6
v -0.8 3.2 -1.6
v -0.8 3.4 -1.6
v -0.4 0 -1.6
v -0.4 3.4 -1.6
v -0.3 0 -1.6
v -0.3 3.4 -1.6
v 0.3 0 -1.6
v 0.3 3.4 -1.6
v 0.4 0 -1.6
v 0.4 3.4 -1.6
v 0.8 3.2 -1.6
v 0.8 3.4 -1.6
v 0.9 0 -1.6
v 0.9 3.2 -1.6
v -1.6 0 -2
v -1.6 3.2 -2
v -1.5 3.2 -2
v -1.5 3.5 -2
v -1.4 3.5 -2
v -1.4 3.7 -2
v -1.3 3.7 -2
v -1.3 3.9 -2
v -0.9 0 -2
v -0.9 3.2 -2
v -0.8 3.2 -2
v -0.8 3.6 -2
v -0.7 3.6 -2
v -0.7 3.7 -2
v 0.7 3.6 -2
v 0.7 3.7 -2
v 0.8 3.2 -2
v 0.8 3.6 -2
v 0.9 0 -2
v 0.9 3.2 -2
v 1.3 3.7 -2
v 1.3 3.9 -2
v 1.4 3.5 -2
v 1.4 3.7 -2
v 1.5 3.2 -2
v 1.5 3.5 -2
v 1.6 0 -2
v 1.6 3.2 -2
v -1.6 0 -1.5
v -1.2 0 -1.5
v -1.1 0 -1.5
v -0.9 0 -1.5
v -0.4 0 -1.5
v -0.3 0 -1.5
v 0.3 0 -1.5
v 0.4 0 -1.5
v 0.9 0 -1.5
v 1.1 0 -1.5
v 1.2 0 -1.5
v 1.6 0 -1.5
v -1.2 0 -1.6
v -1.1 0 -1.6
v -0.9 0 -1.6
v -0.4 0 -1.6
v -0.3 0 -1.6
v 0.3 0 -1.6
v 0.4 0 -1.6
v 0.9 0 -1.6
v 1.1 0 -1.6
v 1.2 0 -1.6
v -1.6 0 -2
v -0.9 0 -2
v 0.9 0 -2
v 1.6 0 -2
v -0.9 3.2 -1.6
v -0.8 3.2 -1.6
v 0.8 3.2 -1.6
v 0.9 3.2 -1.6
v -0.9 3.2 -2
v -0.8 3.2 -2
v 0.8 3.2 -2
v 0.9 3.2 -2
v -0.8 3.6 -1.5
v -0.7 3.6 -1.5
v 0.7 3.6 -1.5
v 0.8 3.6 -1.5
v -0.8 3.6 -1.6
v -0.7 3.6 -1.6
v 0.7 3.6 -1.6
v 0.8 3.6 -1.6
v -0.8 3.6 -2
v -0.7 3.6 -2
v 0.7 3.6 -2
v 0.8 3.6 -2
v -0.7 3.7 -1.5
v -0.6 3.7 -1.5
v -0.3 3.7 -1.5
v -0.2 3.7 -1.5
v 0.2 3.7 -1.5
v 0.3 3.7 -1.5
v 0.6 3.7 -1.5
v 0.7 3.7 -1.5
v -0.7 3.7 -1.6
v -0.3 3.7 -1.6
v -0.2 3.7 -1.6
v 0.2 3.7 -1.6
v 0.3 3.7 -1.6
v 0.7 3.7 -1.6
v -0.7 3.7 -1.7
v -0.6 3.7 -1.7
v 0.6 3.7 -1.7
v 0.7 3.7 -1.7
v -0.7 3.7 -2
v 0.7 3.7 -2
v -1.6 3.2 -1.5
v -1.5 3.2 -1.5
v 1.5 3.2 -1.5
v 1.6 3.2 -1.5
v -1.6 3.2 -2
v -1.5 3.2 -2
v 1.5 3.2 -2
v 1.6 3.2 -2
v -0.8 3.4 -1.5
v -0.4 3.4 -1.5
v -0.3 3.4 -1.5
v 0.3 3.4 -1.5
v 0.4 3.4 -1.5
v 0.8 3.4 -1.5
v -0.8 3.4 -1.6
v -0.4 3.4 -1.6
v -0.3 3.4 -1.6
v 0.3 3.4 -1.6
v 0.4 3.4 -1.6
v 0.8 3.4 -1.6
v -1.5 3.5 -1.5
v -1.4 3.5 -1.5
v 1.4 3.5 -1.5
v 1.5 3.5 -1.5
v -1.5 3.5 -1.6
v -1.4 3.5 -1.6
v 1.4 3.5 -1.6
v 1.5 3.5 -1.6
v -1.5 3.5 -2
v -1.4 3.5 -2
v 1.4 3.5 -2
v 1.5 3.5 -2
v -1.4 3.7 -1.5
v -1.3 3.7 -1.5
v 1.3 3.7 -1.5
v 1.4 3.7 -1.5
v -1.4 3.7 -1.6
v -1.3 3.7 -1.6
v 1.3 3.7 -1.6
v 1.4 3.7 -1.6
v -1.4 3.7 -2
v -1.3 3.7 -2
v 1.3 3.7 -2
v 1.4 3.7 -2
v -1.3 3.9 -1.5
v -0.7 3.9 -1.5
v -0.6 3.9 -1.5
v -0.3 3.9 -1.5
v -0.2 3.9 -1.5
v 0.2 3.9 -1.5
v 0.3 3.9 -1.5
v 0.6 3.9 -1.5
v 0.7 3.9 -1.5
v 1.3 3.9 -1.5
v -0.3 3.9 -1.6
v -0.2 3.9 -1.6
v 0.2 3.9 -1.6
v 0.3 3.9 -1.6
v -0.7 3.9 -1.7
v -0.6 3.9 -1.7
v 0.6 3.9 -1.7
v 0.7 3.9 -1.7
v -1.3 3.9 -2
v 1.3 3.9 -2

# faces
f 3/3/1 2/3/1 1/3/1
f 4/3/1 2/3/1 3/3/1
f 5/4/1 4/4/1 3/4/1
f 6/3/1 2/3/1 4/3/1
f 6/4/1 4/4/1 5/4/1
f 7/3/1 6/3/1 5/3/1
f 8/3/1 2/3/1 6/3/1
f 8/3/1 6/3/1 7/3/1
f 9/4/1 8/4/1 7/4/1
f 10/3/1 2/3/1 8/3/1
f 10/4/1 8/4/1 9/4/1
f 11/3/1 10/3/1 9/3/1
f 12/3/1 2/3/1 10/3/1
f 12/3/1 10/3/1 11/3/1
f 13/4/1 12/4/1 11/4/1
f 14/3/1 2/3/1 12/3/1
f 14/4/1 12/4/1 13/4/1
f 15/3/1 14/3/1 13/3/1
f 16/3/1 2/3/1 14/3/1
f 16/3/1 14/3/1 15/3/1
f 17/4/1 16/4/1 15/4/1
f 18/3/1 2/3/1 16/3/1
f 18/4/1 16/4/1 17/4/1
f 19/3/1 18/3/1 17/3/1
f 20/3/1 2/3/1 18/3/1
f 20/3/1 18/3/1 19/3/1
f 21/4/1 20/4/1 19/4/1
f 22/3/1 2/3/1 20/3/1
f 22/4/1 20/4/1 21/4/1
f 23/3/1 22/3/1 21/3/1
f 24/3/1 2/3/1 22/3/1
f 24/3/1 22/3/1 23/3/1
f 25/4/1 24/4/1 23/4/1
f 26/3/1 2/3/1 24/3/1
f 26/4/1 24/4/1 25/4/1
f 27/3/1 26/3/1 25/3/1
f 28/3/1 2/3/1 26/3/1
f 28/3/1 26/3/1 27/3/1
f 29/4/1 28/4/1 27/4/1
f 30/3/1 2/3/1 28/3/1
f 30/4/1 28/4/1 29/4/1
f 31/3/1 30/3/1 29/3/1
f 32/3/1 2/3/1 30/3/1
f 32/3/1 30/3/1 31/3/1
f 35/3/1 34/3/1 33/3/1
f 36/3/1 34/3/1 35/3/1
f 37/4/1 36/4/1 35/4/1
f 38/3/1 34/3/1 36/3/1
f 38/4/1 36/4/1 37/4/1
f 39/3/1 34/3/1 38/3/1
f 43/3/1 41/3/1 40/3/1
f 43/3/1 42/3/1 41/3/1
f 44/3/1 42/3/1 43/3/1
f 45/4/1 44/4/1 43/4/1
f 46/3/1 42/3/1 44/3/1
f 46/4/1 44/4/1 45/4/1
f 47/3/1 42/3/1 46/3/1
f 51/3/1 49/3/1 48/3/1
f 51/3/1 50/3/1 49/3/1
f 52/3/1 50/3/1 51/3/1
f 56/4/1 54/4/1 53/4/1
f 57/3/1 55/3/1 54/3/1
f 57/4/1 54/4/1 56/4/1
f 58/3/1 55/3/1 57/3/1
f 59/3/1 55/3/1 58/3/1
f 63/3/1 61/3/1 60/3/1
f 64/4/1 63/4/1 62/4/1
f 65/3/1 61/3/1 63/3/1
f 65/4/1 63/4/1 64/4/1
f 66/3/1 65/3/1 64/3/1
f 67/3/1 61/3/1 65/3/1
f 67/3/1 65/3/1 66/3/1
f 68/3/1 61/3/1 67/3/1
f 71/3/1 70/3/1 69/3/1
f 72/3/1 70/3/1 71/3/1
f 73/3/2 74/3/2 75/3/2
f 75/3/2 74/3/2 76/3/2
f 77/3/2 78/3/2 80/3/2
f 79/4/2 80/4/2 81/4/2
f 80/3/2 78/3/2 82/3/2
f 81/4/2 80/4/2 82/4/2
f 81/3/2 82/3/2 83/3/2
f 82/3/2 78/3/2 84/3/2
f 83/3/2 82/3/2 84/3/2
f 84/3/2 78/3/2 85/3/2
f 86/4/2 87/4/2 89/4/2
f 87/3/2 88/3/2 90/3/2
f 89/4/2 87/4/2 90/4/2
f 90/3/2 88/3/2 91/3/2
f 91/3/2 88/3/2 92/3/2
f 93/3/2 94/3/2 96/3/2
f 94/3/2 95/3/2 96/3/2
f 96/3/2 95/3/2 97/3/2
f 98/3/2 99/3/2 101/3/2
f 99/3/2 100/3/2 101/3/2
f 101/3/2 100/3/2 102/3/2
f 101/4/2 102/4/2 103/4/2
f 102/3/2 100/3/2 104/3/2
f 103/4/2 102/4/2 104/4/2
f 104/3/2 100/3/2 105/3/2
f 106/3/2 107/3/2 108/3/2
f 108/3/2 107/3/2 109/3/2
f 108/4/2 109/4/2 110/4/2
f 109/3/2 107/3/2 111/3/2
f 110/4/2 109/4/2 111/4/2
f 111/3/2 107/3/2 112/3/2
f 113/3/2 114/3/2 115/3/2
f 115/3/2 114/3/2 116/3/2
f 115/4/2 116/4/2 117/4/2
f 116/3/2 114/3/2 118/3/2
f 117/4/2 116/4/2 118/4/2
f 117/3/2 118/3/2 119/3/2
f 118/3/2 114/3/2 120/3/2
f 119/3/2 118/3/2 120/3/2
f 119/4/2 120/4/2 121/4/2
f 120/3/2 114/3/2 122/3/2
f 121/4/2 120/4/2 122/4/2
f 121/3/2 122/3/2 123/3/2
f 122/3/2 114/3/2 124/3/2
f 123/3/2 122/3/2 124/3/2
f 123/4/2 124/4/2 125/4/2
f 124/3/2 114/3/2 126/3/2
f 125/4/2 124/4/2 126/4/2
f 125/3/2 126/3/2 127/3/2
f 126/3/2 114/3/2 128/3/2
f 127/3/2 126/3/2 128/3/2
f 127/4/2 128/4/2 129/4/2
f 128/3/2 114/3/2 130/3/2
f 129/4/2 128/4/2 130/4/2
f 129/3/2 130/3/2 131/3/2
f 130/3/2 114/3/2 132/3/2
f 131/3/2 130/3/2 132/3/2
f 131/4/2 132/4/2 133/4/2
f 132/3/2 114/3/2 134/3/2
f 133/4/2 132/4/2 134/4/2
f 133/3/2 134/3/2 135/3/2
f 134/3/2 114/3/2 136/3/2
f 135/3/2 134/3/2 136/3/2
f 135/4/2 136/4/2 137/4/2
f 136/3/2 114/3/2 138/3/2
f 137/4/2 136/4/2 138/4/2
f 137/3/2 138/3/2 139/3/2
f 138/3/2 114/3/2 140/3/2
f 139/3/2 138/3/2 140/3/2
f 139/4/2 140/4/2 141/4/2
f 140/3/2 114/3/2 142/3/2
f 141/4/2 140/4/2 142/4/2
f 141/3/2 142/3/2 143/3/2
f 142/3/2 114/3/2 144/3/2
f 143/3/2 142/3/2 144/3/2
f 161/4/3 147/4/3 146/4/3
f 161/3/3 148/3/3 147/3/3
f 162/4/3 149/4/3 148/4/3
f 162/3/3 148/3/3 161/3/3
f 163/4/3 155/4/3 154/4/3
f 163/3/3 156/3/3 155/3/3
f 164/4/3 157/4/3 156/4/3
f 164/3/3 156/3/3 163/3/3
f 165/4/3 159/4/3 158/4/3
f 166/4/3 159/4/3 165/4/3
f 167/3/3 160/3/3 159/3/3
f 170/4/3 161/4/3 146/4/3
f 170/4/3 162/4/3 161/4/3
f 171/4/3 149/4/3 162/4/3
f 171/4/3 162/4/3 170/4/3
f 172/4/3 163/4/3 154/4/3
f 172/4/3 164/4/3 163/4/3
f 173/4/3 157/4/3 164/4/3
f 173/4/3 164/4/3 172/4/3
f 174/4/3 169/4/3 168/4/3
f 177/3/3 150/3/3 149/3/3
f 177/4/3 149/4/3 171/4/3
f 178/4/3 151/4/3 150/4/3
f 178/3/3 150/3/3 177/3/3
f 179/4/3 153/4/3 152/4/3
f 179/3/3 154/3/3 153/3/3
f 180/4/3 172/4/3 154/4/3
f 180/3/3 154/3/3 179/3/3
f 181/4/3 176/4/3 175/4/3
f 183/3/3 146/3/3 145/3/3
f 184/4/3 170/4/3 146/4/3
f 184/3/3 146/3/3 183/3/3
f 185/4/3 177/4/3 171/4/3
f 185/4/3 178/4/3 177/4/3
f 186/4/3 151/4/3 178/4/3
f 186/4/3 178/4/3 185/4/3
f 187/4/3 179/4/3 152/4/3
f 187/4/3 180/4/3 179/4/3
f 188/4/3 172/4/3 180/4/3
f 188/4/3 180/4/3 187/4/3
f 189/4/3 157/4/3 173/4/3
f 189/3/3 158/3/3 157/3/3
f 190/4/3 165/4/3 158/4/3
f 190/3/3 158/3/3 189/3/3
f 191/4/3 184/4/3 183/4/3
f 192/4/3 170/4/3 184/4/3
f 192/4/3 184/4/3 191/4/3
f 193/4/3 151/4/3 186/4/3
f 193/3/3 152/3/3 151/3/3
f 194/4/3 187/4/3 152/4/3
f 194/3/3 152/3/3 193/3/3
f 195/4/3 189/4/3 173/4/3
f 195/4/3 190/4/3 189/4/3
f 196/4/3 165/4/3 190/4/3
f 196/4/3 190/4/3 195/4/3
f 197/4/3 159/4/3 166/4/3
f 197/3/3 168/3/3 167/3/3
f 197/3/3 167/3/3 159/3/3
f 198/4/3 174/4/3 168/4/3
f 198/3/3 168/3/3 197/3/3
f 199/4/3 193/4/3 186/4/3
f 199/4/3 194/4/3 193/4/3
f 200/4/3 187/4/3 194/4/3
f 200/4/3 194/4/3 199/4/3
f 201/4/3 198/4/3 197/4/3
f 201/4/3 197/4/3 166/4/3
f 202/4/3 174/4/3 198/4/3
f 202/4/3 198/4/3 201/4/3
f 203/3/3 192/3/3 191/3/3
f 204/4/3 170/4/3 192/4/3
f 204/3/3 192/3/3 203/3/3
f 205/3/3 171/3/3 170/3/3
f 205/4/3 170/4/3 204/4/3
f 206/4/3 185/4/3 171/4/3
f 206/3/3 171/3/3 205/3/3
f 207/3/3 186/3/3 185/3/3
f 207/4/3 185/4/3 206/4/3
f 208/4/3 199/4/3 186/4/3
f 208/3/3 186/3/3 207/3/3
f 209/3/3 200/3/3 199/3/3
f 209/4/3 199/4/3 208/4/3
f 210/4/3 187/4/3 200/4/3
f 210/3/3 200/3/3 209/3/3
f 211/3/3 188/3/3 187/3/3
f 211/4/3 187/4/3 210/4/3
f 212/4/3 172/4/3 188/4/3
f 212/3/3 188/3/3 211/3/3
f 213/3/3 173/3/3 172/3/3
f 213/4/3 172/4/3 212/4/3
f 214/4/3 195/4/3 173/4/3
f 214/3/3 173/3/3 213/3/3
f 215/3/3 196/3/3 195/3/3
f 215/4/3 195/4/3 214/4/3
f 216/4/3 165/4/3 196/4/3
f 216/3/3 196/3/3 215/3/3
f 217/3/3 166/3/3 165/3/3
f 217/4/3 165/4/3 216/4/3
f 218/4/3 201/4/3 166/4/3
f 218/3/3 166/3/3 217/3/3
f 219/3/3 202/3/3 201/3/3
f 219/4/3 201/4/3 218/4/3
f 220/3/3 202/3/3 219/3/3
f 221/2/3 215/2/3 214/2/3
f 221/3/3 202/3/3 220/3/3
f 221/2/3 220/2/3 219/2/3
f 221/2/3 219/2/3 218/2/3
f 221/2/3 218/2/3 217/2/3
f 221/2/3 211/2/3 210/2/3
f 221/2/3 206/2/3 205/2/3
f 221/2/3 208/2/3 207/2/3
f 221/2/3 212/2/3 211/2/3
f 221/2/3 209/2/3 208/2/3
f 221/2/3 216/2/3 215/2/3
f 221/2/3 207/2/3 206/2/3
f 221/2/3 204/2/3 203/2/3
f 221/2/3 210/2/3 209/2/3
f 221/2/3 217/2/3 216/2/3
f 221/2/3 214/2/3 213/2/3
f 221/2/3 205/2/3 204/2/3
f 221/2/3 213/2/3 212/2/3
f 222/4/3 174/4/3 202/4/3
f 222/3/3 202/3/3 221/3/3
f 223/3/3 175/3/3 174/3/3
f 223/4/3 174/4/3 222/4/3
f 224/4/3 181/4/3 175/4/3
f 224/3/3 175/3/3 223/3/3
f 225/4/3 181/4/3 224/4/3
f 226/3/3 182/3/3 181/3/3
f 226/4/3 181/4/3 225/4/3
f 227/3/3 182/3/3 226/3/3
f 228/4/3 227/4/3 226/4/3
f 229/4/3 227/4/3 228/4/3
f 230/2/3 221/2/3 203/2/3
f 230/2/3 222/2/3 221/2/3
f 231/2/3 222/2/3 230/2/3
f 232/1/3 231/1/3 230/1/3
f 233/1/3 231/1/3 232/1/3
f 234/3/3 229/3/3 228/3/3
f 235/3/3 229/3/3 234/3/3
f 236/4/3 235/4/3 234/4/3
f 237/4/3 235/4/3 236/4/3
f 238/3/3 237/3/3 236/3/3
f 239/3/3 237/3/3 238/3/3
f 240/2/3 233/2/3 232/2/3
f 241/2/3 233/2/3 240/2/3
f 242/4/3 239/4/3 238/4/3
f 243/4/3 239/4/3 242/4/3
f 244/1/3 241/1/3 240/1/3
f 245/1/3 241/1/3 244/1/3
f 246/3/3 243/3/3 242/3/3
f 247/3/3 243/3/3 246/3/3
f 249/4/3 247/4/3 246/4/3
f 250/4/3 247/4/3 249/4/3
f 251/2/3 245/2/3 244/2/3
f 252/2/3 245/2/3 251/2/3
f 254/4/3 249/4/3 248/4/3
f 255/2/3 251/2/3 244/2/3
f 256/2/3 251/2/3 255/2/3
f 257/2/3 251/2/3 256/2/3
f 258/2/3 251/2/3 257/2/3
f 259/2/3 251/2/3 258/2/3
f 260/2/3 251/2/3 259/2/3
f 261/2/3 251/2/3 260/2/3
f 262/2/3 251/2/3 261/2/3
f 263/2/3 251/2/3 262/2/3
f 264/2/3 251/2/3 263/2/3
f 265/2/3 251/2/3 264/2/3
f 266/2/3 251/2/3 265/2/3
f 267/2/3 251/2/3 266/2/3
f 268/2/3 251/2/3 267/2/3
f 269/2/3 251/2/3 268/2/3
f 270/2/3 251/2/3 269/2/3
f 271/2/3 251/2/3 270/2/3
f 272/3/3 252/3/3 251/3/3
f 272/2/3 251/2/3 271/2/3
f 273/4/3 261/4/3 260/4/3
f 273/3/3 262/3/3 261/3/3
f 274/4/3 263/4/3 262/4/3
f 274/3/3 262/3/3 273/3/3
f 275/4/3 271/4/3 270/4/3
f 275/3/3 272/3/3 271/3/3
f 276/4/3 253/4/3 252/4/3
f 276/3/3 272/3/3 275/3/3
f 276/3/3 252/3/3 272/3/3
f 277/3/3 256/3/3 255/3/3
f 278/4/3 257/4/3 256/4/3
f 278/3/3 256/3/3 277/3/3
f 279/4/3 274/4/3 273/4/3
f 279/4/3 273/4/3 260/4/3
f 280/4/3 263/4/3 274/4/3
f 280/4/3 274/4/3 279/4/3
f 281/4/3 267/4/3 266/4/3
f 281/3/3 268/3/3 267/3/3
f 282/4/3 269/4/3 268/4/3
f 282/3/3 268/3/3 281/3/3
f 283/4/3 275/4/3 270/4/3
f 283/4/3 276/4/3 275/4/3
f 284/4/3 253/4/3 276/4/3
f 284/4/3 276/4/3 283/4/3
f 285/4/3 278/4/3 277/4/3
f 286/4/3 257/4/3 278/4/3
f 286/4/3 278/4/3 285/4/3
f 287/4/3 259/4/3 258/4/3
f 287/3/3 260/3/3 259/3/3
f 288/4/3 279/4/3 260/4/3
f 288/3/3 260/3/3 287/3/3
f 289/3/3 264/3/3 263/3/3
f 289/4/3 263/4/3 280/4/3
f 290/4/3 265/4/3 264/4/3
f 290/3/3 264/3/3 289/3/3
f 291/4/3 281/4/3 266/4/3
f 291/4/3 282/4/3 281/4/3
f 292/4/3 269/4/3 282/4/3
f 292/4/3 282/4/3 291/4/3
f 293/4/3 287/4/3 258/4/3
f 293/4/3 288/4/3 287/4/3
f 294/4/3 279/4/3 288/4/3
f 294/4/3 288/4/3 293/4/3
f 295/4/3 289/4/3 280/4/3
f 295/4/3 290/4/3 289/4/3
f 296/4/3 265/4/3 290/4/3
f 296/4/3 290/4/3 295/4/3
f 297/3/3 250/3/3 249/3/3
f 297/4/3 249/4/3 254/4/3
f 298/3/3 250/3/3 297/3/3
f 299/3/3 258/3/3 257/3/3
f 299/4/3 257/4/3 286/4/3
f 300/4/3 293/4/3 258/4/3
f 300/3/3 258/3/3 299/3/3
f 301/4/3 265/4/3 296/4/3
f 301/3/3 266/3/3 265/3/3
f 302/4/3 291/4/3 266/4/3
f 302/3/3 266/3/3 301/3/3
f 303/3/3 254/3/3 253/3/3
f 303/4/3 253/4/3 284/4/3
f 304/4/3 297/4/3 254/4/3
f 304/3/3 254/3/3 303/3/3
f 305/4/3 297/4/3 304/4/3
f 306/4/3 299/4/3 286/4/3
f 306/4/3 300/4/3 299/4/3
f 307/4/3 293/4/3 300/4/3
f 307/4/3 300/4/3 306/4/3
f 308/4/3 301/4/3 296/4/3
f 308/4/3 302/4/3 301/4/3
f 309/4/3 291/4/3 302/4/3
f 309/4/3 302/4/3 308/4/3
f 310/4/3 269/4/3 292/4/3
f 310/3/3 270/3/3 269/3/3
f 311/4/3 283/4/3 270/4/3
f 311/3/3 270/3/3 310/3/3
f 312/3/3 284/3/3 283/3/3
f 313/4/3 303/4/3 284/4/3
f 313/3/3 284/3/3 312/3/3
f 314/4/3 303/4/3 313/4/3
f 315/3/3 286/3/3 285/3/3
f 316/4/3 306/4/3 286/4/3
f 316/3/3 286/3/3 315/3/3
f 317/3/3 307/3/3 306/3/3
f 317/4/3 306/4/3 316/4/3
f 318/4/3 293/4/3 307/4/3
f 318/3/3 307/3/3 317/3/3
f 319/3/3 294/3/3 293/3/3
f 319/4/3 293/4/3 318/4/3
f 320/4/3 279/4/3 294/4/3
f 320/3/3 294/3/3 319/3/3
f 321/3/3 280/3/3 279/3/3
f 321/4/3 279/4/3 320/4/3
f 322/4/3 295/4/3 280/4/3
f 322/3/3 280/3/3 321/3/3
f 323/3/3 296/3/3 295/3/3
f 323/4/3 295/4/3 322/4/3
f 324/4/3 308/4/3 296/4/3
f 324/3/3 296/3/3 323/3/3
f 325/3/3 309/3/3 308/3/3
f 325/4/3 308/4/3 324/4/3
f 326/4/3 291/4/3 309/4/3
f 326/3/3 309/3/3 325/3/3
f 327/3/3 292/3/3 291/3/3
f 327/4/3 291/4/3 326/4/3
f 328/4/3 310/4/3 292/4/3
f 328/3/3 292/3/3 327/3/3
f 328/4/3 311/4/3 310/4/3
f 329/3/3 312/3/3 283/3/3
f 329/4/3 311/4/3 328/4/3
f 329/4/3 283/4/3 311/4/3
f 330/3/3 312/3/3 329/3/3
f 331/2/4 332/2/4 333/2/4
f 331/2/4 333/2/4 335/2/4
f 333/2/4 334/2/4 335/2/4
f 335/2/4 334/2/4 336/2/4
f 335/1/4 336/1/4 337/1/4
f 337/1/4 336/1/4 338/1/4
f 337/2/4 338/2/4 339/2/4
f 339/2/4 338/2/4 340/2/4
f 339/1/4 340/1/4 341/1/4
f 341/1/4 340/1/4 342/1/4
f 341/2/4 342/2/4 343/2/4
f 343/2/4 342/2/4 344/2/4
f 341/2/4 343/2/4 345/2/4
f 345/2/4 343/2/4 346/2/4
f 347/3/4 348/3/4 349/3/4
f 349/3/4 350/3/4 351/3/4
f 351/3/4 352/3/4 353/3/4
f 347/3/4 349/3/4 355/3/4
f 353/3/4 354/3/4 355/3/4
f 351/3/4 353/3/4 355/3/4
f 349/3/4 351/3/4 355/3/4
f 355/3/4 354/3/4 356/3/4
f 356/3/4 354/3/4 357/3/4
f 357/3/4 354/3/4 358/3/4
f 358/3/4 354/3/4 359/3/4
f 359/3/4 354/3/4 360/3/4
f 360/3/4 354/3/4 362/3/4
f 361/3/4 362/3/4 364/3/4
f 363/3/4 364/3/4 366/3/4
f 362/3/4 354/3/4 367/3/4
f 365/3/4 366/3/4 367/3/4
f 366/3/4 364/3/4 367/3/4
f 364/3/4 362/3/4 367/3/4
f 367/3/4 354/3/4 368/3/4
f 365/3/4 367/3/4 369/3/4
f 369/3/4 367/3/4 370/3/4
f 365/3/4 369/3/4 371/3/4
f 371/3/4 369/3/4 372/3/4
f 365/3/4 371/3/4 373/3/4
f 373/3/4 371/3/4 374/3/4
f 387/3/5 376/3/5 375/3/5
f 387/4/5 377/4/5 376/4/5
f 388/3/5 378/3/5 377/3/5
f 388/4/5 377/4/5 387/4/5
f 389/2/5 379/2/5 378/2/5
f 389/3/5 378/3/5 388/3/5
f 390/1/5 380/1/5 379/1/5
f 390/2/5 379/2/5 389/2/5
f 391/2/5 381/2/5 380/2/5
f 391/1/5 380/1/5 390/1/5
f 392/1/5 382/1/5 381/1/5
f 392/2/5 381/2/5 391/2/5
f 393/2/5 383/2/5 382/2/5
f 393/1/5 382/1/5 392/1/5
f 394/3/5 384/3/5 383/3/5
f 394/2/5 383/2/5 393/2/5
f 395/4/5 385/4/5 384/4/5
f 395/3/5 384/3/5 394/3/5
f 396/3/5 386/3/5 385/3/5
f 396/4/5 385/4/5 395/4/5
f 397/3/5 387/3/5 375/3/5
f 397/3/5 388/3/5 387/3/5
f 397/3/5 389/3/5 388/3/5
f 398/3/5 389/3/5 397/3/5
f 399/3/5 395/3/5 394/3/5
f 399/3/5 396/3/5 395/3/5
f 400/3/5 386/3/5 396/3/5
f 400/3/5 396/3/5 399/3/5
f 405/3/5 402/3/5 401/3/5
f 406/3/5 402/3/5 405/3/5
f 407/3/5 404/3/5 403/3/5
f 408/3/5 404/3/5 407/3/5
f 413/4/5 410/4/5 409/4/5
f 414/4/5 410/4/5 413/4/5
f 415/4/5 412/4/5 411/4/5
f 416/4/5 412/4/5 415/4/5
f 417/3/5 414/3/5 413/3/5
f 418/3/5 414/3/5 417/3/5
f 419/3/5 416/3/5 415/3/5
f 420/3/5 416/3/5 419/3/5
f 429/4/5 422/4/5 421/4/5
f 430/3/5 423/3/5 422/3/5
f 430/4/5 424/4/5 423/4/5
f 431/3/5 425/3/5 424/3/5
f 431/4/5 424/4/5 430/4/5
f 432/4/5 426/4/5 425/4/5
f 432/3/5 425/3/5 431/3/5
f 433/3/5 427/3/5 426/3/5
f 433/4/5 426/4/5 432/4/5
f 434/4/5 428/4/5 427/4/5
f 435/4/5 422/4/5 429/4/5
f 436/3/5 430/3/5 422/3/5
f 436/4/5 422/4/5 435/4/5
f 436/3/5 431/3/5 430/3/5
f 436/3/5 432/3/5 431/3/5
f 436/3/5 433/3/5 432/3/5
f 437/3/5 427/3/5 433/3/5
f 437/3/5 433/3/5 436/3/5
f 437/4/5 434/4/5 427/4/5
f 438/4/5 434/4/5 437/4/5
f 439/3/5 436/3/5 435/3/5
f 439/3/5 437/3/5 436/3/5
f 439/3/5 438/3/5 437/3/5
f 440/3/5 438/3/5 439/3/5
f 441/3/6 442/3/6 445/3/6
f 445/3/6 442/3/6 446/3/6
f 443/3/6 444/3/6 447/3/6
f 447/3/6 444/3/6 448/3/6
f 449/2/6 450/2/6 455/2/6
f 450/1/6 451/1/6 456/1/6
f 455/2/6 450/2/6 456/2/6
f 451/2/6 452/2/6 457/2/6
f 456/1/6 451/1/6 457/1/6
f 452/1/6 453/1/6 458/1/6
f 457/2/6 452/2/6 458/2/6
f 453/2/6 454/2/6 459/2/6
f 458/1/6 453/1/6 459/1/6
f 459/2/6 454/2/6 460/2/6
f 461/4/6 462/4/6 465/4/6
f 465/4/6 462/4/6 466/4/6
f 463/4/6 464/4/6 467/4/6
f 467/4/6 464/4/6 468/4/6
f 465/3/6 466/3/6 469/3/6
f 469/3/6 466/3/6 470/3/6
f 467/3/6 468/3/6 471/3/6
f 471/3/6 468/3/6 472/3/6
f 473/4/6 474/4/6 477/4/6
f 477/4/6 474/4/6 478/4/6
f 475/4/6 476/4/6 479/4/6
f 479/4/6 476/4/6 480/4/6
f 477/3/6 478/3/6 481/3/6
f 481/3/6 478/3/6 482/3/6
f 479/3/6 480/3/6 483/3/6
f 483/3/6 480/3/6 484/3/6
f 487/3/6 488/3/6 495/3/6
f 488/4/6 489/4/6 495/4/6
f 489/3/6 490/3/6 496/3/6
f 495/4/6 489/4/6 496/4/6
f 490/4/6 491/4/6 497/4/6
f 496/3/6 490/3/6 497/3/6
f 491/3/6 492/3/6 498/3/6
f 497/4/6 491/4/6 498/4/6
f 485/3/6 486/3/6 499/3/6
f 486/4/6 487/4/6 499/4/6
f 497/3/6 498/3/6 500/3/6
f 499/4/6 487/4/6 500/4/6
f 487/3/6 495/3/6 500/3/6
f 496/3/6 497/3/6 500/3/6
f 495/3/6 496/3/6 500/3/6
f 498/3/6 492/3/6 501/3/6
f 500/3/6 498/3/6 501/3/6
f 492/4/6 493/4/6 501/4/6
f 493/3/6 494/3/6 502/3/6
f 501/4/6 493/4/6 502/4/6
f 499/3/6 500/3/6 503/3/6
f 485/3/6 499/3/6 503/3/6
f 501/3/6 502/3/6 503/3/6
f 500/3/6 501/3/6 503/3/6
f 502/3/6 494/3/6 504/3/6
f 503/3/6 502/3/6 504/3/6
