# MagicaVoxel @ Ephtracy

# group
o 

# material
mtllib untitled.mtl
usemtl palette

# normals
vn -1 0 0
vn 1 0 0
vn 0 0 1
vn 0 0 -1
vn 0 -1 0
vn 0 1 0

# texcoords
vt 0.0410156 0.5
vt 0.0644531 0.5
vt 0.548828 0.5
vt 0.845703 0.5
vt 0.896484 0.5
vt 0.919922 0.5
vt 0.931641 0.5
vt 0.958984 0.5
vt 0.970703 0.5

# verts
v -2 0 11.8
v -2 0 -2
v -2 2.9 8.1
v -2 2.9 7.6
v -2 2.9 6.5
v -2 2.9 6.1
v -2 3 8.4
v -2 3 8.1
v -2 3 7.6
v -2 3 7.5
v -2 3 6.8
v -2 3 6.5
v -2 3 6.1
v -2 3 5.9
v -2 3.1 8.5
v -2 3.1 8.4
v -2 3.1 6.9
v -2 3.1 6.8
v -2 3.1 5.9
v -2 3.1 5.8
v -2 3.2 8.5
v -2 3.2 8.3
v -2 3.2 8.2
v -2 3.2 8.1
v -2 3.2 8
v -2 3.2 7.7
v -2 3.2 7.6
v -2 3.2 7.5
v -2 3.2 6.9
v -2 3.2 6.8
v -2 3.2 6.7
v -2 3.2 6.6
v -2 3.2 6.5
v -2 3.2 6.4
v -2 3.2 6
v -2 3.2 5.8
v -2 3.3 8.3
v -2 3.3 8.2
v -2 3.3 8
v -2 3.3 7.9
v -2 3.3 7.8
v -2 3.3 7.7
v -2 3.3 7.5
v -2 3.3 7.4
v -2 3.3 7
v -2 3.3 6.9
v -2 3.3 6.4
v -2 3.3 6.3
v -2 3.3 6.2
v -2 3.3 6
v -2 3.4 7.6
v -2 3.4 7.4
v -2 3.4 7
v -2 3.4 6.8
v -2 3.5 8.2
v -2 3.5 8.1
v -2 3.5 8
v -2 3.5 7.9
v -2 3.5 7.8
v -2 3.5 7.7
v -2 3.5 7.4
v -2 3.5 7
v -2 3.5 6.7
v -2 3.5 6.6
v -2 3.5 6.5
v -2 3.5 6.4
v -2 3.5 6.3
v -2 3.5 6.2
v -2 3.6 7.8
v -2 3.6 7.7
v -2 3.6 7.4
v -2 3.6 7
v -2 3.6 6.7
v -2 3.6 6.6
v -2 3.7 8.1
v -2 3.7 8
v -2 3.7 7.9
v -2 3.7 7.7
v -2 3.7 7.4
v -2 3.7 7
v -2 3.7 6.7
v -2 3.7 6.5
v -2 3.7 6.4
v -2 3.7 6.3
v -2 3.8 8
v -2 3.8 7.9
v -2 3.8 7.7
v -2 3.8 7.4
v -2 3.8 7
v -2 3.8 6.7
v -2 3.8 6.5
v -2 3.8 6.4
v -2 3.9 7.9
v -2 3.9 7.7
v -2 3.9 7.4
v -2 3.9 7
v -2 3.9 6.7
v -2 3.9 6.5
v -2 4 7.7
v -2 4 7.4
v -2 4 7
v -2 4 6.7
v -2 4.1 7.4
v -2 4.1 7
v -2 7.5 11.8
v -2 7.5 -2
v 13 0.1 11.7
v 13 0.1 -1.9
v 13 7.4 11.7
v 13 7.4 11.5
v 13 7.5 11.5
v 13 7.5 -1.9
v -1.9 0.1 11.7
v -1.9 0.1 -1.9
v -1.9 2.9 8.1
v -1.9 2.9 7.6
v -1.9 2.9 6.5
v -1.9 2.9 6.1
v -1.9 3 8.4
v -1.9 3 8.1
v -1.9 3 7.6
v -1.9 3 7.5
v -1.9 3 6.8
v -1.9 3 6.5
v -1.9 3 6.1
v -1.9 3 5.9
v -1.9 3.1 8.5
v -1.9 3.1 8.4
v -1.9 3.1 6.9
v -1.9 3.1 6.8
v -1.9 3.1 5.9
v -1.9 3.1 5.8
v -1.9 3.2 8.5
v -1.9 3.2 8.3
v -1.9 3.2 8.2
v -1.9 3.2 8.1
v -1.9 3.2 8
v -1.9 3.2 7.7
v -1.9 3.2 7.6
v -1.9 3.2 7.5
v -1.9 3.2 6.9
v -1.9 3.2 6.8
v -1.9 3.2 6.7
v -1.9 3.2 6.6
v -1.9 3.2 6.5
v -1.9 3.2 6.4
v -1.9 3.2 6
v -1.9 3.2 5.8
v -1.9 3.3 8.3
v -1.9 3.3 8.2
v -1.9 3.3 8
v -1.9 3.3 7.9
v -1.9 3.3 7.8
v -1.9 3.3 7.7
v -1.9 3.3 7.5
v -1.9 3.3 7.4
v -1.9 3.3 7
v -1.9 3.3 6.9
v -1.9 3.3 6.4
v -1.9 3.3 6.3
v -1.9 3.3 6.2
v -1.9 3.3 6
v -1.9 3.4 7.6
v -1.9 3.4 7.4
v -1.9 3.4 7
v -1.9 3.4 6.8
v -1.9 3.5 8.2
v -1.9 3.5 8.1
v -1.9 3.5 8
v -1.9 3.5 7.9
v -1.9 3.5 7.8
v -1.9 3.5 7.7
v -1.9 3.5 7.4
v -1.9 3.5 7
v -1.9 3.5 6.7
v -1.9 3.5 6.6
v -1.9 3.5 6.5
v -1.9 3.5 6.4
v -1.9 3.5 6.3
v -1.9 3.5 6.2
v -1.9 3.6 7.8
v -1.9 3.6 7.7
v -1.9 3.6 7.4
v -1.9 3.6 7
v -1.9 3.6 6.7
v -1.9 3.6 6.6
v -1.9 3.7 8.1
v -1.9 3.7 8
v -1.9 3.7 7.9
v -1.9 3.7 7.7
v -1.9 3.7 7.4
v -1.9 3.7 7
v -1.9 3.7 6.7
v -1.9 3.7 6.5
v -1.9 3.7 6.4
v -1.9 3.7 6.3
v -1.9 3.8 8
v -1.9 3.8 7.9
v -1.9 3.8 7.7
v -1.9 3.8 7.4
v -1.9 3.8 7
v -1.9 3.8 6.7
v -1.9 3.8 6.5
v -1.9 3.8 6.4
v -1.9 3.9 7.9
v -1.9 3.9 7.7
v -1.9 3.9 7.4
v -1.9 3.9 7
v -1.9 3.9 6.7
v -1.9 3.9 6.5
v -1.9 4 7.7
v -1.9 4 7.4
v -1.9 4 7
v -1.9 4 6.7
v -1.9 4.1 7.4
v -1.9 4.1 7
v -1.9 7.4 11.7
v -1.9 7.4 11.5
v -1.9 7.5 11.5
v -1.9 7.5 -1.9
v 13 0 -1.8
v 13 0 -1.9
v 13 0.1 -1.8
v 13 0.1 -1.9
v 13.1 0 11.8
v 13.1 0 -1.8
v 13.1 0 -1.9
v 13.1 0 -2
v 13.1 0.1 -1.8
v 13.1 0.1 -1.9
v 13.1 7.5 11.8
v 13.1 7.5 -2
v -2 0 11.8
v -2 7.5 11.8
v 13.1 0 11.8
v 13.1 7.5 11.8
v -1.9 0.1 -1.9
v -1.9 7.5 -1.9
v 13 0 -1.9
v 13 0.1 -1.9
v 13 7.5 -1.9
v 13.1 0 -1.9
v 13.1 0.1 -1.9
v -1.9 0.1 11.7
v -1.9 7.4 11.7
v 13 0.1 11.7
v 13 7.4 11.7
v -1.9 7.4 11.5
v -1.9 7.5 11.5
v 13 7.4 11.5
v 13 7.5 11.5
v 13 0 -1.8
v 13 0.1 -1.8
v 13.1 0 -1.8
v 13.1 0.1 -1.8
v -2 0 -2
v -2 7.5 -2
v 13.1 0 -2
v 13.1 7.5 -2
v -2 0 11.8
v 13.1 0 11.8
v 13 0 -1.8
v 13.1 0 -1.8
v 13 0 -1.9
v 13.1 0 -1.9
v -2 0 -2
v 13.1 0 -2
v 13 0.1 -1.8
v 13.1 0.1 -1.8
v 13 0.1 -1.9
v 13.1 0.1 -1.9
v -1.9 7.4 11.7
v 13 7.4 11.7
v -1.9 7.4 11.5
v 13 7.4 11.5
v -1.9 0.1 11.7
v 13 0.1 11.7
v -1.9 0.1 -1.9
v 13 0.1 -1.9
v -2 7.5 11.8
v 13.1 7.5 11.8
v -1.9 7.5 11.5
v 13 7.5 11.5
v -1.9 7.5 -1.9
v 13 7.5 -1.9
v -2 7.5 -2
v 13.1 7.5 -2

# faces
f 3/9/1 2/9/1 1/9/1
f 4/9/1 2/9/1 3/9/1
f 5/9/1 2/9/1 4/9/1
f 6/9/1 2/9/1 5/9/1
f 7/9/1 3/9/1 1/9/1
f 8/8/1 4/8/1 3/8/1
f 8/9/1 3/9/1 7/9/1
f 9/9/1 5/9/1 4/9/1
f 9/8/1 4/8/1 8/8/1
f 10/9/1 5/9/1 9/9/1
f 11/9/1 5/9/1 10/9/1
f 12/8/1 6/8/1 5/8/1
f 12/9/1 5/9/1 11/9/1
f 13/9/1 2/9/1 6/9/1
f 13/8/1 6/8/1 12/8/1
f 14/9/1 2/9/1 13/9/1
f 15/9/1 7/9/1 1/9/1
f 16/8/1 8/8/1 7/8/1
f 16/9/1 7/9/1 15/9/1
f 16/8/1 9/8/1 8/8/1
f 16/8/1 10/8/1 9/8/1
f 17/9/1 11/9/1 10/9/1
f 18/8/1 12/8/1 11/8/1
f 18/9/1 11/9/1 17/9/1
f 18/8/1 14/8/1 13/8/1
f 18/8/1 13/8/1 12/8/1
f 19/9/1 2/9/1 14/9/1
f 19/8/1 14/8/1 18/8/1
f 20/9/1 2/9/1 19/9/1
f 21/9/1 15/9/1 1/9/1
f 21/8/1 16/8/1 15/8/1
f 22/8/1 10/8/1 16/8/1
f 22/8/1 16/8/1 21/8/1
f 23/8/1 10/8/1 22/8/1
f 24/8/1 10/8/1 23/8/1
f 25/8/1 10/8/1 24/8/1
f 26/8/1 10/8/1 25/8/1
f 27/8/1 10/8/1 26/8/1
f 28/9/1 17/9/1 10/9/1
f 28/8/1 10/8/1 27/8/1
f 29/8/1 18/8/1 17/8/1
f 29/9/1 17/9/1 28/9/1
f 29/8/1 20/8/1 19/8/1
f 29/8/1 19/8/1 18/8/1
f 30/8/1 20/8/1 29/8/1
f 31/8/1 20/8/1 30/8/1
f 32/8/1 20/8/1 31/8/1
f 33/8/1 20/8/1 32/8/1
f 34/8/1 20/8/1 33/8/1
f 35/8/1 20/8/1 34/8/1
f 36/9/1 2/9/1 20/9/1
f 36/8/1 20/8/1 35/8/1
f 37/9/1 22/9/1 21/9/1
f 37/8/1 23/8/1 22/8/1
f 38/4/1 24/4/1 23/4/1
f 38/8/1 23/8/1 37/8/1
f 39/8/1 26/8/1 25/8/1
f 39/2/1 25/2/1 24/2/1
f 40/8/1 26/8/1 39/8/1
f 41/8/1 26/8/1 40/8/1
f 42/7/1 27/7/1 26/7/1
f 42/8/1 26/8/1 41/8/1
f 43/3/1 28/3/1 27/3/1
f 43/9/1 29/9/1 28/9/1
f 44/9/1 29/9/1 43/9/1
f 45/9/1 29/9/1 44/9/1
f 46/3/1 30/3/1 29/3/1
f 46/9/1 29/9/1 45/9/1
f 47/8/1 35/8/1 34/8/1
f 47/1/1 34/1/1 33/1/1
f 48/8/1 35/8/1 47/8/1
f 49/8/1 35/8/1 48/8/1
f 50/9/1 36/9/1 35/9/1
f 50/8/1 35/8/1 49/8/1
f 51/7/1 27/7/1 42/7/1
f 51/3/1 43/3/1 27/3/1
f 51/3/1 44/3/1 43/3/1
f 52/9/1 45/9/1 44/9/1
f 52/3/1 44/3/1 51/3/1
f 53/3/1 46/3/1 45/3/1
f 53/9/1 45/9/1 52/9/1
f 54/3/1 30/3/1 46/3/1
f 54/3/1 46/3/1 53/3/1
f 54/7/1 31/7/1 30/7/1
f 55/4/1 24/4/1 38/4/1
f 55/9/1 38/9/1 37/9/1
f 56/2/1 39/2/1 24/2/1
f 56/4/1 24/4/1 55/4/1
f 57/1/1 40/1/1 39/1/1
f 57/2/1 39/2/1 56/2/1
f 58/5/1 41/5/1 40/5/1
f 58/1/1 40/1/1 57/1/1
f 59/6/1 42/6/1 41/6/1
f 59/5/1 41/5/1 58/5/1
f 60/7/1 51/7/1 42/7/1
f 60/6/1 42/6/1 59/6/1
f 60/7/1 52/7/1 51/7/1
f 61/3/1 53/3/1 52/3/1
f 61/7/1 52/7/1 60/7/1
f 62/7/1 54/7/1 53/7/1
f 62/3/1 53/3/1 61/3/1
f 63/7/1 31/7/1 54/7/1
f 63/7/1 54/7/1 62/7/1
f 63/6/1 32/6/1 31/6/1
f 64/5/1 33/5/1 32/5/1
f 64/6/1 32/6/1 63/6/1
f 65/1/1 47/1/1 33/1/1
f 65/5/1 33/5/1 64/5/1
f 66/2/1 48/2/1 47/2/1
f 66/1/1 47/1/1 65/1/1
f 67/4/1 49/4/1 48/4/1
f 67/2/1 48/2/1 66/2/1
f 68/9/1 50/9/1 49/9/1
f 68/4/1 49/4/1 67/4/1
f 69/5/1 60/5/1 59/5/1
f 69/1/1 59/1/1 58/1/1
f 70/6/1 61/6/1 60/6/1
f 70/5/1 60/5/1 69/5/1
f 71/7/1 62/7/1 61/7/1
f 71/6/1 61/6/1 70/6/1
f 72/6/1 63/6/1 62/6/1
f 72/7/1 62/7/1 71/7/1
f 73/5/1 64/5/1 63/5/1
f 73/6/1 63/6/1 72/6/1
f 74/1/1 65/1/1 64/1/1
f 74/5/1 64/5/1 73/5/1
f 75/4/1 57/4/1 56/4/1
f 75/9/1 56/9/1 55/9/1
f 76/2/1 58/2/1 57/2/1
f 76/4/1 57/4/1 75/4/1
f 77/1/1 70/1/1 69/1/1
f 77/2/1 58/2/1 76/2/1
f 77/1/1 69/1/1 58/1/1
f 78/5/1 71/5/1 70/5/1
f 78/1/1 70/1/1 77/1/1
f 79/6/1 72/6/1 71/6/1
f 79/5/1 71/5/1 78/5/1
f 80/5/1 73/5/1 72/5/1
f 80/6/1 72/6/1 79/6/1
f 81/1/1 74/1/1 73/1/1
f 81/5/1 73/5/1 80/5/1
f 82/1/1 65/1/1 74/1/1
f 82/1/1 74/1/1 81/1/1
f 82/2/1 66/2/1 65/2/1
f 83/4/1 67/4/1 66/4/1
f 83/2/1 66/2/1 82/2/1
f 84/9/1 68/9/1 67/9/1
f 84/4/1 67/4/1 83/4/1
f 85/9/1 76/9/1 75/9/1
f 85/4/1 77/4/1 76/4/1
f 86/2/1 78/2/1 77/2/1
f 86/4/1 77/4/1 85/4/1
f 87/1/1 79/1/1 78/1/1
f 87/2/1 78/2/1 86/2/1
f 88/5/1 80/5/1 79/5/1
f 88/1/1 79/1/1 87/1/1
f 89/1/1 81/1/1 80/1/1
f 89/5/1 80/5/1 88/5/1
f 90/2/1 82/2/1 81/2/1
f 90/1/1 81/1/1 89/1/1
f 91/4/1 83/4/1 82/4/1
f 91/2/1 82/2/1 90/2/1
f 92/9/1 84/9/1 83/9/1
f 92/4/1 83/4/1 91/4/1
f 93/4/1 87/4/1 86/4/1
f 93/9/1 86/9/1 85/9/1
f 94/2/1 88/2/1 87/2/1
f 94/4/1 87/4/1 93/4/1
f 95/1/1 89/1/1 88/1/1
f 95/2/1 88/2/1 94/2/1
f 96/2/1 90/2/1 89/2/1
f 96/1/1 89/1/1 95/1/1
f 97/4/1 91/4/1 90/4/1
f 97/2/1 90/2/1 96/2/1
f 98/9/1 92/9/1 91/9/1
f 98/4/1 91/4/1 97/4/1
f 99/4/1 95/4/1 94/4/1
f 99/9/1 94/9/1 93/9/1
f 100/2/1 96/2/1 95/2/1
f 100/4/1 95/4/1 99/4/1
f 101/4/1 97/4/1 96/4/1
f 101/2/1 96/2/1 100/2/1
f 102/9/1 98/9/1 97/9/1
f 102/4/1 97/4/1 101/4/1
f 103/4/1 101/4/1 100/4/1
f 103/9/1 100/9/1 99/9/1
f 104/9/1 102/9/1 101/9/1
f 104/4/1 101/4/1 103/4/1
f 105/9/1 93/9/1 85/9/1
f 105/9/1 21/9/1 1/9/1
f 105/9/1 104/9/1 103/9/1
f 105/9/1 103/9/1 99/9/1
f 105/9/1 99/9/1 93/9/1
f 105/9/1 55/9/1 37/9/1
f 105/9/1 85/9/1 75/9/1
f 105/9/1 37/9/1 21/9/1
f 105/9/1 75/9/1 55/9/1
f 106/9/1 102/9/1 104/9/1
f 106/9/1 104/9/1 105/9/1
f 106/9/1 36/9/1 50/9/1
f 106/9/1 92/9/1 98/9/1
f 106/9/1 2/9/1 36/9/1
f 106/9/1 84/9/1 92/9/1
f 106/9/1 68/9/1 84/9/1
f 106/9/1 98/9/1 102/9/1
f 106/9/1 50/9/1 68/9/1
f 109/9/1 108/9/1 107/9/1
f 110/9/1 108/9/1 109/9/1
f 111/9/1 108/9/1 110/9/1
f 112/9/1 108/9/1 111/9/1
f 113/9/2 114/9/2 115/9/2
f 115/9/2 114/9/2 116/9/2
f 116/9/2 114/9/2 117/9/2
f 117/9/2 114/9/2 118/9/2
f 113/9/2 115/9/2 119/9/2
f 115/8/2 116/8/2 120/8/2
f 119/9/2 115/9/2 120/9/2
f 116/9/2 117/9/2 121/9/2
f 120/8/2 116/8/2 121/8/2
f 121/9/2 117/9/2 122/9/2
f 122/9/2 117/9/2 123/9/2
f 117/8/2 118/8/2 124/8/2
f 123/9/2 117/9/2 124/9/2
f 118/9/2 114/9/2 125/9/2
f 124/8/2 118/8/2 125/8/2
f 125/9/2 114/9/2 126/9/2
f 113/9/2 119/9/2 127/9/2
f 119/8/2 120/8/2 128/8/2
f 127/9/2 119/9/2 128/9/2
f 120/8/2 121/8/2 128/8/2
f 121/8/2 122/8/2 128/8/2
f 122/9/2 123/9/2 129/9/2
f 123/8/2 124/8/2 130/8/2
f 129/9/2 123/9/2 130/9/2
f 125/8/2 126/8/2 130/8/2
f 124/8/2 125/8/2 130/8/2
f 126/9/2 114/9/2 131/9/2
f 130/8/2 126/8/2 131/8/2
f 131/9/2 114/9/2 132/9/2
f 113/9/2 127/9/2 133/9/2
f 127/8/2 128/8/2 133/8/2
f 128/8/2 122/8/2 134/8/2
f 133/8/2 128/8/2 134/8/2
f 134/8/2 122/8/2 135/8/2
f 135/8/2 122/8/2 136/8/2
f 136/8/2 122/8/2 137/8/2
f 137/8/2 122/8/2 138/8/2
f 138/8/2 122/8/2 139/8/2
f 122/9/2 129/9/2 140/9/2
f 139/8/2 122/8/2 140/8/2
f 129/8/2 130/8/2 141/8/2
f 140/9/2 129/9/2 141/9/2
f 131/8/2 132/8/2 141/8/2
f 130/8/2 131/8/2 141/8/2
f 141/8/2 132/8/2 142/8/2
f 142/8/2 132/8/2 143/8/2
f 143/8/2 132/8/2 144/8/2
f 144/8/2 132/8/2 145/8/2
f 145/8/2 132/8/2 146/8/2
f 146/8/2 132/8/2 147/8/2
f 132/9/2 114/9/2 148/9/2
f 147/8/2 132/8/2 148/8/2
f 133/9/2 134/9/2 149/9/2
f 134/8/2 135/8/2 149/8/2
f 135/4/2 136/4/2 150/4/2
f 149/8/2 135/8/2 150/8/2
f 137/8/2 138/8/2 151/8/2
f 136/2/2 137/2/2 151/2/2
f 151/8/2 138/8/2 152/8/2
f 152/8/2 138/8/2 153/8/2
f 138/7/2 139/7/2 154/7/2
f 153/8/2 138/8/2 154/8/2
f 139/3/2 140/3/2 155/3/2
f 140/9/2 141/9/2 155/9/2
f 155/9/2 141/9/2 156/9/2
f 156/9/2 141/9/2 157/9/2
f 141/3/2 142/3/2 158/3/2
f 157/9/2 141/9/2 158/9/2
f 146/8/2 147/8/2 159/8/2
f 145/1/2 146/1/2 159/1/2
f 159/8/2 147/8/2 160/8/2
f 160/8/2 147/8/2 161/8/2
f 147/9/2 148/9/2 162/9/2
f 161/8/2 147/8/2 162/8/2
f 154/7/2 139/7/2 163/7/2
f 139/3/2 155/3/2 163/3/2
f 155/3/2 156/3/2 163/3/2
f 156/9/2 157/9/2 164/9/2
f 163/3/2 156/3/2 164/3/2
f 157/3/2 158/3/2 165/3/2
f 164/9/2 157/9/2 165/9/2
f 158/3/2 142/3/2 166/3/2
f 165/3/2 158/3/2 166/3/2
f 142/7/2 143/7/2 166/7/2
f 150/4/2 136/4/2 167/4/2
f 149/9/2 150/9/2 167/9/2
f 136/2/2 151/2/2 168/2/2
f 167/4/2 136/4/2 168/4/2
f 151/1/2 152/1/2 169/1/2
f 168/2/2 151/2/2 169/2/2
f 152/5/2 153/5/2 170/5/2
f 169/1/2 152/1/2 170/1/2
f 153/6/2 154/6/2 171/6/2
f 170/5/2 153/5/2 171/5/2
f 154/7/2 163/7/2 172/7/2
f 171/6/2 154/6/2 172/6/2
f 163/7/2 164/7/2 172/7/2
f 164/3/2 165/3/2 173/3/2
f 172/7/2 164/7/2 173/7/2
f 165/7/2 166/7/2 174/7/2
f 173/3/2 165/3/2 174/3/2
f 166/7/2 143/7/2 175/7/2
f 174/7/2 166/7/2 175/7/2
f 143/6/2 144/6/2 175/6/2
f 144/5/2 145/5/2 176/5/2
f 175/6/2 144/6/2 176/6/2
f 145/1/2 159/1/2 177/1/2
f 176/5/2 145/5/2 177/5/2
f 159/2/2 160/2/2 178/2/2
f 177/1/2 159/1/2 178/1/2
f 160/4/2 161/4/2 179/4/2
f 178/2/2 160/2/2 179/2/2
f 161/9/2 162/9/2 180/9/2
f 179/4/2 161/4/2 180/4/2
f 171/5/2 172/5/2 181/5/2
f 170/1/2 171/1/2 181/1/2
f 172/6/2 173/6/2 182/6/2
f 181/5/2 172/5/2 182/5/2
f 173/7/2 174/7/2 183/7/2
f 182/6/2 173/6/2 183/6/2
f 174/6/2 175/6/2 184/6/2
f 183/7/2 174/7/2 184/7/2
f 175/5/2 176/5/2 185/5/2
f 184/6/2 175/6/2 185/6/2
f 176/1/2 177/1/2 186/1/2
f 185/5/2 176/5/2 186/5/2
f 168/4/2 169/4/2 187/4/2
f 167/9/2 168/9/2 187/9/2
f 169/2/2 170/2/2 188/2/2
f 187/4/2 169/4/2 188/4/2
f 181/1/2 182/1/2 189/1/2
f 188/2/2 170/2/2 189/2/2
f 170/1/2 181/1/2 189/1/2
f 182/5/2 183/5/2 190/5/2
f 189/1/2 182/1/2 190/1/2
f 183/6/2 184/6/2 191/6/2
f 190/5/2 183/5/2 191/5/2
f 184/5/2 185/5/2 192/5/2
f 191/6/2 184/6/2 192/6/2
f 185/1/2 186/1/2 193/1/2
f 192/5/2 185/5/2 193/5/2
f 186/1/2 177/1/2 194/1/2
f 193/1/2 186/1/2 194/1/2
f 177/2/2 178/2/2 194/2/2
f 178/4/2 179/4/2 195/4/2
f 194/2/2 178/2/2 195/2/2
f 179/9/2 180/9/2 196/9/2
f 195/4/2 179/4/2 196/4/2
f 187/9/2 188/9/2 197/9/2
f 188/4/2 189/4/2 197/4/2
f 189/2/2 190/2/2 198/2/2
f 197/4/2 189/4/2 198/4/2
f 190/1/2 191/1/2 199/1/2
f 198/2/2 190/2/2 199/2/2
f 191/5/2 192/5/2 200/5/2
f 199/1/2 191/1/2 200/1/2
f 192/1/2 193/1/2 201/1/2
f 200/5/2 192/5/2 201/5/2
f 193/2/2 194/2/2 202/2/2
f 201/1/2 193/1/2 202/1/2
f 194/4/2 195/4/2 203/4/2
f 202/2/2 194/2/2 203/2/2
f 195/9/2 196/9/2 204/9/2
f 203/4/2 195/4/2 204/4/2
f 198/4/2 199/4/2 205/4/2
f 197/9/2 198/9/2 205/9/2
f 199/2/2 200/2/2 206/2/2
f 205/4/2 199/4/2 206/4/2
f 200/1/2 201/1/2 207/1/2
f 206/2/2 200/2/2 207/2/2
f 201/2/2 202/2/2 208/2/2
f 207/1/2 201/1/2 208/1/2
f 202/4/2 203/4/2 209/4/2
f 208/2/2 202/2/2 209/2/2
f 203/9/2 204/9/2 210/9/2
f 209/4/2 203/4/2 210/4/2
f 206/4/2 207/4/2 211/4/2
f 205/9/2 206/9/2 211/9/2
f 207/2/2 208/2/2 212/2/2
f 211/4/2 207/4/2 212/4/2
f 208/4/2 209/4/2 213/4/2
f 212/2/2 208/2/2 213/2/2
f 209/9/2 210/9/2 214/9/2
f 213/4/2 209/4/2 214/4/2
f 212/4/2 213/4/2 215/4/2
f 211/9/2 212/9/2 215/9/2
f 213/9/2 214/9/2 216/9/2
f 215/4/2 213/4/2 216/4/2
f 197/9/2 205/9/2 217/9/2
f 113/9/2 133/9/2 217/9/2
f 215/9/2 216/9/2 217/9/2
f 211/9/2 215/9/2 217/9/2
f 205/9/2 211/9/2 217/9/2
f 149/9/2 167/9/2 217/9/2
f 187/9/2 197/9/2 217/9/2
f 133/9/2 149/9/2 217/9/2
f 167/9/2 187/9/2 217/9/2
f 217/9/2 216/9/2 218/9/2
f 218/9/2 216/9/2 219/9/2
f 216/9/2 214/9/2 220/9/2
f 219/9/2 216/9/2 220/9/2
f 162/9/2 148/9/2 220/9/2
f 180/9/2 162/9/2 220/9/2
f 210/9/2 204/9/2 220/9/2
f 148/9/2 114/9/2 220/9/2
f 204/9/2 196/9/2 220/9/2
f 196/9/2 180/9/2 220/9/2
f 214/9/2 210/9/2 220/9/2
f 221/9/2 222/9/2 223/9/2
f 223/9/2 222/9/2 224/9/2
f 225/9/2 226/9/2 229/9/2
f 227/9/2 228/9/2 230/9/2
f 225/9/2 229/9/2 231/9/2
f 229/9/2 230/9/2 231/9/2
f 230/9/2 228/9/2 232/9/2
f 231/9/2 230/9/2 232/9/2
f 235/9/3 234/9/3 233/9/3
f 236/9/3 234/9/3 235/9/3
f 240/9/3 238/9/3 237/9/3
f 241/9/3 238/9/3 240/9/3
f 242/9/3 240/9/3 239/9/3
f 243/9/3 240/9/3 242/9/3
f 244/9/4 245/9/4 246/9/4
f 246/9/4 245/9/4 247/9/4
f 248/9/4 249/9/4 250/9/4
f 250/9/4 249/9/4 251/9/4
f 252/9/4 253/9/4 254/9/4
f 254/9/4 253/9/4 255/9/4
f 256/9/4 257/9/4 258/9/4
f 258/9/4 257/9/4 259/9/4
f 262/9/5 261/9/5 260/9/5
f 263/9/5 261/9/5 262/9/5
f 264/9/5 262/9/5 260/9/5
f 266/9/5 264/9/5 260/9/5
f 266/9/5 265/9/5 264/9/5
f 267/9/5 265/9/5 266/9/5
f 270/9/5 269/9/5 268/9/5
f 271/9/5 269/9/5 270/9/5
f 274/9/5 273/9/5 272/9/5
f 275/9/5 273/9/5 274/9/5
f 276/9/6 277/9/6 278/9/6
f 278/9/6 277/9/6 279/9/6
f 280/9/6 281/9/6 282/9/6
f 282/9/6 281/9/6 283/9/6
f 280/9/6 282/9/6 284/9/6
f 283/9/6 281/9/6 285/9/6
f 280/9/6 284/9/6 286/9/6
f 284/9/6 285/9/6 286/9/6
f 285/9/6 281/9/6 287/9/6
f 286/9/6 285/9/6 287/9/6
