# MagicaVoxel @ Ephtracy

# group
o 

# material
mtllib dog.mtl
usemtl palette

# normals
vn -1 0 0
vn 1 0 0
vn 0 0 1
vn 0 0 -1
vn 0 -1 0
vn 0 1 0

# texcoords
vt 0.869141 0.5
vt 0.990234 0.5
vt 0.994141 0.5

# verts
v -0.9 0 1.5
v -0.9 0 1.1
v -0.9 0 -0.2
v -0.9 0 -0.5
v -0.9 0.1 1.5
v -0.9 0.1 1.4
v -0.9 0.1 -0.2
v -0.9 0.1 -0.3
v -0.9 0.2 1.4
v -0.9 0.2 1.1
v -0.9 0.2 -0.3
v -0.9 0.2 -0.5
v -0.8 0 -0.5
v -0.8 0 -0.6
v -0.8 0.1 1.5
v -0.8 0.1 1.4
v -0.8 0.1 -0.2
v -0.8 0.1 -0.3
v -0.8 0.2 1.5
v -0.8 0.2 1.4
v -0.8 0.2 1.2
v -0.8 0.2 1.1
v -0.8 0.2 0.9
v -0.8 0.2 -0.2
v -0.8 0.2 -0.3
v -0.8 0.2 -0.5
v -0.8 0.2 -0.6
v -0.8 0.3 1.2
v -0.8 0.3 1.1
v -0.8 0.8 0
v -0.8 0.8 -0.5
v -0.8 0.9 1.1
v -0.8 0.9 0.9
v -0.8 0.9 0.1
v -0.8 0.9 0
v -0.8 0.9 -0.3
v -0.8 0.9 -0.5
v -0.8 1.2 0.1
v -0.8 1.2 -0.3
v -0.7 0.2 -0.4
v -0.7 0.2 -0.6
v -0.7 0.8 0.2
v -0.7 0.8 0
v -0.7 0.8 -0.4
v -0.7 0.8 -0.5
v -0.7 0.9 1.1
v -0.7 0.9 0.9
v -0.7 0.9 0.1
v -0.7 0.9 0
v -0.7 0.9 -0.5
v -0.7 0.9 -0.6
v -0.7 1 1.1
v -0.7 1 0.9
v -0.7 1.2 0.1
v -0.7 1.2 -0.3
v -0.7 1.3 0.2
v -0.7 1.3 -0.3
v -0.6 1 1.1
v -0.6 1 0.9
v -0.6 1.1 0.4
v -0.6 1.1 0.2
v -0.6 1.2 1.2
v -0.6 1.2 1.1
v -0.6 1.2 0.9
v -0.6 1.2 0.4
v -0.6 1.3 0.2
v -0.6 1.3 -0.2
v -0.6 1.4 -0.0999999
v -0.6 1.4 -0.2
v -0.6 1.5 1.2
v -0.6 1.5 1.1
v -0.6 1.5 0.1
v -0.6 1.5 -0.0999999
v -0.6 1.6 1.1
v -0.6 1.6 0.1
v -0.5 1.1 1.2
v -0.5 1.1 1.1
v -0.5 1.2 1.2
v -0.5 1.2 1.1
v -0.5 1.4 -0.0999999
v -0.5 1.4 -0.2
v -0.5 1.5 1.2
v -0.5 1.5 1.1
v -0.5 1.5 -0.0999999
v -0.5 1.5 -0.2
v -0.5 1.6 1.2
v -0.5 1.6 1.1
v -0.5 1.6 0.3
v -0.5 1.7 1.1
v -0.5 1.7 0.3
v -0.4 1.3 1.3
v -0.4 1.3 1.2
v -0.4 1.4 1.3
v -0.4 1.4 1.2
v -0.4 1.6 1.2
v -0.4 1.6 1.1
v -0.4 1.7 1.2
v -0.4 1.7 1.1
v -0.4 1.9 1.5
v -0.4 1.9 1.1
v -0.4 2.2 1.5
v -0.4 2.2 1.1
v -0.3 1.4 1.3
v -0.3 1.4 1.2
v -0.3 1.6 1.3
v -0.3 1.6 1.2
v -0.3 1.7 1.3
v -0.3 1.7 1.2
v -0.3 1.7 0.8
v -0.3 1.8 1.4
v -0.3 1.8 1.3
v -0.3 1.8 0.9
v -0.3 1.8 0.8
v -0.3 1.9 1.4
v -0.3 1.9 1.1
v -0.3 1.9 1
v -0.3 1.9 0.9
v -0.3 2.1 1.1
v -0.3 2.1 1
v -0.3 2.2 1.5
v -0.3 2.2 1.1
v -0.3 2.4 1.5
v -0.3 2.4 1.3
v -0.3 2.5 1.3
v -0.3 2.5 1.1
v -0.2 1.4 -0.2
v -0.2 1.4 -0.3
v -0.2 1.5 -0.2
v -0.2 1.5 -0.3
v -0.2 1.6 1.3
v -0.2 1.6 1.2
v -0.2 1.7 1.3
v -0.2 1.7 1.2
v -0.2 1.9 1.7
v -0.2 1.9 1.5
v -0.2 2.1 1.7
v -0.2 2.1 1.5
v -0.2 2.5 1.3
v -0.2 2.5 1.2
v -0.2 2.7 1.3
v -0.2 2.7 1.2
v -0.1 1.3 -0.2
v -0.1 1.3 -0.4
v -0.1 1.4 -0.2
v -0.1 1.4 -0.3
v -0.1 1.4 -0.4
v -0.1 1.4 -0.7
v -0.1 1.5 -0.3
v -0.1 1.5 -0.7
v -0.1 2.1 1.7
v -0.1 2.1 1.6
v -0.1 2.1 1.5
v -0.1 2.2 1.7
v -0.1 2.2 1.6
v -0.1 2.2 1.5
v 0.1 2.4 1.3
v 0.1 2.4 1.2
v 0.1 2.7 1.3
v 0.1 2.7 1.2
v 0.2 2.4 1.2
v 0.2 2.4 1.1
v 0.2 2.5 1.2
v 0.2 2.5 1.1
v 0.3 0 -0.2
v 0.3 0 -0.6
v 0.3 0.1 -0.2
v 0.3 0.1 -0.3
v 0.3 0.2 -0.3
v 0.3 0.2 -0.4
v 0.3 0.3 -0.4
v 0.3 0.3 -0.6
v 0.3 1 1.1
v 0.3 1 0.9
v 0.3 1.1 1.2
v 0.3 1.1 1.1
v 0.3 1.2 1.2
v 0.3 1.2 0.9
v 0.4 0 1.5
v 0.4 0 1.1
v 0.4 0.1 1.5
v 0.4 0.1 1.4
v 0.4 0.1 -0.2
v 0.4 0.1 -0.3
v 0.4 0.2 1.4
v 0.4 0.2 1.1
v 0.4 0.2 -0.2
v 0.4 0.2 -0.3
v 0.4 0.3 -0.4
v 0.4 0.3 -0.6
v 0.4 0.4 -0.4
v 0.4 0.4 -0.6
v 0.5 0.1 1.5
v 0.5 0.1 1.4
v 0.5 0.2 1.5
v 0.5 0.2 1.4
v 0.5 0.2 1.2
v 0.5 0.2 1.1
v 0.5 0.2 0.9
v 0.5 0.3 1.2
v 0.5 0.3 1.1
v 0.5 0.4 -0.4
v 0.5 0.4 -0.6
v 0.5 0.8 -0.0999999
v 0.5 0.8 -0.3
v 0.5 0.8 -0.4
v 0.5 0.8 -0.6
v 0.5 1 1.1
v 0.5 1 0.9
v 0.5 1 -0.0999999
v 0.5 1 -0.3
v 0.6 0.8 0.2
v 0.6 0.8 -0.0999999
v 0.6 0.8 -0.3
v 0.6 0.8 -0.4
v 0.6 0.8 -0.6
v 0.6 0.9 -0.3
v 0.6 0.9 -0.6
v 0.6 1 -0.0999999
v 0.6 1 -0.3
v 0.6 1.1 0.2
v 0.6 1.1 -0.2
v 0.6 1.3 -0.2
v 0.6 1.3 -0.3
v -0.6 0.8 0.2
v -0.6 0.8 -0.0999999
v -0.6 0.8 -0.3
v -0.6 0.8 -0.4
v -0.6 0.8 -0.6
v -0.6 0.9 -0.3
v -0.6 0.9 -0.6
v -0.6 1 -0.0999999
v -0.6 1 -0.3
v -0.6 1.1 0.2
v -0.6 1.1 -0.2
v -0.6 1.3 -0.2
v -0.6 1.3 -0.3
v -0.5 0.1 1.5
v -0.5 0.1 1.4
v -0.5 0.2 1.5
v -0.5 0.2 1.4
v -0.5 0.2 1.2
v -0.5 0.2 1.1
v -0.5 0.2 0.9
v -0.5 0.3 1.2
v -0.5 0.3 1.1
v -0.5 0.4 -0.4
v -0.5 0.4 -0.6
v -0.5 0.8 -0.0999999
v -0.5 0.8 -0.3
v -0.5 0.8 -0.4
v -0.5 0.8 -0.6
v -0.5 1 1.1
v -0.5 1 0.9
v -0.5 1 -0.0999999
v -0.5 1 -0.3
v -0.4 0 1.5
v -0.4 0 1.1
v -0.4 0.1 1.5
v -0.4 0.1 1.4
v -0.4 0.1 -0.2
v -0.4 0.1 -0.3
v -0.4 0.2 1.4
v -0.4 0.2 1.1
v -0.4 0.2 -0.2
v -0.4 0.2 -0.3
v -0.4 0.3 -0.4
v -0.4 0.3 -0.6
v -0.4 0.4 -0.4
v -0.4 0.4 -0.6
v -0.3 0 -0.2
v -0.3 0 -0.6
v -0.3 0.1 -0.2
v -0.3 0.1 -0.3
v -0.3 0.2 -0.3
v -0.3 0.2 -0.4
v -0.3 0.3 -0.4
v -0.3 0.3 -0.6
v -0.3 1 1.1
v -0.3 1 0.9
v -0.3 1.1 1.2
v -0.3 1.1 1.1
v -0.3 1.2 1.2
v -0.3 1.2 0.9
v -0.2 2.4 1.2
v -0.2 2.4 1.1
v -0.2 2.5 1.2
v -0.2 2.5 1.1
v -0.1 2.4 1.3
v -0.1 2.4 1.2
v -0.1 2.7 1.3
v -0.1 2.7 1.2
v 0.1 1.3 -0.2
v 0.1 1.3 -0.4
v 0.1 1.4 -0.2
v 0.1 1.4 -0.3
v 0.1 1.4 -0.4
v 0.1 1.4 -0.7
v 0.1 1.5 -0.3
v 0.1 1.5 -0.7
v 0.1 2.1 1.7
v 0.1 2.1 1.6
v 0.1 2.1 1.5
v 0.1 2.2 1.7
v 0.1 2.2 1.6
v 0.1 2.2 1.5
v 0.2 1.4 -0.2
v 0.2 1.4 -0.3
v 0.2 1.5 -0.2
v 0.2 1.5 -0.3
v 0.2 1.6 1.3
v 0.2 1.6 1.2
v 0.2 1.7 1.3
v 0.2 1.7 1.2
v 0.2 1.9 1.7
v 0.2 1.9 1.5
v 0.2 2.1 1.7
v 0.2 2.1 1.5
v 0.2 2.5 1.3
v 0.2 2.5 1.2
v 0.2 2.7 1.3
v 0.2 2.7 1.2
v 0.3 1.4 1.3
v 0.3 1.4 1.2
v 0.3 1.6 1.3
v 0.3 1.6 1.2
v 0.3 1.7 1.3
v 0.3 1.7 1.2
v 0.3 1.7 0.8
v 0.3 1.8 1.4
v 0.3 1.8 1.3
v 0.3 1.8 0.9
v 0.3 1.8 0.8
v 0.3 1.9 1.4
v 0.3 1.9 1.1
v 0.3 1.9 1
v 0.3 1.9 0.9
v 0.3 2.1 1.1
v 0.3 2.1 1
v 0.3 2.2 1.5
v 0.3 2.2 1.1
v 0.3 2.4 1.5
v 0.3 2.4 1.3
v 0.3 2.5 1.3
v 0.3 2.5 1.1
v 0.4 1.3 1.3
v 0.4 1.3 1.2
v 0.4 1.4 1.3
v 0.4 1.4 1.2
v 0.4 1.6 1.2
v 0.4 1.6 1.1
v 0.4 1.7 1.2
v 0.4 1.7 1.1
v 0.4 1.9 1.5
v 0.4 1.9 1.1
v 0.4 2.2 1.5
v 0.4 2.2 1.1
v 0.5 1.1 1.2
v 0.5 1.1 1.1
v 0.5 1.2 1.2
v 0.5 1.2 1.1
v 0.5 1.4 -0.0999999
v 0.5 1.4 -0.2
v 0.5 1.5 1.2
v 0.5 1.5 1.1
v 0.5 1.5 -0.0999999
v 0.5 1.5 -0.2
v 0.5 1.6 1.2
v 0.5 1.6 1.1
v 0.5 1.6 0.3
v 0.5 1.7 1.1
v 0.5 1.7 0.3
v 0.6 1 1.1
v 0.6 1 0.9
v 0.6 1.1 0.4
v 0.6 1.1 0.2
v 0.6 1.2 1.2
v 0.6 1.2 1.1
v 0.6 1.2 0.9
v 0.6 1.2 0.4
v 0.6 1.3 0.2
v 0.6 1.3 -0.2
v 0.6 1.4 -0.0999999
v 0.6 1.4 -0.2
v 0.6 1.5 1.2
v 0.6 1.5 1.1
v 0.6 1.5 0.1
v 0.6 1.5 -0.0999999
v 0.6 1.6 1.1
v 0.6 1.6 0.1
v 0.7 0.2 -0.4
v 0.7 0.2 -0.6
v 0.7 0.8 0.2
v 0.7 0.8 0
v 0.7 0.8 -0.4
v 0.7 0.8 -0.5
v 0.7 0.9 1.1
v 0.7 0.9 0.9
v 0.7 0.9 0.1
v 0.7 0.9 0
v 0.7 0.9 -0.5
v 0.7 0.9 -0.6
v 0.7 1 1.1
v 0.7 1 0.9
v 0.7 1.2 0.1
v 0.7 1.2 -0.3
v 0.7 1.3 0.2
v 0.7 1.3 -0.3
v 0.8 0 -0.5
v 0.8 0 -0.6
v 0.8 0.1 1.5
v 0.8 0.1 1.4
v 0.8 0.1 -0.2
v 0.8 0.1 -0.3
v 0.8 0.2 1.5
v 0.8 0.2 1.4
v 0.8 0.2 1.2
v 0.8 0.2 1.1
v 0.8 0.2 0.9
v 0.8 0.2 -0.2
v 0.8 0.2 -0.3
v 0.8 0.2 -0.5
v 0.8 0.2 -0.6
v 0.8 0.3 1.2
v 0.8 0.3 1.1
v 0.8 0.8 0
v 0.8 0.8 -0.5
v 0.8 0.9 1.1
v 0.8 0.9 0.9
v 0.8 0.9 0.1
v 0.8 0.9 0
v 0.8 0.9 -0.3
v 0.8 0.9 -0.5
v 0.8 1.2 0.1
v 0.8 1.2 -0.3
v 0.9 0 1.5
v 0.9 0 1.1
v 0.9 0 -0.2
v 0.9 0 -0.5
v 0.9 0.1 1.5
v 0.9 0.1 1.4
v 0.9 0.1 -0.2
v 0.9 0.1 -0.3
v 0.9 0.2 1.4
v 0.9 0.2 1.1
v 0.9 0.2 -0.3
v 0.9 0.2 -0.5
v -0.2 1.9 1.7
v -0.2 2.1 1.7
v -0.1 2.1 1.7
v -0.1 2.2 1.7
v 0.1 2.1 1.7
v 0.1 2.2 1.7
v 0.2 1.9 1.7
v 0.2 2.1 1.7
v -0.9 0 1.5
v -0.9 0.1 1.5
v -0.8 0.1 1.5
v -0.8 0.2 1.5
v -0.5 0.1 1.5
v -0.5 0.2 1.5
v -0.4 0 1.5
v -0.4 0.1 1.5
v -0.4 1.9 1.5
v -0.4 2.2 1.5
v -0.3 2.2 1.5
v -0.3 2.4 1.5
v -0.2 1.9 1.5
v -0.2 2.1 1.5
v -0.2 2.2 1.5
v -0.2 2.3 1.5
v -0.1 2.1 1.5
v -0.1 2.2 1.5
v -0.1 2.3 1.5
v 0.1 2.1 1.5
v 0.1 2.2 1.5
v 0.1 2.3 1.5
v 0.2 1.9 1.5
v 0.2 2.1 1.5
v 0.2 2.2 1.5
v 0.2 2.3 1.5
v 0.3 2.2 1.5
v 0.3 2.4 1.5
v 0.4 0 1.5
v 0.4 0.1 1.5
v 0.4 1.9 1.5
v 0.4 2.2 1.5
v 0.5 0.1 1.5
v 0.5 0.2 1.5
v 0.8 0.1 1.5
v 0.8 0.2 1.5
v 0.9 0 1.5
v 0.9 0.1 1.5
v -0.9 0.1 1.4
v -0.9 0.2 1.4
v -0.8 0.1 1.4
v -0.8 0.2 1.4
v -0.5 0.1 1.4
v -0.5 0.2 1.4
v -0.4 0.1 1.4
v -0.4 0.2 1.4
v -0.3 1.8 1.4
v -0.3 1.9 1.4
v 0.3 1.8 1.4
v 0.3 1.9 1.4
v 0.4 0.1 1.4
v 0.4 0.2 1.4
v 0.5 0.1 1.4
v 0.5 0.2 1.4
v 0.8 0.1 1.4
v 0.8 0.2 1.4
v 0.9 0.1 1.4
v 0.9 0.2 1.4
v -0.4 1.3 1.3
v -0.4 1.4 1.3
v -0.3 1.4 1.3
v -0.3 1.6 1.3
v -0.3 1.7 1.3
v -0.3 1.8 1.3
v -0.3 2.4 1.3
v -0.3 2.5 1.3
v -0.2 1.6 1.3
v -0.2 1.7 1.3
v -0.2 2.5 1.3
v -0.2 2.7 1.3
v -0.1 2.4 1.3
v -0.1 2.7 1.3
v 0.1 2.4 1.3
v 0.1 2.7 1.3
v 0.2 1.6 1.3
v 0.2 1.7 1.3
v 0.2 2.5 1.3
v 0.2 2.7 1.3
v 0.3 1.4 1.3
v 0.3 1.6 1.3
v 0.3 1.7 1.3
v 0.3 1.8 1.3
v 0.3 2.4 1.3
v 0.3 2.5 1.3
v 0.4 1.3 1.3
v 0.4 1.4 1.3
v -0.8 0.2 1.2
v -0.8 0.3 1.2
v -0.6 1.2 1.2
v -0.6 1.5 1.2
v -0.5 0.2 1.2
v -0.5 0.3 1.2
v -0.5 1.1 1.2
v -0.5 1.2 1.2
v -0.5 1.5 1.2
v -0.5 1.6 1.2
v -0.4 1.3 1.2
v -0.4 1.4 1.2
v -0.4 1.6 1.2
v -0.4 1.7 1.2
v -0.3 1.1 1.2
v -0.3 1.2 1.2
v -0.3 1.4 1.2
v -0.3 1.6 1.2
v -0.3 1.7 1.2
v -0.2 1.6 1.2
v -0.2 1.7 1.2
v 0.2 1.6 1.2
v 0.2 1.7 1.2
v 0.3 1.1 1.2
v 0.3 1.2 1.2
v 0.3 1.4 1.2
v 0.3 1.6 1.2
v 0.3 1.7 1.2
v 0.4 1.3 1.2
v 0.4 1.4 1.2
v 0.4 1.6 1.2
v 0.4 1.7 1.2
v 0.5 0.2 1.2
v 0.5 0.3 1.2
v 0.5 1.1 1.2
v 0.5 1.2 1.2
v 0.5 1.5 1.2
v 0.5 1.6 1.2
v 0.6 1.2 1.2
v 0.6 1.5 1.2
v 0.8 0.2 1.2
v 0.8 0.3 1.2
v -0.8 0.3 1.1
v -0.8 0.9 1.1
v -0.7 0.9 1.1
v -0.7 1 1.1
v -0.6 1 1.1
v -0.6 1.2 1.1
v -0.6 1.5 1.1
v -0.6 1.6 1.1
v -0.5 0.3 1.1
v -0.5 1 1.1
v -0.5 1.1 1.1
v -0.5 1.2 1.1
v -0.5 1.5 1.1
v -0.5 1.6 1.1
v -0.5 1.7 1.1
v -0.4 1.6 1.1
v -0.4 1.7 1.1
v -0.3 1 1.1
v -0.3 1.1 1.1
v 0.3 1 1.1
v 0.3 1.1 1.1
v 0.4 1.6 1.1
v 0.4 1.7 1.1
v 0.5 0.3 1.1
v 0.5 1 1.1
v 0.5 1.1 1.1
v 0.5 1.2 1.1
v 0.5 1.5 1.1
v 0.5 1.6 1.1
v 0.5 1.7 1.1
v 0.6 1 1.1
v 0.6 1.2 1.1
v 0.6 1.5 1.1
v 0.6 1.6 1.1
v 0.7 0.9 1.1
v 0.7 1 1.1
v 0.8 0.3 1.1
v 0.8 0.9 1.1
v -0.6 1.1 0.4
v -0.6 1.2 0.4
v 0.6 1.1 0.4
v 0.6 1.2 0.4
v -0.7 0.8 0.2
v -0.7 1.3 0.2
v -0.6 0.8 0.2
v -0.6 1.1 0.2
v -0.6 1.3 0.2
v 0.6 0.8 0.2
v 0.6 1.1 0.2
v 0.6 1.3 0.2
v 0.7 0.8 0.2
v 0.7 1.3 0.2
v -0.8 0.9 0.1
v -0.8 1.2 0.1
v -0.7 0.9 0.1
v -0.7 1.2 0.1
v 0.7 0.9 0.1
v 0.7 1.2 0.1
v 0.8 0.9 0.1
v 0.8 1.2 0.1
v -0.8 0.8 0
v -0.8 0.9 0
v -0.7 0.8 0
v -0.7 0.9 0
v 0.7 0.8 0
v 0.7 0.9 0
v 0.8 0.8 0
v 0.8 0.9 0
v -0.6 0.8 -0.0999999
v -0.6 1 -0.0999999
v -0.5 0.8 -0.0999999
v -0.5 1 -0.0999999
v 0.5 0.8 -0.0999999
v 0.5 1 -0.0999999
v 0.6 0.8 -0.0999999
v 0.6 1 -0.0999999
v -0.9 0 -0.2
v -0.9 0.1 -0.2
v -0.8 0.1 -0.2
v -0.8 0.2 -0.2
v -0.4 0.1 -0.2
v -0.4 0.2 -0.2
v -0.3 0 -0.2
v -0.3 0.1 -0.2
v 0.3 0 -0.2
v 0.3 0.1 -0.2
v 0.4 0.1 -0.2
v 0.4 0.2 -0.2
v 0.8 0.1 -0.2
v 0.8 0.2 -0.2
v 0.9 0 -0.2
v 0.9 0.1 -0.2
v -0.9 0.1 -0.3
v -0.9 0.2 -0.3
v -0.8 0.1 -0.3
v -0.8 0.2 -0.3
v -0.4 0.1 -0.3
v -0.4 0.2 -0.3
v -0.3 0.1 -0.3
v -0.3 0.2 -0.3
v 0.3 0.1 -0.3
v 0.3 0.2 -0.3
v 0.4 0.1 -0.3
v 0.4 0.2 -0.3
v 0.8 0.1 -0.3
v 0.8 0.2 -0.3
v 0.9 0.1 -0.3
v 0.9 0.2 -0.3
v -0.7 0.2 -0.4
v -0.7 0.8 -0.4
v -0.6 0.8 -0.4
v -0.5 0.4 -0.4
v -0.5 0.8 -0.4
v -0.4 0.3 -0.4
v -0.4 0.4 -0.4
v -0.3 0.2 -0.4
v -0.3 0.3 -0.4
v 0.3 0.2 -0.4
v 0.3 0.3 -0.4
v 0.4 0.3 -0.4
v 0.4 0.4 -0.4
v 0.5 0.4 -0.4
v 0.5 0.8 -0.4
v 0.6 0.8 -0.4
v 0.7 0.2 -0.4
v 0.7 0.8 -0.4
v -0.2 2.4 1.2
v -0.2 2.5 1.2
v -0.2 2.7 1.2
v -0.1 2.4 1.2
v -0.1 2.7 1.2
v 0.1 2.4 1.2
v 0.1 2.7 1.2
v 0.2 2.4 1.2
v 0.2 2.5 1.2
v 0.2 2.7 1.2
v -0.9 0 1.1
v -0.9 0.2 1.1
v -0.8 0.2 1.1
v -0.5 0.2 1.1
v -0.4 0 1.1
v -0.4 0.2 1.1
v -0.4 1.9 1.1
v -0.4 2.2 1.1
v -0.3 1.9 1.1
v -0.3 2.1 1.1
v -0.3 2.2 1.1
v -0.3 2.5 1.1
v -0.2 2.4 1.1
v -0.2 2.5 1.1
v 0.2 2.4 1.1
v 0.2 2.5 1.1
v 0.3 1.9 1.1
v 0.3 2.1 1.1
v 0.3 2.2 1.1
v 0.3 2.5 1.1
v 0.4 0 1.1
v 0.4 0.2 1.1
v 0.4 1.9 1.1
v 0.4 2.2 1.1
v 0.5 0.2 1.1
v 0.8 0.2 1.1
v 0.9 0 1.1
v 0.9 0.2 1.1
v -0.3 1.9 1
v -0.3 2.1 1
v 0.3 1.9 1
v 0.3 2.1 1
v -0.8 0.2 0.9
v -0.8 0.9 0.9
v -0.7 0.9 0.9
v -0.7 1 0.9
v -0.6 1 0.9
v -0.6 1.2 0.9
v -0.5 0.2 0.9
v -0.5 1 0.9
v -0.3 1 0.9
v -0.3 1.2 0.9
v -0.3 1.8 0.9
v -0.3 1.9 0.9
v 0.3 1 0.9
v 0.3 1.2 0.9
v 0.3 1.8 0.9
v 0.3 1.9 0.9
v 0.5 0.2 0.9
v 0.5 1 0.9
v 0.6 1 0.9
v 0.6 1.2 0.9
v 0.7 0.9 0.9
v 0.7 1 0.9
v 0.8 0.2 0.9
v 0.8 0.9 0.9
v -0.3 1.7 0.8
v -0.3 1.8 0.8
v 0.3 1.7 0.8
v 0.3 1.8 0.8
v -0.5 1.6 0.3
v -0.5 1.7 0.3
v 0.5 1.6 0.3
v 0.5 1.7 0.3
v -0.6 1.5 0.1
v -0.6 1.6 0.1
v 0.6 1.5 0.1
v 0.6 1.6 0.1
v -0.6 1.4 -0.0999999
v -0.6 1.5 -0.0999999
v -0.5 1.4 -0.0999999
v -0.5 1.5 -0.0999999
v 0.5 1.4 -0.0999999
v 0.5 1.5 -0.0999999
v 0.6 1.4 -0.0999999
v 0.6 1.5 -0.0999999
v -0.6 1.1 -0.2
v -0.6 1.3 -0.2
v -0.6 1.4 -0.2
v -0.5 1.4 -0.2
v -0.5 1.5 -0.2
v -0.2 1.4 -0.2
v -0.2 1.5 -0.2
v -0.1 1.3 -0.2
v -0.1 1.4 -0.2
v 0.1 1.3 -0.2
v 0.1 1.4 -0.2
v 0.2 1.4 -0.2
v 0.2 1.5 -0.2
v 0.5 1.4 -0.2
v 0.5 1.5 -0.2
v 0.6 1.1 -0.2
v 0.6 1.3 -0.2
v 0.6 1.4 -0.2
v -0.8 0.9 -0.3
v -0.8 1.2 -0.3
v -0.7 1.2 -0.3
v -0.7 1.3 -0.3
v -0.6 0.8 -0.3
v -0.6 0.9 -0.3
v -0.6 1 -0.3
v -0.6 1.3 -0.3
v -0.5 0.8 -0.3
v -0.5 1 -0.3
v -0.2 1.4 -0.3
v -0.2 1.5 -0.3
v -0.1 1.4 -0.3
v -0.1 1.5 -0.3
v 0.1 1.4 -0.3
v 0.1 1.5 -0.3
v 0.2 1.4 -0.3
v 0.2 1.5 -0.3
v 0.5 0.8 -0.3
v 0.5 1 -0.3
v 0.6 0.8 -0.3
v 0.6 0.9 -0.3
v 0.6 1 -0.3
v 0.6 1.3 -0.3
v 0.7 1.2 -0.3
v 0.7 1.3 -0.3
v 0.8 0.9 -0.3
v 0.8 1.2 -0.3
v -0.1 1.3 -0.4
v -0.1 1.4 -0.4
v 0.1 1.3 -0.4
v 0.1 1.4 -0.4
v -0.9 0 -0.5
v -0.9 0.2 -0.5
v -0.8 0 -0.5
v -0.8 0.2 -0.5
v -0.8 0.8 -0.5
v -0.8 0.9 -0.5
v -0.7 0.8 -0.5
v -0.7 0.9 -0.5
v 0.7 0.8 -0.5
v 0.7 0.9 -0.5
v 0.8 0 -0.5
v 0.8 0.2 -0.5
v 0.8 0.8 -0.5
v 0.8 0.9 -0.5
v 0.9 0 -0.5
v 0.9 0.2 -0.5
v -0.8 0 -0.6
v -0.8 0.2 -0.6
v -0.7 0.2 -0.6
v -0.7 0.9 -0.6
v -0.6 0.8 -0.6
v -0.6 0.9 -0.6
v -0.5 0.4 -0.6
v -0.5 0.8 -0.6
v -0.4 0.3 -0.6
v -0.4 0.4 -0.6
v -0.3 0 -0.6
v -0.3 0.3 -0.6
v 0.3 0 -0.6
v 0.3 0.3 -0.6
v 0.4 0.3 -0.6
v 0.4 0.4 -0.6
v 0.5 0.4 -0.6
v 0.5 0.8 -0.6
v 0.6 0.8 -0.6
v 0.6 0.9 -0.6
v 0.7 0.2 -0.6
v 0.7 0.9 -0.6
v 0.8 0 -0.6
v 0.8 0.2 -0.6
v -0.1 1.4 -0.7
v -0.1 1.5 -0.7
v 0.1 1.4 -0.7
v 0.1 1.5 -0.7
v -0.9 0 1.5
v -0.4 0 1.5
v 0.4 0 1.5
v 0.9 0 1.5
v -0.9 0 1.1
v -0.4 0 1.1
v 0.4 0 1.1
v 0.9 0 1.1
v -0.9 0 -0.2
v -0.3 0 -0.2
v 0.3 0 -0.2
v 0.9 0 -0.2
v -0.9 0 -0.5
v -0.8 0 -0.5
v 0.8 0 -0.5
v 0.9 0 -0.5
v -0.8 0 -0.6
v -0.3 0 -0.6
v 0.3 0 -0.6
v 0.8 0 -0.6
v -0.8 0.2 1.1
v -0.5 0.2 1.1
v 0.5 0.2 1.1
v 0.8 0.2 1.1
v -0.8 0.2 0.9
v -0.5 0.2 0.9
v 0.5 0.2 0.9
v 0.8 0.2 0.9
v -0.7 0.8 0.2
v -0.6 0.8 0.2
v 0.6 0.8 0.2
v 0.7 0.8 0.2
v -0.8 0.8 0
v -0.7 0.8 0
v 0.7 0.8 0
v 0.8 0.8 0
v -0.6 0.8 -0.0999999
v -0.5 0.8 -0.0999999
v 0.5 0.8 -0.0999999
v 0.6 0.8 -0.0999999
v -0.6 0.8 -0.3
v -0.5 0.8 -0.3
v 0.5 0.8 -0.3
v 0.6 0.8 -0.3
v -0.7 0.8 -0.4
v -0.6 0.8 -0.4
v 0.6 0.8 -0.4
v 0.7 0.8 -0.4
v -0.8 0.8 -0.5
v -0.7 0.8 -0.5
v 0.7 0.8 -0.5
v 0.8 0.8 -0.5
v -0.8 0.9 0.1
v -0.7 0.9 0.1
v 0.7 0.9 0.1
v 0.8 0.9 0.1
v -0.8 0.9 0
v -0.7 0.9 0
v 0.7 0.9 0
v 0.8 0.9 0
v -0.5 1 1.1
v -0.3 1 1.1
v 0.3 1 1.1
v 0.5 1 1.1
v -0.5 1 0.9
v -0.3 1 0.9
v 0.3 1 0.9
v 0.5 1 0.9
v -0.5 1.1 1.2
v -0.3 1.1 1.2
v 0.3 1.1 1.2
v 0.5 1.1 1.2
v -0.5 1.1 1.1
v -0.3 1.1 1.1
v 0.3 1.1 1.1
v 0.5 1.1 1.1
v -0.6 1.1 0.4
v 0.6 1.1 0.4
v -0.6 1.1 0.2
v 0.6 1.1 0.2
v -0.6 1.1 -0.2
v 0.6 1.1 -0.2
v -0.6 1.2 1.2
v -0.5 1.2 1.2
v -0.3 1.2 1.2
v 0.3 1.2 1.2
v 0.5 1.2 1.2
v 0.6 1.2 1.2
v -0.6 1.2 1.1
v -0.5 1.2 1.1
v 0.5 1.2 1.1
v 0.6 1.2 1.1
v -0.6 1.2 0.9
v -0.3 1.2 0.9
v 0.3 1.2 0.9
v 0.6 1.2 0.9
v -0.6 1.2 0.4
v 0.6 1.2 0.4
v -0.4 1.3 1.3
v 0.4 1.3 1.3
v -0.4 1.3 1.2
v 0.4 1.3 1.2
v -0.1 1.3 -0.2
v 0.1 1.3 -0.2
v -0.1 1.3 -0.4
v 0.1 1.3 -0.4
v -0.2 1.4 -0.2
v -0.1 1.4 -0.2
v 0.1 1.4 -0.2
v 0.2 1.4 -0.2
v -0.2 1.4 -0.3
v -0.1 1.4 -0.3
v 0.1 1.4 -0.3
v 0.2 1.4 -0.3
v -0.1 1.4 -0.4
v 0.1 1.4 -0.4
v -0.1 1.4 -0.7
v 0.1 1.4 -0.7
v -0.3 1.7 1.3
v -0.2 1.7 1.3
v 0.2 1.7 1.3
v 0.3 1.7 1.3
v -0.3 1.7 1.2
v -0.2 1.7 1.2
v 0.2 1.7 1.2
v 0.3 1.7 1.2
v -0.3 1.8 1.4
v 0.3 1.8 1.4
v -0.3 1.8 1.3
v 0.3 1.8 1.3
v -0.2 1.9 1.7
v 0.2 1.9 1.7
v -0.4 1.9 1.5
v -0.2 1.9 1.5
v 0.2 1.9 1.5
v 0.4 1.9 1.5
v -0.3 1.9 1.4
v 0.3 1.9 1.4
v -0.4 1.9 1.1
v -0.3 1.9 1.1
v 0.3 1.9 1.1
v 0.4 1.9 1.1
v -0.9 0.1 1.5
v -0.8 0.1 1.5
v -0.5 0.1 1.5
v -0.4 0.1 1.5
v 0.4 0.1 1.5
v 0.5 0.1 1.5
v 0.8 0.1 1.5
v 0.9 0.1 1.5
v -0.9 0.1 1.4
v -0.8 0.1 1.4
v -0.5 0.1 1.4
v -0.4 0.1 1.4
v 0.4 0.1 1.4
v 0.5 0.1 1.4
v 0.8 0.1 1.4
v 0.9 0.1 1.4
v -0.9 0.1 -0.2
v -0.8 0.1 -0.2
v -0.4 0.1 -0.2
v -0.3 0.1 -0.2
v 0.3 0.1 -0.2
v 0.4 0.1 -0.2
v 0.8 0.1 -0.2
v 0.9 0.1 -0.2
v -0.9 0.1 -0.3
v -0.8 0.1 -0.3
v -0.4 0.1 -0.3
v -0.3 0.1 -0.3
v 0.3 0.1 -0.3
v 0.4 0.1 -0.3
v 0.8 0.1 -0.3
v 0.9 0.1 -0.3
v -0.8 0.2 1.5
v -0.5 0.2 1.5
v 0.5 0.2 1.5
v 0.8 0.2 1.5
v -0.9 0.2 1.4
v -0.8 0.2 1.4
v -0.5 0.2 1.4
v -0.4 0.2 1.4
v 0.4 0.2 1.4
v 0.5 0.2 1.4
v 0.8 0.2 1.4
v 0.9 0.2 1.4
v -0.8 0.2 1.2
v -0.5 0.2 1.2
v 0.5 0.2 1.2
v 0.8 0.2 1.2
v -0.9 0.2 1.1
v -0.8 0.2 1.1
v -0.5 0.2 1.1
v -0.4 0.2 1.1
v 0.4 0.2 1.1
v 0.5 0.2 1.1
v 0.8 0.2 1.1
v 0.9 0.2 1.1
v -0.8 0.2 -0.2
v -0.4 0.2 -0.2
v 0.4 0.2 -0.2
v 0.8 0.2 -0.2
v -0.9 0.2 -0.3
v -0.8 0.2 -0.3
v -0.4 0.2 -0.3
v -0.3 0.2 -0.3
v 0.3 0.2 -0.3
v 0.4 0.2 -0.3
v 0.8 0.2 -0.3
v 0.9 0.2 -0.3
v -0.7 0.2 -0.4
v -0.3 0.2 -0.4
v 0.3 0.2 -0.4
v 0.7 0.2 -0.4
v -0.9 0.2 -0.5
v -0.8 0.2 -0.5
v 0.8 0.2 -0.5
v 0.9 0.2 -0.5
v -0.8 0.2 -0.6
v -0.7 0.2 -0.6
v 0.7 0.2 -0.6
v 0.8 0.2 -0.6
v -0.8 0.3 1.2
v -0.5 0.3 1.2
v 0.5 0.3 1.2
v 0.8 0.3 1.2
v -0.8 0.3 1.1
v -0.5 0.3 1.1
v 0.5 0.3 1.1
v 0.8 0.3 1.1
v -0.4 0.3 -0.4
v -0.3 0.3 -0.4
v 0.3 0.3 -0.4
v 0.4 0.3 -0.4
v -0.4 0.3 -0.6
v -0.3 0.3 -0.6
v 0.3 0.3 -0.6
v 0.4 0.3 -0.6
v -0.5 0.4 -0.4
v -0.4 0.4 -0.4
v 0.4 0.4 -0.4
v 0.5 0.4 -0.4
v -0.5 0.4 -0.6
v -0.4 0.4 -0.6
v 0.4 0.4 -0.6
v 0.5 0.4 -0.6
v -0.6 0.8 -0.4
v -0.5 0.8 -0.4
v 0.5 0.8 -0.4
v 0.6 0.8 -0.4
v -0.6 0.8 -0.6
v -0.5 0.8 -0.6
v 0.5 0.8 -0.6
v 0.6 0.8 -0.6
v -0.8 0.9 1.1
v -0.7 0.9 1.1
v 0.7 0.9 1.1
v 0.8 0.9 1.1
v -0.8 0.9 0.9
v -0.7 0.9 0.9
v 0.7 0.9 0.9
v 0.8 0.9 0.9
v -0.8 0.9 -0.3
v -0.6 0.9 -0.3
v 0.6 0.9 -0.3
v 0.8 0.9 -0.3
v -0.8 0.9 -0.5
v -0.7 0.9 -0.5
v 0.7 0.9 -0.5
v 0.8 0.9 -0.5
v -0.7 0.9 -0.6
v -0.6 0.9 -0.6
v 0.6 0.9 -0.6
v 0.7 0.9 -0.6
v -0.7 1 1.1
v -0.6 1 1.1
v 0.6 1 1.1
v 0.7 1 1.1
v -0.7 1 0.9
v -0.6 1 0.9
v 0.6 1 0.9
v 0.7 1 0.9
v -0.6 1 -0.0999999
v -0.5 1 -0.0999999
v 0.5 1 -0.0999999
v 0.6 1 -0.0999999
v -0.6 1 -0.3
v -0.5 1 -0.3
v 0.5 1 -0.3
v 0.6 1 -0.3
v -0.8 1.2 0.1
v -0.7 1.2 0.1
v 0.7 1.2 0.1
v 0.8 1.2 0.1
v -0.8 1.2 -0.3
v -0.7 1.2 -0.3
v 0.7 1.2 -0.3
v 0.8 1.2 -0.3
v -0.7 1.3 0.2
v -0.6 1.3 0.2
v 0.6 1.3 0.2
v 0.7 1.3 0.2
v -0.6 1.3 -0.2
v 0.6 1.3 -0.2
v -0.7 1.3 -0.3
v -0.6 1.3 -0.3
v 0.6 1.3 -0.3
v 0.7 1.3 -0.3
v -0.4 1.4 1.3
v -0.3 1.4 1.3
v 0.3 1.4 1.3
v 0.4 1.4 1.3
v -0.4 1.4 1.2
v -0.3 1.4 1.2
v 0.3 1.4 1.2
v 0.4 1.4 1.2
v -0.6 1.4 -0.0999999
v -0.5 1.4 -0.0999999
v 0.5 1.4 -0.0999999
v 0.6 1.4 -0.0999999
v -0.6 1.4 -0.2
v -0.5 1.4 -0.2
v 0.5 1.4 -0.2
v 0.6 1.4 -0.2
v -0.6 1.5 1.2
v -0.5 1.5 1.2
v 0.5 1.5 1.2
v 0.6 1.5 1.2
v -0.6 1.5 1.1
v -0.5 1.5 1.1
v 0.5 1.5 1.1
v 0.6 1.5 1.1
v -0.6 1.5 0.1
v 0.6 1.5 0.1
v -0.6 1.5 -0.0999999
v -0.5 1.5 -0.0999999
v 0.5 1.5 -0.0999999
v 0.6 1.5 -0.0999999
v -0.5 1.5 -0.2
v -0.2 1.5 -0.2
v 0.2 1.5 -0.2
v 0.5 1.5 -0.2
v -0.2 1.5 -0.3
v -0.1 1.5 -0.3
v 0.1 1.5 -0.3
v 0.2 1.5 -0.3
v -0.1 1.5 -0.7
v 0.1 1.5 -0.7
v -0.3 1.6 1.3
v -0.2 1.6 1.3
v 0.2 1.6 1.3
v 0.3 1.6 1.3
v -0.5 1.6 1.2
v -0.4 1.6 1.2
v -0.3 1.6 1.2
v -0.2 1.6 1.2
v 0.2 1.6 1.2
v 0.3 1.6 1.2
v 0.4 1.6 1.2
v 0.5 1.6 1.2
v -0.6 1.6 1.1
v -0.5 1.6 1.1
v -0.4 1.6 1.1
v 0.4 1.6 1.1
v 0.5 1.6 1.1
v 0.6 1.6 1.1
v -0.5 1.6 0.3
v 0.5 1.6 0.3
v -0.6 1.6 0.1
v 0.6 1.6 0.1
v -0.4 1.7 1.2
v -0.3 1.7 1.2
v 0.3 1.7 1.2
v 0.4 1.7 1.2
v -0.5 1.7 1.1
v -0.4 1.7 1.1
v 0.4 1.7 1.1
v 0.5 1.7 1.1
v -0.3 1.7 0.8
v 0.3 1.7 0.8
v -0.5 1.7 0.3
v 0.5 1.7 0.3
v -0.3 1.8 0.9
v 0.3 1.8 0.9
v -0.3 1.8 0.8
v 0.3 1.8 0.8
v -0.3 1.9 1
v 0.3 1.9 1
v -0.3 1.9 0.9
v 0.3 1.9 0.9
v -0.2 2.1 1.7
v -0.1 2.1 1.7
v 0.1 2.1 1.7
v 0.2 2.1 1.7
v -0.1 2.1 1.6
v 0.1 2.1 1.6
v -0.2 2.1 1.5
v -0.1 2.1 1.5
v 0.1 2.1 1.5
v 0.2 2.1 1.5
v -0.3 2.1 1.1
v 0.3 2.1 1.1
v -0.3 2.1 1
v 0.3 2.1 1
v -0.1 2.2 1.7
v 0.1 2.2 1.7
v -0.1 2.2 1.6
v 0.1 2.2 1.6
v -0.4 2.2 1.5
v -0.3 2.2 1.5
v -0.1 2.2 1.5
v 0.1 2.2 1.5
v 0.3 2.2 1.5
v 0.4 2.2 1.5
v -0.4 2.2 1.1
v -0.3 2.2 1.1
v 0.3 2.2 1.1
v 0.4 2.2 1.1
v -0.3 2.4 1.5
v 0.3 2.4 1.5
v -0.3 2.4 1.3
v -0.1 2.4 1.3
v 0.1 2.4 1.3
v 0.3 2.4 1.3
v -0.2 2.4 1.2
v -0.1 2.4 1.2
v 0.1 2.4 1.2
v 0.2 2.4 1.2
v -0.2 2.4 1.1
v 0.2 2.4 1.1
v -0.3 2.5 1.3
v -0.2 2.5 1.3
v 0.2 2.5 1.3
v 0.3 2.5 1.3
v -0.2 2.5 1.2
v 0.2 2.5 1.2
v -0.3 2.5 1.1
v -0.2 2.5 1.1
v 0.2 2.5 1.1
v 0.3 2.5 1.1
v -0.2 2.7 1.3
v -0.1 2.7 1.3
v 0.1 2.7 1.3
v 0.2 2.7 1.3
v -0.2 2.7 1.2
v -0.1 2.7 1.2
v 0.1 2.7 1.2
v 0.2 2.7 1.2

# faces
f 5/2/1 2/2/1 1/2/1
f 6/2/1 2/2/1 5/2/1
f 7/2/1 4/2/1 3/2/1
f 8/2/1 4/2/1 7/2/1
f 9/2/1 2/2/1 6/2/1
f 10/2/1 2/2/1 9/2/1
f 11/2/1 4/2/1 8/2/1
f 12/2/1 4/2/1 11/2/1
f 19/2/1 16/2/1 15/2/1
f 20/2/1 16/2/1 19/2/1
f 24/2/1 18/2/1 17/2/1
f 25/2/1 18/2/1 24/2/1
f 26/2/1 14/2/1 13/2/1
f 27/2/1 14/2/1 26/2/1
f 28/2/1 23/2/1 22/2/1
f 28/2/1 22/2/1 21/2/1
f 29/2/1 23/2/1 28/2/1
f 32/2/1 23/2/1 29/2/1
f 33/2/1 23/2/1 32/2/1
f 35/2/1 31/2/1 30/2/1
f 36/2/1 31/2/1 35/2/1
f 37/2/1 31/2/1 36/2/1
f 38/2/1 35/2/1 34/2/1
f 38/2/1 36/2/1 35/2/1
f 39/2/1 36/2/1 38/2/1
f 44/2/1 41/2/1 40/2/1
f 45/2/1 41/2/1 44/2/1
f 48/2/1 43/2/1 42/2/1
f 49/2/1 43/2/1 48/2/1
f 50/2/1 41/2/1 45/2/1
f 51/2/1 41/2/1 50/2/1
f 52/2/1 47/2/1 46/2/1
f 53/2/1 47/2/1 52/2/1
f 54/2/1 48/2/1 42/2/1
f 56/2/1 54/2/1 42/2/1
f 56/2/1 55/2/1 54/2/1
f 57/2/1 55/2/1 56/2/1
f 63/2/1 59/2/1 58/2/1
f 64/2/1 59/2/1 63/2/1
f 65/2/1 61/2/1 60/2/1
f 66/2/1 64/2/1 63/2/1
f 66/2/1 65/2/1 64/2/1
f 66/2/1 61/2/1 65/2/1
f 66/2/1 63/2/1 62/2/1
f 68/2/1 67/2/1 66/2/1
f 69/2/1 67/2/1 68/2/1
f 70/2/1 66/2/1 62/2/1
f 70/2/1 68/2/1 66/2/1
f 71/2/1 68/2/1 70/2/1
f 72/2/1 68/2/1 71/2/1
f 73/2/1 68/2/1 72/2/1
f 74/2/1 72/2/1 71/2/1
f 75/2/1 72/2/1 74/2/1
f 78/2/1 77/2/1 76/2/1
f 79/2/1 77/2/1 78/2/1
f 84/2/1 81/2/1 80/2/1
f 85/2/1 81/2/1 84/2/1
f 86/2/1 83/2/1 82/2/1
f 87/2/1 83/2/1 86/2/1
f 89/2/1 88/2/1 87/2/1
f 90/2/1 88/2/1 89/2/1
f 93/2/1 92/2/1 91/2/1
f 94/2/1 92/2/1 93/2/1
f 97/2/1 96/2/1 95/2/1
f 98/2/1 96/2/1 97/2/1
f 101/2/1 100/2/1 99/2/1
f 102/2/1 100/2/1 101/2/1
f 105/2/1 104/2/1 103/2/1
f 106/2/1 104/2/1 105/2/1
f 111/2/1 108/2/1 107/2/1
f 111/2/1 109/2/1 108/2/1
f 112/2/1 109/2/1 111/2/1
f 113/2/1 109/2/1 112/2/1
f 114/2/1 111/2/1 110/2/1
f 114/2/1 112/2/1 111/2/1
f 115/2/1 112/2/1 114/2/1
f 116/2/1 112/2/1 115/2/1
f 117/2/1 112/2/1 116/2/1
f 118/2/1 116/2/1 115/2/1
f 119/2/1 116/2/1 118/2/1
f 122/2/1 121/2/1 120/2/1
f 123/2/1 121/2/1 122/2/1
f 124/2/1 121/2/1 123/2/1
f 125/2/1 121/2/1 124/2/1
f 128/2/1 127/2/1 126/2/1
f 129/2/1 127/2/1 128/2/1
f 132/2/1 131/2/1 130/2/1
f 133/2/1 131/2/1 132/2/1
f 136/2/1 135/2/1 134/2/1
f 137/2/1 135/2/1 136/2/1
f 140/2/1 139/2/1 138/2/1
f 141/2/1 139/2/1 140/2/1
f 144/2/1 143/2/1 142/2/1
f 145/2/1 143/2/1 144/2/1
f 146/2/1 143/2/1 145/2/1
f 148/2/1 147/2/1 146/2/1
f 148/2/1 146/2/1 145/2/1
f 149/2/1 147/2/1 148/2/1
f 153/3/1 151/3/1 150/3/1
f 154/2/1 152/2/1 151/2/1
f 154/3/1 151/3/1 153/3/1
f 155/2/1 152/2/1 154/2/1
f 158/2/1 157/2/1 156/2/1
f 159/2/1 157/2/1 158/2/1
f 162/2/1 161/2/1 160/2/1
f 163/2/1 161/2/1 162/2/1
f 166/2/1 165/2/1 164/2/1
f 167/2/1 165/2/1 166/2/1
f 168/2/1 165/2/1 167/2/1
f 169/2/1 165/2/1 168/2/1
f 170/2/1 165/2/1 169/2/1
f 171/2/1 165/2/1 170/2/1
f 175/2/1 173/2/1 172/2/1
f 176/2/1 175/2/1 174/2/1
f 177/2/1 173/2/1 175/2/1
f 177/2/1 175/2/1 176/2/1
f 180/2/1 179/2/1 178/2/1
f 181/2/1 179/2/1 180/2/1
f 184/2/1 179/2/1 181/2/1
f 185/2/1 179/2/1 184/2/1
f 186/2/1 183/2/1 182/2/1
f 187/2/1 183/2/1 186/2/1
f 190/2/1 189/2/1 188/2/1
f 191/2/1 189/2/1 190/2/1
f 194/2/1 193/2/1 192/2/1
f 195/2/1 193/2/1 194/2/1
f 199/2/1 198/2/1 197/2/1
f 199/2/1 197/2/1 196/2/1
f 200/2/1 198/2/1 199/2/1
f 205/2/1 202/2/1 201/2/1
f 206/2/1 202/2/1 205/2/1
f 207/2/1 198/2/1 200/2/1
f 208/2/1 198/2/1 207/2/1
f 209/2/1 204/2/1 203/2/1
f 210/2/1 204/2/1 209/2/1
f 216/2/1 214/2/1 213/2/1
f 216/2/1 215/2/1 214/2/1
f 217/2/1 215/2/1 216/2/1
f 218/2/1 212/2/1 211/2/1
f 220/2/1 218/2/1 211/2/1
f 220/2/1 219/2/1 218/2/1
f 221/2/1 219/2/1 220/2/1
f 222/2/1 219/2/1 221/2/1
f 223/2/1 219/2/1 222/2/1
f 226/2/2 227/2/2 229/2/2
f 227/2/2 228/2/2 229/2/2
f 229/2/2 228/2/2 230/2/2
f 224/2/2 225/2/2 231/2/2
f 224/2/2 231/2/2 233/2/2
f 231/2/2 232/2/2 233/2/2
f 233/2/2 232/2/2 234/2/2
f 234/2/2 232/2/2 235/2/2
f 235/2/2 232/2/2 236/2/2
f 237/2/2 238/2/2 239/2/2
f 239/2/2 238/2/2 240/2/2
f 242/2/2 243/2/2 244/2/2
f 241/2/2 242/2/2 244/2/2
f 244/2/2 243/2/2 245/2/2
f 246/2/2 247/2/2 250/2/2
f 250/2/2 247/2/2 251/2/2
f 245/2/2 243/2/2 252/2/2
f 252/2/2 243/2/2 253/2/2
f 248/2/2 249/2/2 254/2/2
f 254/2/2 249/2/2 255/2/2
f 256/2/2 257/2/2 258/2/2
f 258/2/2 257/2/2 259/2/2
f 259/2/2 257/2/2 262/2/2
f 262/2/2 257/2/2 263/2/2
f 260/2/2 261/2/2 264/2/2
f 264/2/2 261/2/2 265/2/2
f 266/2/2 267/2/2 268/2/2
f 268/2/2 267/2/2 269/2/2
f 270/2/2 271/2/2 272/2/2
f 272/2/2 271/2/2 273/2/2
f 273/2/2 271/2/2 274/2/2
f 274/2/2 271/2/2 275/2/2
f 275/2/2 271/2/2 276/2/2
f 276/2/2 271/2/2 277/2/2
f 278/2/2 279/2/2 281/2/2
f 280/2/2 281/2/2 282/2/2
f 281/2/2 279/2/2 283/2/2
f 282/2/2 281/2/2 283/2/2
f 284/2/2 285/2/2 286/2/2
f 286/2/2 285/2/2 287/2/2
f 288/2/2 289/2/2 290/2/2
f 290/2/2 289/2/2 291/2/2
f 292/2/2 293/2/2 294/2/2
f 294/2/2 293/2/2 295/2/2
f 295/2/2 293/2/2 296/2/2
f 296/2/2 297/2/2 298/2/2
f 295/2/2 296/2/2 298/2/2
f 298/2/2 297/2/2 299/2/2
f 300/3/2 301/3/2 303/3/2
f 301/2/2 302/2/2 304/2/2
f 303/3/2 301/3/2 304/3/2
f 304/2/2 302/2/2 305/2/2
f 306/2/2 307/2/2 308/2/2
f 308/2/2 307/2/2 309/2/2
f 310/2/2 311/2/2 312/2/2
f 312/2/2 311/2/2 313/2/2
f 314/2/2 315/2/2 316/2/2
f 316/2/2 315/2/2 317/2/2
f 318/2/2 319/2/2 320/2/2
f 320/2/2 319/2/2 321/2/2
f 322/2/2 323/2/2 324/2/2
f 324/2/2 323/2/2 325/2/2
f 326/2/2 327/2/2 330/2/2
f 327/2/2 328/2/2 330/2/2
f 330/2/2 328/2/2 331/2/2
f 331/2/2 328/2/2 332/2/2
f 329/2/2 330/2/2 333/2/2
f 330/2/2 331/2/2 333/2/2
f 333/2/2 331/2/2 334/2/2
f 334/2/2 331/2/2 335/2/2
f 335/2/2 331/2/2 336/2/2
f 334/2/2 335/2/2 337/2/2
f 337/2/2 335/2/2 338/2/2
f 339/2/2 340/2/2 341/2/2
f 341/2/2 340/2/2 342/2/2
f 342/2/2 340/2/2 343/2/2
f 343/2/2 340/2/2 344/2/2
f 345/2/2 346/2/2 347/2/2
f 347/2/2 346/2/2 348/2/2
f 349/2/2 350/2/2 351/2/2
f 351/2/2 350/2/2 352/2/2
f 353/2/2 354/2/2 355/2/2
f 355/2/2 354/2/2 356/2/2
f 357/2/2 358/2/2 359/2/2
f 359/2/2 358/2/2 360/2/2
f 361/2/2 362/2/2 365/2/2
f 365/2/2 362/2/2 366/2/2
f 363/2/2 364/2/2 367/2/2
f 367/2/2 364/2/2 368/2/2
f 368/2/2 369/2/2 370/2/2
f 370/2/2 369/2/2 371/2/2
f 372/2/2 373/2/2 377/2/2
f 377/2/2 373/2/2 378/2/2
f 374/2/2 375/2/2 379/2/2
f 377/2/2 378/2/2 380/2/2
f 378/2/2 379/2/2 380/2/2
f 379/2/2 375/2/2 380/2/2
f 376/2/2 377/2/2 380/2/2
f 380/2/2 381/2/2 382/2/2
f 382/2/2 381/2/2 383/2/2
f 376/2/2 380/2/2 384/2/2
f 380/2/2 382/2/2 384/2/2
f 384/2/2 382/2/2 385/2/2
f 385/2/2 382/2/2 386/2/2
f 386/2/2 382/2/2 387/2/2
f 385/2/2 386/2/2 388/2/2
f 388/2/2 386/2/2 389/2/2
f 390/2/2 391/2/2 394/2/2
f 394/2/2 391/2/2 395/2/2
f 392/2/2 393/2/2 398/2/2
f 398/2/2 393/2/2 399/2/2
f 395/2/2 391/2/2 400/2/2
f 400/2/2 391/2/2 401/2/2
f 396/2/2 397/2/2 402/2/2
f 402/2/2 397/2/2 403/2/2
f 392/2/2 398/2/2 404/2/2
f 392/2/2 404/2/2 406/2/2
f 404/2/2 405/2/2 406/2/2
f 406/2/2 405/2/2 407/2/2
f 410/2/2 411/2/2 414/2/2
f 414/2/2 411/2/2 415/2/2
f 412/2/2 413/2/2 419/2/2
f 419/2/2 413/2/2 420/2/2
f 408/2/2 409/2/2 421/2/2
f 421/2/2 409/2/2 422/2/2
f 417/2/2 418/2/2 423/2/2
f 416/2/2 417/2/2 423/2/2
f 423/2/2 418/2/2 424/2/2
f 424/2/2 418/2/2 427/2/2
f 427/2/2 418/2/2 428/2/2
f 425/2/2 426/2/2 430/2/2
f 430/2/2 426/2/2 431/2/2
f 431/2/2 426/2/2 432/2/2
f 429/2/2 430/2/2 433/2/2
f 430/2/2 431/2/2 433/2/2
f 433/2/2 431/2/2 434/2/2
f 435/2/2 436/2/2 439/2/2
f 439/2/2 436/2/2 440/2/2
f 437/2/2 438/2/2 441/2/2
f 441/2/2 438/2/2 442/2/2
f 440/2/2 436/2/2 443/2/2
f 443/2/2 436/2/2 444/2/2
f 442/2/2 438/2/2 445/2/2
f 445/2/2 438/2/2 446/2/2
f 449/2/3 448/2/3 447/2/3
f 451/2/3 449/2/3 447/2/3
f 451/3/3 450/3/3 449/3/3
f 452/3/3 450/3/3 451/3/3
f 453/2/3 451/2/3 447/2/3
f 454/2/3 451/2/3 453/2/3
f 457/2/3 456/2/3 455/2/3
f 459/2/3 457/2/3 455/2/3
f 459/2/3 458/2/3 457/2/3
f 460/2/3 458/2/3 459/2/3
f 461/2/3 459/2/3 455/2/3
f 462/2/3 459/2/3 461/2/3
f 465/2/3 464/2/3 463/2/3
f 467/2/3 465/2/3 463/2/3
f 467/2/3 466/2/3 465/2/3
f 468/2/3 466/2/3 467/2/3
f 469/2/3 466/2/3 468/2/3
f 470/2/3 466/2/3 469/2/3
f 471/2/3 469/2/3 468/2/3
f 472/1/3 470/1/3 469/1/3
f 472/2/3 469/2/3 471/2/3
f 473/2/3 466/2/3 470/2/3
f 473/1/3 470/1/3 472/1/3
f 475/2/3 473/2/3 472/2/3
f 476/2/3 466/2/3 473/2/3
f 476/2/3 473/2/3 475/2/3
f 478/2/3 475/2/3 474/2/3
f 479/1/3 476/1/3 475/1/3
f 479/2/3 475/2/3 478/2/3
f 480/2/3 466/2/3 476/2/3
f 480/1/3 476/1/3 479/1/3
f 481/2/3 479/2/3 478/2/3
f 481/2/3 478/2/3 477/2/3
f 481/2/3 480/2/3 479/2/3
f 482/2/3 466/2/3 480/2/3
f 482/2/3 480/2/3 481/2/3
f 485/2/3 481/2/3 477/2/3
f 486/2/3 481/2/3 485/2/3
f 487/2/3 484/2/3 483/2/3
f 489/2/3 487/2/3 483/2/3
f 489/2/3 488/2/3 487/2/3
f 490/2/3 488/2/3 489/2/3
f 491/2/3 489/2/3 483/2/3
f 492/2/3 489/2/3 491/2/3
f 495/2/3 494/2/3 493/2/3
f 496/2/3 494/2/3 495/2/3
f 499/2/3 498/2/3 497/2/3
f 500/2/3 498/2/3 499/2/3
f 503/2/3 502/2/3 501/2/3
f 504/2/3 502/2/3 503/2/3
f 507/2/3 506/2/3 505/2/3
f 508/2/3 506/2/3 507/2/3
f 511/2/3 510/2/3 509/2/3
f 512/2/3 510/2/3 511/2/3
f 515/2/3 514/2/3 513/2/3
f 521/2/3 516/2/3 515/2/3
f 522/2/3 518/2/3 517/2/3
f 523/2/3 520/2/3 519/2/3
f 525/2/3 523/2/3 519/2/3
f 525/2/3 524/2/3 523/2/3
f 526/2/3 524/2/3 525/2/3
f 529/2/3 522/2/3 521/2/3
f 529/2/3 521/2/3 515/2/3
f 530/2/3 518/2/3 522/2/3
f 530/2/3 522/2/3 529/2/3
f 531/2/3 528/2/3 527/2/3
f 532/2/3 528/2/3 531/2/3
f 533/2/3 515/2/3 513/2/3
f 533/2/3 529/2/3 515/2/3
f 534/2/3 529/2/3 533/2/3
f 535/2/3 518/2/3 530/2/3
f 536/2/3 518/2/3 535/2/3
f 537/2/3 531/2/3 527/2/3
f 538/2/3 531/2/3 537/2/3
f 539/2/3 533/2/3 513/2/3
f 540/2/3 533/2/3 539/2/3
f 545/2/3 542/2/3 541/2/3
f 546/2/3 542/2/3 545/2/3
f 548/2/3 544/2/3 543/2/3
f 549/2/3 544/2/3 548/2/3
f 551/2/3 550/2/3 549/2/3
f 551/2/3 549/2/3 548/2/3
f 551/2/3 548/2/3 547/2/3
f 552/2/3 550/2/3 551/2/3
f 553/2/3 550/2/3 552/2/3
f 555/2/3 551/2/3 547/2/3
f 556/2/3 551/2/3 555/2/3
f 557/2/3 554/2/3 553/2/3
f 557/2/3 553/2/3 552/2/3
f 558/2/3 554/2/3 557/2/3
f 559/2/3 554/2/3 558/2/3
f 560/2/3 559/2/3 558/2/3
f 561/2/3 559/2/3 560/2/3
f 565/2/3 551/2/3 556/2/3
f 567/2/3 563/2/3 562/2/3
f 568/2/3 563/2/3 567/2/3
f 569/2/3 565/2/3 564/2/3
f 569/2/3 551/2/3 565/2/3
f 570/2/3 568/2/3 567/2/3
f 570/2/3 567/2/3 566/2/3
f 571/2/3 568/2/3 570/2/3
f 572/2/3 568/2/3 571/2/3
f 575/2/3 569/2/3 564/2/3
f 575/2/3 570/2/3 569/2/3
f 575/2/3 571/2/3 570/2/3
f 576/2/3 571/2/3 575/2/3
f 577/2/3 571/2/3 576/2/3
f 578/2/3 571/2/3 577/2/3
f 579/2/3 577/2/3 576/2/3
f 580/2/3 577/2/3 579/2/3
f 581/2/3 574/2/3 573/2/3
f 582/2/3 574/2/3 581/2/3
f 585/2/3 584/2/3 583/2/3
f 587/2/3 586/2/3 585/2/3
f 591/2/3 585/2/3 583/2/3
f 591/2/3 587/2/3 585/2/3
f 591/2/3 588/2/3 587/2/3
f 592/2/3 588/2/3 591/2/3
f 593/2/3 588/2/3 592/2/3
f 594/2/3 588/2/3 593/2/3
f 595/2/3 590/2/3 589/2/3
f 596/2/3 590/2/3 595/2/3
f 598/2/3 597/2/3 596/2/3
f 599/2/3 597/2/3 598/2/3
f 600/2/3 593/2/3 592/2/3
f 601/2/3 593/2/3 600/2/3
f 607/2/3 603/2/3 602/2/3
f 608/2/3 603/2/3 607/2/3
f 611/2/3 605/2/3 604/2/3
f 612/2/3 605/2/3 611/2/3
f 613/2/3 609/2/3 608/2/3
f 613/2/3 607/2/3 606/2/3
f 613/2/3 608/2/3 607/2/3
f 614/2/3 609/2/3 613/2/3
f 615/2/3 611/2/3 610/2/3
f 616/2/3 611/2/3 615/2/3
f 617/2/3 613/2/3 606/2/3
f 618/2/3 613/2/3 617/2/3
f 619/2/3 617/2/3 606/2/3
f 620/2/3 617/2/3 619/2/3
f 623/2/3 622/2/3 621/2/3
f 624/2/3 622/2/3 623/2/3
f 627/2/3 626/2/3 625/2/3
f 628/2/3 626/2/3 627/2/3
f 629/2/3 626/2/3 628/2/3
f 633/2/3 631/2/3 630/2/3
f 633/2/3 632/2/3 631/2/3
f 634/2/3 632/2/3 633/2/3
f 637/2/3 636/2/3 635/2/3
f 638/2/3 636/2/3 637/2/3
f 641/2/3 640/2/3 639/2/3
f 642/2/3 640/2/3 641/2/3
f 645/2/3 644/2/3 643/2/3
f 646/2/3 644/2/3 645/2/3
f 649/2/3 648/2/3 647/2/3
f 650/2/3 648/2/3 649/2/3
f 653/2/3 652/2/3 651/2/3
f 654/2/3 652/2/3 653/2/3
f 657/2/3 656/2/3 655/2/3
f 658/2/3 656/2/3 657/2/3
f 661/2/3 660/2/3 659/2/3
f 663/2/3 661/2/3 659/2/3
f 663/2/3 662/2/3 661/2/3
f 664/2/3 662/2/3 663/2/3
f 665/2/3 663/2/3 659/2/3
f 666/2/3 663/2/3 665/2/3
f 669/2/3 668/2/3 667/2/3
f 671/2/3 669/2/3 667/2/3
f 671/2/3 670/2/3 669/2/3
f 672/2/3 670/2/3 671/2/3
f 673/2/3 671/2/3 667/2/3
f 674/2/3 671/2/3 673/2/3
f 677/2/3 676/2/3 675/2/3
f 678/2/3 676/2/3 677/2/3
f 681/2/3 680/2/3 679/2/3
f 682/2/3 680/2/3 681/2/3
f 685/2/3 684/2/3 683/2/3
f 686/2/3 684/2/3 685/2/3
f 689/2/3 688/2/3 687/2/3
f 690/2/3 688/2/3 689/2/3
f 693/2/3 692/2/3 691/2/3
f 694/2/3 693/2/3 691/2/3
f 695/2/3 693/2/3 694/2/3
f 696/2/3 694/2/3 691/2/3
f 697/2/3 694/2/3 696/2/3
f 698/2/3 696/2/3 691/2/3
f 699/2/3 696/2/3 698/2/3
f 702/2/3 701/2/3 700/2/3
f 704/2/3 703/2/3 702/2/3
f 706/2/3 705/2/3 704/2/3
f 707/2/3 704/2/3 702/2/3
f 707/2/3 702/2/3 700/2/3
f 707/2/3 706/2/3 704/2/3
f 708/2/3 706/2/3 707/2/3
f 709/2/4 710/2/4 712/2/4
f 710/2/4 711/2/4 712/2/4
f 712/2/4 711/2/4 713/2/4
f 714/2/4 715/2/4 716/2/4
f 716/2/4 715/2/4 717/2/4
f 717/2/4 715/2/4 718/2/4
f 719/2/4 720/2/4 721/2/4
f 719/2/4 721/2/4 722/2/4
f 719/2/4 722/2/4 723/2/4
f 723/2/4 722/2/4 724/2/4
f 725/2/4 726/2/4 727/2/4
f 727/2/4 726/2/4 728/2/4
f 728/2/4 726/2/4 729/2/4
f 729/2/4 730/2/4 731/2/4
f 728/2/4 729/2/4 731/2/4
f 731/2/4 730/2/4 732/2/4
f 728/2/4 731/2/4 733/2/4
f 728/2/4 733/2/4 736/2/4
f 733/2/4 734/2/4 736/2/4
f 736/2/4 734/2/4 737/2/4
f 737/2/4 734/2/4 738/2/4
f 735/2/4 736/2/4 741/2/4
f 736/2/4 737/2/4 741/2/4
f 741/2/4 737/2/4 742/2/4
f 739/2/4 740/2/4 743/2/4
f 739/2/4 743/2/4 744/2/4
f 739/2/4 744/2/4 745/2/4
f 745/2/4 744/2/4 746/2/4
f 747/2/4 748/2/4 749/2/4
f 749/2/4 748/2/4 750/2/4
f 751/2/4 752/2/4 753/2/4
f 753/2/4 754/2/4 755/2/4
f 751/2/4 753/2/4 757/2/4
f 755/2/4 756/2/4 757/2/4
f 753/2/4 755/2/4 757/2/4
f 757/2/4 756/2/4 758/2/4
f 758/2/4 756/2/4 759/2/4
f 759/2/4 756/2/4 760/2/4
f 761/2/4 762/2/4 765/2/4
f 765/2/4 762/2/4 766/2/4
f 763/2/4 764/2/4 768/2/4
f 768/2/4 764/2/4 769/2/4
f 767/2/4 768/2/4 769/2/4
f 769/2/4 764/2/4 770/2/4
f 767/2/4 769/2/4 771/2/4
f 771/2/4 769/2/4 772/2/4
f 767/2/4 771/2/4 773/2/4
f 773/2/4 771/2/4 774/2/4
f 775/2/4 776/2/4 777/2/4
f 777/2/4 776/2/4 778/2/4
f 779/2/4 780/2/4 781/2/4
f 781/2/4 780/2/4 782/2/4
f 783/2/4 784/2/4 785/2/4
f 785/2/4 784/2/4 786/2/4
f 787/2/4 788/2/4 789/2/4
f 789/2/4 788/2/4 790/2/4
f 791/2/4 792/2/4 793/2/4
f 793/2/4 792/2/4 794/2/4
f 795/2/4 796/2/4 798/2/4
f 796/2/4 797/2/4 798/2/4
f 795/2/4 798/2/4 800/2/4
f 798/2/4 799/2/4 800/2/4
f 800/2/4 799/2/4 801/2/4
f 795/2/4 800/2/4 802/2/4
f 802/2/4 800/2/4 803/2/4
f 795/2/4 802/2/4 804/2/4
f 804/2/4 805/2/4 806/2/4
f 804/2/4 806/2/4 808/2/4
f 806/2/4 807/2/4 808/2/4
f 808/2/4 807/2/4 809/2/4
f 795/2/4 804/2/4 810/2/4
f 804/2/4 808/2/4 810/2/4
f 810/2/4 808/2/4 811/2/4
f 811/2/4 808/2/4 812/2/4
f 813/2/4 814/2/4 815/2/4
f 813/2/4 815/2/4 818/2/4
f 815/2/4 816/2/4 818/2/4
f 818/2/4 816/2/4 819/2/4
f 819/2/4 816/2/4 820/2/4
f 817/2/4 818/2/4 821/2/4
f 818/2/4 819/2/4 821/2/4
f 821/2/4 819/2/4 822/2/4
f 823/2/4 824/2/4 825/2/4
f 825/2/4 824/2/4 826/2/4
f 827/2/4 828/2/4 829/2/4
f 829/2/4 828/2/4 830/2/4
f 831/2/4 832/2/4 833/2/4
f 833/2/4 832/2/4 834/2/4
f 834/2/4 832/2/4 835/2/4
f 835/2/4 836/2/4 837/2/4
f 834/2/4 835/2/4 837/2/4
f 837/2/4 836/2/4 838/2/4
f 834/2/4 837/2/4 839/2/4
f 839/2/4 837/2/4 840/2/4
f 841/2/4 842/2/4 843/2/4
f 843/2/4 842/2/4 844/2/4
f 845/2/4 846/2/4 847/2/4
f 847/2/4 846/2/4 848/2/4
f 849/2/4 850/2/4 851/2/4
f 851/2/4 850/2/4 852/2/4
f 853/2/4 854/2/4 857/2/4
f 857/2/4 854/2/4 858/2/4
f 855/2/4 856/2/4 859/2/4
f 859/2/4 856/2/4 860/2/4
f 861/2/4 862/2/4 863/2/4
f 863/2/4 864/2/4 865/2/4
f 865/2/4 864/2/4 866/2/4
f 863/2/4 865/2/4 867/2/4
f 867/2/4 865/2/4 868/2/4
f 863/2/4 867/2/4 869/2/4
f 869/2/4 867/2/4 870/2/4
f 861/2/4 863/2/4 871/2/4
f 863/2/4 869/2/4 871/2/4
f 871/2/4 869/2/4 872/2/4
f 873/2/4 874/2/4 875/2/4
f 875/2/4 876/2/4 877/2/4
f 877/2/4 878/2/4 879/2/4
f 875/2/4 877/2/4 881/2/4
f 879/2/4 880/2/4 881/2/4
f 873/2/4 875/2/4 881/2/4
f 877/2/4 879/2/4 881/2/4
f 881/2/4 880/2/4 882/2/4
f 873/2/4 881/2/4 883/2/4
f 883/2/4 881/2/4 884/2/4
f 885/2/4 886/2/4 887/2/4
f 887/2/4 886/2/4 888/2/4
f 893/2/5 890/2/5 889/2/5
f 894/2/5 890/2/5 893/2/5
f 895/2/5 892/2/5 891/2/5
f 896/2/5 892/2/5 895/2/5
f 901/2/5 898/2/5 897/2/5
f 902/2/5 898/2/5 901/2/5
f 903/2/5 900/2/5 899/2/5
f 904/2/5 900/2/5 903/2/5
f 905/2/5 898/2/5 902/2/5
f 906/2/5 898/2/5 905/2/5
f 907/2/5 903/2/5 899/2/5
f 908/2/5 903/2/5 907/2/5
f 913/2/5 910/2/5 909/2/5
f 914/2/5 910/2/5 913/2/5
f 915/2/5 912/2/5 911/2/5
f 916/2/5 912/2/5 915/2/5
f 922/2/5 918/2/5 917/2/5
f 923/2/5 920/2/5 919/2/5
f 925/2/5 922/2/5 921/2/5
f 925/2/5 918/2/5 922/2/5
f 928/2/5 924/2/5 923/2/5
f 928/2/5 923/2/5 919/2/5
f 929/2/5 926/2/5 925/2/5
f 929/2/5 925/2/5 921/2/5
f 930/2/5 926/2/5 929/2/5
f 931/2/5 928/2/5 927/2/5
f 932/2/5 924/2/5 928/2/5
f 932/2/5 928/2/5 931/2/5
f 933/2/5 929/2/5 921/2/5
f 934/2/5 929/2/5 933/2/5
f 935/2/5 924/2/5 932/2/5
f 936/2/5 924/2/5 935/2/5
f 937/2/5 933/2/5 921/2/5
f 938/2/5 933/2/5 937/2/5
f 939/2/5 924/2/5 936/2/5
f 940/2/5 924/2/5 939/2/5
f 945/2/5 942/2/5 941/2/5
f 946/2/5 942/2/5 945/2/5
f 947/2/5 944/2/5 943/2/5
f 948/2/5 944/2/5 947/2/5
f 953/2/5 950/2/5 949/2/5
f 954/2/5 950/2/5 953/2/5
f 955/2/5 952/2/5 951/2/5
f 956/2/5 952/2/5 955/2/5
f 961/2/5 958/2/5 957/2/5
f 962/2/5 958/2/5 961/2/5
f 963/2/5 960/2/5 959/2/5
f 964/2/5 960/2/5 963/2/5
f 967/2/5 966/2/5 965/2/5
f 968/2/5 966/2/5 967/2/5
f 969/2/5 968/2/5 967/2/5
f 970/2/5 968/2/5 969/2/5
f 977/2/5 972/2/5 971/2/5
f 978/2/5 972/2/5 977/2/5
f 979/2/5 976/2/5 975/2/5
f 980/2/5 976/2/5 979/2/5
f 982/2/5 974/2/5 973/2/5
f 983/2/5 974/2/5 982/2/5
f 985/2/5 982/2/5 981/2/5
f 985/2/5 984/2/5 983/2/5
f 985/2/5 983/2/5 982/2/5
f 986/2/5 984/2/5 985/2/5
f 989/2/5 988/2/5 987/2/5
f 990/2/5 988/2/5 989/2/5
f 993/2/5 992/2/5 991/2/5
f 994/2/5 992/2/5 993/2/5
f 999/2/5 996/2/5 995/2/5
f 1000/2/5 996/2/5 999/2/5
f 1001/2/5 998/2/5 997/2/5
f 1002/2/5 998/2/5 1001/2/5
f 1005/2/5 1004/2/5 1003/2/5
f 1006/2/5 1004/2/5 1005/2/5
f 1011/2/5 1008/2/5 1007/2/5
f 1012/2/5 1008/2/5 1011/2/5
f 1013/2/5 1010/2/5 1009/2/5
f 1014/2/5 1010/2/5 1013/2/5
f 1017/2/5 1016/2/5 1015/2/5
f 1018/2/5 1016/2/5 1017/2/5
f 1022/2/5 1020/2/5 1019/2/5
f 1023/2/5 1020/2/5 1022/2/5
f 1025/2/5 1022/2/5 1021/2/5
f 1025/2/5 1024/2/5 1023/2/5
f 1025/2/5 1023/2/5 1022/2/5
f 1026/2/5 1024/2/5 1025/2/5
f 1027/2/5 1025/2/5 1021/2/5
f 1028/2/5 1025/2/5 1027/2/5
f 1029/2/5 1024/2/5 1026/2/5
f 1030/2/5 1024/2/5 1029/2/5
f 1031/2/6 1032/2/6 1039/2/6
f 1039/2/6 1032/2/6 1040/2/6
f 1033/2/6 1034/2/6 1041/2/6
f 1041/2/6 1034/2/6 1042/2/6
f 1035/2/6 1036/2/6 1043/2/6
f 1043/2/6 1036/2/6 1044/2/6
f 1037/2/6 1038/2/6 1045/2/6
f 1045/2/6 1038/2/6 1046/2/6
f 1047/2/6 1048/2/6 1055/2/6
f 1055/2/6 1048/2/6 1056/2/6
f 1049/2/6 1050/2/6 1057/2/6
f 1057/2/6 1050/2/6 1058/2/6
f 1051/2/6 1052/2/6 1059/2/6
f 1059/2/6 1052/2/6 1060/2/6
f 1053/2/6 1054/2/6 1061/2/6
f 1061/2/6 1054/2/6 1062/2/6
f 1063/2/6 1064/2/6 1068/2/6
f 1068/2/6 1064/2/6 1069/2/6
f 1065/2/6 1066/2/6 1072/2/6
f 1072/2/6 1066/2/6 1073/2/6
f 1069/2/6 1070/2/6 1075/2/6
f 1067/2/6 1068/2/6 1075/2/6
f 1068/2/6 1069/2/6 1075/2/6
f 1075/2/6 1070/2/6 1076/2/6
f 1073/2/6 1074/2/6 1077/2/6
f 1072/2/6 1073/2/6 1077/2/6
f 1071/2/6 1072/2/6 1077/2/6
f 1077/2/6 1074/2/6 1078/2/6
f 1067/2/6 1075/2/6 1079/2/6
f 1079/2/6 1075/2/6 1080/2/6
f 1076/2/6 1070/2/6 1081/2/6
f 1081/2/6 1070/2/6 1082/2/6
f 1071/2/6 1077/2/6 1083/2/6
f 1083/2/6 1077/2/6 1084/2/6
f 1078/2/6 1074/2/6 1085/2/6
f 1085/2/6 1074/2/6 1086/2/6
f 1087/2/6 1088/2/6 1092/2/6
f 1092/2/6 1088/2/6 1093/2/6
f 1089/2/6 1090/2/6 1096/2/6
f 1096/2/6 1090/2/6 1097/2/6
f 1093/2/6 1094/2/6 1099/2/6
f 1091/2/6 1092/2/6 1099/2/6
f 1092/2/6 1093/2/6 1099/2/6
f 1099/2/6 1094/2/6 1100/2/6
f 1097/2/6 1098/2/6 1101/2/6
f 1096/2/6 1097/2/6 1101/2/6
f 1095/2/6 1096/2/6 1101/2/6
f 1101/2/6 1098/2/6 1102/2/6
f 1091/2/6 1099/2/6 1103/2/6
f 1103/2/6 1099/2/6 1104/2/6
f 1102/2/6 1098/2/6 1105/2/6
f 1105/2/6 1098/2/6 1106/2/6
f 1104/2/6 1099/2/6 1107/2/6
f 1107/2/6 1099/2/6 1108/2/6
f 1102/2/6 1105/2/6 1109/2/6
f 1109/2/6 1105/2/6 1110/2/6
f 1111/2/6 1112/2/6 1115/2/6
f 1115/2/6 1112/2/6 1116/2/6
f 1113/2/6 1114/2/6 1117/2/6
f 1117/2/6 1114/2/6 1118/2/6
f 1119/2/6 1120/2/6 1123/2/6
f 1123/2/6 1120/2/6 1124/2/6
f 1121/2/6 1122/2/6 1125/2/6
f 1125/2/6 1122/2/6 1126/2/6
f 1127/2/6 1128/2/6 1131/2/6
f 1131/2/6 1128/2/6 1132/2/6
f 1129/2/6 1130/2/6 1133/2/6
f 1133/2/6 1130/2/6 1134/2/6
f 1135/2/6 1136/2/6 1139/2/6
f 1139/2/6 1136/2/6 1140/2/6
f 1137/2/6 1138/2/6 1141/2/6
f 1141/2/6 1138/2/6 1142/2/6
f 1143/2/6 1144/2/6 1147/2/6
f 1147/2/6 1144/2/6 1148/2/6
f 1145/2/6 1146/2/6 1149/2/6
f 1149/2/6 1146/2/6 1150/2/6
f 1151/2/6 1152/2/6 1155/2/6
f 1155/2/6 1152/2/6 1156/2/6
f 1153/2/6 1154/2/6 1157/2/6
f 1157/2/6 1154/2/6 1158/2/6
f 1156/2/6 1152/2/6 1159/2/6
f 1159/2/6 1152/2/6 1160/2/6
f 1153/2/6 1157/2/6 1161/2/6
f 1161/2/6 1157/2/6 1162/2/6
f 1163/2/6 1164/2/6 1167/2/6
f 1167/2/6 1164/2/6 1168/2/6
f 1165/2/6 1166/2/6 1169/2/6
f 1169/2/6 1166/2/6 1170/2/6
f 1171/2/6 1172/2/6 1175/2/6
f 1175/2/6 1172/2/6 1176/2/6
f 1173/2/6 1174/2/6 1177/2/6
f 1177/2/6 1174/2/6 1178/2/6
f 1179/2/6 1180/2/6 1183/2/6
f 1183/2/6 1180/2/6 1184/2/6
f 1181/2/6 1182/2/6 1185/2/6
f 1185/2/6 1182/2/6 1186/2/6
f 1187/2/6 1188/2/6 1191/2/6
f 1189/2/6 1190/2/6 1192/2/6
f 1187/2/6 1191/2/6 1193/2/6
f 1193/2/6 1191/2/6 1194/2/6
f 1192/2/6 1190/2/6 1195/2/6
f 1195/2/6 1190/2/6 1196/2/6
f 1197/2/6 1198/2/6 1201/2/6
f 1201/2/6 1198/2/6 1202/2/6
f 1199/2/6 1200/2/6 1203/2/6
f 1203/2/6 1200/2/6 1204/2/6
f 1205/2/6 1206/2/6 1209/2/6
f 1209/2/6 1206/2/6 1210/2/6
f 1207/2/6 1208/2/6 1211/2/6
f 1211/2/6 1208/2/6 1212/2/6
f 1213/2/6 1214/2/6 1217/2/6
f 1217/2/6 1214/2/6 1218/2/6
f 1215/2/6 1216/2/6 1219/2/6
f 1219/2/6 1216/2/6 1220/2/6
f 1221/2/6 1222/2/6 1223/2/6
f 1223/2/6 1222/2/6 1224/2/6
f 1224/2/6 1222/2/6 1225/2/6
f 1225/2/6 1222/2/6 1226/2/6
f 1224/2/6 1225/2/6 1227/2/6
f 1227/2/6 1225/2/6 1228/2/6
f 1228/2/6 1225/2/6 1229/2/6
f 1229/2/6 1225/2/6 1230/2/6
f 1228/2/6 1229/2/6 1231/2/6
f 1231/2/6 1229/2/6 1232/2/6
f 1232/2/6 1229/2/6 1233/2/6
f 1233/2/6 1229/2/6 1234/2/6
f 1232/2/6 1233/2/6 1235/2/6
f 1235/2/6 1233/2/6 1236/2/6
f 1237/2/6 1238/2/6 1243/2/6
f 1243/2/6 1238/2/6 1244/2/6
f 1239/2/6 1240/2/6 1245/2/6
f 1245/2/6 1240/2/6 1246/2/6
f 1241/2/6 1242/2/6 1250/2/6
f 1250/2/6 1242/2/6 1251/2/6
f 1247/2/6 1248/2/6 1252/2/6
f 1252/2/6 1248/2/6 1253/2/6
f 1249/2/6 1250/2/6 1255/2/6
f 1253/2/6 1254/2/6 1256/2/6
f 1249/2/6 1255/2/6 1257/2/6
f 1255/2/6 1256/2/6 1257/2/6
f 1256/2/6 1254/2/6 1258/2/6
f 1257/2/6 1256/2/6 1258/2/6
f 1259/2/6 1260/2/6 1264/2/6
f 1261/2/6 1262/2/6 1265/2/6
f 1263/2/6 1264/2/6 1267/2/6
f 1264/2/6 1260/2/6 1267/2/6
f 1265/2/6 1266/2/6 1268/2/6
f 1261/2/6 1265/2/6 1268/2/6
f 1263/2/6 1267/2/6 1269/2/6
f 1267/2/6 1268/2/6 1269/2/6
f 1268/2/6 1266/2/6 1270/2/6
f 1269/2/6 1268/2/6 1270/2/6
f 1271/2/6 1272/2/6 1273/2/6
f 1273/2/6 1272/2/6 1274/2/6
f 1275/2/6 1276/2/6 1277/2/6
f 1277/2/6 1276/2/6 1278/2/6
f 1279/2/6 1280/2/6 1283/2/6
f 1281/2/6 1282/2/6 1284/2/6
f 1279/2/6 1283/2/6 1285/2/6
f 1285/2/6 1283/2/6 1286/2/6
f 1284/2/6 1282/2/6 1287/2/6
f 1287/2/6 1282/2/6 1288/2/6
f 1289/2/6 1290/2/6 1291/2/6
f 1291/2/6 1290/2/6 1292/2/6
f 1293/3/6 1294/3/6 1295/3/6
f 1295/3/6 1294/3/6 1296/3/6
f 1295/2/6 1296/2/6 1299/2/6
f 1299/2/6 1296/2/6 1300/2/6
f 1297/2/6 1298/2/6 1303/2/6
f 1303/2/6 1298/2/6 1304/2/6
f 1301/2/6 1302/2/6 1305/2/6
f 1305/2/6 1302/2/6 1306/2/6
f 1307/2/6 1308/2/6 1309/2/6
f 1309/2/6 1308/2/6 1310/2/6
f 1310/2/6 1308/2/6 1311/2/6
f 1311/2/6 1308/2/6 1312/2/6
f 1310/2/6 1311/2/6 1314/2/6
f 1314/2/6 1311/2/6 1315/2/6
f 1313/2/6 1314/2/6 1317/2/6
f 1315/2/6 1316/2/6 1317/2/6
f 1314/2/6 1315/2/6 1317/2/6
f 1317/2/6 1316/2/6 1318/2/6
f 1319/2/6 1320/2/6 1323/2/6
f 1321/2/6 1322/2/6 1324/2/6
f 1319/2/6 1323/2/6 1325/2/6
f 1325/2/6 1323/2/6 1326/2/6
f 1324/2/6 1322/2/6 1327/2/6
f 1327/2/6 1322/2/6 1328/2/6
f 1329/2/6 1330/2/6 1333/2/6
f 1333/2/6 1330/2/6 1334/2/6
f 1331/2/6 1332/2/6 1335/2/6
f 1335/2/6 1332/2/6 1336/2/6
