# MagicaVoxel @ Ephtracy

# group
o 

# material
mtllib maid.mtl
usemtl palette

# normals
vn -1 0 0
vn 1 0 0
vn 0 0 1
vn 0 0 -1
vn 0 -1 0
vn 0 1 0

# texcoords
vt 0.0332031 0.5
vt 0.0878906 0.5
vt 0.373047 0.5
vt 0.787109 0.5
vt 0.818359 0.5
vt 0.962891 0.5
vt 0.994141 0.5

# verts
v -0.7 0 0.3
v -0.7 0 -0.4
v -0.7 0.1 0.3
v -0.7 0.1 0.2
v -0.7 0.1 -0.3
v -0.7 0.1 -0.4
v -0.7 0.2 0.2
v -0.7 0.2 0.1
v -0.7 0.2 -0.2
v -0.7 0.2 -0.3
v -0.7 0.4 -0.1
v -0.7 0.4 -0.2
v -0.7 0.5 0.1
v -0.7 0.5 -0.1
v -0.7 1.4 0.1
v -0.7 1.4 5.96046e-08
v -0.7 1.6 0.1
v -0.7 1.6 5.96046e-08
v -0.7 2.7 -0.1
v -0.7 2.7 -0.2
v -0.7 2.8 -0.1
v -0.7 2.8 -0.2
v -0.6 0.1 0.3
v -0.6 0.1 0.2
v -0.6 0.1 -0.3
v -0.6 0.1 -0.4
v -0.6 0.2 0.3
v -0.6 0.2 0.2
v -0.6 0.2 0.1
v -0.6 0.2 -0.2
v -0.6 0.2 -0.3
v -0.6 0.2 -0.4
v -0.6 0.4 0.3
v -0.6 0.4 0.2
v -0.6 0.4 0.1
v -0.6 0.4 -0.1
v -0.6 0.4 -0.2
v -0.6 0.4 -0.3
v -0.6 0.5 0.3
v -0.6 0.5 0.2
v -0.6 0.5 0.1
v -0.6 0.5 -0.1
v -0.6 0.5 -0.2
v -0.6 0.7 0.2
v -0.6 0.7 0.1
v -0.6 0.7 -0.1
v -0.6 1.2 0.3
v -0.6 1.2 0.2
v -0.6 1.3 0.3
v -0.6 1.3 0.2
v -0.6 1.3 0.1
v -0.6 1.4 0.1
v -0.6 1.4 5.96046e-08
v -0.6 1.4 -0.1
v -0.6 1.6 0.2
v -0.6 1.6 0.1
v -0.6 1.6 5.96046e-08
v -0.6 1.6 -0.1
v -0.6 1.7 0.1
v -0.6 1.7 5.96046e-08
v -0.6 2.1 0.3
v -0.6 2.1 5.96046e-08
v -0.6 2.2 5.96046e-08
v -0.6 2.2 -0.3
v -0.6 2.3 0.4
v -0.6 2.3 0.3
v -0.6 2.5 -0.2
v -0.6 2.5 -0.3
v -0.6 2.6 0.4
v -0.6 2.6 0.3
v -0.6 2.7 0.4
v -0.6 2.7 0.3
v -0.6 2.7 0.2
v -0.6 2.7 -0.1
v -0.6 2.7 -0.2
v -0.6 2.8 0.4
v -0.6 2.8 0.3
v -0.6 2.8 0.2
v -0.6 2.8 5.96046e-08
v -0.6 2.8 -0.1
v -0.6 2.8 -0.2
v -0.6 2.9 0.3
v -0.6 2.9 5.96046e-08
v -0.6 3 -0.1
v -0.6 3 -0.2
v -0.5 0 0.4
v -0.5 0 0.3
v -0.5 0.1 0.4
v -0.5 0.1 0.3
v -0.5 0.5 0.3
v -0.5 0.5 0.2
v -0.5 0.6 0.3
v -0.5 0.6 0.2
v -0.5 0.7 0.2
v -0.5 0.7 0.1
v -0.5 0.9 0.2
v -0.5 0.9 0.1
v -0.5 1.2 0.2
v -0.5 1.2 0.1
v -0.5 1.3 0.2
v -0.5 1.3 0.1
v -0.5 1.7 0.1
v -0.5 1.7 5.96046e-08
v -0.5 1.8 0.1
v -0.5 1.8 5.96046e-08
v -0.5 1.9 0.5
v -0.5 1.9 0.4
v -0.5 2 0.3
v -0.5 2 -0.1
v -0.5 2 -0.3
v -0.5 2 -0.4
v -0.5 2.1 0.4
v -0.5 2.1 0.3
v -0.5 2.1 5.96046e-08
v -0.5 2.1 -0.1
v -0.5 2.1 -0.3
v -0.5 2.2 5.96046e-08
v -0.5 2.2 -0.3
v -0.5 2.3 0.4
v -0.5 2.3 0.3
v -0.5 2.5 -0.2
v -0.5 2.5 -0.3
v -0.5 2.6 0.4
v -0.5 2.6 0.3
v -0.5 2.7 0.5
v -0.5 2.7 0.4
v -0.5 2.7 0.3
v -0.5 2.7 0.2
v -0.5 2.7 -0.2
v -0.5 2.8 0.4
v -0.5 2.8 0.3
v -0.5 2.8 0.2
v -0.5 2.8 5.96046e-08
v -0.5 2.8 -0.1
v -0.5 2.8 -0.3
v -0.5 2.8 -0.4
v -0.5 2.9 0.3
v -0.5 2.9 5.96046e-08
v -0.5 3 0.4
v -0.5 3 -0.1
v -0.5 3 -0.2
v -0.5 3 -0.3
v -0.5 3.1 -0.1
v -0.5 3.1 -0.2
v -0.4 0 -0.4
v -0.4 0 -0.5
v -0.4 0.1 0.4
v -0.4 0.1 0.3
v -0.4 0.2 0.3
v -0.4 0.2 0.2
v -0.4 0.2 -0.4
v -0.4 0.2 -0.5
v -0.4 0.4 0.4
v -0.4 0.4 0.3
v -0.4 0.4 0.2
v -0.4 0.4 0.1
v -0.4 0.4 -0.2
v -0.4 0.4 -0.3
v -0.4 0.5 0.2
v -0.4 0.5 0.1
v -0.4 0.5 -0.1
v -0.4 0.5 -0.2
v -0.4 0.6 0.3
v -0.4 0.6 0.2
v -0.4 0.7 0.1
v -0.4 0.7 -0.1
v -0.4 0.7 -0.2
v -0.4 0.7 -0.3
v -0.4 0.8 0.1
v -0.4 0.8 5.96046e-08
v -0.4 0.9 0.3
v -0.4 0.9 0.2
v -0.4 0.9 0.1
v -0.4 0.9 -0.1
v -0.4 0.9 -0.2
v -0.4 1.1 0.3
v -0.4 1.1 0.2
v -0.4 1.1 0.1
v -0.4 1.1 5.96046e-08
v -0.4 1.1 -0.1
v -0.4 1.2 0.3
v -0.4 1.2 0.2
v -0.4 1.2 0.1
v -0.4 1.2 -0.1
v -0.4 1.6 0.2
v -0.4 1.6 0.1
v -0.4 1.6 5.96046e-08
v -0.4 1.6 -0.1
v -0.4 1.8 0.6
v -0.4 1.8 0.4
v -0.4 1.8 0.2
v -0.4 1.8 0.1
v -0.4 1.8 5.96046e-08
v -0.4 1.8 -0.1
v -0.4 1.9 0.6
v -0.4 1.9 0.5
v -0.4 1.9 0.4
v -0.4 1.9 0.1
v -0.4 1.9 5.96046e-08
v -0.4 2 -0.1
v -0.4 2 -0.3
v -0.4 2.1 -0.1
v -0.4 2.1 -0.3
v -0.4 2.1 -0.4
v -0.4 2.1 -0.5
v -0.4 2.5 -0.4
v -0.4 2.5 -0.5
v -0.4 2.7 0.5
v -0.4 2.7 0.4
v -0.4 2.8 0.5
v -0.4 2.8 0.4
v -0.4 2.8 -0.3
v -0.4 2.8 -0.4
v -0.4 2.9 -0.3
v -0.4 2.9 -0.4
v -0.4 3 0.2
v -0.4 3 -0.1
v -0.4 3.1 0.2
v -0.4 3.1 -0.1
v -0.4 3.1 -0.2
v -0.4 3.2 -0.1
v -0.4 3.2 -0.2
v -0.3 0 0.5
v -0.3 0 0.4
v -0.3 0.2 0.5
v -0.3 0.2 0.4
v -0.3 0.2 -0.3
v -0.3 0.2 -0.5
v -0.3 0.4 0.4
v -0.3 0.4 0.3
v -0.3 0.4 -0.4
v -0.3 0.4 -0.5
v -0.3 0.6 -0.3
v -0.3 0.6 -0.4
v -0.3 0.7 0.4
v -0.3 0.7 0.3
v -0.3 0.9 0.3
v -0.3 0.9 0.2
v -0.3 0.9 -0.1
v -0.3 0.9 -0.2
v -0.3 1 0.4
v -0.3 1 0.3
v -0.3 1.1 0.4
v -0.3 1.1 0.3
v -0.3 1.1 0.2
v -0.3 1.1 0.1
v -0.3 1.1 -0.1
v -0.3 1.1 -0.2
v -0.3 1.2 0.2
v -0.3 1.2 0.1
v -0.3 1.2 -0.1
v -0.3 1.3 0.2
v -0.3 1.3 -0.1
v -0.3 1.4 0.3
v -0.3 1.4 0.2
v -0.3 1.4 -0.1
v -0.3 1.5 0.2
v -0.3 1.5 0.1
v -0.3 1.5 5.96046e-08
v -0.3 1.5 -0.1
v -0.3 1.7 0.3
v -0.3 1.7 0.2
v -0.3 2 0.4
v -0.3 2 -0.1
v -0.3 2 -0.4
v -0.3 2 -0.5
v -0.3 2.1 0.4
v -0.3 2.1 0.3
v -0.3 2.1 -0.1
v -0.3 2.1 -0.4
v -0.3 2.1 -0.5
v -0.3 2.5 -0.4
v -0.3 2.5 -0.5
v -0.3 2.7 -0.4
v -0.3 2.7 -0.5
v -0.3 2.8 0.5
v -0.3 2.8 0.4
v -0.3 2.9 0.5
v -0.3 2.9 0.4
v -0.3 2.9 -0.3
v -0.3 2.9 -0.4
v -0.3 3 -0.2
v -0.3 3 -0.3
v -0.3 3 -0.4
v -0.3 3.1 -0.2
v -0.3 3.1 -0.3
v -0.2 0.7 0.4
v -0.2 0.7 0.3
v -0.2 0.7 -0.2
v -0.2 0.7 -0.3
v -0.2 0.9 0.4
v -0.2 0.9 0.3
v -0.2 0.9 -0.2
v -0.2 0.9 -0.3
v -0.2 1.3 0.2
v -0.2 1.3 -0.1
v -0.2 1.4 0.2
v -0.2 1.4 -0.1
v -0.2 1.5 -0.5
v -0.2 1.5 -0.6
v -0.2 1.6 -0.7
v -0.2 1.6 -0.8
v -0.2 1.7 -0.6
v -0.2 1.7 -0.7
v -0.2 1.8 0.2
v -0.2 1.8 5.96046e-08
v -0.2 1.9 0.2
v -0.2 1.9 5.96046e-08
v -0.2 1.9 -0.8
v -0.2 1.9 -0.9
v -0.2 2 -0.5
v -0.2 2.7 -0.4
v -0.2 2.7 -0.5
v -0.2 2.8 -0.8
v -0.2 2.8 -0.9
v -0.2 3 0.3
v -0.2 3 0.2
v -0.2 3 -0.3
v -0.2 3 -0.4
v -0.2 3.1 0.3
v -0.2 3.1 0.2
v -0.2 3.1 0.1
v -0.2 3.1 -0.1
v -0.2 3.1 -0.3
v -0.2 3.1 -0.5
v -0.2 3.1 -0.8
v -0.2 3.2 0.1
v -0.2 3.2 -0.1
v -0.2 3.2 -0.2
v -0.2 3.2 -0.3
v -0.2 3.2 -0.5
v -0.2 3.3 -0.1
v -0.2 3.3 -0.2
v -0.1 0 -0.5
v -0.1 0 -0.6
v -0.1 0.1 -0.5
v -0.1 0.1 -0.6
v -0.1 0.9 0.4
v -0.1 0.9 0.3
v -0.1 1 0.4
v -0.1 1 0.3
v -0.1 1.1 0.3
v -0.1 1.1 0.2
v -0.1 1.2 0.3
v -0.1 1.2 0.2
v -0.1 1.7 5.96046e-08
v -0.1 1.7 -0.1
v -0.1 1.8 5.96046e-08
v -0.1 1.8 -0.1
v -0.1 1.9 0.2
v -0.1 1.9 5.96046e-08
v -0.1 2 0.2
v -0.1 2 5.96046e-08
v -0.1 3.1 -0.5
v -0.1 3.1 -0.7
v -0.1 3.2 -0.5
v -0.1 3.2 -0.7
v 0 1.6 -0.6
v 0 1.6 -0.7
v 0 1.7 -0.6
v 0 1.7 -0.7
v 0.1 2.9 0.5
v 0.1 2.9 0.4
v 0.1 3 0.5
v 0.1 3 0.4
v 0.1 3 0.3
v 0.1 3.1 0.4
v 0.1 3.1 0.3
v 0.1 3.2 -0.1
v 0.1 3.2 -0.2
v 0.1 3.3 -0.1
v 0.1 3.3 -0.2
v 0.2 1 0.4
v 0.2 1 0.3
v 0.2 1.1 0.4
v 0.2 1.1 0.3
v 0.2 1.8 0.6
v 0.2 1.8 0.5
v 0.2 1.9 0.6
v 0.2 1.9 0.5
v 0.3 1.1 0.3
v 0.3 1.1 0.2
v 0.3 1.2 0.3
v 0.3 1.2 0.2
v 0.3 1.7 5.96046e-08
v 0.3 1.7 -0.1
v 0.3 1.8 0.5
v 0.3 1.8 0.4
v 0.3 1.8 0.1
v 0.3 1.8 5.96046e-08
v 0.3 1.8 -0.1
v 0.3 1.9 0.5
v 0.3 1.9 0.4
v 0.3 1.9 0.1
v 0.3 1.9 5.96046e-08
v 0.3 2.8 0.5
v 0.3 2.8 0.4
v 0.3 2.9 0.5
v 0.3 2.9 0.4
v 0.4 1.2 0.3
v 0.4 1.2 0.2
v 0.4 1.2 0.1
v 0.4 1.3 0.3
v 0.4 1.3 0.1
v 0.4 1.4 0.2
v 0.4 1.4 -0.1
v 0.4 1.5 0.2
v 0.4 1.5 0.1
v 0.4 1.5 5.96046e-08
v 0.4 1.5 -0.1
v 0.4 1.9 0.6
v 0.4 1.9 0.4
v 0.4 2 0.6
v 0.4 2 0.5
v 0.4 2 0.3
v 0.4 2 -0.1
v 0.4 2.1 0.4
v 0.4 2.1 0.3
v 0.4 2.1 -0.1
v 0.4 2.2 0.4
v 0.4 2.3 0.4
v 0.4 2.6 0.4
v 0.4 2.8 0.5
v 0.4 2.8 0.4
v 0.5 1.3 0.2
v 0.5 1.3 0.1
v 0.5 1.4 0.2
v 0.5 1.4 0.1
v -0.5 1.3 0.2
v -0.5 1.3 0.1
v -0.5 1.4 0.2
v -0.5 1.4 0.1
v -0.4 1.2 0.3
v -0.4 1.2 0.2
v -0.4 1.2 0.1
v -0.4 1.3 0.3
v -0.4 1.3 0.1
v -0.4 1.4 0.2
v -0.4 1.4 -0.1
v -0.4 1.5 0.2
v -0.4 1.5 0.1
v -0.4 1.5 5.96046e-08
v -0.4 1.5 -0.1
v -0.4 1.9 0.5
v -0.4 1.9 0.4
v -0.4 2 0.3
v -0.4 2 -0.1
v -0.4 2.1 0.4
v -0.4 2.1 0.3
v -0.4 2.1 -0.1
v -0.4 2.2 0.4
v -0.4 2.3 0.4
v -0.4 2.4 0.4
v -0.4 2.5 0.5
v -0.4 2.5 0.4
v -0.3 1.1 0.3
v -0.3 1.1 0.2
v -0.3 1.2 0.3
v -0.3 1.2 0.2
v -0.3 1.7 5.96046e-08
v -0.3 1.7 -0.1
v -0.3 1.8 0.5
v -0.3 1.8 0.4
v -0.3 1.8 0.1
v -0.3 1.8 5.96046e-08
v -0.3 1.8 -0.1
v -0.3 1.9 0.5
v -0.3 1.9 0.4
v -0.3 1.9 0.1
v -0.3 1.9 5.96046e-08
v -0.3 2.5 0.5
v -0.3 2.5 0.4
v -0.3 2.6 0.5
v -0.3 2.6 0.4
v -0.2 1 0.4
v -0.2 1 0.3
v -0.2 1.1 0.4
v -0.2 1.1 0.3
v -0.2 1.8 0.6
v -0.2 1.8 0.5
v -0.2 1.9 0.6
v -0.2 1.9 0.5
v -0.1 1.5 -0.5
v -0.1 1.5 -0.6
v -0.1 1.6 -0.7
v -0.1 1.6 -0.8
v -0.1 1.7 -0.5
v -0.1 1.7 -0.6
v -0.1 1.7 -0.7
v -0.1 1.7 -0.8
v -0.1 1.9 -0.8
v -0.1 1.9 -0.9
v -0.1 2.8 -0.8
v -0.1 2.8 -0.9
v -0.1 3 -0.7
v -0.1 3 -0.8
v -0.1 3.1 -0.7
v -0.1 3.1 -0.8
v -0.1 3.2 -0.1
v -0.1 3.2 -0.2
v -0.1 3.3 -0.1
v -0.1 3.3 -0.2
v 0 1.7 -0.7
v 0 1.7 -0.8
v 0 3 -0.7
v 0 3 -0.8
v 0 3.1 -0.6
v 0 3.1 -0.7
v 0 3.2 -0.6
v 0 3.2 -0.7
v 0.1 0 -0.5
v 0.1 0 -0.6
v 0.1 0.1 -0.5
v 0.1 0.1 -0.6
v 0.1 0.9 0.4
v 0.1 0.9 0.3
v 0.1 1 0.4
v 0.1 1 0.3
v 0.1 1.1 0.3
v 0.1 1.1 0.2
v 0.1 1.2 0.3
v 0.1 1.2 0.2
v 0.1 1.6 -0.6
v 0.1 1.6 -0.7
v 0.1 1.7 5.96046e-08
v 0.1 1.7 -0.1
v 0.1 1.7 -0.5
v 0.1 1.7 -0.6
v 0.1 1.8 5.96046e-08
v 0.1 1.8 -0.1
v 0.1 1.9 0.2
v 0.1 1.9 5.96046e-08
v 0.1 2 0.2
v 0.1 2 5.96046e-08
v 0.1 2 -0.5
v 0.1 2.6 0.5
v 0.1 2.6 0.4
v 0.1 2.7 0.4
v 0.1 2.8 0.5
v 0.1 2.8 0.4
v 0.1 2.8 -0.4
v 0.1 2.8 -0.5
v 0.1 3 -0.3
v 0.1 3 -0.4
v 0.1 3.1 0.1
v 0.1 3.1 -0.1
v 0.1 3.1 -0.3
v 0.1 3.1 -0.6
v 0.1 3.1 -0.7
v 0.1 3.2 0.1
v 0.1 3.2 -0.1
v 0.1 3.2 -0.3
v 0.1 3.2 -0.6
v 0.2 0.7 0.4
v 0.2 0.7 0.3
v 0.2 0.7 -0.2
v 0.2 0.7 -0.3
v 0.2 0.9 0.4
v 0.2 0.9 0.3
v 0.2 0.9 -0.2
v 0.2 0.9 -0.3
v 0.2 1.3 0.2
v 0.2 1.3 -0.1
v 0.2 1.4 0.2
v 0.2 1.4 -0.1
v 0.2 1.8 0.2
v 0.2 1.8 5.96046e-08
v 0.2 1.9 0.2
v 0.2 1.9 5.96046e-08
v 0.2 2.8 0.5
v 0.2 2.8 0.4
v 0.2 2.9 0.5
v 0.2 2.9 0.4
v 0.2 2.9 -0.3
v 0.2 2.9 -0.4
v 0.2 3 0.4
v 0.2 3 0.3
v 0.2 3 -0.2
v 0.2 3 -0.3
v 0.2 3 -0.4
v 0.2 3.1 0.4
v 0.2 3.1 0.3
v 0.2 3.1 -0.2
v 0.2 3.1 -0.3
v 0.2 3.2 -0.1
v 0.2 3.2 -0.2
v 0.2 3.3 -0.1
v 0.2 3.3 -0.2
v 0.3 0 0.5
v 0.3 0 0.4
v 0.3 0.2 0.5
v 0.3 0.2 0.4
v 0.3 0.2 -0.3
v 0.3 0.2 -0.5
v 0.3 0.4 0.4
v 0.3 0.4 0.3
v 0.3 0.4 -0.4
v 0.3 0.4 -0.5
v 0.3 0.6 -0.3
v 0.3 0.6 -0.4
v 0.3 0.7 0.4
v 0.3 0.7 0.3
v 0.3 0.9 0.3
v 0.3 0.9 0.2
v 0.3 0.9 -0.1
v 0.3 0.9 -0.2
v 0.3 1 0.4
v 0.3 1 0.3
v 0.3 1.1 0.4
v 0.3 1.1 0.3
v 0.3 1.1 0.2
v 0.3 1.1 0.1
v 0.3 1.1 -0.1
v 0.3 1.1 -0.2
v 0.3 1.2 0.2
v 0.3 1.2 0.1
v 0.3 1.2 -0.1
v 0.3 1.3 0.2
v 0.3 1.3 -0.1
v 0.3 1.4 0.3
v 0.3 1.4 0.2
v 0.3 1.4 -0.1
v 0.3 1.5 0.2
v 0.3 1.5 0.1
v 0.3 1.5 5.96046e-08
v 0.3 1.5 -0.1
v 0.3 1.7 0.3
v 0.3 1.7 0.2
v 0.3 2 0.4
v 0.3 2 -0.1
v 0.3 2 -0.4
v 0.3 2 -0.5
v 0.3 2.1 0.4
v 0.3 2.1 0.3
v 0.3 2.1 -0.1
v 0.3 2.1 -0.4
v 0.3 2.1 -0.5
v 0.3 2.4 -0.4
v 0.3 2.4 -0.5
v 0.3 2.6 -0.4
v 0.3 2.6 -0.5
v 0.3 2.7 -0.4
v 0.3 2.7 -0.5
v 0.3 2.8 -0.4
v 0.3 2.8 -0.5
v 0.3 3 0.3
v 0.3 3 -0.1
v 0.3 3.1 0.3
v 0.3 3.1 -0.1
v 0.3 3.1 -0.2
v 0.3 3.2 -0.1
v 0.3 3.2 -0.2
v 0.4 0 -0.4
v 0.4 0 -0.5
v 0.4 0.1 0.4
v 0.4 0.1 0.3
v 0.4 0.2 0.3
v 0.4 0.2 0.2
v 0.4 0.2 -0.4
v 0.4 0.2 -0.5
v 0.4 0.4 0.4
v 0.4 0.4 0.3
v 0.4 0.4 0.2
v 0.4 0.4 0.1
v 0.4 0.4 -0.2
v 0.4 0.4 -0.3
v 0.4 0.5 0.2
v 0.4 0.5 0.1
v 0.4 0.5 -0.1
v 0.4 0.5 -0.2
v 0.4 0.6 0.3
v 0.4 0.6 0.2
v 0.4 0.7 0.1
v 0.4 0.7 -0.1
v 0.4 0.7 -0.2
v 0.4 0.7 -0.3
v 0.4 0.8 0.1
v 0.4 0.8 5.96046e-08
v 0.4 0.9 0.3
v 0.4 0.9 0.2
v 0.4 0.9 0.1
v 0.4 0.9 -0.1
v 0.4 0.9 -0.2
v 0.4 1.1 0.3
v 0.4 1.1 0.2
v 0.4 1.1 0.1
v 0.4 1.1 5.96046e-08
v 0.4 1.1 -0.1
v 0.4 1.2 0.3
v 0.4 1.2 0.2
v 0.4 1.2 0.1
v 0.4 1.2 -0.1
v 0.4 1.6 0.2
v 0.4 1.6 0.1
v 0.4 1.6 5.96046e-08
v 0.4 1.6 -0.1
v 0.4 1.8 0.6
v 0.4 1.8 0.4
v 0.4 1.8 0.2
v 0.4 1.8 0.1
v 0.4 1.8 5.96046e-08
v 0.4 1.8 -0.1
v 0.4 1.9 0.6
v 0.4 1.9 0.4
v 0.4 1.9 0.1
v 0.4 1.9 5.96046e-08
v 0.4 2.1 -0.4
v 0.4 2.1 -0.5
v 0.4 2.4 -0.4
v 0.4 2.4 -0.5
v 0.4 2.6 -0.4
v 0.4 2.6 -0.5
v 0.4 2.7 -0.4
v 0.4 2.7 -0.5
v 0.4 2.9 0.5
v 0.4 2.9 -0.1
v 0.4 2.9 -0.2
v 0.4 2.9 -0.3
v 0.4 3 0.5
v 0.4 3 -0.1
v 0.4 3 -0.2
v 0.4 3 -0.3
v 0.5 0 0.4
v 0.5 0 0.3
v 0.5 0.1 0.4
v 0.5 0.1 0.3
v 0.5 0.5 0.3
v 0.5 0.5 0.2
v 0.5 0.6 0.3
v 0.5 0.6 0.2
v 0.5 0.7 0.2
v 0.5 0.7 0.1
v 0.5 0.9 0.2
v 0.5 0.9 0.1
v 0.5 1.2 0.2
v 0.5 1.2 0.1
v 0.5 1.3 0.2
v 0.5 1.3 0.1
v 0.5 1.7 0.1
v 0.5 1.7 5.96046e-08
v 0.5 1.8 0.1
v 0.5 1.8 5.96046e-08
v 0.5 1.9 0.6
v 0.5 1.9 0.4
v 0.5 2 0.6
v 0.5 2 0.5
v 0.5 2 5.96046e-08
v 0.5 2 -0.4
v 0.5 2.1 0.4
v 0.5 2.1 0.3
v 0.5 2.2 0.4
v 0.5 2.2 0.3
v 0.5 2.2 5.96046e-08
v 0.5 2.2 -0.1
v 0.5 2.2 -0.2
v 0.5 2.2 -0.3
v 0.5 2.3 -0.1
v 0.5 2.3 -0.2
v 0.5 2.5 -0.2
v 0.5 2.5 -0.3
v 0.5 2.6 0.4
v 0.5 2.6 0.3
v 0.5 2.7 0.3
v 0.5 2.7 0.2
v 0.5 2.7 -0.1
v 0.5 2.7 -0.2
v 0.5 2.8 0.2
v 0.5 2.8 -0.1
v 0.5 2.8 -0.2
v 0.5 2.9 0.5
v 0.5 2.9 -0.1
v 0.5 2.9 -0.2
v 0.5 2.9 -0.4
v 0.5 3.1 -0.1
v 0.5 3.1 -0.2
v 0.6 0.1 0.3
v 0.6 0.1 0.2
v 0.6 0.1 -0.3
v 0.6 0.1 -0.4
v 0.6 0.2 0.3
v 0.6 0.2 0.2
v 0.6 0.2 0.1
v 0.6 0.2 -0.2
v 0.6 0.2 -0.3
v 0.6 0.2 -0.4
v 0.6 0.4 0.3
v 0.6 0.4 0.2
v 0.6 0.4 0.1
v 0.6 0.4 -0.1
v 0.6 0.4 -0.2
v 0.6 0.4 -0.3
v 0.6 0.5 0.3
v 0.6 0.5 0.2
v 0.6 0.5 0.1
v 0.6 0.5 -0.1
v 0.6 0.5 -0.2
v 0.6 0.7 0.2
v 0.6 0.7 0.1
v 0.6 0.7 -0.1
v 0.6 1.2 0.3
v 0.6 1.2 0.2
v 0.6 1.3 0.3
v 0.6 1.3 0.2
v 0.6 1.3 0.1
v 0.6 1.4 0.1
v 0.6 1.4 5.96046e-08
v 0.6 1.4 -0.1
v 0.6 1.6 0.2
v 0.6 1.6 0.1
v 0.6 1.6 5.96046e-08
v 0.6 1.6 -0.1
v 0.6 1.7 0.1
v 0.6 1.7 5.96046e-08
v 0.6 2 0.3
v 0.6 2 5.96046e-08
v 0.6 2.2 0.4
v 0.6 2.2 0.3
v 0.6 2.2 5.96046e-08
v 0.6 2.2 -0.1
v 0.6 2.2 -0.2
v 0.6 2.2 -0.3
v 0.6 2.3 -0.1
v 0.6 2.3 -0.2
v 0.6 2.5 -0.2
v 0.6 2.5 -0.3
v 0.6 2.6 0.4
v 0.6 2.6 0.3
v 0.6 2.7 0.3
v 0.6 2.7 0.2
v 0.6 2.7 5.96046e-08
v 0.6 2.7 -0.1
v 0.6 2.7 -0.2
v 0.6 2.8 0.2
v 0.6 2.8 5.96046e-08
v 0.6 2.8 -0.1
v 0.6 2.8 -0.2
v 0.6 2.9 -0.1
v 0.6 2.9 -0.2
v 0.7 0 0.3
v 0.7 0 -0.4
v 0.7 0.1 0.3
v 0.7 0.1 0.2
v 0.7 0.1 -0.3
v 0.7 0.1 -0.4
v 0.7 0.2 0.2
v 0.7 0.2 0.1
v 0.7 0.2 -0.2
v 0.7 0.2 -0.3
v 0.7 0.4 -0.1
v 0.7 0.4 -0.2
v 0.7 0.5 0.1
v 0.7 0.5 -0.1
v 0.7 1.4 0.1
v 0.7 1.4 5.96046e-08
v 0.7 1.6 0.1
v 0.7 1.6 5.96046e-08
v 0.7 2.7 5.96046e-08
v 0.7 2.7 -0.1
v 0.7 2.8 5.96046e-08
v 0.7 2.8 -0.1
v -0.4 1.8 0.6
v -0.4 1.9 0.6
v -0.2 1.8 0.6
v -0.2 1.9 0.6
v 0.2 1.8 0.6
v 0.2 1.9 0.6
v 0.4 1.8 0.6
v 0.4 1.9 0.6
v 0.4 2 0.6
v 0.5 1.9 0.6
v 0.5 2 0.6
v -0.5 1.9 0.5
v -0.5 2.7 0.5
v -0.4 1.9 0.5
v -0.4 2.5 0.5
v -0.4 2.7 0.5
v -0.4 2.8 0.5
v -0.3 0 0.5
v -0.3 0.2 0.5
v -0.3 2.5 0.5
v -0.3 2.6 0.5
v -0.3 2.8 0.5
v -0.3 2.9 0.5
v 0.1 2.6 0.5
v 0.1 2.8 0.5
v 0.1 2.9 0.5
v 0.1 3 0.5
v 0.2 2.8 0.5
v 0.2 2.9 0.5
v 0.3 0 0.5
v 0.3 0.2 0.5
v 0.3 2.8 0.5
v 0.3 2.9 0.5
v 0.4 2 0.5
v 0.4 2.8 0.5
v 0.4 2.9 0.5
v 0.4 3 0.5
v 0.5 2 0.5
v 0.5 2.9 0.5
v -0.6 2.3 0.4
v -0.6 2.6 0.4
v -0.6 2.7 0.4
v -0.6 2.8 0.4
v -0.5 0 0.4
v -0.5 0.1 0.4
v -0.5 2.3 0.4
v -0.5 2.6 0.4
v -0.5 2.7 0.4
v -0.5 2.8 0.4
v -0.5 3 0.4
v -0.4 0.1 0.4
v -0.4 0.4 0.4
v -0.4 2.1 0.4
v -0.4 2.2 0.4
v -0.4 2.3 0.4
v -0.4 2.4 0.4
v -0.4 2.5 0.4
v -0.4 2.7 0.4
v -0.4 2.8 0.4
v -0.3 0 0.4
v -0.3 0.2 0.4
v -0.3 0.4 0.4
v -0.3 0.7 0.4
v -0.3 1 0.4
v -0.3 1.1 0.4
v -0.3 2 0.4
v -0.3 2.1 0.4
v -0.3 2.2 0.4
v -0.3 2.3 0.4
v -0.3 2.4 0.4
v -0.3 2.5 0.4
v -0.3 2.6 0.4
v -0.3 2.8 0.4
v -0.3 2.9 0.4
v -0.2 0.7 0.4
v -0.2 0.9 0.4
v -0.2 1 0.4
v -0.2 1.1 0.4
v -0.2 2.3 0.4
v -0.2 2.4 0.4
v -0.2 2.5 0.4
v -0.1 0.9 0.4
v -0.1 1 0.4
v 0 2.5 0.4
v 0 2.6 0.4
v 0.1 0.9 0.4
v 0.1 1 0.4
v 0.1 2.6 0.4
v 0.1 2.7 0.4
v 0.1 2.8 0.4
v 0.1 2.9 0.4
v 0.1 3 0.4
v 0.1 3.1 0.4
v 0.2 0.7 0.4
v 0.2 0.9 0.4
v 0.2 1 0.4
v 0.2 1.1 0.4
v 0.2 2.3 0.4
v 0.2 2.4 0.4
v 0.2 2.5 0.4
v 0.2 2.7 0.4
v 0.2 2.8 0.4
v 0.2 2.9 0.4
v 0.2 3 0.4
v 0.2 3.1 0.4
v 0.3 0 0.4
v 0.3 0.2 0.4
v 0.3 0.4 0.4
v 0.3 0.7 0.4
v 0.3 1 0.4
v 0.3 1.1 0.4
v 0.3 2 0.4
v 0.3 2.1 0.4
v 0.3 2.2 0.4
v 0.3 2.3 0.4
v 0.3 2.4 0.4
v 0.3 2.5 0.4
v 0.3 2.6 0.4
v 0.3 2.8 0.4
v 0.3 2.9 0.4
v 0.4 0.1 0.4
v 0.4 0.4 0.4
v 0.4 2.1 0.4
v 0.4 2.2 0.4
v 0.4 2.3 0.4
v 0.4 2.6 0.4
v 0.4 2.8 0.4
v 0.5 0 0.4
v 0.5 0.1 0.4
v 0.5 2.2 0.4
v 0.5 2.6 0.4
v 0.6 2.2 0.4
v 0.6 2.6 0.4
v -0.7 0 0.3
v -0.7 0.1 0.3
v -0.6 0.1 0.3
v -0.6 0.2 0.3
v -0.6 0.4 0.3
v -0.6 0.5 0.3
v -0.6 1.2 0.3
v -0.6 1.3 0.3
v -0.6 2.1 0.3
v -0.6 2.3 0.3
v -0.6 2.6 0.3
v -0.6 2.7 0.3
v -0.6 2.8 0.3
v -0.6 2.9 0.3
v -0.5 0 0.3
v -0.5 0.1 0.3
v -0.5 0.5 0.3
v -0.5 0.6 0.3
v -0.5 2 0.3
v -0.5 2.1 0.3
v -0.5 2.3 0.3
v -0.5 2.6 0.3
v -0.5 2.7 0.3
v -0.5 2.8 0.3
v -0.5 2.9 0.3
v -0.4 0.1 0.3
v -0.4 0.2 0.3
v -0.4 0.4 0.3
v -0.4 0.6 0.3
v -0.4 0.9 0.3
v -0.4 1.1 0.3
v -0.4 1.2 0.3
v -0.4 1.3 0.3
v -0.4 2 0.3
v -0.4 2.1 0.3
v -0.3 0.4 0.3
v -0.3 0.7 0.3
v -0.3 0.9 0.3
v -0.3 1 0.3
v -0.3 1.1 0.3
v -0.3 1.2 0.3
v -0.3 1.4 0.3
v -0.3 1.7 0.3
v -0.2 0.7 0.3
v -0.2 0.9 0.3
v -0.2 1 0.3
v -0.2 1.1 0.3
v -0.2 3 0.3
v -0.2 3.1 0.3
v -0.1 0.9 0.3
v -0.1 1 0.3
v -0.1 1.1 0.3
v -0.1 1.2 0.3
v 0.1 0.9 0.3
v 0.1 1 0.3
v 0.1 1.1 0.3
v 0.1 1.2 0.3
v 0.1 3 0.3
v 0.1 3.1 0.3
v 0.2 0.7 0.3
v 0.2 0.9 0.3
v 0.2 1 0.3
v 0.2 1.1 0.3
v 0.2 3 0.3
v 0.2 3.1 0.3
v 0.3 0.4 0.3
v 0.3 0.7 0.3
v 0.3 0.9 0.3
v 0.3 1 0.3
v 0.3 1.1 0.3
v 0.3 1.2 0.3
v 0.3 1.4 0.3
v 0.3 1.7 0.3
v 0.3 3 0.3
v 0.3 3.1 0.3
v 0.4 0.1 0.3
v 0.4 0.2 0.3
v 0.4 0.4 0.3
v 0.4 0.6 0.3
v 0.4 0.9 0.3
v 0.4 1.1 0.3
v 0.4 1.2 0.3
v 0.4 1.3 0.3
v 0.4 2 0.3
v 0.4 2.1 0.3
v 0.5 0 0.3
v 0.5 0.1 0.3
v 0.5 0.5 0.3
v 0.5 0.6 0.3
v 0.5 2.1 0.3
v 0.5 2.2 0.3
v 0.5 2.6 0.3
v 0.5 2.7 0.3
v 0.6 0.1 0.3
v 0.6 0.2 0.3
v 0.6 0.4 0.3
v 0.6 0.5 0.3
v 0.6 1.2 0.3
v 0.6 1.3 0.3
v 0.6 2 0.3
v 0.6 2.2 0.3
v 0.6 2.6 0.3
v 0.6 2.7 0.3
v 0.7 0 0.3
v 0.7 0.1 0.3
v -0.7 0.1 0.2
v -0.7 0.2 0.2
v -0.6 0.1 0.2
v -0.6 0.2 0.2
v -0.6 0.4 0.2
v -0.6 0.5 0.2
v -0.6 0.7 0.2
v -0.6 1.3 0.2
v -0.6 1.6 0.2
v -0.6 2.7 0.2
v -0.6 2.8 0.2
v -0.5 0.5 0.2
v -0.5 0.6 0.2
v -0.5 0.7 0.2
v -0.5 0.9 0.2
v -0.5 1.3 0.2
v -0.5 1.4 0.2
v -0.5 2.7 0.2
v -0.5 2.8 0.2
v -0.4 0.2 0.2
v -0.4 0.4 0.2
v -0.4 0.6 0.2
v -0.4 0.9 0.2
v -0.4 1.1 0.2
v -0.4 1.4 0.2
v -0.4 1.5 0.2
v -0.4 1.6 0.2
v -0.4 1.8 0.2
v -0.4 3 0.2
v -0.4 3.1 0.2
v -0.3 0.9 0.2
v -0.3 1.1 0.2
v -0.3 1.2 0.2
v -0.3 1.3 0.2
v -0.3 1.5 0.2
v -0.3 1.7 0.2
v -0.3 1.8 0.2
v -0.2 1.3 0.2
v -0.2 1.4 0.2
v -0.2 1.8 0.2
v -0.2 1.9 0.2
v -0.2 3 0.2
v -0.2 3.1 0.2
v -0.1 1.1 0.2
v -0.1 1.2 0.2
v -0.1 1.9 0.2
v -0.1 2 0.2
v 0.1 1.1 0.2
v 0.1 1.2 0.2
v 0.1 1.9 0.2
v 0.1 2 0.2
v 0.2 1.3 0.2
v 0.2 1.4 0.2
v 0.2 1.8 0.2
v 0.2 1.9 0.2
v 0.3 0.9 0.2
v 0.3 1.1 0.2
v 0.3 1.2 0.2
v 0.3 1.3 0.2
v 0.3 1.5 0.2
v 0.3 1.7 0.2
v 0.3 1.8 0.2
v 0.4 0.2 0.2
v 0.4 0.4 0.2
v 0.4 0.6 0.2
v 0.4 0.9 0.2
v 0.4 1.1 0.2
v 0.4 1.4 0.2
v 0.4 1.5 0.2
v 0.4 1.6 0.2
v 0.4 1.8 0.2
v 0.5 0.5 0.2
v 0.5 0.6 0.2
v 0.5 0.7 0.2
v 0.5 0.9 0.2
v 0.5 1.3 0.2
v 0.5 1.4 0.2
v 0.5 2.7 0.2
v 0.5 2.8 0.2
v 0.6 0.1 0.2
v 0.6 0.2 0.2
v 0.6 0.4 0.2
v 0.6 0.5 0.2
v 0.6 0.7 0.2
v 0.6 1.3 0.2
v 0.6 1.6 0.2
v 0.6 2.7 0.2
v 0.6 2.8 0.2
v 0.7 0.1 0.2
v 0.7 0.2 0.2
v -0.7 0.2 0.1
v -0.7 0.5 0.1
v -0.7 1.4 0.1
v -0.7 1.6 0.1
v -0.6 0.2 0.1
v -0.6 0.4 0.1
v -0.6 0.5 0.1
v -0.6 1.4 0.1
v -0.6 1.6 0.1
v -0.6 1.7 0.1
v -0.5 1.7 0.1
v -0.5 1.8 0.1
v -0.4 0.4 0.1
v -0.4 0.5 0.1
v -0.4 1.1 0.1
v -0.4 1.2 0.1
v -0.4 1.6 0.1
v -0.4 1.8 0.1
v -0.4 1.9 0.1
v -0.3 1.1 0.1
v -0.3 1.2 0.1
v -0.3 1.8 0.1
v -0.3 1.9 0.1
v -0.2 3.1 0.1
v -0.2 3.2 0.1
v 0.1 3.1 0.1
v 0.1 3.2 0.1
v 0.3 1.1 0.1
v 0.3 1.2 0.1
v 0.3 1.8 0.1
v 0.3 1.9 0.1
v 0.4 0.4 0.1
v 0.4 0.5 0.1
v 0.4 1.1 0.1
v 0.4 1.2 0.1
v 0.4 1.6 0.1
v 0.4 1.8 0.1
v 0.4 1.9 0.1
v 0.5 1.7 0.1
v 0.5 1.8 0.1
v 0.6 0.2 0.1
v 0.6 0.4 0.1
v 0.6 0.5 0.1
v 0.6 1.4 0.1
v 0.6 1.6 0.1
v 0.6 1.7 0.1
v 0.7 0.2 0.1
v 0.7 0.5 0.1
v 0.7 1.4 0.1
v 0.7 1.6 0.1
v 0.6 2.7 5.96046e-08
v 0.6 2.8 5.96046e-08
v 0.7 2.7 5.96046e-08
v 0.7 2.8 5.96046e-08
v -0.7 2.7 -0.1
v -0.7 2.8 -0.1
v -0.6 2.7 -0.1
v -0.6 2.8 -0.1
v -0.6 3 -0.1
v -0.5 2.8 -0.1
v -0.5 3 -0.1
v -0.5 3.1 -0.1
v -0.4 2 -0.1
v -0.4 2.1 -0.1
v -0.4 3 -0.1
v -0.4 3.1 -0.1
v -0.4 3.2 -0.1
v -0.3 2 -0.1
v -0.3 2.1 -0.1
v -0.2 3.1 -0.1
v -0.2 3.2 -0.1
v -0.2 3.3 -0.1
v -0.1 3.2 -0.1
v -0.1 3.3 -0.1
v 0.1 3.1 -0.1
v 0.1 3.2 -0.1
v 0.1 3.3 -0.1
v 0.2 3.2 -0.1
v 0.2 3.3 -0.1
v 0.3 2 -0.1
v 0.3 2.1 -0.1
v 0.3 3 -0.1
v 0.3 3.1 -0.1
v 0.3 3.2 -0.1
v 0.4 2 -0.1
v 0.4 2.1 -0.1
v 0.4 2.9 -0.1
v 0.4 3 -0.1
v 0.5 2.8 -0.1
v 0.5 2.9 -0.1
v 0.5 3.1 -0.1
v 0.6 2.8 -0.1
v 0.6 2.9 -0.1
v 0.5 2.2 -0.2
v 0.5 2.3 -0.2
v 0.6 2.2 -0.2
v 0.6 2.3 -0.2
v -0.5 2 -0.3
v -0.5 2.1 -0.3
v -0.4 2 -0.3
v -0.4 2.1 -0.3
v -0.2 3.1 -0.3
v -0.2 3.2 -0.3
v 0.1 3.1 -0.3
v 0.1 3.2 -0.3
v -0.2 1.5 -0.5
v -0.2 2 -0.5
v -0.1 1.5 -0.5
v -0.1 1.7 -0.5
v 0.1 1.7 -0.5
v 0.1 2 -0.5
v 0 1.6 -0.6
v 0 1.7 -0.6
v 0.1 1.6 -0.6
v 0.1 1.7 -0.6
v -0.2 1.6 -0.7
v -0.2 1.7 -0.7
v -0.1 1.6 -0.7
v -0.1 1.7 -0.7
v -0.3 1.8 0.5
v -0.3 1.9 0.5
v -0.2 1.8 0.5
v -0.2 1.9 0.5
v 0.2 1.8 0.5
v 0.2 1.9 0.5
v 0.3 1.8 0.5
v 0.3 1.9 0.5
v -0.5 1.9 0.4
v -0.5 2.1 0.4
v -0.4 1.8 0.4
v -0.4 1.9 0.4
v -0.4 2.1 0.4
v -0.3 1.8 0.4
v -0.3 1.9 0.4
v 0.3 1.8 0.4
v 0.3 1.9 0.4
v 0.4 1.8 0.4
v 0.4 1.9 0.4
v 0.4 2.1 0.4
v 0.5 1.9 0.4
v 0.5 2.1 0.4
v -0.6 2.7 0.3
v -0.6 2.8 0.3
v -0.5 2.7 0.3
v -0.5 2.8 0.3
v -0.6 0.4 0.2
v -0.6 0.5 0.2
v -0.6 1.2 0.2
v -0.6 1.3 0.2
v -0.5 1.2 0.2
v -0.5 1.3 0.2
v -0.4 0.4 0.2
v -0.4 0.5 0.2
v -0.4 1.1 0.2
v -0.4 1.2 0.2
v -0.3 1.1 0.2
v -0.3 1.2 0.2
v 0.3 1.1 0.2
v 0.3 1.2 0.2
v 0.4 0.4 0.2
v 0.4 0.5 0.2
v 0.4 1.1 0.2
v 0.4 1.2 0.2
v 0.5 1.2 0.2
v 0.5 1.3 0.2
v 0.6 0.4 0.2
v 0.6 0.5 0.2
v 0.6 1.2 0.2
v 0.6 1.3 0.2
v -0.6 1.3 0.1
v -0.6 1.4 0.1
v -0.5 0.7 0.1
v -0.5 0.9 0.1
v -0.5 1.2 0.1
v -0.5 1.3 0.1
v -0.5 1.4 0.1
v -0.4 0.7 0.1
v -0.4 0.8 0.1
v -0.4 0.9 0.1
v -0.4 1.2 0.1
v -0.4 1.3 0.1
v 0.4 0.7 0.1
v 0.4 0.8 0.1
v 0.4 0.9 0.1
v 0.4 1.2 0.1
v 0.4 1.3 0.1
v 0.5 0.7 0.1
v 0.5 0.9 0.1
v 0.5 1.2 0.1
v 0.5 1.3 0.1
v 0.5 1.4 0.1
v 0.6 1.3 0.1
v 0.6 1.4 0.1
v -0.7 1.4 5.96046e-08
v -0.7 1.6 5.96046e-08
v -0.6 1.4 5.96046e-08
v -0.6 1.6 5.96046e-08
v -0.6 1.7 5.96046e-08
v -0.6 2.1 5.96046e-08
v -0.6 2.2 5.96046e-08
v -0.6 2.8 5.96046e-08
v -0.6 2.9 5.96046e-08
v -0.5 1.7 5.96046e-08
v -0.5 1.8 5.96046e-08
v -0.5 2.1 5.96046e-08
v -0.5 2.2 5.96046e-08
v -0.5 2.8 5.96046e-08
v -0.5 2.9 5.96046e-08
v -0.4 1.6 5.96046e-08
v -0.4 1.8 5.96046e-08
v -0.4 1.9 5.96046e-08
v -0.3 1.7 5.96046e-08
v -0.3 1.8 5.96046e-08
v -0.3 1.9 5.96046e-08
v -0.2 1.8 5.96046e-08
v -0.2 1.9 5.96046e-08
v -0.1 1.7 5.96046e-08
v -0.1 1.8 5.96046e-08
v -0.1 1.9 5.96046e-08
v -0.1 2 5.96046e-08
v 0.1 1.7 5.96046e-08
v 0.1 1.8 5.96046e-08
v 0.1 1.9 5.96046e-08
v 0.1 2 5.96046e-08
v 0.2 1.8 5.96046e-08
v 0.2 1.9 5.96046e-08
v 0.3 1.7 5.96046e-08
v 0.3 1.8 5.96046e-08
v 0.3 1.9 5.96046e-08
v 0.4 1.6 5.96046e-08
v 0.4 1.8 5.96046e-08
v 0.4 1.9 5.96046e-08
v 0.5 1.7 5.96046e-08
v 0.5 1.8 5.96046e-08
v 0.5 2 5.96046e-08
v 0.5 2.2 5.96046e-08
v 0.6 1.4 5.96046e-08
v 0.6 1.6 5.96046e-08
v 0.6 1.7 5.96046e-08
v 0.6 2 5.96046e-08
v 0.6 2.2 5.96046e-08
v 0.7 1.4 5.96046e-08
v 0.7 1.6 5.96046e-08
v -0.7 0.4 -0.1
v -0.7 0.5 -0.1
v -0.6 0.4 -0.1
v -0.6 0.5 -0.1
v -0.6 0.7 -0.1
v -0.6 1.4 -0.1
v -0.6 1.6 -0.1
v -0.5 2 -0.1
v -0.5 2.1 -0.1
v -0.4 0.5 -0.1
v -0.4 0.7 -0.1
v -0.4 0.9 -0.1
v -0.4 1.1 -0.1
v -0.4 1.2 -0.1
v -0.4 1.4 -0.1
v -0.4 1.5 -0.1
v -0.4 1.6 -0.1
v -0.4 1.8 -0.1
v -0.4 2 -0.1
v -0.4 2.1 -0.1
v -0.3 0.9 -0.1
v -0.3 1.1 -0.1
v -0.3 1.2 -0.1
v -0.3 1.3 -0.1
v -0.3 1.4 -0.1
v -0.3 1.5 -0.1
v -0.3 1.7 -0.1
v -0.3 1.8 -0.1
v -0.2 1.3 -0.1
v -0.2 1.4 -0.1
v -0.1 1.4 -0.1
v -0.1 1.5 -0.1
v -0.1 1.7 -0.1
v -0.1 1.8 -0.1
v 0.1 1.4 -0.1
v 0.1 1.5 -0.1
v 0.1 1.7 -0.1
v 0.1 1.8 -0.1
v 0.2 1.3 -0.1
v 0.2 1.4 -0.1
v 0.3 0.9 -0.1
v 0.3 1.1 -0.1
v 0.3 1.2 -0.1
v 0.3 1.3 -0.1
v 0.3 1.4 -0.1
v 0.3 1.5 -0.1
v 0.3 1.7 -0.1
v 0.3 1.8 -0.1
v 0.4 0.5 -0.1
v 0.4 0.7 -0.1
v 0.4 0.9 -0.1
v 0.4 1.1 -0.1
v 0.4 1.2 -0.1
v 0.4 1.4 -0.1
v 0.4 1.5 -0.1
v 0.4 1.6 -0.1
v 0.4 1.8 -0.1
v 0.5 2.2 -0.1
v 0.5 2.3 -0.1
v 0.5 2.7 -0.1
v 0.5 2.8 -0.1
v 0.6 0.4 -0.1
v 0.6 0.5 -0.1
v 0.6 0.7 -0.1
v 0.6 1.4 -0.1
v 0.6 1.6 -0.1
v 0.6 2.2 -0.1
v 0.6 2.3 -0.1
v 0.6 2.7 -0.1
v 0.6 2.8 -0.1
v 0.7 0.4 -0.1
v 0.7 0.5 -0.1
v 0.7 2.7 -0.1
v 0.7 2.8 -0.1
v -0.7 0.2 -0.2
v -0.7 0.4 -0.2
v -0.7 2.7 -0.2
v -0.7 2.8 -0.2
v -0.6 0.2 -0.2
v -0.6 0.4 -0.2
v -0.6 0.5 -0.2
v -0.6 2.5 -0.2
v -0.6 2.7 -0.2
v -0.6 2.8 -0.2
v -0.6 3 -0.2
v -0.5 2.5 -0.2
v -0.5 2.7 -0.2
v -0.5 3 -0.2
v -0.5 3.1 -0.2
v -0.4 0.4 -0.2
v -0.4 0.5 -0.2
v -0.4 0.7 -0.2
v -0.4 0.9 -0.2
v -0.4 3 -0.2
v -0.4 3.1 -0.2
v -0.4 3.2 -0.2
v -0.3 0.9 -0.2
v -0.3 1.1 -0.2
v -0.3 3 -0.2
v -0.3 3.1 -0.2
v -0.2 0.7 -0.2
v -0.2 0.9 -0.2
v -0.2 3.2 -0.2
v -0.2 3.3 -0.2
v -0.1 3.2 -0.2
v -0.1 3.3 -0.2
v 0.1 3.2 -0.2
v 0.1 3.3 -0.2
v 0.2 0.7 -0.2
v 0.2 0.9 -0.2
v 0.2 3 -0.2
v 0.2 3.1 -0.2
v 0.2 3.2 -0.2
v 0.2 3.3 -0.2
v 0.3 0.9 -0.2
v 0.3 1.1 -0.2
v 0.3 3 -0.2
v 0.3 3.1 -0.2
v 0.3 3.2 -0.2
v 0.4 0.4 -0.2
v 0.4 0.5 -0.2
v 0.4 0.7 -0.2
v 0.4 0.9 -0.2
v 0.4 2.9 -0.2
v 0.4 3 -0.2
v 0.5 2.5 -0.2
v 0.5 2.7 -0.2
v 0.5 2.8 -0.2
v 0.5 2.9 -0.2
v 0.5 3.1 -0.2
v 0.6 0.2 -0.2
v 0.6 0.4 -0.2
v 0.6 0.5 -0.2
v 0.6 2.5 -0.2
v 0.6 2.7 -0.2
v 0.6 2.8 -0.2
v 0.6 2.9 -0.2
v 0.7 0.2 -0.2
v 0.7 0.4 -0.2
v -0.7 0.1 -0.3
v -0.7 0.2 -0.3
v -0.6 0.1 -0.3
v -0.6 0.2 -0.3
v -0.6 0.4 -0.3
v -0.6 2.2 -0.3
v -0.6 2.5 -0.3
v -0.5 2.2 -0.3
v -0.5 2.5 -0.3
v -0.5 2.8 -0.3
v -0.5 3 -0.3
v -0.4 0.4 -0.3
v -0.4 0.7 -0.3
v -0.4 2.8 -0.3
v -0.4 2.9 -0.3
v -0.3 0.2 -0.3
v -0.3 0.6 -0.3
v -0.3 2.9 -0.3
v -0.3 3 -0.3
v -0.3 3.1 -0.3
v -0.2 0.7 -0.3
v -0.2 0.9 -0.3
v -0.2 3 -0.3
v -0.2 3.1 -0.3
v 0.1 3 -0.3
v 0.1 3.1 -0.3
v 0.2 0.7 -0.3
v 0.2 0.9 -0.3
v 0.2 2.9 -0.3
v 0.2 3 -0.3
v 0.2 3.1 -0.3
v 0.3 0.2 -0.3
v 0.3 0.6 -0.3
v 0.4 0.4 -0.3
v 0.4 0.7 -0.3
v 0.4 2.9 -0.3
v 0.4 3 -0.3
v 0.5 2.2 -0.3
v 0.5 2.5 -0.3
v 0.6 0.1 -0.3
v 0.6 0.2 -0.3
v 0.6 0.4 -0.3
v 0.6 2.2 -0.3
v 0.6 2.5 -0.3
v 0.7 0.1 -0.3
v 0.7 0.2 -0.3
v -0.7 0 -0.4
v -0.7 0.1 -0.4
v -0.6 0.1 -0.4
v -0.6 0.2 -0.4
v -0.5 2 -0.4
v -0.5 2.8 -0.4
v -0.4 0 -0.4
v -0.4 0.2 -0.4
v -0.4 2.1 -0.4
v -0.4 2.5 -0.4
v -0.4 2.8 -0.4
v -0.4 2.9 -0.4
v -0.3 0.4 -0.4
v -0.3 0.6 -0.4
v -0.3 2 -0.4
v -0.3 2.1 -0.4
v -0.3 2.5 -0.4
v -0.3 2.7 -0.4
v -0.3 2.9 -0.4
v -0.3 3 -0.4
v -0.2 2.7 -0.4
v -0.2 3 -0.4
v 0.1 2.8 -0.4
v 0.1 3 -0.4
v 0.2 2.9 -0.4
v 0.2 3 -0.4
v 0.3 0.4 -0.4
v 0.3 0.6 -0.4
v 0.3 2 -0.4
v 0.3 2.1 -0.4
v 0.3 2.4 -0.4
v 0.3 2.6 -0.4
v 0.3 2.7 -0.4
v 0.3 2.8 -0.4
v 0.4 0 -0.4
v 0.4 0.2 -0.4
v 0.4 2.1 -0.4
v 0.4 2.4 -0.4
v 0.4 2.6 -0.4
v 0.4 2.7 -0.4
v 0.5 2 -0.4
v 0.5 2.9 -0.4
v 0.6 0.1 -0.4
v 0.6 0.2 -0.4
v 0.7 0 -0.4
v 0.7 0.1 -0.4
v -0.4 0 -0.5
v -0.4 0.2 -0.5
v -0.4 2.1 -0.5
v -0.4 2.5 -0.5
v -0.3 0.2 -0.5
v -0.3 0.4 -0.5
v -0.3 2 -0.5
v -0.3 2.1 -0.5
v -0.3 2.5 -0.5
v -0.3 2.7 -0.5
v -0.2 2 -0.5
v -0.2 2.7 -0.5
v -0.2 3.1 -0.5
v -0.2 3.2 -0.5
v -0.1 0 -0.5
v -0.1 0.1 -0.5
v -0.1 3.1 -0.5
v -0.1 3.2 -0.5
v 0.1 0 -0.5
v 0.1 0.1 -0.5
v 0.1 2 -0.5
v 0.1 2.8 -0.5
v 0.3 0.2 -0.5
v 0.3 0.4 -0.5
v 0.3 2 -0.5
v 0.3 2.1 -0.5
v 0.3 2.4 -0.5
v 0.3 2.6 -0.5
v 0.3 2.7 -0.5
v 0.3 2.8 -0.5
v 0.4 0 -0.5
v 0.4 0.2 -0.5
v 0.4 2.1 -0.5
v 0.4 2.4 -0.5
v 0.4 2.6 -0.5
v 0.4 2.7 -0.5
v -0.2 1.5 -0.6
v -0.2 1.7 -0.6
v -0.1 0 -0.6
v -0.1 0.1 -0.6
v -0.1 1.5 -0.6
v -0.1 1.7 -0.6
v 0 3.1 -0.6
v 0 3.2 -0.6
v 0.1 0 -0.6
v 0.1 0.1 -0.6
v 0.1 3.1 -0.6
v 0.1 3.2 -0.6
v -0.1 3 -0.7
v -0.1 3.1 -0.7
v -0.1 3.2 -0.7
v 0 1.6 -0.7
v 0 1.7 -0.7
v 0 3 -0.7
v 0 3.1 -0.7
v 0 3.2 -0.7
v 0.1 1.6 -0.7
v 0.1 3.1 -0.7
v -0.2 1.6 -0.8
v -0.2 1.9 -0.8
v -0.2 2.8 -0.8
v -0.2 3.1 -0.8
v -0.1 1.6 -0.8
v -0.1 1.7 -0.8
v -0.1 1.9 -0.8
v -0.1 2.8 -0.8
v -0.1 3 -0.8
v -0.1 3.1 -0.8
v 0 1.7 -0.8
v 0 3 -0.8
v -0.2 1.9 -0.9
v -0.2 2.8 -0.9
v -0.1 1.9 -0.9
v -0.1 2.8 -0.9
v -0.3 0 0.5
v 0.3 0 0.5
v -0.5 0 0.4
v -0.3 0 0.4
v 0.3 0 0.4
v 0.5 0 0.4
v -0.7 0 0.3
v -0.5 0 0.3
v 0.5 0 0.3
v 0.7 0 0.3
v -0.7 0 -0.4
v -0.4 0 -0.4
v 0.4 0 -0.4
v 0.7 0 -0.4
v -0.4 0 -0.5
v -0.1 0 -0.5
v 0.1 0 -0.5
v 0.4 0 -0.5
v -0.1 0 -0.6
v 0.1 0 -0.6
v -0.6 0.4 0.3
v -0.4 0.4 0.3
v 0.4 0.4 0.3
v 0.6 0.4 0.3
v -0.6 0.4 0.2
v -0.4 0.4 0.2
v 0.4 0.4 0.2
v 0.6 0.4 0.2
v -0.6 0.5 0.2
v -0.4 0.5 0.2
v 0.4 0.5 0.2
v 0.6 0.5 0.2
v -0.6 0.5 0.1
v -0.4 0.5 0.1
v 0.4 0.5 0.1
v 0.6 0.5 0.1
v -0.3 1 0.4
v -0.2 1 0.4
v 0.2 1 0.4
v 0.3 1 0.4
v -0.3 1 0.3
v -0.2 1 0.3
v 0.2 1 0.3
v 0.3 1 0.3
v -0.4 1.1 0.3
v -0.3 1.1 0.3
v 0.3 1.1 0.3
v 0.4 1.1 0.3
v -0.4 1.1 0.2
v -0.3 1.1 0.2
v 0.3 1.1 0.2
v 0.4 1.1 0.2
v -0.6 1.2 0.3
v -0.4 1.2 0.3
v 0.4 1.2 0.3
v 0.6 1.2 0.3
v -0.6 1.2 0.2
v -0.5 1.2 0.2
v -0.4 1.2 0.2
v 0.4 1.2 0.2
v 0.5 1.2 0.2
v 0.6 1.2 0.2
v -0.5 1.2 0.1
v -0.4 1.2 0.1
v 0.4 1.2 0.1
v 0.5 1.2 0.1
v -0.6 1.3 0.2
v -0.5 1.3 0.2
v 0.5 1.3 0.2
v 0.6 1.3 0.2
v -0.6 1.3 0.1
v -0.5 1.3 0.1
v 0.5 1.3 0.1
v 0.6 1.3 0.1
v -0.3 1.4 0.3
v 0.3 1.4 0.3
v -0.5 1.4 0.2
v -0.4 1.4 0.2
v -0.3 1.4 0.2
v -0.2 1.4 0.2
v 0.2 1.4 0.2
v 0.3 1.4 0.2
v 0.4 1.4 0.2
v 0.5 1.4 0.2
v -0.7 1.4 0.1
v -0.6 1.4 0.1
v -0.5 1.4 0.1
v 0.5 1.4 0.1
v 0.6 1.4 0.1
v 0.7 1.4 0.1
v -0.7 1.4 5.96046e-08
v -0.6 1.4 5.96046e-08
v 0.6 1.4 5.96046e-08
v 0.7 1.4 5.96046e-08
v -0.6 1.4 -0.1
v -0.4 1.4 -0.1
v -0.3 1.4 -0.1
v -0.2 1.4 -0.1
v 0.2 1.4 -0.1
v 0.3 1.4 -0.1
v 0.4 1.4 -0.1
v 0.6 1.4 -0.1
v -0.4 1.5 0.2
v -0.3 1.5 0.2
v 0.3 1.5 0.2
v 0.4 1.5 0.2
v -0.4 1.5 0.1
v -0.3 1.5 0.1
v 0.3 1.5 0.1
v 0.4 1.5 0.1
v -0.4 1.5 5.96046e-08
v -0.3 1.5 5.96046e-08
v 0.3 1.5 5.96046e-08
v 0.4 1.5 5.96046e-08
v -0.4 1.5 -0.1
v -0.3 1.5 -0.1
v 0.3 1.5 -0.1
v 0.4 1.5 -0.1
v -0.2 1.5 -0.5
v -0.1 1.5 -0.5
v -0.2 1.5 -0.6
v -0.1 1.5 -0.6
v 0 1.6 -0.6
v 0.1 1.6 -0.6
v -0.2 1.6 -0.7
v -0.1 1.6 -0.7
v 0 1.6 -0.7
v 0.1 1.6 -0.7
v -0.2 1.6 -0.8
v -0.1 1.6 -0.8
v -0.1 1.7 -0.5
v 0.1 1.7 -0.5
v -0.2 1.7 -0.6
v -0.1 1.7 -0.6
v 0 1.7 -0.6
v 0.1 1.7 -0.6
v -0.2 1.7 -0.7
v -0.1 1.7 -0.7
v 0 1.7 -0.7
v -0.1 1.7 -0.8
v 0 1.7 -0.8
v -0.4 1.8 0.6
v -0.2 1.8 0.6
v 0.2 1.8 0.6
v 0.4 1.8 0.6
v -0.3 1.8 0.5
v -0.2 1.8 0.5
v 0.2 1.8 0.5
v 0.3 1.8 0.5
v -0.4 1.8 0.4
v -0.3 1.8 0.4
v 0.3 1.8 0.4
v 0.4 1.8 0.4
v 0.4 1.9 0.6
v 0.5 1.9 0.6
v -0.5 1.9 0.5
v -0.4 1.9 0.5
v -0.5 1.9 0.4
v -0.4 1.9 0.4
v 0.4 1.9 0.4
v 0.5 1.9 0.4
v -0.2 1.9 -0.8
v -0.1 1.9 -0.8
v -0.2 1.9 -0.9
v -0.1 1.9 -0.9
v -0.3 2 0.4
v 0.3 2 0.4
v -0.5 2 0.3
v -0.4 2 0.3
v 0.4 2 0.3
v 0.6 2 0.3
v -0.1 2 0.2
v 0.1 2 0.2
v -0.1 2 5.96046e-08
v 0.1 2 5.96046e-08
v 0.5 2 5.96046e-08
v 0.6 2 5.96046e-08
v -0.5 2 -0.1
v -0.4 2 -0.1
v -0.3 2 -0.1
v 0.3 2 -0.1
v 0.4 2 -0.1
v -0.5 2 -0.3
v -0.4 2 -0.3
v -0.5 2 -0.4
v -0.3 2 -0.4
v 0.3 2 -0.4
v 0.5 2 -0.4
v -0.3 2 -0.5
v -0.2 2 -0.5
v 0.1 2 -0.5
v 0.3 2 -0.5
v -0.5 2.1 0.4
v -0.4 2.1 0.4
v -0.3 2.1 0.4
v 0.3 2.1 0.4
v 0.4 2.1 0.4
v 0.5 2.1 0.4
v -0.6 2.1 0.3
v -0.5 2.1 0.3
v -0.4 2.1 0.3
v -0.3 2.1 0.3
v 0.3 2.1 0.3
v 0.4 2.1 0.3
v 0.5 2.1 0.3
v -0.6 2.1 5.96046e-08
v -0.5 2.1 5.96046e-08
v -0.5 2.1 -0.1
v -0.4 2.1 -0.1
v -0.3 2.1 -0.1
v 0.3 2.1 -0.1
v 0.4 2.1 -0.1
v -0.5 2.1 -0.3
v -0.4 2.1 -0.3
v -0.4 2.1 -0.4
v -0.3 2.1 -0.4
v 0.3 2.1 -0.4
v 0.4 2.1 -0.4
v -0.4 2.1 -0.5
v -0.3 2.1 -0.5
v 0.3 2.1 -0.5
v 0.4 2.1 -0.5
v 0.5 2.2 0.4
v 0.6 2.2 0.4
v 0.5 2.2 0.3
v 0.6 2.2 0.3
v -0.6 2.2 5.96046e-08
v -0.5 2.2 5.96046e-08
v 0.5 2.2 5.96046e-08
v 0.6 2.2 5.96046e-08
v 0.5 2.2 -0.1
v 0.6 2.2 -0.1
v 0.5 2.2 -0.2
v 0.6 2.2 -0.2
v -0.6 2.2 -0.3
v -0.5 2.2 -0.3
v 0.5 2.2 -0.3
v 0.6 2.2 -0.3
v -0.6 2.3 0.4
v -0.5 2.3 0.4
v -0.6 2.3 0.3
v -0.5 2.3 0.3
v 0.5 2.3 -0.1
v 0.6 2.3 -0.1
v 0.5 2.3 -0.2
v 0.6 2.3 -0.2
v -0.4 2.5 0.5
v -0.3 2.5 0.5
v -0.4 2.5 0.4
v -0.3 2.5 0.4
v -0.3 2.6 0.5
v 0.1 2.6 0.5
v -0.3 2.6 0.4
v 0 2.6 0.4
v 0.1 2.6 0.4
v 0.3 2.6 -0.4
v 0.4 2.6 -0.4
v 0.3 2.6 -0.5
v 0.4 2.6 -0.5
v -0.6 2.7 0.4
v -0.5 2.7 0.4
v -0.6 2.7 0.3
v -0.5 2.7 0.3
v 0.6 2.7 5.96046e-08
v 0.7 2.7 5.96046e-08
v -0.7 2.7 -0.1
v -0.6 2.7 -0.1
v 0.6 2.7 -0.1
v 0.7 2.7 -0.1
v -0.7 2.7 -0.2
v -0.6 2.7 -0.2
v 0.1 2.8 0.5
v 0.2 2.8 0.5
v 0.3 2.8 0.5
v 0.4 2.8 0.5
v 0.1 2.8 0.4
v 0.2 2.8 0.4
v 0.3 2.8 0.4
v 0.4 2.8 0.4
v -0.6 2.8 0.3
v -0.5 2.8 0.3
v -0.6 2.8 0.2
v -0.5 2.8 0.2
v 0.5 2.8 -0.1
v 0.6 2.8 -0.1
v 0.5 2.8 -0.2
v 0.6 2.8 -0.2
v 0.2 2.9 0.5
v 0.3 2.9 0.5
v 0.2 2.9 0.4
v 0.3 2.9 0.4
v -0.5 0.1 0.4
v -0.4 0.1 0.4
v 0.4 0.1 0.4
v 0.5 0.1 0.4
v -0.7 0.1 0.3
v -0.6 0.1 0.3
v -0.5 0.1 0.3
v -0.4 0.1 0.3
v 0.4 0.1 0.3
v 0.5 0.1 0.3
v 0.6 0.1 0.3
v 0.7 0.1 0.3
v -0.7 0.1 0.2
v -0.6 0.1 0.2
v 0.6 0.1 0.2
v 0.7 0.1 0.2
v -0.7 0.1 -0.3
v -0.6 0.1 -0.3
v 0.6 0.1 -0.3
v 0.7 0.1 -0.3
v -0.7 0.1 -0.4
v -0.6 0.1 -0.4
v 0.6 0.1 -0.4
v 0.7 0.1 -0.4
v -0.1 0.1 -0.5
v 0.1 0.1 -0.5
v -0.1 0.1 -0.6
v 0.1 0.1 -0.6
v -0.3 0.2 0.5
v 0.3 0.2 0.5
v -0.3 0.2 0.4
v 0.3 0.2 0.4
v -0.6 0.2 0.3
v -0.4 0.2 0.3
v 0.4 0.2 0.3
v 0.6 0.2 0.3
v -0.7 0.2 0.2
v -0.6 0.2 0.2
v -0.4 0.2 0.2
v 0.4 0.2 0.2
v 0.6 0.2 0.2
v 0.7 0.2 0.2
v -0.7 0.2 0.1
v -0.6 0.2 0.1
v 0.6 0.2 0.1
v 0.7 0.2 0.1
v -0.7 0.2 -0.2
v -0.6 0.2 -0.2
v 0.6 0.2 -0.2
v 0.7 0.2 -0.2
v -0.7 0.2 -0.3
v -0.6 0.2 -0.3
v -0.3 0.2 -0.3
v 0.3 0.2 -0.3
v 0.6 0.2 -0.3
v 0.7 0.2 -0.3
v -0.6 0.2 -0.4
v -0.4 0.2 -0.4
v 0.4 0.2 -0.4
v 0.6 0.2 -0.4
v -0.4 0.2 -0.5
v -0.3 0.2 -0.5
v 0.3 0.2 -0.5
v 0.4 0.2 -0.5
v -0.4 0.4 0.4
v -0.3 0.4 0.4
v 0.3 0.4 0.4
v 0.4 0.4 0.4
v -0.4 0.4 0.3
v -0.3 0.4 0.3
v 0.3 0.4 0.3
v 0.4 0.4 0.3
v -0.6 0.4 0.2
v -0.4 0.4 0.2
v 0.4 0.4 0.2
v 0.6 0.4 0.2
v -0.6 0.4 0.1
v -0.4 0.4 0.1
v 0.4 0.4 0.1
v 0.6 0.4 0.1
v -0.7 0.4 -0.1
v -0.6 0.4 -0.1
v 0.6 0.4 -0.1
v 0.7 0.4 -0.1
v -0.7 0.4 -0.2
v -0.6 0.4 -0.2
v -0.4 0.4 -0.2
v 0.4 0.4 -0.2
v 0.6 0.4 -0.2
v 0.7 0.4 -0.2
v -0.6 0.4 -0.3
v -0.4 0.4 -0.3
v 0.4 0.4 -0.3
v 0.6 0.4 -0.3
v -0.3 0.4 -0.4
v 0.3 0.4 -0.4
v -0.3 0.4 -0.5
v 0.3 0.4 -0.5
v -0.6 0.5 0.3
v -0.5 0.5 0.3
v 0.5 0.5 0.3
v 0.6 0.5 0.3
v -0.6 0.5 0.2
v -0.5 0.5 0.2
v 0.5 0.5 0.2
v 0.6 0.5 0.2
v -0.7 0.5 0.1
v -0.6 0.5 0.1
v 0.6 0.5 0.1
v 0.7 0.5 0.1
v -0.7 0.5 -0.1
v -0.6 0.5 -0.1
v -0.4 0.5 -0.1
v 0.4 0.5 -0.1
v 0.6 0.5 -0.1
v 0.7 0.5 -0.1
v -0.6 0.5 -0.2
v -0.4 0.5 -0.2
v 0.4 0.5 -0.2
v 0.6 0.5 -0.2
v -0.5 0.6 0.3
v -0.4 0.6 0.3
v 0.4 0.6 0.3
v 0.5 0.6 0.3
v -0.5 0.6 0.2
v -0.4 0.6 0.2
v 0.4 0.6 0.2
v 0.5 0.6 0.2
v -0.3 0.6 -0.3
v 0.3 0.6 -0.3
v -0.3 0.6 -0.4
v 0.3 0.6 -0.4
v -0.3 0.7 0.4
v -0.2 0.7 0.4
v 0.2 0.7 0.4
v 0.3 0.7 0.4
v -0.3 0.7 0.3
v -0.2 0.7 0.3
v 0.2 0.7 0.3
v 0.3 0.7 0.3
v -0.6 0.7 0.2
v -0.5 0.7 0.2
v 0.5 0.7 0.2
v 0.6 0.7 0.2
v -0.6 0.7 0.1
v -0.5 0.7 0.1
v -0.4 0.7 0.1
v 0.4 0.7 0.1
v 0.5 0.7 0.1
v 0.6 0.7 0.1
v -0.6 0.7 -0.1
v -0.4 0.7 -0.1
v 0.4 0.7 -0.1
v 0.6 0.7 -0.1
v -0.4 0.7 -0.2
v -0.2 0.7 -0.2
v 0.2 0.7 -0.2
v 0.4 0.7 -0.2
v -0.4 0.7 -0.3
v -0.2 0.7 -0.3
v 0.2 0.7 -0.3
v 0.4 0.7 -0.3
v -0.2 0.9 0.4
v -0.1 0.9 0.4
v 0.1 0.9 0.4
v 0.2 0.9 0.4
v -0.4 0.9 0.3
v -0.3 0.9 0.3
v -0.2 0.9 0.3
v -0.1 0.9 0.3
v 0.1 0.9 0.3
v 0.2 0.9 0.3
v 0.3 0.9 0.3
v 0.4 0.9 0.3
v -0.5 0.9 0.2
v -0.4 0.9 0.2
v -0.3 0.9 0.2
v 0.3 0.9 0.2
v 0.4 0.9 0.2
v 0.5 0.9 0.2
v -0.5 0.9 0.1
v -0.4 0.9 0.1
v 0.4 0.9 0.1
v 0.5 0.9 0.1
v -0.4 0.9 -0.1
v -0.3 0.9 -0.1
v 0.3 0.9 -0.1
v 0.4 0.9 -0.1
v -0.4 0.9 -0.2
v -0.3 0.9 -0.2
v -0.2 0.9 -0.2
v 0.2 0.9 -0.2
v 0.3 0.9 -0.2
v 0.4 0.9 -0.2
v -0.2 0.9 -0.3
v 0.2 0.9 -0.3
v -0.1 1 0.4
v 0.1 1 0.4
v -0.1 1 0.3
v 0.1 1 0.3
v -0.3 1.1 0.4
v -0.2 1.1 0.4
v 0.2 1.1 0.4
v 0.3 1.1 0.4
v -0.3 1.1 0.3
v -0.2 1.1 0.3
v -0.1 1.1 0.3
v 0.1 1.1 0.3
v 0.2 1.1 0.3
v 0.3 1.1 0.3
v -0.4 1.1 0.2
v -0.3 1.1 0.2
v -0.1 1.1 0.2
v 0.1 1.1 0.2
v 0.3 1.1 0.2
v 0.4 1.1 0.2
v -0.4 1.1 0.1
v -0.3 1.1 0.1
v 0.3 1.1 0.1
v 0.4 1.1 0.1
v -0.3 1.1 -0.1
v 0.3 1.1 -0.1
v -0.3 1.1 -0.2
v 0.3 1.1 -0.2
v -0.4 1.2 0.3
v -0.3 1.2 0.3
v -0.1 1.2 0.3
v 0.1 1.2 0.3
v 0.3 1.2 0.3
v 0.4 1.2 0.3
v -0.4 1.2 0.2
v -0.3 1.2 0.2
v -0.1 1.2 0.2
v 0.1 1.2 0.2
v 0.3 1.2 0.2
v 0.4 1.2 0.2
v -0.4 1.2 0.1
v -0.3 1.2 0.1
v 0.3 1.2 0.1
v 0.4 1.2 0.1
v -0.4 1.2 -0.1
v -0.3 1.2 -0.1
v 0.3 1.2 -0.1
v 0.4 1.2 -0.1
v -0.6 1.3 0.3
v -0.4 1.3 0.3
v 0.4 1.3 0.3
v 0.6 1.3 0.3
v -0.6 1.3 0.2
v -0.5 1.3 0.2
v -0.3 1.3 0.2
v -0.2 1.3 0.2
v 0.2 1.3 0.2
v 0.3 1.3 0.2
v 0.5 1.3 0.2
v 0.6 1.3 0.2
v -0.5 1.3 0.1
v -0.4 1.3 0.1
v 0.4 1.3 0.1
v 0.5 1.3 0.1
v -0.3 1.3 -0.1
v -0.2 1.3 -0.1
v 0.2 1.3 -0.1
v 0.3 1.3 -0.1
v -0.6 1.6 0.2
v -0.4 1.6 0.2
v 0.4 1.6 0.2
v 0.6 1.6 0.2
v -0.7 1.6 0.1
v -0.6 1.6 0.1
v -0.4 1.6 0.1
v 0.4 1.6 0.1
v 0.6 1.6 0.1
v 0.7 1.6 0.1
v -0.7 1.6 5.96046e-08
v -0.6 1.6 5.96046e-08
v -0.4 1.6 5.96046e-08
v 0.4 1.6 5.96046e-08
v 0.6 1.6 5.96046e-08
v 0.7 1.6 5.96046e-08
v -0.6 1.6 -0.1
v -0.4 1.6 -0.1
v 0.4 1.6 -0.1
v 0.6 1.6 -0.1
v -0.3 1.7 0.3
v 0.3 1.7 0.3
v -0.3 1.7 0.2
v 0.3 1.7 0.2
v -0.6 1.7 0.1
v -0.5 1.7 0.1
v 0.5 1.7 0.1
v 0.6 1.7 0.1
v -0.6 1.7 5.96046e-08
v -0.5 1.7 5.96046e-08
v -0.3 1.7 5.96046e-08
v -0.1 1.7 5.96046e-08
v 0.1 1.7 5.96046e-08
v 0.3 1.7 5.96046e-08
v 0.5 1.7 5.96046e-08
v 0.6 1.7 5.96046e-08
v -0.3 1.7 -0.1
v -0.1 1.7 -0.1
v 0.1 1.7 -0.1
v 0.3 1.7 -0.1
v -0.4 1.8 0.2
v -0.3 1.8 0.2
v -0.2 1.8 0.2
v 0.2 1.8 0.2
v 0.3 1.8 0.2
v 0.4 1.8 0.2
v -0.5 1.8 0.1
v -0.4 1.8 0.1
v -0.3 1.8 0.1
v 0.3 1.8 0.1
v 0.4 1.8 0.1
v 0.5 1.8 0.1
v -0.5 1.8 5.96046e-08
v -0.4 1.8 5.96046e-08
v -0.3 1.8 5.96046e-08
v -0.2 1.8 5.96046e-08
v -0.1 1.8 5.96046e-08
v 0.1 1.8 5.96046e-08
v 0.2 1.8 5.96046e-08
v 0.3 1.8 5.96046e-08
v 0.4 1.8 5.96046e-08
v 0.5 1.8 5.96046e-08
v -0.4 1.8 -0.1
v -0.3 1.8 -0.1
v -0.1 1.8 -0.1
v 0.1 1.8 -0.1
v 0.3 1.8 -0.1
v 0.4 1.8 -0.1
v -0.4 1.9 0.6
v -0.2 1.9 0.6
v 0.2 1.9 0.6
v 0.4 1.9 0.6
v -0.4 1.9 0.5
v -0.3 1.9 0.5
v -0.2 1.9 0.5
v 0.2 1.9 0.5
v 0.3 1.9 0.5
v -0.4 1.9 0.4
v -0.3 1.9 0.4
v 0.3 1.9 0.4
v 0.4 1.9 0.4
v -0.2 1.9 0.2
v -0.1 1.9 0.2
v 0.1 1.9 0.2
v 0.2 1.9 0.2
v -0.4 1.9 0.1
v -0.3 1.9 0.1
v 0.3 1.9 0.1
v 0.4 1.9 0.1
v -0.4 1.9 5.96046e-08
v -0.3 1.9 5.96046e-08
v -0.2 1.9 5.96046e-08
v -0.1 1.9 5.96046e-08
v 0.1 1.9 5.96046e-08
v 0.2 1.9 5.96046e-08
v 0.3 1.9 5.96046e-08
v 0.4 1.9 5.96046e-08
v 0.4 2 0.6
v 0.5 2 0.6
v 0.4 2 0.5
v 0.5 2 0.5
v 0.3 2.4 -0.4
v 0.4 2.4 -0.4
v 0.3 2.4 -0.5
v 0.4 2.4 -0.5
v -0.6 2.5 -0.2
v -0.5 2.5 -0.2
v 0.5 2.5 -0.2
v 0.6 2.5 -0.2
v -0.6 2.5 -0.3
v -0.5 2.5 -0.3
v 0.5 2.5 -0.3
v 0.6 2.5 -0.3
v -0.4 2.5 -0.4
v -0.3 2.5 -0.4
v -0.4 2.5 -0.5
v -0.3 2.5 -0.5
v -0.6 2.6 0.4
v -0.5 2.6 0.4
v 0.5 2.6 0.4
v 0.6 2.6 0.4
v -0.6 2.6 0.3
v -0.5 2.6 0.3
v 0.5 2.6 0.3
v 0.6 2.6 0.3
v -0.5 2.7 0.5
v -0.4 2.7 0.5
v -0.5 2.7 0.4
v -0.4 2.7 0.4
v -0.6 2.7 0.3
v -0.5 2.7 0.3
v 0.5 2.7 0.3
v 0.6 2.7 0.3
v -0.6 2.7 0.2
v -0.5 2.7 0.2
v 0.5 2.7 0.2
v 0.6 2.7 0.2
v 0.5 2.7 -0.1
v 0.6 2.7 -0.1
v 0.5 2.7 -0.2
v 0.6 2.7 -0.2
v -0.3 2.7 -0.4
v -0.2 2.7 -0.4
v 0.3 2.7 -0.4
v 0.4 2.7 -0.4
v -0.3 2.7 -0.5
v -0.2 2.7 -0.5
v 0.3 2.7 -0.5
v 0.4 2.7 -0.5
v -0.4 2.8 0.5
v -0.3 2.8 0.5
v -0.6 2.8 0.4
v -0.5 2.8 0.4
v -0.4 2.8 0.4
v -0.3 2.8 0.4
v -0.6 2.8 0.3
v -0.5 2.8 0.3
v 0.5 2.8 0.2
v 0.6 2.8 0.2
v -0.6 2.8 5.96046e-08
v -0.5 2.8 5.96046e-08
v 0.6 2.8 5.96046e-08
v 0.7 2.8 5.96046e-08
v -0.7 2.8 -0.1
v -0.6 2.8 -0.1
v -0.5 2.8 -0.1
v 0.5 2.8 -0.1
v 0.6 2.8 -0.1
v 0.7 2.8 -0.1
v -0.7 2.8 -0.2
v -0.6 2.8 -0.2
v -0.5 2.8 -0.3
v -0.4 2.8 -0.3
v -0.5 2.8 -0.4
v -0.4 2.8 -0.4
v 0.1 2.8 -0.4
v 0.3 2.8 -0.4
v 0.1 2.8 -0.5
v 0.3 2.8 -0.5
v -0.2 2.8 -0.8
v -0.1 2.8 -0.8
v -0.2 2.8 -0.9
v -0.1 2.8 -0.9
v -0.3 2.9 0.5
v 0.1 2.9 0.5
v 0.4 2.9 0.5
v 0.5 2.9 0.5
v -0.3 2.9 0.4
v 0.1 2.9 0.4
v -0.6 2.9 0.3
v -0.5 2.9 0.3
v -0.6 2.9 5.96046e-08
v -0.5 2.9 5.96046e-08
v 0.4 2.9 -0.1
v 0.5 2.9 -0.1
v 0.6 2.9 -0.1
v 0.4 2.9 -0.2
v 0.5 2.9 -0.2
v 0.6 2.9 -0.2
v -0.4 2.9 -0.3
v -0.3 2.9 -0.3
v 0.2 2.9 -0.3
v 0.4 2.9 -0.3
v -0.4 2.9 -0.4
v -0.3 2.9 -0.4
v 0.2 2.9 -0.4
v 0.5 2.9 -0.4
v 0.1 3 0.5
v 0.4 3 0.5
v -0.5 3 0.4
v 0.1 3 0.4
v 0.2 3 0.4
v -0.2 3 0.3
v 0.1 3 0.3
v 0.2 3 0.3
v 0.3 3 0.3
v -0.4 3 0.2
v -0.2 3 0.2
v -0.6 3 -0.1
v -0.5 3 -0.1
v -0.4 3 -0.1
v 0.3 3 -0.1
v 0.4 3 -0.1
v -0.6 3 -0.2
v -0.5 3 -0.2
v -0.4 3 -0.2
v -0.3 3 -0.2
v 0.2 3 -0.2
v 0.3 3 -0.2
v 0.4 3 -0.2
v -0.5 3 -0.3
v -0.3 3 -0.3
v -0.2 3 -0.3
v 0.1 3 -0.3
v 0.2 3 -0.3
v 0.4 3 -0.3
v -0.3 3 -0.4
v -0.2 3 -0.4
v 0.1 3 -0.4
v 0.2 3 -0.4
v -0.1 3 -0.7
v 0 3 -0.7
v -0.1 3 -0.8
v 0 3 -0.8
v 0.1 3.1 0.4
v 0.2 3.1 0.4
v -0.2 3.1 0.3
v 0.1 3.1 0.3
v 0.2 3.1 0.3
v 0.3 3.1 0.3
v -0.4 3.1 0.2
v -0.2 3.1 0.2
v -0.2 3.1 0.1
v 0.1 3.1 0.1
v -0.5 3.1 -0.1
v -0.4 3.1 -0.1
v -0.2 3.1 -0.1
v 0.1 3.1 -0.1
v 0.3 3.1 -0.1
v 0.5 3.1 -0.1
v -0.5 3.1 -0.2
v -0.4 3.1 -0.2
v -0.3 3.1 -0.2
v 0.2 3.1 -0.2
v 0.3 3.1 -0.2
v 0.5 3.1 -0.2
v -0.3 3.1 -0.3
v -0.2 3.1 -0.3
v 0.1 3.1 -0.3
v 0.2 3.1 -0.3
v -0.2 3.1 -0.5
v -0.1 3.1 -0.5
v 0 3.1 -0.6
v 0.1 3.1 -0.6
v -0.1 3.1 -0.7
v 0 3.1 -0.7
v 0.1 3.1 -0.7
v -0.2 3.1 -0.8
v -0.1 3.1 -0.8
v -0.2 3.2 0.1
v 0.1 3.2 0.1
v -0.4 3.2 -0.1
v -0.2 3.2 -0.1
v -0.1 3.2 -0.1
v 0.1 3.2 -0.1
v 0.2 3.2 -0.1
v 0.3 3.2 -0.1
v -0.4 3.2 -0.2
v -0.2 3.2 -0.2
v -0.1 3.2 -0.2
v 0.1 3.2 -0.2
v 0.2 3.2 -0.2
v 0.3 3.2 -0.2
v -0.2 3.2 -0.3
v 0.1 3.2 -0.3
v -0.2 3.2 -0.5
v -0.1 3.2 -0.5
v 0 3.2 -0.6
v 0.1 3.2 -0.6
v -0.1 3.2 -0.7
v 0 3.2 -0.7
v -0.2 3.3 -0.1
v -0.1 3.3 -0.1
v 0.1 3.3 -0.1
v 0.2 3.3 -0.1
v -0.2 3.3 -0.2
v -0.1 3.3 -0.2
v 0.1 3.3 -0.2
v 0.2 3.3 -0.2

# faces
f 3/7/1 2/7/1 1/7/1
f 4/7/1 2/7/1 3/7/1
f 5/7/1 2/7/1 4/7/1
f 6/7/1 2/7/1 5/7/1
f 7/7/1 5/7/1 4/7/1
f 8/7/1 5/7/1 7/7/1
f 9/7/1 5/7/1 8/7/1
f 10/7/1 5/7/1 9/7/1
f 11/7/1 9/7/1 8/7/1
f 12/7/1 9/7/1 11/7/1
f 13/7/1 11/7/1 8/7/1
f 14/7/1 11/7/1 13/7/1
f 17/7/1 16/7/1 15/7/1
f 18/7/1 16/7/1 17/7/1
f 21/6/1 20/6/1 19/6/1
f 22/6/1 20/6/1 21/6/1
f 27/7/1 24/7/1 23/7/1
f 28/7/1 24/7/1 27/7/1
f 31/7/1 26/7/1 25/7/1
f 32/7/1 26/7/1 31/7/1
f 34/7/1 29/7/1 28/7/1
f 35/7/1 29/7/1 34/7/1
f 37/7/1 31/7/1 30/7/1
f 38/7/1 31/7/1 37/7/1
f 39/6/1 34/6/1 33/6/1
f 40/6/1 34/6/1 39/6/1
f 42/7/1 37/7/1 36/7/1
f 43/7/1 37/7/1 42/7/1
f 44/6/1 41/6/1 40/6/1
f 45/7/1 42/7/1 41/7/1
f 45/6/1 41/6/1 44/6/1
f 46/7/1 42/7/1 45/7/1
f 49/7/1 48/7/1 47/7/1
f 50/7/1 48/7/1 49/7/1
f 52/7/1 51/7/1 50/7/1
f 55/7/1 52/7/1 50/7/1
f 56/7/1 52/7/1 55/7/1
f 57/7/1 54/7/1 53/7/1
f 58/7/1 54/7/1 57/7/1
f 59/7/1 57/7/1 56/7/1
f 60/7/1 57/7/1 59/7/1
f 63/3/1 62/3/1 61/3/1
f 66/3/1 63/3/1 61/3/1
f 66/3/1 64/3/1 63/3/1
f 67/3/1 64/3/1 66/3/1
f 67/3/1 66/3/1 65/3/1
f 68/3/1 64/3/1 67/3/1
f 69/3/1 67/3/1 65/3/1
f 70/3/1 67/3/1 69/3/1
f 72/3/1 67/3/1 70/3/1
f 73/3/1 67/3/1 72/3/1
f 74/3/1 67/3/1 73/3/1
f 75/3/1 67/3/1 74/3/1
f 76/3/1 72/3/1 71/3/1
f 77/3/1 72/3/1 76/3/1
f 78/3/1 74/3/1 73/3/1
f 79/3/1 74/3/1 78/3/1
f 80/3/1 74/3/1 79/3/1
f 82/3/1 78/3/1 77/3/1
f 82/3/1 79/3/1 78/3/1
f 83/3/1 79/3/1 82/3/1
f 84/6/1 81/6/1 80/6/1
f 85/6/1 81/6/1 84/6/1
f 88/7/1 87/7/1 86/7/1
f 89/7/1 87/7/1 88/7/1
f 92/6/1 91/6/1 90/6/1
f 93/6/1 91/6/1 92/6/1
f 96/6/1 95/6/1 94/6/1
f 97/6/1 95/6/1 96/6/1
f 100/7/1 99/7/1 98/7/1
f 101/7/1 99/7/1 100/7/1
f 104/7/1 103/7/1 102/7/1
f 105/7/1 103/7/1 104/7/1
f 112/3/1 107/3/1 106/3/1
f 113/3/1 109/3/1 108/3/1
f 114/3/1 109/3/1 113/3/1
f 115/3/1 109/3/1 114/3/1
f 116/3/1 111/3/1 110/3/1
f 117/3/1 115/3/1 114/3/1
f 117/3/1 116/3/1 115/3/1
f 118/3/1 111/3/1 116/3/1
f 118/3/1 116/3/1 117/3/1
f 119/3/1 112/3/1 106/3/1
f 119/1/1 113/1/1 112/1/1
f 120/1/1 113/1/1 119/1/1
f 122/3/1 111/3/1 118/3/1
f 123/3/1 119/3/1 106/3/1
f 125/3/1 123/3/1 106/3/1
f 125/3/1 124/3/1 123/3/1
f 126/3/1 124/3/1 125/3/1
f 127/3/1 124/3/1 126/3/1
f 129/3/1 122/3/1 121/3/1
f 131/3/1 128/3/1 127/3/1
f 132/3/1 128/3/1 131/3/1
f 135/3/1 111/3/1 122/3/1
f 135/3/1 122/3/1 129/3/1
f 136/3/1 111/3/1 135/3/1
f 137/3/1 131/3/1 130/3/1
f 138/3/1 134/3/1 133/3/1
f 139/3/1 137/3/1 130/3/1
f 139/3/1 138/3/1 137/3/1
f 140/3/1 134/3/1 138/3/1
f 140/3/1 138/3/1 139/3/1
f 141/3/1 135/3/1 129/3/1
f 142/3/1 135/3/1 141/3/1
f 143/6/1 141/6/1 140/6/1
f 144/6/1 141/6/1 143/6/1
f 149/7/1 148/7/1 147/7/1
f 151/7/1 146/7/1 145/7/1
f 152/7/1 146/7/1 151/7/1
f 153/7/1 150/7/1 149/7/1
f 153/7/1 149/7/1 147/7/1
f 154/7/1 150/7/1 153/7/1
f 155/7/1 150/7/1 154/7/1
f 159/7/1 156/7/1 155/7/1
f 160/7/1 156/7/1 159/7/1
f 162/7/1 158/7/1 157/7/1
f 166/7/1 162/7/1 161/7/1
f 167/7/1 158/7/1 162/7/1
f 167/7/1 162/7/1 166/7/1
f 168/7/1 158/7/1 167/7/1
f 169/7/1 166/7/1 165/7/1
f 169/7/1 167/7/1 166/7/1
f 170/7/1 167/7/1 169/7/1
f 171/6/1 164/6/1 163/6/1
f 172/6/1 164/6/1 171/6/1
f 173/6/1 170/6/1 169/6/1
f 174/7/1 167/7/1 170/7/1
f 175/7/1 167/7/1 174/7/1
f 177/6/1 173/6/1 172/6/1
f 178/6/1 170/6/1 173/6/1
f 178/6/1 173/6/1 177/6/1
f 179/7/1 174/7/1 170/7/1
f 179/6/1 170/6/1 178/6/1
f 180/7/1 174/7/1 179/7/1
f 181/7/1 177/7/1 176/7/1
f 182/7/1 177/7/1 181/7/1
f 183/6/1 180/6/1 179/6/1
f 183/6/1 179/6/1 178/6/1
f 184/6/1 180/6/1 183/6/1
f 191/6/1 186/6/1 185/6/1
f 192/6/1 186/6/1 191/6/1
f 193/6/1 188/6/1 187/6/1
f 194/6/1 188/6/1 193/6/1
f 195/3/1 190/3/1 189/3/1
f 196/3/1 190/3/1 195/3/1
f 197/3/1 190/3/1 196/3/1
f 198/6/1 193/6/1 192/6/1
f 199/6/1 193/6/1 198/6/1
f 202/3/1 201/3/1 200/3/1
f 203/3/1 201/3/1 202/3/1
f 206/3/1 205/3/1 204/3/1
f 207/3/1 205/3/1 206/3/1
f 210/3/1 209/3/1 208/3/1
f 211/3/1 209/3/1 210/3/1
f 214/3/1 213/3/1 212/3/1
f 215/3/1 213/3/1 214/3/1
f 218/3/1 217/3/1 216/3/1
f 219/3/1 217/3/1 218/3/1
f 221/6/1 220/6/1 219/6/1
f 222/6/1 220/6/1 221/6/1
f 225/7/1 224/7/1 223/7/1
f 226/7/1 224/7/1 225/7/1
f 231/7/1 228/7/1 227/7/1
f 232/7/1 228/7/1 231/7/1
f 233/7/1 231/7/1 227/7/1
f 234/7/1 231/7/1 233/7/1
f 235/6/1 230/6/1 229/6/1
f 236/6/1 230/6/1 235/6/1
f 242/6/1 238/6/1 237/6/1
f 243/1/1 242/1/1 241/1/1
f 244/6/1 238/6/1 242/6/1
f 244/1/1 242/1/1 243/1/1
f 245/6/1 238/6/1 244/6/1
f 247/7/1 240/7/1 239/7/1
f 248/7/1 240/7/1 247/7/1
f 249/6/1 246/6/1 245/6/1
f 250/6/1 246/6/1 249/6/1
f 252/6/1 250/6/1 249/6/1
f 252/6/1 251/6/1 250/6/1
f 253/6/1 251/6/1 252/6/1
f 257/7/1 255/7/1 254/7/1
f 257/6/1 256/6/1 255/6/1
f 258/6/1 256/6/1 257/6/1
f 259/6/1 256/6/1 258/6/1
f 260/6/1 256/6/1 259/6/1
f 261/7/1 257/7/1 254/7/1
f 262/7/1 257/7/1 261/7/1
f 267/1/1 264/1/1 263/1/1
f 268/1/1 264/1/1 267/1/1
f 269/1/1 264/1/1 268/1/1
f 270/3/1 266/3/1 265/3/1
f 271/3/1 266/3/1 270/3/1
f 274/3/1 273/3/1 272/3/1
f 275/3/1 273/3/1 274/3/1
f 278/3/1 277/3/1 276/3/1
f 279/3/1 277/3/1 278/3/1
f 283/3/1 281/3/1 280/3/1
f 284/3/1 281/3/1 283/3/1
f 285/3/1 283/3/1 282/3/1
f 286/3/1 283/3/1 285/3/1
f 291/6/1 288/6/1 287/6/1
f 292/6/1 288/6/1 291/6/1
f 293/7/1 290/7/1 289/7/1
f 294/7/1 290/7/1 293/7/1
f 297/6/1 296/6/1 295/6/1
f 298/6/1 296/6/1 297/6/1
f 303/3/1 300/3/1 299/3/1
f 304/3/1 302/3/1 301/3/1
f 307/7/1 306/7/1 305/7/1
f 308/7/1 306/7/1 307/7/1
f 309/3/1 302/3/1 304/3/1
f 309/3/1 304/3/1 303/3/1
f 311/3/1 303/3/1 299/3/1
f 311/3/1 310/3/1 309/3/1
f 311/3/1 309/3/1 303/3/1
f 313/3/1 310/3/1 311/3/1
f 314/3/1 310/3/1 313/3/1
f 314/3/1 313/3/1 312/3/1
f 315/3/1 310/3/1 314/3/1
f 319/3/1 314/3/1 312/3/1
f 320/3/1 317/3/1 316/3/1
f 321/3/1 317/3/1 320/3/1
f 324/3/1 319/3/1 318/3/1
f 325/3/1 314/3/1 319/3/1
f 325/3/1 319/3/1 324/3/1
f 326/3/1 314/3/1 325/3/1
f 327/3/1 323/3/1 322/3/1
f 328/3/1 323/3/1 327/3/1
f 330/3/1 325/3/1 324/3/1
f 331/3/1 325/3/1 330/3/1
f 332/6/1 329/6/1 328/6/1
f 333/6/1 329/6/1 332/6/1
f 336/7/1 335/7/1 334/7/1
f 337/7/1 335/7/1 336/7/1
f 340/6/1 339/6/1 338/6/1
f 341/6/1 339/6/1 340/6/1
f 344/6/1 343/6/1 342/6/1
f 345/6/1 343/6/1 344/6/1
f 348/7/1 347/7/1 346/7/1
f 349/7/1 347/7/1 348/7/1
f 352/6/1 351/6/1 350/6/1
f 353/6/1 351/6/1 352/6/1
f 356/3/1 355/3/1 354/3/1
f 357/3/1 355/3/1 356/3/1
f 360/3/1 359/3/1 358/3/1
f 361/3/1 359/3/1 360/3/1
f 364/3/1 363/3/1 362/3/1
f 365/3/1 363/3/1 364/3/1
f 367/3/1 366/3/1 365/3/1
f 368/3/1 366/3/1 367/3/1
f 371/6/1 370/6/1 369/6/1
f 372/6/1 370/6/1 371/6/1
f 375/1/1 374/1/1 373/1/1
f 376/1/1 374/1/1 375/1/1
f 379/3/1 378/3/1 377/3/1
f 380/3/1 378/3/1 379/3/1
f 383/7/1 382/7/1 381/7/1
f 384/7/1 382/7/1 383/7/1
f 390/6/1 386/6/1 385/6/1
f 391/6/1 386/6/1 390/6/1
f 392/3/1 388/3/1 387/3/1
f 393/3/1 388/3/1 392/3/1
f 394/6/1 390/6/1 389/6/1
f 395/6/1 390/6/1 394/6/1
f 398/3/1 397/3/1 396/3/1
f 399/3/1 397/3/1 398/3/1
f 403/7/1 401/7/1 400/7/1
f 403/7/1 402/7/1 401/7/1
f 404/7/1 402/7/1 403/7/1
f 407/7/1 406/7/1 405/7/1
f 408/7/1 406/7/1 407/7/1
f 409/7/1 406/7/1 408/7/1
f 410/7/1 406/7/1 409/7/1
f 413/3/1 412/3/1 411/3/1
f 414/3/1 412/3/1 413/3/1
f 417/3/1 412/3/1 414/3/1
f 418/3/1 416/3/1 415/3/1
f 419/3/1 416/3/1 418/3/1
f 420/3/1 417/3/1 414/3/1
f 421/3/1 420/3/1 414/3/1
f 422/3/1 421/3/1 414/3/1
f 423/3/1 422/3/1 414/3/1
f 424/3/1 422/3/1 423/3/1
f 427/7/1 426/7/1 425/7/1
f 428/7/1 426/7/1 427/7/1
f 429/7/2 430/7/2 431/7/2
f 431/7/2 430/7/2 432/7/2
f 433/7/2 434/7/2 436/7/2
f 434/7/2 435/7/2 436/7/2
f 436/7/2 435/7/2 437/7/2
f 438/7/2 439/7/2 440/7/2
f 440/7/2 439/7/2 441/7/2
f 441/7/2 439/7/2 442/7/2
f 442/7/2 439/7/2 443/7/2
f 444/3/2 445/3/2 448/3/2
f 446/3/2 447/3/2 449/3/2
f 449/3/2 447/3/2 450/3/2
f 444/3/2 448/3/2 451/3/2
f 444/3/2 451/3/2 452/3/2
f 444/3/2 452/3/2 453/3/2
f 444/3/2 453/3/2 454/3/2
f 454/3/2 453/3/2 455/3/2
f 456/7/2 457/7/2 458/7/2
f 458/7/2 457/7/2 459/7/2
f 460/6/2 461/6/2 465/6/2
f 465/6/2 461/6/2 466/6/2
f 462/3/2 463/3/2 467/3/2
f 467/3/2 463/3/2 468/3/2
f 464/6/2 465/6/2 469/6/2
f 469/6/2 465/6/2 470/6/2
f 471/3/2 472/3/2 473/3/2
f 473/3/2 472/3/2 474/3/2
f 475/1/2 476/1/2 477/1/2
f 477/1/2 476/1/2 478/1/2
f 479/3/2 480/3/2 481/3/2
f 481/3/2 480/3/2 482/3/2
f 483/3/2 484/3/2 487/3/2
f 487/3/2 484/3/2 488/3/2
f 485/3/2 486/3/2 489/3/2
f 489/3/2 486/3/2 490/3/2
f 491/3/2 492/3/2 493/3/2
f 493/3/2 492/3/2 494/3/2
f 495/3/2 496/3/2 497/3/2
f 497/3/2 496/3/2 498/3/2
f 499/6/2 500/6/2 501/6/2
f 501/6/2 500/6/2 502/6/2
f 503/3/2 504/3/2 505/3/2
f 505/3/2 504/3/2 506/3/2
f 507/3/2 508/3/2 509/3/2
f 509/3/2 508/3/2 510/3/2
f 511/7/2 512/7/2 513/7/2
f 513/7/2 512/7/2 514/7/2
f 515/6/2 516/6/2 517/6/2
f 517/6/2 516/6/2 518/6/2
f 519/6/2 520/6/2 521/6/2
f 521/6/2 520/6/2 522/6/2
f 523/3/2 524/3/2 528/3/2
f 525/7/2 526/7/2 529/7/2
f 529/7/2 526/7/2 530/7/2
f 531/6/2 532/6/2 533/6/2
f 533/6/2 532/6/2 534/6/2
f 527/3/2 528/3/2 535/3/2
f 536/3/2 537/3/2 538/3/2
f 536/3/2 538/3/2 539/3/2
f 539/3/2 538/3/2 540/3/2
f 535/3/2 528/3/2 542/3/2
f 541/3/2 542/3/2 544/3/2
f 543/3/2 544/3/2 547/3/2
f 528/3/2 524/3/2 548/3/2
f 547/3/2 544/3/2 548/3/2
f 542/3/2 528/3/2 548/3/2
f 544/3/2 542/3/2 548/3/2
f 548/3/2 524/3/2 549/3/2
f 545/3/2 546/3/2 550/3/2
f 550/3/2 546/3/2 551/3/2
f 547/3/2 548/3/2 552/3/2
f 552/3/2 548/3/2 553/3/2
f 554/6/2 555/6/2 558/6/2
f 558/6/2 555/6/2 559/6/2
f 556/7/2 557/7/2 560/7/2
f 560/7/2 557/7/2 561/7/2
f 562/6/2 563/6/2 564/6/2
f 564/6/2 563/6/2 565/6/2
f 566/7/2 567/7/2 568/7/2
f 568/7/2 567/7/2 569/7/2
f 570/3/2 571/3/2 572/3/2
f 572/3/2 571/3/2 573/3/2
f 574/3/2 575/3/2 579/3/2
f 579/3/2 575/3/2 580/3/2
f 576/3/2 577/3/2 581/3/2
f 581/3/2 577/3/2 582/3/2
f 578/3/2 579/3/2 583/3/2
f 583/3/2 579/3/2 584/3/2
f 585/6/2 586/6/2 587/6/2
f 587/6/2 586/6/2 588/6/2
f 589/7/2 590/7/2 591/7/2
f 591/7/2 590/7/2 592/7/2
f 593/7/2 594/7/2 597/7/2
f 597/7/2 594/7/2 598/7/2
f 593/7/2 597/7/2 599/7/2
f 599/7/2 597/7/2 600/7/2
f 595/6/2 596/6/2 601/6/2
f 601/6/2 596/6/2 602/6/2
f 603/6/2 604/6/2 608/6/2
f 607/1/2 608/1/2 609/1/2
f 608/6/2 604/6/2 610/6/2
f 609/1/2 608/1/2 610/1/2
f 610/6/2 604/6/2 611/6/2
f 605/7/2 606/7/2 613/7/2
f 613/7/2 606/7/2 614/7/2
f 611/6/2 612/6/2 615/6/2
f 615/6/2 612/6/2 616/6/2
f 615/6/2 616/6/2 618/6/2
f 616/6/2 617/6/2 618/6/2
f 618/6/2 617/6/2 619/6/2
f 620/7/2 621/7/2 623/7/2
f 621/6/2 622/6/2 623/6/2
f 623/6/2 622/6/2 624/6/2
f 624/6/2 622/6/2 625/6/2
f 625/6/2 622/6/2 626/6/2
f 620/7/2 623/7/2 627/7/2
f 627/7/2 623/7/2 628/7/2
f 629/1/2 630/1/2 633/1/2
f 633/1/2 630/1/2 634/1/2
f 634/1/2 630/1/2 635/1/2
f 631/3/2 632/3/2 636/3/2
f 636/3/2 632/3/2 637/3/2
f 638/3/2 639/3/2 640/3/2
f 640/3/2 639/3/2 641/3/2
f 642/3/2 643/3/2 644/3/2
f 644/3/2 643/3/2 645/3/2
f 646/3/2 647/3/2 648/3/2
f 648/3/2 647/3/2 649/3/2
f 649/6/2 650/6/2 651/6/2
f 651/6/2 650/6/2 652/6/2
f 655/7/2 656/7/2 657/7/2
f 653/7/2 654/7/2 659/7/2
f 659/7/2 654/7/2 660/7/2
f 657/7/2 658/7/2 661/7/2
f 655/7/2 657/7/2 661/7/2
f 661/7/2 658/7/2 662/7/2
f 662/7/2 658/7/2 663/7/2
f 663/7/2 664/7/2 667/7/2
f 667/7/2 664/7/2 668/7/2
f 665/7/2 666/7/2 670/7/2
f 669/7/2 670/7/2 674/7/2
f 670/7/2 666/7/2 675/7/2
f 674/7/2 670/7/2 675/7/2
f 675/7/2 666/7/2 676/7/2
f 673/7/2 674/7/2 677/7/2
f 674/7/2 675/7/2 677/7/2
f 677/7/2 675/7/2 678/7/2
f 671/6/2 672/6/2 679/6/2
f 679/6/2 672/6/2 680/6/2
f 677/6/2 678/6/2 681/6/2
f 678/7/2 675/7/2 682/7/2
f 682/7/2 675/7/2 683/7/2
f 680/6/2 681/6/2 685/6/2
f 681/6/2 678/6/2 686/6/2
f 685/6/2 681/6/2 686/6/2
f 678/7/2 682/7/2 687/7/2
f 686/6/2 678/6/2 687/6/2
f 687/7/2 682/7/2 688/7/2
f 684/7/2 685/7/2 689/7/2
f 689/7/2 685/7/2 690/7/2
f 687/6/2 688/6/2 691/6/2
f 686/6/2 687/6/2 691/6/2
f 691/6/2 688/6/2 692/6/2
f 693/6/2 694/6/2 699/6/2
f 699/6/2 694/6/2 700/6/2
f 695/6/2 696/6/2 701/6/2
f 701/6/2 696/6/2 702/6/2
f 697/3/2 698/3/2 703/3/2
f 703/3/2 698/3/2 704/3/2
f 700/6/2 701/6/2 705/6/2
f 705/6/2 701/6/2 706/6/2
f 707/3/2 708/3/2 709/3/2
f 709/3/2 708/3/2 710/3/2
f 711/3/2 712/3/2 713/3/2
f 713/3/2 712/3/2 714/3/2
f 715/3/2 716/3/2 719/3/2
f 719/3/2 716/3/2 720/3/2
f 717/3/2 718/3/2 721/3/2
f 721/3/2 718/3/2 722/3/2
f 723/7/2 724/7/2 725/7/2
f 725/7/2 724/7/2 726/7/2
f 727/6/2 728/6/2 729/6/2
f 729/6/2 728/6/2 730/6/2
f 731/6/2 732/6/2 733/6/2
f 733/6/2 732/6/2 734/6/2
f 735/7/2 736/7/2 737/7/2
f 737/7/2 736/7/2 738/7/2
f 739/7/2 740/7/2 741/7/2
f 741/7/2 740/7/2 742/7/2
f 743/3/2 744/3/2 745/3/2
f 745/3/2 744/3/2 746/3/2
f 746/3/2 744/3/2 749/3/2
f 746/3/2 749/3/2 751/3/2
f 749/1/2 750/1/2 751/1/2
f 751/1/2 750/1/2 752/1/2
f 747/3/2 748/3/2 753/3/2
f 753/3/2 748/3/2 754/3/2
f 754/3/2 748/3/2 755/3/2
f 755/3/2 748/3/2 756/3/2
f 754/3/2 755/3/2 757/3/2
f 757/3/2 755/3/2 758/3/2
f 756/3/2 748/3/2 760/3/2
f 746/3/2 751/3/2 761/3/2
f 761/3/2 762/3/2 763/3/2
f 759/3/2 760/3/2 766/3/2
f 763/3/2 764/3/2 767/3/2
f 765/3/2 766/3/2 768/3/2
f 766/3/2 760/3/2 769/3/2
f 768/3/2 766/3/2 769/3/2
f 763/3/2 767/3/2 770/3/2
f 746/3/2 761/3/2 770/3/2
f 761/3/2 763/3/2 770/3/2
f 767/3/2 768/3/2 770/3/2
f 770/3/2 768/3/2 771/3/2
f 769/3/2 760/3/2 772/3/2
f 760/3/2 748/3/2 773/3/2
f 772/3/2 760/3/2 773/3/2
f 771/6/2 772/6/2 774/6/2
f 774/6/2 772/6/2 775/6/2
f 776/7/2 777/7/2 780/7/2
f 780/7/2 777/7/2 781/7/2
f 778/7/2 779/7/2 784/7/2
f 784/7/2 779/7/2 785/7/2
f 781/7/2 782/7/2 787/7/2
f 787/7/2 782/7/2 788/7/2
f 783/7/2 784/7/2 790/7/2
f 790/7/2 784/7/2 791/7/2
f 786/6/2 787/6/2 792/6/2
f 792/6/2 787/6/2 793/6/2
f 789/7/2 790/7/2 795/7/2
f 795/7/2 790/7/2 796/7/2
f 793/6/2 794/6/2 797/6/2
f 794/7/2 795/7/2 798/7/2
f 797/6/2 794/6/2 798/6/2
f 798/7/2 795/7/2 799/7/2
f 800/7/2 801/7/2 802/7/2
f 802/7/2 801/7/2 803/7/2
f 803/7/2 804/7/2 805/7/2
f 803/7/2 805/7/2 808/7/2
f 808/7/2 805/7/2 809/7/2
f 806/7/2 807/7/2 810/7/2
f 810/7/2 807/7/2 811/7/2
f 809/7/2 810/7/2 812/7/2
f 812/7/2 810/7/2 813/7/2
f 814/3/2 815/3/2 817/3/2
f 817/3/2 815/3/2 818/3/2
f 818/3/2 819/3/2 822/3/2
f 816/3/2 817/3/2 822/3/2
f 817/3/2 818/3/2 822/3/2
f 820/3/2 821/3/2 823/3/2
f 823/3/2 821/3/2 824/3/2
f 822/3/2 823/3/2 824/3/2
f 824/3/2 821/3/2 825/3/2
f 816/3/2 822/3/2 826/3/2
f 822/3/2 824/3/2 826/3/2
f 826/3/2 824/3/2 827/3/2
f 827/3/2 824/3/2 828/3/2
f 828/3/2 824/3/2 829/3/2
f 829/3/2 824/3/2 830/3/2
f 830/3/2 824/3/2 831/3/2
f 831/3/2 824/3/2 832/3/2
f 829/3/2 830/3/2 833/3/2
f 833/3/2 830/3/2 834/3/2
f 835/6/2 836/6/2 837/6/2
f 837/6/2 836/6/2 838/6/2
f 839/7/2 840/7/2 841/7/2
f 841/7/2 840/7/2 842/7/2
f 842/7/2 840/7/2 843/7/2
f 843/7/2 840/7/2 844/7/2
f 842/7/2 843/7/2 845/7/2
f 845/7/2 843/7/2 846/7/2
f 846/7/2 843/7/2 847/7/2
f 847/7/2 843/7/2 848/7/2
f 846/7/2 847/7/2 849/7/2
f 849/7/2 847/7/2 850/7/2
f 846/7/2 849/7/2 851/7/2
f 851/7/2 849/7/2 852/7/2
f 853/7/2 854/7/2 855/7/2
f 855/7/2 854/7/2 856/7/2
f 857/6/2 858/6/2 859/6/2
f 859/6/2 858/6/2 860/6/2
f 863/3/3 862/3/3 861/3/3
f 864/3/3 862/3/3 863/3/3
f 867/3/3 866/3/3 865/3/3
f 868/3/3 866/3/3 867/3/3
f 870/3/3 869/3/3 868/3/3
f 871/3/3 869/3/3 870/3/3
f 874/3/3 873/3/3 872/3/3
f 875/3/3 873/3/3 874/3/3
f 876/3/3 873/3/3 875/3/3
f 880/3/3 877/3/3 876/3/3
f 880/3/3 876/3/3 875/3/3
f 881/3/3 877/3/3 880/3/3
f 882/3/3 877/3/3 881/3/3
f 884/3/3 883/3/3 882/3/3
f 884/3/3 882/3/3 881/3/3
f 885/3/3 883/3/3 884/3/3
f 886/3/3 883/3/3 885/3/3
f 888/3/3 887/3/3 886/3/3
f 888/3/3 886/3/3 885/3/3
f 889/3/3 887/3/3 888/3/3
f 890/7/3 879/7/3 878/7/3
f 891/7/3 879/7/3 890/7/3
f 893/3/3 887/3/3 889/3/3
f 895/3/3 893/3/3 892/3/3
f 896/3/3 887/3/3 893/3/3
f 896/3/3 893/3/3 895/3/3
f 897/3/3 887/3/3 896/3/3
f 898/3/3 895/3/3 894/3/3
f 898/3/3 896/3/3 895/3/3
f 899/3/3 896/3/3 898/3/3
f 906/3/3 901/3/3 900/3/3
f 907/3/3 901/3/3 906/3/3
f 908/3/3 903/3/3 902/3/3
f 909/3/3 903/3/3 908/3/3
f 911/7/3 905/7/3 904/7/3
f 918/3/3 910/3/3 909/3/3
f 918/3/3 909/3/3 908/3/3
f 919/3/3 910/3/3 918/3/3
f 920/7/3 911/7/3 904/7/3
f 920/7/3 912/7/3 911/7/3
f 921/7/3 912/7/3 920/7/3
f 922/7/3 912/7/3 921/7/3
f 927/1/3 914/1/3 913/1/3
f 928/2/3 915/2/3 914/2/3
f 928/1/3 914/1/3 927/1/3
f 929/1/3 916/1/3 915/1/3
f 929/2/3 915/2/3 928/2/3
f 930/3/3 917/3/3 916/3/3
f 930/1/3 916/1/3 929/1/3
f 931/3/3 917/3/3 930/3/3
f 933/3/3 910/3/3 919/3/3
f 934/3/3 910/3/3 933/3/3
f 935/6/3 923/6/3 922/6/3
f 937/1/3 925/1/3 924/1/3
f 938/1/3 925/1/3 937/1/3
f 939/1/3 929/1/3 928/1/3
f 939/1/3 928/1/3 927/1/3
f 939/1/3 927/1/3 926/1/3
f 939/4/3 930/4/3 929/4/3
f 940/5/3 931/5/3 930/5/3
f 940/4/3 930/4/3 939/4/3
f 941/3/3 932/3/3 931/3/3
f 941/5/3 931/5/3 940/5/3
f 942/6/3 936/6/3 935/6/3
f 944/3/3 932/3/3 941/3/3
f 944/1/3 940/1/3 939/1/3
f 944/1/3 941/1/3 940/1/3
f 945/3/3 932/3/3 944/3/3
f 946/6/3 943/6/3 942/6/3
f 946/6/3 942/6/3 935/6/3
f 947/6/3 943/6/3 946/6/3
f 948/1/3 945/1/3 944/1/3
f 951/3/3 910/3/3 934/3/3
f 952/3/3 910/3/3 951/3/3
f 954/6/3 935/6/3 922/6/3
f 954/6/3 946/6/3 935/6/3
f 955/6/3 946/6/3 954/6/3
f 958/1/3 948/1/3 944/1/3
f 958/1/3 939/1/3 926/1/3
f 958/1/3 944/1/3 939/1/3
f 958/1/3 949/1/3 948/1/3
f 959/1/3 949/1/3 958/1/3
f 960/1/3 949/1/3 959/1/3
f 961/3/3 950/3/3 949/3/3
f 961/1/3 949/1/3 960/1/3
f 962/3/3 950/3/3 961/3/3
f 964/3/3 953/3/3 952/3/3
f 965/3/3 953/3/3 964/3/3
f 967/7/3 922/7/3 921/7/3
f 968/6/3 954/6/3 922/6/3
f 968/7/3 922/7/3 967/7/3
f 969/6/3 954/6/3 968/6/3
f 970/1/3 957/1/3 956/1/3
f 971/1/3 957/1/3 970/1/3
f 972/1/3 958/1/3 926/1/3
f 973/1/3 958/1/3 972/1/3
f 974/1/3 958/1/3 973/1/3
f 975/4/3 959/4/3 958/4/3
f 975/1/3 958/1/3 974/1/3
f 976/5/3 960/5/3 959/5/3
f 976/4/3 959/4/3 975/4/3
f 977/1/3 961/1/3 960/1/3
f 977/5/3 960/5/3 976/5/3
f 977/1/3 962/1/3 961/1/3
f 978/1/3 962/1/3 977/1/3
f 979/3/3 963/3/3 962/3/3
f 979/1/3 962/1/3 978/1/3
f 980/3/3 963/3/3 979/3/3
f 981/7/3 967/7/3 966/7/3
f 981/7/3 968/7/3 967/7/3
f 982/7/3 968/7/3 981/7/3
f 983/1/3 974/1/3 973/1/3
f 984/2/3 975/2/3 974/2/3
f 984/1/3 974/1/3 983/1/3
f 985/1/3 978/1/3 977/1/3
f 985/2/3 975/2/3 984/2/3
f 985/1/3 977/1/3 976/1/3
f 985/1/3 976/1/3 975/1/3
f 986/3/3 979/3/3 978/3/3
f 986/1/3 978/1/3 985/1/3
f 987/3/3 979/3/3 986/3/3
f 988/7/3 981/7/3 966/7/3
f 989/7/3 981/7/3 988/7/3
f 992/3/3 991/3/3 990/3/3
f 993/3/3 991/3/3 992/3/3
f 996/7/3 995/7/3 994/7/3
f 1008/7/3 996/7/3 994/7/3
f 1008/7/3 997/7/3 996/7/3
f 1009/7/3 997/7/3 1008/7/3
f 1010/6/3 999/6/3 998/6/3
f 1013/3/3 1003/3/3 1002/3/3
f 1014/3/3 1003/3/3 1013/3/3
f 1015/3/3 1005/3/3 1004/3/3
f 1016/3/3 1005/3/3 1015/3/3
f 1017/3/3 1007/3/3 1006/3/3
f 1018/3/3 1007/3/3 1017/3/3
f 1019/7/3 997/7/3 1009/7/3
f 1020/7/3 997/7/3 1019/7/3
f 1021/6/3 1011/6/3 1010/6/3
f 1021/6/3 1010/6/3 998/6/3
f 1022/6/3 1011/6/3 1021/6/3
f 1025/7/3 1001/7/3 1000/7/3
f 1026/7/3 1001/7/3 1025/7/3
f 1027/3/3 1013/3/3 1012/3/3
f 1028/3/3 1013/3/3 1027/3/3
f 1029/6/3 1023/6/3 1022/6/3
f 1029/6/3 1022/6/3 1021/6/3
f 1030/6/3 1023/6/3 1029/6/3
f 1031/6/3 1023/6/3 1030/6/3
f 1033/7/3 1025/7/3 1024/7/3
f 1034/7/3 1025/7/3 1033/7/3
f 1037/6/3 1032/6/3 1031/6/3
f 1037/6/3 1031/6/3 1030/6/3
f 1038/6/3 1032/6/3 1037/6/3
f 1039/6/3 1032/6/3 1038/6/3
f 1043/6/3 1040/6/3 1039/6/3
f 1043/6/3 1039/6/3 1038/6/3
f 1044/6/3 1040/6/3 1043/6/3
f 1045/6/3 1040/6/3 1044/6/3
f 1048/6/3 1046/6/3 1045/6/3
f 1048/6/3 1045/6/3 1044/6/3
f 1049/6/3 1046/6/3 1048/6/3
f 1050/6/3 1046/6/3 1049/6/3
f 1051/3/3 1042/3/3 1041/3/3
f 1052/3/3 1042/3/3 1051/3/3
f 1054/6/3 1048/6/3 1047/6/3
f 1054/6/3 1049/6/3 1048/6/3
f 1055/6/3 1049/6/3 1054/6/3
f 1056/6/3 1049/6/3 1055/6/3
f 1060/6/3 1054/6/3 1053/6/3
f 1060/6/3 1055/6/3 1054/6/3
f 1061/6/3 1055/6/3 1060/6/3
f 1062/6/3 1055/6/3 1061/6/3
f 1065/7/3 1036/7/3 1035/7/3
f 1066/7/3 1036/7/3 1065/7/3
f 1067/3/3 1058/3/3 1057/3/3
f 1068/3/3 1058/3/3 1067/3/3
f 1071/6/3 1060/6/3 1059/6/3
f 1071/6/3 1061/6/3 1060/6/3
f 1072/6/3 1061/6/3 1071/6/3
f 1073/6/3 1061/6/3 1072/6/3
f 1074/7/3 1064/7/3 1063/7/3
f 1075/7/3 1064/7/3 1074/7/3
f 1080/7/3 1070/7/3 1069/7/3
f 1081/6/3 1072/6/3 1071/6/3
f 1082/6/3 1072/6/3 1081/6/3
f 1083/3/3 1078/3/3 1077/3/3
f 1087/7/3 1080/7/3 1079/7/3
f 1087/7/3 1070/7/3 1080/7/3
f 1088/7/3 1070/7/3 1087/7/3
f 1089/6/3 1081/6/3 1071/6/3
f 1090/6/3 1081/6/3 1089/6/3
f 1091/7/3 1076/7/3 1075/7/3
f 1092/7/3 1076/7/3 1091/7/3
f 1093/3/3 1084/3/3 1083/3/3
f 1093/3/3 1083/3/3 1077/3/3
f 1094/3/3 1084/3/3 1093/3/3
f 1095/3/3 1086/3/3 1085/3/3
f 1096/3/3 1086/3/3 1095/3/3
f 1097/7/3 1087/7/3 1079/7/3
f 1098/7/3 1087/7/3 1097/7/3
f 1101/7/3 1100/7/3 1099/7/3
f 1102/7/3 1100/7/3 1101/7/3
f 1110/6/3 1105/6/3 1104/6/3
f 1111/6/3 1105/6/3 1110/6/3
f 1112/6/3 1105/6/3 1111/6/3
f 1114/7/3 1107/7/3 1106/7/3
f 1115/7/3 1107/7/3 1114/7/3
f 1116/3/3 1109/3/3 1108/3/3
f 1117/3/3 1109/3/3 1116/3/3
f 1118/7/3 1103/7/3 1102/7/3
f 1119/7/3 1103/7/3 1118/7/3
f 1120/6/3 1113/6/3 1112/6/3
f 1120/6/3 1112/6/3 1111/6/3
f 1121/6/3 1113/6/3 1120/6/3
f 1123/7/3 1107/7/3 1115/7/3
f 1124/7/3 1107/7/3 1123/7/3
f 1125/7/3 1107/7/3 1124/7/3
f 1129/6/3 1122/6/3 1121/6/3
f 1130/6/3 1122/6/3 1129/6/3
f 1133/6/3 1126/6/3 1125/6/3
f 1133/6/3 1125/6/3 1124/6/3
f 1134/6/3 1126/6/3 1133/6/3
f 1135/6/3 1126/6/3 1134/6/3
f 1136/6/3 1132/6/3 1131/6/3
f 1136/6/3 1131/6/3 1130/6/3
f 1138/7/3 1135/7/3 1134/7/3
f 1140/3/3 1128/3/3 1127/3/3
f 1141/3/3 1128/3/3 1140/3/3
f 1142/6/3 1137/6/3 1136/6/3
f 1142/6/3 1136/6/3 1130/6/3
f 1143/6/3 1137/6/3 1142/6/3
f 1144/7/3 1139/7/3 1138/7/3
f 1147/6/3 1137/6/3 1143/6/3
f 1148/7/3 1144/7/3 1138/7/3
f 1148/6/3 1145/6/3 1144/6/3
f 1149/6/3 1145/6/3 1148/6/3
f 1150/6/3 1147/6/3 1146/6/3
f 1150/6/3 1137/6/3 1147/6/3
f 1151/6/3 1137/6/3 1150/6/3
f 1152/7/3 1138/7/3 1134/7/3
f 1152/7/3 1148/7/3 1138/7/3
f 1153/7/3 1148/7/3 1152/7/3
f 1155/6/3 1150/6/3 1146/6/3
f 1156/6/3 1150/6/3 1155/6/3
f 1157/6/3 1150/6/3 1156/6/3
f 1159/7/3 1152/7/3 1134/7/3
f 1160/7/3 1152/7/3 1159/7/3
f 1164/6/3 1155/6/3 1154/6/3
f 1165/6/3 1155/6/3 1164/6/3
f 1167/6/3 1160/6/3 1159/6/3
f 1167/6/3 1159/6/3 1158/6/3
f 1168/6/3 1160/6/3 1167/6/3
f 1169/6/3 1160/6/3 1168/6/3
f 1171/6/3 1164/6/3 1163/6/3
f 1172/6/3 1164/6/3 1171/6/3
f 1173/6/3 1164/6/3 1172/6/3
f 1175/7/3 1168/7/3 1167/7/3
f 1175/7/3 1167/7/3 1166/7/3
f 1179/7/3 1162/7/3 1161/7/3
f 1180/7/3 1162/7/3 1179/7/3
f 1181/6/3 1171/6/3 1170/6/3
f 1181/6/3 1172/6/3 1171/6/3
f 1182/6/3 1172/6/3 1181/6/3
f 1183/7/3 1175/7/3 1174/7/3
f 1184/7/3 1168/7/3 1175/7/3
f 1184/7/3 1175/7/3 1183/7/3
f 1185/3/3 1177/3/3 1176/3/3
f 1186/3/3 1177/3/3 1185/3/3
f 1187/7/3 1179/7/3 1178/7/3
f 1188/7/3 1179/7/3 1187/7/3
f 1193/7/3 1190/7/3 1189/7/3
f 1194/7/3 1190/7/3 1193/7/3
f 1195/7/3 1190/7/3 1194/7/3
f 1196/7/3 1192/7/3 1191/7/3
f 1197/7/3 1192/7/3 1196/7/3
f 1199/7/3 1198/7/3 1197/7/3
f 1201/7/3 1195/7/3 1194/7/3
f 1202/7/3 1195/7/3 1201/7/3
f 1205/7/3 1200/7/3 1199/7/3
f 1205/7/3 1199/7/3 1197/7/3
f 1206/7/3 1200/7/3 1205/7/3
f 1208/6/3 1204/6/3 1203/6/3
f 1209/6/3 1204/6/3 1208/6/3
f 1210/6/3 1207/6/3 1206/6/3
f 1211/6/3 1207/6/3 1210/6/3
f 1214/3/3 1213/3/3 1212/3/3
f 1215/3/3 1213/3/3 1214/3/3
f 1222/6/3 1217/6/3 1216/6/3
f 1223/6/3 1217/6/3 1222/6/3
f 1225/6/3 1219/6/3 1218/6/3
f 1226/6/3 1219/6/3 1225/6/3
f 1227/7/3 1225/7/3 1224/7/3
f 1228/7/3 1225/7/3 1227/7/3
f 1230/7/3 1221/7/3 1220/7/3
f 1231/7/3 1221/7/3 1230/7/3
f 1233/7/3 1227/7/3 1224/7/3
f 1234/7/3 1227/7/3 1233/7/3
f 1235/7/3 1231/7/3 1230/7/3
f 1235/7/3 1230/7/3 1229/7/3
f 1236/7/3 1231/7/3 1235/7/3
f 1237/7/3 1233/7/3 1232/7/3
f 1238/7/3 1233/7/3 1237/7/3
f 1241/6/3 1240/6/3 1239/6/3
f 1242/6/3 1240/6/3 1241/6/3
f 1245/6/3 1244/6/3 1243/6/3
f 1246/6/3 1244/6/3 1245/6/3
f 1248/6/3 1247/6/3 1246/6/3
f 1249/6/3 1247/6/3 1248/6/3
f 1253/6/3 1250/6/3 1249/6/3
f 1254/6/3 1250/6/3 1253/6/3
f 1256/3/3 1252/3/3 1251/3/3
f 1257/3/3 1252/3/3 1256/3/3
f 1258/6/3 1255/6/3 1254/6/3
f 1259/6/3 1255/6/3 1258/6/3
f 1261/6/3 1260/6/3 1259/6/3
f 1262/6/3 1260/6/3 1261/6/3
f 1266/6/3 1264/6/3 1263/6/3
f 1266/6/3 1265/6/3 1264/6/3
f 1267/6/3 1265/6/3 1266/6/3
f 1271/6/3 1266/6/3 1263/6/3
f 1272/6/3 1266/6/3 1271/6/3
f 1273/3/3 1269/3/3 1268/3/3
f 1274/3/3 1269/3/3 1273/3/3
f 1276/6/3 1271/6/3 1270/6/3
f 1278/6/3 1276/6/3 1275/6/3
f 1279/6/3 1271/6/3 1276/6/3
f 1279/6/3 1276/6/3 1278/6/3
f 1280/6/3 1278/6/3 1277/6/3
f 1281/6/3 1278/6/3 1280/6/3
f 1284/3/3 1283/3/3 1282/3/3
f 1285/3/3 1283/3/3 1284/3/3
f 1288/3/3 1287/3/3 1286/3/3
f 1289/3/3 1287/3/3 1288/3/3
f 1292/3/3 1291/3/3 1290/3/3
f 1293/3/3 1291/3/3 1292/3/3
f 1296/3/3 1295/3/3 1294/3/3
f 1297/3/3 1295/3/3 1296/3/3
f 1298/3/3 1295/3/3 1297/3/3
f 1299/3/3 1295/3/3 1298/3/3
f 1302/3/3 1301/3/3 1300/3/3
f 1303/3/3 1301/3/3 1302/3/3
f 1306/3/3 1305/3/3 1304/3/3
f 1307/3/3 1305/3/3 1306/3/3
f 1308/3/4 1309/3/4 1310/3/4
f 1310/3/4 1309/3/4 1311/3/4
f 1312/3/4 1313/3/4 1314/3/4
f 1314/3/4 1313/3/4 1315/3/4
f 1316/3/4 1317/3/4 1319/3/4
f 1319/3/4 1317/3/4 1320/3/4
f 1318/3/4 1319/3/4 1321/3/4
f 1321/3/4 1319/3/4 1322/3/4
f 1323/3/4 1324/3/4 1325/3/4
f 1325/3/4 1324/3/4 1326/3/4
f 1326/3/4 1327/3/4 1328/3/4
f 1328/3/4 1327/3/4 1329/3/4
f 1330/3/4 1331/3/4 1332/3/4
f 1332/3/4 1331/3/4 1333/3/4
f 1336/7/4 1337/7/4 1338/7/4
f 1338/7/4 1337/7/4 1339/7/4
f 1334/6/4 1335/6/4 1340/6/4
f 1340/6/4 1335/6/4 1341/6/4
f 1342/7/4 1343/7/4 1344/7/4
f 1344/7/4 1343/7/4 1345/7/4
f 1346/7/4 1347/7/4 1350/7/4
f 1350/7/4 1347/7/4 1351/7/4
f 1348/6/4 1349/6/4 1354/6/4
f 1354/6/4 1349/6/4 1355/6/4
f 1352/7/4 1353/7/4 1356/7/4
f 1356/7/4 1353/7/4 1357/7/4
f 1358/7/4 1359/7/4 1363/7/4
f 1363/7/4 1359/7/4 1364/7/4
f 1360/6/4 1361/6/4 1365/6/4
f 1365/6/4 1361/6/4 1366/6/4
f 1366/6/4 1361/6/4 1367/6/4
f 1362/7/4 1363/7/4 1368/7/4
f 1368/7/4 1363/7/4 1369/7/4
f 1370/6/4 1371/6/4 1375/6/4
f 1371/6/4 1372/6/4 1375/6/4
f 1375/6/4 1372/6/4 1376/6/4
f 1373/7/4 1374/7/4 1377/7/4
f 1377/7/4 1374/7/4 1378/7/4
f 1378/7/4 1379/7/4 1380/7/4
f 1380/7/4 1379/7/4 1381/7/4
f 1382/7/4 1383/7/4 1384/7/4
f 1384/7/4 1383/7/4 1385/7/4
f 1385/7/4 1386/7/4 1391/7/4
f 1387/3/4 1388/3/4 1393/3/4
f 1393/3/4 1388/3/4 1394/3/4
f 1389/3/4 1390/3/4 1395/3/4
f 1395/3/4 1390/3/4 1396/3/4
f 1391/7/4 1392/7/4 1397/7/4
f 1385/7/4 1391/7/4 1397/7/4
f 1397/7/4 1392/7/4 1398/7/4
f 1398/6/4 1399/6/4 1401/6/4
f 1401/6/4 1399/6/4 1402/6/4
f 1400/7/4 1401/7/4 1403/7/4
f 1400/7/4 1403/7/4 1405/7/4
f 1403/7/4 1404/7/4 1405/7/4
f 1405/7/4 1404/7/4 1406/7/4
f 1406/7/4 1404/7/4 1407/7/4
f 1406/7/4 1407/7/4 1410/7/4
f 1407/6/4 1408/6/4 1411/6/4
f 1410/7/4 1407/7/4 1411/7/4
f 1411/6/4 1408/6/4 1412/6/4
f 1409/7/4 1410/7/4 1413/7/4
f 1410/7/4 1411/7/4 1413/7/4
f 1413/7/4 1411/7/4 1414/7/4
f 1409/7/4 1413/7/4 1415/7/4
f 1415/7/4 1413/7/4 1416/7/4
f 1416/6/4 1417/6/4 1419/6/4
f 1419/6/4 1417/6/4 1420/6/4
f 1418/7/4 1419/7/4 1421/7/4
f 1421/7/4 1419/7/4 1422/7/4
f 1418/7/4 1421/7/4 1426/7/4
f 1426/7/4 1421/7/4 1427/7/4
f 1423/3/4 1424/3/4 1428/3/4
f 1428/3/4 1424/3/4 1429/3/4
f 1425/7/4 1426/7/4 1430/7/4
f 1430/7/4 1426/7/4 1431/7/4
f 1432/7/4 1433/7/4 1434/7/4
f 1434/7/4 1433/7/4 1435/7/4
f 1435/7/4 1436/7/4 1441/7/4
f 1441/7/4 1436/7/4 1442/7/4
f 1437/7/4 1438/7/4 1446/7/4
f 1446/7/4 1438/7/4 1447/7/4
f 1447/7/4 1438/7/4 1448/7/4
f 1439/3/4 1440/3/4 1450/3/4
f 1450/3/4 1440/3/4 1451/3/4
f 1443/7/4 1444/7/4 1452/7/4
f 1444/6/4 1445/6/4 1453/6/4
f 1452/7/4 1444/7/4 1453/7/4
f 1453/6/4 1445/6/4 1454/6/4
f 1448/6/4 1449/6/4 1457/6/4
f 1447/6/4 1448/6/4 1457/6/4
f 1457/6/4 1449/6/4 1458/6/4
f 1458/6/4 1449/6/4 1459/6/4
f 1454/6/4 1455/6/4 1460/6/4
f 1456/6/4 1457/6/4 1461/6/4
f 1461/6/4 1457/6/4 1462/6/4
f 1460/6/4 1461/6/4 1462/6/4
f 1457/7/4 1458/7/4 1463/7/4
f 1462/6/4 1457/6/4 1463/6/4
f 1463/7/4 1458/7/4 1464/7/4
f 1460/6/4 1462/6/4 1466/6/4
f 1464/7/4 1465/7/4 1466/7/4
f 1463/7/4 1464/7/4 1466/7/4
f 1462/7/4 1463/7/4 1466/7/4
f 1466/7/4 1465/7/4 1467/7/4
f 1467/7/4 1465/7/4 1468/7/4
f 1468/7/4 1465/7/4 1469/7/4
f 1454/6/4 1460/6/4 1470/6/4
f 1460/6/4 1466/6/4 1470/6/4
f 1466/6/4 1467/6/4 1470/6/4
f 1470/6/4 1467/6/4 1471/6/4
f 1453/7/4 1454/7/4 1473/7/4
f 1454/6/4 1470/6/4 1474/6/4
f 1473/7/4 1454/7/4 1474/7/4
f 1474/6/4 1470/6/4 1475/6/4
f 1471/6/4 1467/6/4 1476/6/4
f 1467/7/4 1468/7/4 1477/7/4
f 1476/6/4 1467/6/4 1477/6/4
f 1477/7/4 1468/7/4 1478/7/4
f 1472/7/4 1473/7/4 1482/7/4
f 1473/6/4 1474/6/4 1483/6/4
f 1482/7/4 1473/7/4 1483/7/4
f 1483/6/4 1474/6/4 1484/6/4
f 1478/6/4 1479/6/4 1486/6/4
f 1477/6/4 1478/6/4 1486/6/4
f 1486/6/4 1479/6/4 1487/6/4
f 1487/6/4 1479/6/4 1488/6/4
f 1480/7/4 1481/7/4 1494/7/4
f 1494/7/4 1481/7/4 1495/7/4
f 1486/7/4 1487/7/4 1496/7/4
f 1485/7/4 1486/7/4 1496/7/4
f 1496/7/4 1487/7/4 1497/7/4
f 1489/3/4 1490/3/4 1498/3/4
f 1498/3/4 1490/3/4 1499/3/4
f 1491/3/4 1492/3/4 1500/3/4
f 1500/3/4 1492/3/4 1501/3/4
f 1493/7/4 1494/7/4 1502/7/4
f 1502/7/4 1494/7/4 1503/7/4
f 1500/6/4 1501/6/4 1504/6/4
f 1504/6/4 1501/6/4 1505/6/4
f 1506/7/4 1507/7/4 1510/7/4
f 1510/7/4 1507/7/4 1511/7/4
f 1508/6/4 1509/6/4 1514/6/4
f 1514/6/4 1509/6/4 1515/6/4
f 1513/3/4 1514/3/4 1517/3/4
f 1515/6/4 1516/6/4 1518/6/4
f 1517/3/4 1514/3/4 1518/3/4
f 1514/6/4 1515/6/4 1518/6/4
f 1518/6/4 1516/6/4 1519/6/4
f 1511/7/4 1512/7/4 1521/7/4
f 1521/7/4 1512/7/4 1522/7/4
f 1519/6/4 1520/6/4 1525/6/4
f 1525/6/4 1520/6/4 1526/6/4
f 1523/7/4 1524/7/4 1528/7/4
f 1525/3/4 1526/3/4 1530/3/4
f 1526/6/4 1527/6/4 1531/6/4
f 1530/3/4 1526/3/4 1531/3/4
f 1528/7/4 1529/7/4 1532/7/4
f 1523/7/4 1528/7/4 1532/7/4
f 1532/7/4 1529/7/4 1533/7/4
f 1531/6/4 1527/6/4 1534/6/4
f 1534/6/4 1535/6/4 1536/6/4
f 1531/6/4 1534/6/4 1536/6/4
f 1536/6/4 1535/6/4 1537/6/4
f 1531/6/4 1536/6/4 1538/6/4
f 1533/7/4 1529/7/4 1541/7/4
f 1538/6/4 1539/6/4 1543/6/4
f 1531/6/4 1538/6/4 1543/6/4
f 1543/6/4 1539/6/4 1544/6/4
f 1544/6/4 1539/6/4 1545/6/4
f 1540/7/4 1541/7/4 1546/7/4
f 1541/7/4 1529/7/4 1546/7/4
f 1546/7/4 1529/7/4 1547/7/4
f 1542/3/4 1543/3/4 1548/3/4
f 1543/6/4 1544/6/4 1549/6/4
f 1548/3/4 1543/3/4 1549/3/4
f 1549/6/4 1544/6/4 1550/6/4
f 1540/7/4 1546/7/4 1553/7/4
f 1553/7/4 1546/7/4 1554/7/4
f 1548/6/4 1549/6/4 1556/6/4
f 1555/6/4 1556/6/4 1560/6/4
f 1556/6/4 1549/6/4 1561/6/4
f 1560/6/4 1556/6/4 1561/6/4
f 1551/7/4 1552/7/4 1563/7/4
f 1563/7/4 1552/7/4 1564/7/4
f 1557/3/4 1558/3/4 1565/3/4
f 1565/3/4 1558/3/4 1566/3/4
f 1559/6/4 1560/6/4 1567/6/4
f 1567/6/4 1560/6/4 1568/6/4
f 1562/7/4 1563/7/4 1569/7/4
f 1569/7/4 1563/7/4 1570/7/4
f 1571/7/4 1572/7/4 1573/7/4
f 1573/7/4 1572/7/4 1574/7/4
f 1576/3/4 1577/3/4 1578/3/4
f 1578/3/4 1577/3/4 1579/3/4
f 1574/7/4 1575/7/4 1582/7/4
f 1580/3/4 1581/3/4 1584/3/4
f 1584/3/4 1581/3/4 1585/3/4
f 1582/7/4 1583/7/4 1586/7/4
f 1574/7/4 1582/7/4 1586/7/4
f 1586/7/4 1583/7/4 1587/7/4
f 1585/3/4 1581/3/4 1588/3/4
f 1588/3/4 1581/3/4 1589/3/4
f 1587/7/4 1583/7/4 1591/7/4
f 1589/3/4 1590/3/4 1593/3/4
f 1593/3/4 1590/3/4 1594/3/4
f 1591/7/4 1592/7/4 1597/7/4
f 1587/7/4 1591/7/4 1597/7/4
f 1597/7/4 1592/7/4 1598/7/4
f 1595/3/4 1596/3/4 1600/3/4
f 1600/3/4 1596/3/4 1601/3/4
f 1587/7/4 1597/7/4 1603/7/4
f 1602/7/4 1603/7/4 1604/7/4
f 1603/7/4 1597/7/4 1605/7/4
f 1604/7/4 1603/7/4 1605/7/4
f 1599/3/4 1600/3/4 1606/3/4
f 1606/3/4 1600/3/4 1607/3/4
f 1602/7/4 1604/7/4 1611/7/4
f 1611/7/4 1604/7/4 1612/7/4
f 1608/3/4 1609/3/4 1613/3/4
f 1613/3/4 1609/3/4 1614/3/4
f 1610/7/4 1611/7/4 1615/7/4
f 1615/7/4 1611/7/4 1616/7/4
f 1617/7/4 1618/7/4 1619/7/4
f 1617/7/4 1619/7/4 1623/7/4
f 1619/7/4 1620/7/4 1623/7/4
f 1623/7/4 1620/7/4 1624/7/4
f 1621/3/4 1622/3/4 1625/3/4
f 1625/3/4 1622/3/4 1626/3/4
f 1626/3/4 1622/3/4 1627/3/4
f 1621/3/4 1625/3/4 1631/3/4
f 1631/3/4 1625/3/4 1632/3/4
f 1627/3/4 1628/3/4 1633/3/4
f 1626/3/4 1627/3/4 1633/3/4
f 1633/3/4 1628/3/4 1634/3/4
f 1634/3/4 1628/3/4 1635/3/4
f 1635/3/4 1636/3/4 1637/3/4
f 1634/3/4 1635/3/4 1637/3/4
f 1637/3/4 1636/3/4 1638/3/4
f 1639/3/4 1640/3/4 1641/3/4
f 1641/3/4 1640/3/4 1642/3/4
f 1629/7/4 1630/7/4 1643/7/4
f 1643/7/4 1630/7/4 1644/7/4
f 1639/3/4 1641/3/4 1650/3/4
f 1645/3/4 1646/3/4 1653/3/4
f 1647/3/4 1648/3/4 1654/3/4
f 1654/3/4 1648/3/4 1655/3/4
f 1649/3/4 1650/3/4 1656/3/4
f 1645/3/4 1653/3/4 1657/3/4
f 1655/3/4 1656/3/4 1657/3/4
f 1654/3/4 1655/3/4 1657/3/4
f 1653/3/4 1654/3/4 1657/3/4
f 1656/3/4 1650/3/4 1658/3/4
f 1657/3/4 1656/3/4 1658/3/4
f 1650/3/4 1641/3/4 1658/3/4
f 1651/7/4 1652/7/4 1659/7/4
f 1659/7/4 1652/7/4 1660/7/4
f 1651/7/4 1659/7/4 1661/7/4
f 1661/7/4 1659/7/4 1662/7/4
f 1663/7/4 1664/7/4 1667/7/4
f 1665/3/4 1666/3/4 1670/3/4
f 1670/3/4 1666/3/4 1671/3/4
f 1669/3/4 1670/3/4 1673/3/4
f 1671/3/4 1672/3/4 1673/3/4
f 1670/3/4 1671/3/4 1673/3/4
f 1673/3/4 1672/3/4 1674/3/4
f 1667/7/4 1668/7/4 1677/7/4
f 1663/7/4 1667/7/4 1677/7/4
f 1677/7/4 1668/7/4 1678/7/4
f 1675/3/4 1676/3/4 1679/3/4
f 1679/3/4 1676/3/4 1680/3/4
f 1678/7/4 1668/7/4 1682/7/4
f 1682/7/4 1668/7/4 1685/7/4
f 1681/7/4 1682/7/4 1685/7/4
f 1685/7/4 1668/7/4 1686/7/4
f 1683/3/4 1684/3/4 1687/3/4
f 1687/3/4 1684/3/4 1688/3/4
f 1688/3/4 1684/3/4 1689/3/4
f 1689/3/4 1684/3/4 1690/3/4
f 1690/3/4 1684/3/4 1691/3/4
f 1691/3/4 1684/3/4 1692/3/4
f 1681/7/4 1685/7/4 1693/7/4
f 1693/7/4 1685/7/4 1694/7/4
f 1688/3/4 1689/3/4 1695/3/4
f 1695/3/4 1689/3/4 1696/3/4
f 1690/3/4 1691/3/4 1697/3/4
f 1697/3/4 1691/3/4 1698/3/4
f 1699/3/4 1700/3/4 1703/3/4
f 1703/3/4 1700/3/4 1704/3/4
f 1701/7/4 1702/7/4 1707/7/4
f 1707/7/4 1702/7/4 1708/7/4
f 1705/3/4 1706/3/4 1709/3/4
f 1709/3/4 1706/3/4 1710/3/4
f 1711/3/4 1712/3/4 1716/3/4
f 1712/3/4 1713/3/4 1716/3/4
f 1716/3/4 1713/3/4 1717/3/4
f 1717/3/4 1713/3/4 1718/3/4
f 1714/3/4 1715/3/4 1719/3/4
f 1715/3/4 1716/3/4 1719/3/4
f 1716/3/4 1717/3/4 1719/3/4
f 1719/3/4 1717/3/4 1720/3/4
f 1721/3/4 1722/3/4 1725/3/4
f 1725/3/4 1722/3/4 1726/3/4
f 1726/3/4 1722/3/4 1727/3/4
f 1723/3/4 1724/3/4 1728/3/4
f 1728/3/4 1724/3/4 1729/3/4
f 1729/3/4 1724/3/4 1730/3/4
f 1726/3/4 1727/3/4 1731/3/4
f 1728/3/4 1729/3/4 1731/3/4
f 1727/3/4 1728/3/4 1731/3/4
f 1731/3/4 1729/3/4 1732/3/4
f 1733/3/4 1734/3/4 1735/3/4
f 1735/3/4 1734/3/4 1736/3/4
f 1740/7/5 1738/7/5 1737/7/5
f 1741/7/5 1738/7/5 1740/7/5
f 1744/7/5 1740/7/5 1739/7/5
f 1744/7/5 1742/7/5 1741/7/5
f 1744/7/5 1741/7/5 1740/7/5
f 1745/7/5 1742/7/5 1744/7/5
f 1747/7/5 1744/7/5 1743/7/5
f 1747/7/5 1746/7/5 1745/7/5
f 1747/7/5 1745/7/5 1744/7/5
f 1748/7/5 1746/7/5 1747/7/5
f 1749/7/5 1746/7/5 1748/7/5
f 1750/7/5 1746/7/5 1749/7/5
f 1751/7/5 1749/7/5 1748/7/5
f 1752/7/5 1749/7/5 1751/7/5
f 1753/7/5 1749/7/5 1752/7/5
f 1754/7/5 1749/7/5 1753/7/5
f 1755/7/5 1753/7/5 1752/7/5
f 1756/7/5 1753/7/5 1755/7/5
f 1761/6/5 1758/6/5 1757/6/5
f 1762/6/5 1758/6/5 1761/6/5
f 1763/6/5 1760/6/5 1759/6/5
f 1764/6/5 1760/6/5 1763/6/5
f 1769/6/5 1766/6/5 1765/6/5
f 1770/6/5 1766/6/5 1769/6/5
f 1771/6/5 1768/6/5 1767/6/5
f 1772/6/5 1768/6/5 1771/6/5
f 1777/1/5 1774/1/5 1773/1/5
f 1778/1/5 1774/1/5 1777/1/5
f 1779/1/5 1776/1/5 1775/1/5
f 1780/1/5 1776/1/5 1779/1/5
f 1785/7/5 1782/7/5 1781/7/5
f 1786/7/5 1782/7/5 1785/7/5
f 1787/7/5 1784/7/5 1783/7/5
f 1788/7/5 1784/7/5 1787/7/5
f 1793/7/5 1790/7/5 1789/7/5
f 1794/7/5 1790/7/5 1793/7/5
f 1795/7/5 1790/7/5 1794/7/5
f 1796/7/5 1792/7/5 1791/7/5
f 1797/7/5 1792/7/5 1796/7/5
f 1798/7/5 1792/7/5 1797/7/5
f 1799/7/5 1795/7/5 1794/7/5
f 1800/7/5 1795/7/5 1799/7/5
f 1801/7/5 1797/7/5 1796/7/5
f 1802/7/5 1797/7/5 1801/7/5
f 1807/7/5 1804/7/5 1803/7/5
f 1808/7/5 1804/7/5 1807/7/5
f 1809/7/5 1806/7/5 1805/7/5
f 1810/7/5 1806/7/5 1809/7/5
f 1815/7/5 1812/7/5 1811/7/5
f 1816/7/5 1812/7/5 1815/7/5
f 1817/7/5 1812/7/5 1816/7/5
f 1818/7/5 1812/7/5 1817/7/5
f 1823/7/5 1814/7/5 1813/7/5
f 1824/7/5 1820/7/5 1819/7/5
f 1827/7/5 1822/7/5 1821/7/5
f 1827/7/5 1823/7/5 1822/7/5
f 1828/7/5 1823/7/5 1827/7/5
f 1829/7/5 1826/7/5 1825/7/5
f 1829/7/5 1825/7/5 1824/7/5
f 1830/7/5 1826/7/5 1829/7/5
f 1831/7/5 1823/7/5 1828/7/5
f 1832/7/5 1814/7/5 1823/7/5
f 1832/7/5 1823/7/5 1831/7/5
f 1833/6/5 1816/6/5 1815/6/5
f 1834/6/5 1816/6/5 1833/6/5
f 1835/6/5 1818/6/5 1817/6/5
f 1836/6/5 1818/6/5 1835/6/5
f 1837/7/5 1829/7/5 1824/7/5
f 1837/7/5 1824/7/5 1819/7/5
f 1838/7/5 1829/7/5 1837/7/5
f 1843/6/5 1840/6/5 1839/6/5
f 1844/6/5 1840/6/5 1843/6/5
f 1845/6/5 1842/6/5 1841/6/5
f 1846/6/5 1842/6/5 1845/6/5
f 1847/7/5 1844/7/5 1843/7/5
f 1848/7/5 1844/7/5 1847/7/5
f 1849/7/5 1846/7/5 1845/7/5
f 1850/7/5 1846/7/5 1849/7/5
f 1851/6/5 1848/6/5 1847/6/5
f 1852/6/5 1848/6/5 1851/6/5
f 1853/6/5 1850/6/5 1849/6/5
f 1854/6/5 1850/6/5 1853/6/5
f 1857/3/5 1856/3/5 1855/3/5
f 1858/3/5 1856/3/5 1857/3/5
f 1863/3/5 1860/3/5 1859/3/5
f 1864/3/5 1860/3/5 1863/3/5
f 1865/3/5 1862/3/5 1861/3/5
f 1866/3/5 1862/3/5 1865/3/5
f 1870/3/5 1868/3/5 1867/3/5
f 1871/3/5 1868/3/5 1870/3/5
f 1872/3/5 1868/3/5 1871/3/5
f 1873/3/5 1870/3/5 1869/3/5
f 1873/3/5 1871/3/5 1870/3/5
f 1874/3/5 1871/3/5 1873/3/5
f 1875/3/5 1871/3/5 1874/3/5
f 1876/3/5 1875/3/5 1874/3/5
f 1877/3/5 1875/3/5 1876/3/5
f 1882/3/5 1879/3/5 1878/3/5
f 1883/3/5 1879/3/5 1882/3/5
f 1884/3/5 1881/3/5 1880/3/5
f 1885/3/5 1881/3/5 1884/3/5
f 1886/3/5 1882/3/5 1878/3/5
f 1887/3/5 1882/3/5 1886/3/5
f 1888/3/5 1881/3/5 1885/3/5
f 1889/3/5 1881/3/5 1888/3/5
f 1894/3/5 1893/3/5 1892/3/5
f 1895/3/5 1893/3/5 1894/3/5
f 1896/3/5 1891/3/5 1890/3/5
f 1897/3/5 1891/3/5 1896/3/5
f 1900/3/5 1899/3/5 1898/3/5
f 1901/3/5 1899/3/5 1900/3/5
f 1908/1/5 1903/1/5 1902/1/5
f 1909/1/5 1903/1/5 1908/1/5
f 1910/1/5 1908/1/5 1902/1/5
f 1911/1/5 1903/1/5 1909/1/5
f 1912/3/5 1907/3/5 1906/3/5
f 1913/3/5 1907/3/5 1912/3/5
f 1914/3/5 1905/3/5 1904/3/5
f 1915/3/5 1905/3/5 1914/3/5
f 1916/1/5 1911/1/5 1910/1/5
f 1916/1/5 1910/1/5 1902/1/5
f 1917/1/5 1903/1/5 1911/1/5
f 1917/1/5 1911/1/5 1916/1/5
f 1918/3/5 1912/3/5 1906/3/5
f 1920/3/5 1918/3/5 1917/3/5
f 1920/3/5 1916/3/5 1915/3/5
f 1920/3/5 1917/3/5 1916/3/5
f 1921/3/5 1920/3/5 1919/3/5
f 1922/3/5 1918/3/5 1920/3/5
f 1922/3/5 1920/3/5 1921/3/5
f 1923/3/5 1918/3/5 1922/3/5
f 1924/3/5 1912/3/5 1918/3/5
f 1924/3/5 1918/3/5 1923/3/5
f 1925/3/5 1923/3/5 1922/3/5
f 1926/3/5 1923/3/5 1925/3/5
f 1927/3/5 1923/3/5 1926/3/5
f 1928/3/5 1923/3/5 1927/3/5
f 1936/1/5 1930/1/5 1929/1/5
f 1936/1/5 1931/1/5 1930/1/5
f 1937/1/5 1931/1/5 1936/1/5
f 1938/1/5 1931/1/5 1937/1/5
f 1939/1/5 1934/1/5 1933/1/5
f 1939/1/5 1933/1/5 1932/1/5
f 1940/1/5 1934/1/5 1939/1/5
f 1941/1/5 1934/1/5 1940/1/5
f 1942/3/5 1936/3/5 1935/3/5
f 1943/3/5 1936/3/5 1942/3/5
f 1945/3/5 1938/3/5 1937/3/5
f 1946/3/5 1938/3/5 1945/3/5
f 1947/3/5 1940/3/5 1939/3/5
f 1948/3/5 1940/3/5 1947/3/5
f 1949/3/5 1945/3/5 1944/3/5
f 1950/3/5 1945/3/5 1949/3/5
f 1955/3/5 1952/3/5 1951/3/5
f 1956/3/5 1952/3/5 1955/3/5
f 1957/3/5 1954/3/5 1953/3/5
f 1958/3/5 1954/3/5 1957/3/5
f 1961/3/5 1960/3/5 1959/3/5
f 1962/3/5 1960/3/5 1961/3/5
f 1967/3/5 1966/3/5 1965/3/5
f 1968/3/5 1966/3/5 1967/3/5
f 1971/3/5 1964/3/5 1963/3/5
f 1972/3/5 1964/3/5 1971/3/5
f 1973/3/5 1970/3/5 1969/3/5
f 1974/3/5 1970/3/5 1973/3/5
f 1977/3/5 1976/3/5 1975/3/5
f 1978/3/5 1976/3/5 1977/3/5
f 1981/3/5 1980/3/5 1979/3/5
f 1982/3/5 1980/3/5 1981/3/5
f 1985/3/5 1984/3/5 1983/3/5
f 1986/3/5 1984/3/5 1985/3/5
f 1989/3/5 1988/3/5 1987/3/5
f 1990/3/5 1988/3/5 1989/3/5
f 1991/3/5 1988/3/5 1990/3/5
f 1994/3/5 1993/3/5 1992/3/5
f 1995/3/5 1993/3/5 1994/3/5
f 1998/3/5 1997/3/5 1996/3/5
f 1999/3/5 1997/3/5 1998/3/5
f 2004/6/5 2001/6/5 2000/6/5
f 2005/6/5 2001/6/5 2004/6/5
f 2006/6/5 2003/6/5 2002/6/5
f 2007/6/5 2003/6/5 2006/6/5
f 2012/3/5 2009/3/5 2008/3/5
f 2013/3/5 2009/3/5 2012/3/5
f 2014/3/5 2011/3/5 2010/3/5
f 2015/3/5 2011/3/5 2014/3/5
f 2018/3/5 2017/3/5 2016/3/5
f 2019/3/5 2017/3/5 2018/3/5
f 2022/6/5 2021/6/5 2020/6/5
f 2023/6/5 2021/6/5 2022/6/5
f 2026/3/5 2025/3/5 2024/3/5
f 2027/3/5 2025/3/5 2026/3/5
f 2028/7/6 2029/7/6 2034/7/6
f 2034/7/6 2029/7/6 2035/7/6
f 2030/7/6 2031/7/6 2036/7/6
f 2036/7/6 2031/7/6 2037/7/6
f 2032/7/6 2033/7/6 2040/7/6
f 2040/7/6 2033/7/6 2041/7/6
f 2038/7/6 2039/7/6 2042/7/6
f 2042/7/6 2039/7/6 2043/7/6
f 2044/7/6 2045/7/6 2048/7/6
f 2048/7/6 2045/7/6 2049/7/6
f 2046/7/6 2047/7/6 2050/7/6
f 2050/7/6 2047/7/6 2051/7/6
f 2052/7/6 2053/7/6 2054/7/6
f 2054/7/6 2053/7/6 2055/7/6
f 2056/7/6 2057/7/6 2058/7/6
f 2058/7/6 2057/7/6 2059/7/6
f 2060/7/6 2061/7/6 2065/7/6
f 2065/7/6 2061/7/6 2066/7/6
f 2062/7/6 2063/7/6 2067/7/6
f 2067/7/6 2063/7/6 2068/7/6
f 2064/7/6 2065/7/6 2070/7/6
f 2070/7/6 2065/7/6 2071/7/6
f 2068/7/6 2069/7/6 2072/7/6
f 2072/7/6 2069/7/6 2073/7/6
f 2074/7/6 2075/7/6 2078/7/6
f 2078/7/6 2075/7/6 2079/7/6
f 2076/7/6 2077/7/6 2082/7/6
f 2082/7/6 2077/7/6 2083/7/6
f 2079/7/6 2080/7/6 2084/7/6
f 2084/7/6 2080/7/6 2085/7/6
f 2081/7/6 2082/7/6 2086/7/6
f 2086/7/6 2082/7/6 2087/7/6
f 2085/7/6 2080/7/6 2088/7/6
f 2088/7/6 2080/7/6 2089/7/6
f 2081/7/6 2086/7/6 2090/7/6
f 2090/7/6 2086/7/6 2091/7/6
f 2092/7/6 2093/7/6 2096/7/6
f 2096/7/6 2093/7/6 2097/7/6
f 2094/7/6 2095/7/6 2098/7/6
f 2098/7/6 2095/7/6 2099/7/6
f 2100/7/6 2101/7/6 2104/7/6
f 2104/7/6 2101/7/6 2105/7/6
f 2102/7/6 2103/7/6 2106/7/6
f 2106/7/6 2103/7/6 2107/7/6
f 2108/7/6 2109/7/6 2112/7/6
f 2112/7/6 2109/7/6 2113/7/6
f 2110/7/6 2111/7/6 2116/7/6
f 2116/7/6 2111/7/6 2117/7/6
f 2113/7/6 2114/7/6 2118/7/6
f 2118/7/6 2114/7/6 2119/7/6
f 2115/7/6 2116/7/6 2120/7/6
f 2120/7/6 2116/7/6 2121/7/6
f 2122/7/6 2123/7/6 2124/7/6
f 2124/7/6 2123/7/6 2125/7/6
f 2126/6/6 2127/6/6 2130/6/6
f 2130/6/6 2127/6/6 2131/6/6
f 2128/6/6 2129/6/6 2132/6/6
f 2132/6/6 2129/6/6 2133/6/6
f 2134/7/6 2135/7/6 2138/7/6
f 2138/7/6 2135/7/6 2139/7/6
f 2136/7/6 2137/7/6 2142/7/6
f 2142/7/6 2137/7/6 2143/7/6
f 2139/7/6 2140/7/6 2144/7/6
f 2144/7/6 2140/7/6 2145/7/6
f 2141/7/6 2142/7/6 2146/7/6
f 2146/7/6 2142/7/6 2147/7/6
f 2148/6/6 2149/6/6 2152/6/6
f 2152/6/6 2149/6/6 2153/6/6
f 2150/6/6 2151/6/6 2154/6/6
f 2154/6/6 2151/6/6 2155/6/6
f 2156/7/6 2157/7/6 2158/7/6
f 2158/7/6 2157/7/6 2159/7/6
f 2160/6/6 2161/6/6 2164/6/6
f 2164/6/6 2161/6/6 2165/6/6
f 2162/6/6 2163/6/6 2166/6/6
f 2166/6/6 2163/6/6 2167/6/6
f 2168/6/6 2169/6/6 2172/6/6
f 2172/6/6 2169/6/6 2173/6/6
f 2170/6/6 2171/6/6 2176/6/6
f 2176/6/6 2171/6/6 2177/6/6
f 2173/7/6 2174/7/6 2178/7/6
f 2172/7/6 2173/7/6 2178/7/6
f 2178/7/6 2174/7/6 2179/7/6
f 2176/7/6 2177/7/6 2180/7/6
f 2175/7/6 2176/7/6 2180/7/6
f 2180/7/6 2177/7/6 2181/7/6
f 2182/7/6 2183/7/6 2186/7/6
f 2186/7/6 2183/7/6 2187/7/6
f 2184/7/6 2185/7/6 2188/7/6
f 2188/7/6 2185/7/6 2189/7/6
f 2190/6/6 2191/6/6 2196/6/6
f 2196/6/6 2191/6/6 2197/6/6
f 2192/6/6 2193/6/6 2198/6/6
f 2198/6/6 2193/6/6 2199/6/6
f 2194/6/6 2195/6/6 2203/6/6
f 2203/6/6 2195/6/6 2204/6/6
f 2200/6/6 2201/6/6 2205/6/6
f 2205/6/6 2201/6/6 2206/6/6
f 2202/6/6 2203/6/6 2208/6/6
f 2208/6/6 2203/6/6 2209/6/6
f 2206/6/6 2207/6/6 2210/6/6
f 2210/6/6 2207/6/6 2211/6/6
f 2212/7/6 2213/7/6 2216/7/6
f 2216/7/6 2213/7/6 2217/7/6
f 2214/7/6 2215/7/6 2220/7/6
f 2220/7/6 2215/7/6 2221/7/6
f 2218/7/6 2219/7/6 2222/7/6
f 2222/7/6 2219/7/6 2223/7/6
f 2224/6/6 2225/6/6 2226/6/6
f 2226/6/6 2225/6/6 2227/6/6
f 2228/1/6 2229/1/6 2232/1/6
f 2232/1/6 2229/1/6 2233/1/6
f 2230/1/6 2231/1/6 2236/1/6
f 2236/1/6 2231/1/6 2237/1/6
f 2233/6/6 2234/6/6 2239/6/6
f 2232/6/6 2233/6/6 2239/6/6
f 2239/6/6 2234/6/6 2240/6/6
f 2236/6/6 2237/6/6 2241/6/6
f 2235/6/6 2236/6/6 2241/6/6
f 2241/6/6 2237/6/6 2242/6/6
f 2238/6/6 2239/6/6 2244/6/6
f 2244/6/6 2239/6/6 2245/6/6
f 2242/6/6 2243/6/6 2246/6/6
f 2246/6/6 2243/6/6 2247/6/6
f 2248/7/6 2249/7/6 2250/7/6
f 2250/7/6 2249/7/6 2251/7/6
f 2252/7/6 2253/7/6 2258/7/6
f 2258/7/6 2253/7/6 2259/7/6
f 2254/6/6 2255/6/6 2260/6/6
f 2260/6/6 2255/6/6 2261/6/6
f 2256/7/6 2257/7/6 2262/7/6
f 2262/7/6 2257/7/6 2263/7/6
f 2264/6/6 2265/6/6 2268/6/6
f 2268/6/6 2265/6/6 2269/6/6
f 2266/6/6 2267/6/6 2270/6/6
f 2270/6/6 2267/6/6 2271/6/6
f 2272/7/6 2273/7/6 2276/7/6
f 2276/7/6 2273/7/6 2277/7/6
f 2274/7/6 2275/7/6 2282/7/6
f 2282/7/6 2275/7/6 2283/7/6
f 2277/7/6 2273/7/6 2284/7/6
f 2284/7/6 2273/7/6 2285/7/6
f 2274/7/6 2282/7/6 2286/7/6
f 2286/7/6 2282/7/6 2287/7/6
f 2278/6/6 2279/6/6 2288/6/6
f 2288/6/6 2279/6/6 2289/6/6
f 2280/6/6 2281/6/6 2290/6/6
f 2290/6/6 2281/6/6 2291/6/6
f 2292/7/6 2293/7/6 2297/7/6
f 2297/7/6 2293/7/6 2298/7/6
f 2294/7/6 2295/7/6 2299/7/6
f 2299/7/6 2295/7/6 2300/7/6
f 2296/7/6 2297/7/6 2302/7/6
f 2302/7/6 2297/7/6 2303/7/6
f 2300/7/6 2301/7/6 2306/7/6
f 2306/7/6 2301/7/6 2307/7/6
f 2303/7/6 2304/7/6 2308/7/6
f 2308/7/6 2304/7/6 2309/7/6
f 2305/7/6 2306/7/6 2310/7/6
f 2310/7/6 2306/7/6 2311/7/6
f 2312/7/6 2313/7/6 2314/7/6
f 2314/7/6 2313/7/6 2315/7/6
f 2316/7/6 2317/7/6 2320/7/6
f 2320/7/6 2317/7/6 2321/7/6
f 2318/7/6 2319/7/6 2326/7/6
f 2326/7/6 2319/7/6 2327/7/6
f 2322/7/6 2323/7/6 2328/7/6
f 2328/7/6 2323/7/6 2329/7/6
f 2324/7/6 2325/7/6 2330/7/6
f 2330/7/6 2325/7/6 2331/7/6
f 2332/6/6 2333/6/6 2339/6/6
f 2333/7/6 2334/7/6 2340/7/6
f 2339/6/6 2333/6/6 2340/6/6
f 2336/6/6 2337/6/6 2341/6/6
f 2335/7/6 2336/7/6 2341/7/6
f 2341/6/6 2337/6/6 2342/6/6
f 2338/7/6 2339/7/6 2344/7/6
f 2344/7/6 2339/7/6 2345/7/6
f 2340/7/6 2334/7/6 2346/7/6
f 2346/7/6 2334/7/6 2347/7/6
f 2335/7/6 2341/7/6 2350/7/6
f 2350/7/6 2341/7/6 2351/7/6
f 2342/7/6 2343/7/6 2352/7/6
f 2352/7/6 2343/7/6 2353/7/6
f 2345/6/6 2346/6/6 2354/6/6
f 2354/6/6 2346/6/6 2355/6/6
f 2348/7/6 2349/7/6 2356/7/6
f 2356/7/6 2349/7/6 2357/7/6
f 2351/6/6 2352/6/6 2358/6/6
f 2358/6/6 2352/6/6 2359/6/6
f 2360/3/6 2361/3/6 2364/3/6
f 2364/3/6 2361/3/6 2365/3/6
f 2365/3/6 2361/3/6 2366/3/6
f 2362/3/6 2363/3/6 2367/3/6
f 2367/3/6 2363/3/6 2368/3/6
f 2364/3/6 2365/3/6 2369/3/6
f 2369/3/6 2365/3/6 2370/3/6
f 2368/3/6 2363/3/6 2371/3/6
f 2371/3/6 2363/3/6 2372/3/6
f 2377/6/6 2378/6/6 2381/6/6
f 2381/6/6 2378/6/6 2382/6/6
f 2373/7/6 2374/7/6 2383/7/6
f 2383/7/6 2374/7/6 2384/7/6
f 2375/7/6 2376/7/6 2385/7/6
f 2385/7/6 2376/7/6 2386/7/6
f 2379/6/6 2380/6/6 2387/6/6
f 2387/6/6 2380/6/6 2388/6/6
f 2389/3/6 2390/3/6 2391/3/6
f 2391/3/6 2390/3/6 2392/3/6
f 2393/3/6 2394/3/6 2395/3/6
f 2395/3/6 2394/3/6 2396/3/6
f 2397/3/6 2398/3/6 2401/3/6
f 2401/3/6 2398/3/6 2402/3/6
f 2399/3/6 2400/3/6 2403/3/6
f 2403/3/6 2400/3/6 2404/3/6
f 2405/3/6 2406/3/6 2407/3/6
f 2407/3/6 2406/3/6 2408/3/6
f 2409/3/6 2410/3/6 2413/3/6
f 2413/3/6 2410/3/6 2414/3/6
f 2411/3/6 2412/3/6 2415/3/6
f 2415/3/6 2412/3/6 2416/3/6
f 2417/3/6 2418/3/6 2419/3/6
f 2419/3/6 2418/3/6 2420/3/6
f 2421/3/6 2422/3/6 2425/3/6
f 2425/3/6 2422/3/6 2426/3/6
f 2423/3/6 2424/3/6 2427/3/6
f 2427/3/6 2424/3/6 2428/3/6
f 2429/3/6 2430/3/6 2431/3/6
f 2431/3/6 2430/3/6 2432/3/6
f 2433/3/6 2434/3/6 2437/3/6
f 2437/3/6 2434/3/6 2438/3/6
f 2435/3/6 2436/3/6 2439/3/6
f 2439/3/6 2436/3/6 2440/3/6
f 2441/3/6 2442/3/6 2445/3/6
f 2445/3/6 2442/3/6 2446/3/6
f 2443/3/6 2444/3/6 2447/3/6
f 2447/3/6 2444/3/6 2448/3/6
f 2449/3/6 2450/3/6 2453/3/6
f 2451/3/6 2452/3/6 2456/3/6
f 2456/3/6 2452/3/6 2457/3/6
f 2449/3/6 2453/3/6 2458/3/6
f 2453/6/6 2454/6/6 2459/6/6
f 2458/3/6 2453/3/6 2459/3/6
f 2459/6/6 2454/6/6 2460/6/6
f 2455/6/6 2456/6/6 2461/6/6
f 2461/6/6 2456/6/6 2462/6/6
f 2463/3/6 2464/3/6 2465/3/6
f 2465/3/6 2464/3/6 2466/3/6
f 2467/3/6 2468/3/6 2469/3/6
f 2469/3/6 2468/3/6 2470/3/6
f 2471/3/6 2472/3/6 2473/3/6
f 2473/3/6 2472/3/6 2474/3/6
f 2475/3/6 2476/3/6 2479/3/6
f 2479/3/6 2476/3/6 2480/3/6
f 2481/3/6 2482/3/6 2483/3/6
f 2483/3/6 2482/3/6 2484/3/6
f 2477/3/6 2478/3/6 2485/3/6
f 2485/3/6 2478/3/6 2486/3/6
f 2486/6/6 2487/6/6 2489/6/6
f 2489/6/6 2487/6/6 2490/6/6
f 2488/3/6 2489/3/6 2494/3/6
f 2491/3/6 2492/3/6 2495/3/6
f 2495/3/6 2492/3/6 2496/3/6
f 2493/3/6 2494/3/6 2497/3/6
f 2494/3/6 2489/3/6 2498/3/6
f 2497/3/6 2494/3/6 2498/3/6
f 2499/3/6 2500/3/6 2502/3/6
f 2502/3/6 2500/3/6 2503/3/6
f 2501/3/6 2502/3/6 2504/3/6
f 2504/3/6 2502/3/6 2505/3/6
f 2503/3/6 2500/3/6 2506/3/6
f 2506/3/6 2500/3/6 2507/3/6
f 2501/3/6 2504/3/6 2508/3/6
f 2508/3/6 2504/3/6 2509/3/6
f 2501/3/6 2508/3/6 2511/3/6
f 2511/3/6 2508/3/6 2512/3/6
f 2507/3/6 2500/3/6 2513/3/6
f 2513/3/6 2500/3/6 2514/3/6
f 2510/6/6 2511/6/6 2515/6/6
f 2515/6/6 2511/6/6 2516/6/6
f 2516/3/6 2517/3/6 2522/3/6
f 2517/3/6 2518/3/6 2522/3/6
f 2522/3/6 2518/3/6 2523/3/6
f 2520/3/6 2521/3/6 2526/3/6
f 2519/3/6 2520/3/6 2526/3/6
f 2526/3/6 2521/3/6 2527/3/6
f 2523/3/6 2524/3/6 2528/3/6
f 2528/3/6 2524/3/6 2529/3/6
f 2525/3/6 2526/3/6 2530/3/6
f 2530/3/6 2526/3/6 2531/3/6
f 2532/3/6 2533/3/6 2534/3/6
f 2534/3/6 2533/3/6 2535/3/6
f 2536/3/6 2537/3/6 2539/3/6
f 2539/3/6 2537/3/6 2540/3/6
f 2538/3/6 2539/3/6 2543/3/6
f 2540/3/6 2541/3/6 2543/3/6
f 2539/3/6 2540/3/6 2543/3/6
f 2543/3/6 2541/3/6 2544/3/6
f 2542/3/6 2543/3/6 2544/3/6
f 2544/3/6 2541/3/6 2545/3/6
f 2542/3/6 2544/3/6 2547/3/6
f 2547/3/6 2544/3/6 2548/3/6
f 2545/3/6 2541/3/6 2549/3/6
f 2549/3/6 2541/3/6 2550/3/6
f 2546/6/6 2547/6/6 2552/6/6
f 2552/6/6 2547/6/6 2553/6/6
f 2550/6/6 2551/6/6 2556/6/6
f 2556/6/6 2551/6/6 2557/6/6
f 2554/3/6 2555/3/6 2558/3/6
f 2558/3/6 2555/3/6 2559/3/6
f 2559/3/6 2555/3/6 2560/3/6
f 2560/3/6 2555/3/6 2561/3/6
f 2562/3/6 2563/3/6 2566/3/6
f 2564/3/6 2565/3/6 2567/3/6
f 2567/3/6 2565/3/6 2568/3/6
f 2562/3/6 2566/3/6 2569/3/6
f 2569/3/6 2566/3/6 2570/3/6
f 2571/3/6 2572/3/6 2574/3/6
f 2574/3/6 2572/3/6 2575/3/6
f 2575/3/6 2572/3/6 2576/3/6
f 2573/6/6 2574/6/6 2579/6/6
f 2579/6/6 2574/6/6 2580/6/6
f 2575/6/6 2576/6/6 2581/6/6
f 2581/6/6 2576/6/6 2582/6/6
f 2577/6/6 2578/6/6 2583/6/6
f 2583/6/6 2578/6/6 2584/6/6
f 2585/3/6 2586/3/6 2587/3/6
f 2587/3/6 2586/3/6 2588/3/6
f 2588/3/6 2586/3/6 2589/3/6
f 2589/3/6 2586/3/6 2590/3/6
f 2588/3/6 2589/3/6 2591/3/6
f 2591/3/6 2589/3/6 2592/3/6
f 2593/6/6 2594/6/6 2597/6/6
f 2597/6/6 2594/6/6 2598/6/6
f 2595/6/6 2596/6/6 2599/6/6
f 2599/6/6 2596/6/6 2600/6/6
