# MagicaVoxel @ Ephtracy

# group
o 

# material
mtllib untitled.mtl
usemtl palette

# normals
vn -1 0 0
vn 1 0 0
vn 0 0 1
vn 0 0 -1
vn 0 -1 0
vn 0 1 0

# texcoords
vt 0.0332031 0.5
vt 0.369141 0.5
vt 0.958984 0.5
vt 0.990234 0.5
vt 0.994141 0.5

# verts
v -0.7 2.1 0.7
v -0.7 2.1 0.5
v -0.7 2.2 0.5
v -0.7 2.2 0.3
v -0.7 2.3 0.7
v -0.7 2.3 0.5
v -0.7 2.7 0.5
v -0.7 2.7 0.4
v -0.7 2.8 0.4
v -0.7 2.8 0.3
v -0.6 2.7 0.5
v -0.6 2.7 0.4
v -0.6 2.8 0.4
v -0.6 2.8 0.3
v -0.6 2.9 0.5
v -0.6 2.9 0.3
v -0.4 0 0.6
v -0.4 0 0.2
v -0.4 0.2 0.6
v -0.4 0.2 0.4
v -0.4 0.2 0.2
v -0.4 0.2 0.1
v -0.4 1 0.5
v -0.4 1 0.4
v -0.4 1 0.2
v -0.4 1 0.1
v -0.4 1.7 0.8
v -0.4 1.7 0.7
v -0.4 1.7 0.2
v -0.4 1.7 0.1
v -0.4 2.1 0.7
v -0.4 2.1 0.5
v -0.4 2.3 0.8
v -0.4 2.3 0.7
v -0.4 2.3 0.5
v -0.4 2.4 0.7
v -0.4 2.4 0.5
v -0.4 2.6 0.5
v -0.4 2.6 0.3
v -0.4 2.9 0.3
v -0.4 2.9 0.1
v -0.4 3.2 0.3
v -0.4 3.2 0.2
v -0.4 3.3 0.3
v -0.4 3.3 0.2
v -0.4 3.3 0.1
v -0.4 3.4 0.4
v -0.4 3.4 0.2
v -0.4 3.4 0.1
v -0.4 3.5 0.4
v -0.4 3.5 0.2
v -0.3 1.9 0.1
v -0.3 1.9 0
v -0.3 2.8 0.5
v -0.3 2.8 0.4
v -0.3 2.9 0.5
v -0.3 2.9 0.4
v -0.3 2.9 0.1
v -0.3 2.9 0
v -0.3 3.1 0.5
v -0.3 3.1 0.3
v -0.3 3.1 0.1
v -0.3 3.2 0.4
v -0.3 3.2 0.3
v -0.3 3.2 0.2
v -0.3 3.3 0.3
v -0.3 3.3 0.2
v -0.3 3.3 0.1
v -0.3 3.3 0
v -0.3 3.4 0.5
v -0.3 3.4 0.4
v -0.3 3.4 0.2
v -0.3 3.4 0.1
v -0.3 3.5 0.5
v -0.3 3.5 0.4
v -0.3 3.5 0.2
v -0.3 3.6 0.4
v -0.3 3.6 0.2
v -0.3 3.6 0.1
v -0.3 3.6 0
v -0.3 3.7 0.2
v -0.3 3.7 0.1
v -0.2 2.9 0.4
v -0.2 2.9 0.3
v -0.2 2.9 0.2
v -0.2 3 0.4
v -0.2 3 0.3
v -0.2 3 0.2
v -0.2 3.2 0.1
v -0.2 3.2 -0.1
v -0.2 3.3 0.1
v -0.2 3.3 0
v -0.2 3.5 0.5
v -0.2 3.5 0.4
v -0.2 3.6 0.5
v -0.2 3.6 0.4
v -0.2 3.6 0.2
v -0.2 3.6 0.1
v -0.2 3.6 0
v -0.2 3.6 -0.1
v -0.2 3.7 0.4
v -0.2 3.7 0.2
v -0.2 3.7 0.1
v -0.2 3.7 0
v -0.1 2.9 0.2
v -0.1 2.9 0.1
v -0.1 3 0.4
v -0.1 3 0.3
v -0.1 3 0.2
v -0.1 3 0.1
v -0.1 3.1 0.4
v -0.1 3.1 0.2
v -0.1 3.1 0.1
v -0.1 3.1 0
v -0.1 3.2 0.1
v -0.1 3.2 0
v -0.1 3.5 0.6
v -0.1 3.5 0.5
v -0.1 3.6 0.6
v -0.1 3.6 0.5
v -0.1 3.6 0.4
v -0.1 3.6 0
v -0.1 3.6 -0.1
v -0.1 3.7 0.5
v -0.1 3.7 0.4
v -0.1 3.7 0
v -0.1 3.7 -0.1
v 0.1 0 0.6
v 0.1 0 0.2
v 0.1 0.2 0.6
v 0.1 0.2 0.4
v 0.1 0.2 0.2
v 0.1 0.2 0.1
v 0.1 1 0.5
v 0.1 1 0.4
v 0.1 1 0.2
v 0.1 1 0.1
v 0.1 1.7 0.5
v 0.1 1.7 0.2
v 0.5 1.5 0.3
v 0.5 1.5 0.2
v 0.5 1.7 0.3
v 0.5 1.7 0.2
v 0.5 1.7 0.1
v 0.5 2.6 0.3
v 0.5 2.6 0.1
v -0.5 2.2 0.5
v -0.5 2.2 0.3
v -0.5 2.3 0.5
v -0.5 2.6 0.5
v -0.5 2.6 0.3
v -0.4 2.8 0.5
v -0.4 2.8 0.4
v -0.4 2.9 0.5
v -0.4 2.9 0.4
v -0.3 1.7 0.8
v -0.3 1.7 0.7
v -0.3 1.9 0.8
v -0.3 1.9 0.7
v -0.2 1.9 0.8
v -0.2 1.9 0.7
v -0.2 2.1 0.7
v -0.2 2.1 0.5
v -0.2 2.2 0.6
v -0.2 2.2 0.5
v -0.2 2.3 0.8
v -0.2 2.3 0.7
v -0.2 2.3 0.6
v -0.2 2.3 0.5
v -0.2 2.4 0.7
v -0.2 2.4 0.5
v -0.1 0 0.6
v -0.1 0 0.2
v -0.1 0.2 0.6
v -0.1 0.2 0.4
v -0.1 0.2 0.2
v -0.1 0.2 0.1
v -0.1 1 0.5
v -0.1 1 0.4
v -0.1 1 0.2
v -0.1 1 0.1
v -0.1 1.7 0.5
v -0.1 1.7 0.2
v 0 2.2 0.6
v 0 2.2 0.5
v 0 2.3 0.6
v 0 2.3 0.5
v 0.1 2.9 0.2
v 0.1 2.9 0.1
v 0.1 3 0.4
v 0.1 3 0.3
v 0.1 3 0.2
v 0.1 3 0.1
v 0.1 3.1 0.4
v 0.1 3.1 0.2
v 0.1 3.1 0.1
v 0.1 3.1 0
v 0.1 3.2 0.1
v 0.1 3.2 0
v 0.1 3.5 0.6
v 0.1 3.5 0.5
v 0.1 3.6 0.6
v 0.1 3.6 0.5
v 0.1 3.6 0.4
v 0.1 3.6 0
v 0.1 3.6 -0.1
v 0.1 3.7 0.5
v 0.1 3.7 0.4
v 0.1 3.7 0
v 0.1 3.7 -0.1
v 0.2 2.9 0.4
v 0.2 2.9 0.3
v 0.2 2.9 0.2
v 0.2 3 0.4
v 0.2 3 0.3
v 0.2 3 0.2
v 0.2 3.2 0.1
v 0.2 3.2 -0.1
v 0.2 3.3 0.1
v 0.2 3.3 0
v 0.2 3.5 0.5
v 0.2 3.5 0.4
v 0.2 3.6 0.5
v 0.2 3.6 0.4
v 0.2 3.6 0.2
v 0.2 3.6 0.1
v 0.2 3.6 0
v 0.2 3.6 -0.1
v 0.2 3.7 0.4
v 0.2 3.7 0.2
v 0.2 3.7 0.1
v 0.2 3.7 0
v 0.3 1.9 0.1
v 0.3 1.9 0
v 0.3 2.8 0.5
v 0.3 2.8 0.4
v 0.3 2.9 0.5
v 0.3 2.9 0.4
v 0.3 2.9 0.1
v 0.3 2.9 0
v 0.3 3.1 0.5
v 0.3 3.1 0.3
v 0.3 3.1 0.1
v 0.3 3.2 0.4
v 0.3 3.2 0.3
v 0.3 3.2 0.2
v 0.3 3.3 0.3
v 0.3 3.3 0.2
v 0.3 3.3 0.1
v 0.3 3.3 0
v 0.3 3.4 0.5
v 0.3 3.4 0.4
v 0.3 3.4 0.2
v 0.3 3.4 0.1
v 0.3 3.5 0.5
v 0.3 3.5 0.4
v 0.3 3.5 0.2
v 0.3 3.6 0.4
v 0.3 3.6 0.2
v 0.3 3.6 0.1
v 0.3 3.6 0
v 0.3 3.7 0.2
v 0.3 3.7 0.1
v 0.4 0 0.6
v 0.4 0 0.2
v 0.4 0.2 0.6
v 0.4 0.2 0.4
v 0.4 0.2 0.2
v 0.4 0.2 0.1
v 0.4 1 0.5
v 0.4 1 0.4
v 0.4 1 0.2
v 0.4 1 0.1
v 0.4 1.7 0.2
v 0.4 1.7 0.1
v 0.4 2.6 0.3
v 0.4 2.6 0.1
v 0.4 2.8 0.5
v 0.4 2.8 0.4
v 0.4 2.9 0.4
v 0.4 2.9 0.3
v 0.4 3.2 0.3
v 0.4 3.2 0.2
v 0.4 3.3 0.3
v 0.4 3.3 0.2
v 0.4 3.3 0.1
v 0.4 3.4 0.4
v 0.4 3.4 0.2
v 0.4 3.4 0.1
v 0.4 3.5 0.4
v 0.4 3.5 0.2
v 0.6 1.5 0.3
v 0.6 1.5 0.2
v 0.6 1.7 0.3
v 0.6 1.7 0.2
v 0.6 2.7 0.3
v 0.6 2.7 0.2
v 0.6 2.8 0.2
v 0.6 2.8 0.1
v 0.6 2.9 0.3
v 0.6 2.9 0.1
v 0.7 1.7 0.3
v 0.7 1.7 0.1
v 0.7 2.7 0.3
v 0.7 2.7 0.2
v 0.7 2.8 0.2
v 0.7 2.8 0.1
v -0.4 1.7 0.8
v -0.4 2.3 0.8
v -0.3 1.7 0.8
v -0.3 1.9 0.8
v -0.2 1.9 0.8
v -0.2 2.3 0.8
v -0.7 2.1 0.7
v -0.7 2.3 0.7
v -0.4 2.1 0.7
v -0.4 2.3 0.7
v -0.4 2.4 0.7
v -0.2 2.3 0.7
v -0.2 2.4 0.7
v -0.4 0 0.6
v -0.4 0.2 0.6
v -0.2 2.2 0.6
v -0.2 2.3 0.6
v -0.1 0 0.6
v -0.1 0.2 0.6
v -0.1 3.5 0.6
v -0.1 3.6 0.6
v 0 2.2 0.6
v 0 2.3 0.6
v 0.1 0 0.6
v 0.1 0.2 0.6
v 0.1 3.5 0.6
v 0.1 3.6 0.6
v 0.4 0 0.6
v 0.4 0.2 0.6
v -0.7 2.3 0.5
v -0.7 2.7 0.5
v -0.6 2.7 0.5
v -0.6 2.9 0.5
v -0.5 2.3 0.5
v -0.5 2.6 0.5
v -0.4 1 0.5
v -0.4 2.1 0.5
v -0.4 2.4 0.5
v -0.4 2.6 0.5
v -0.4 2.8 0.5
v -0.4 2.9 0.5
v -0.3 2.8 0.5
v -0.3 2.9 0.5
v -0.3 3.1 0.5
v -0.3 3.4 0.5
v -0.3 3.5 0.5
v -0.2 2.1 0.5
v -0.2 2.2 0.5
v -0.2 2.3 0.5
v -0.2 2.4 0.5
v -0.2 3.3 0.5
v -0.2 3.4 0.5
v -0.2 3.5 0.5
v -0.2 3.6 0.5
v -0.1 1 0.5
v -0.1 1.7 0.5
v -0.1 2.7 0.5
v -0.1 2.9 0.5
v -0.1 3.3 0.5
v -0.1 3.4 0.5
v -0.1 3.5 0.5
v -0.1 3.6 0.5
v -0.1 3.7 0.5
v 0 2.2 0.5
v 0 2.3 0.5
v 0.1 1 0.5
v 0.1 1.7 0.5
v 0.1 2.7 0.5
v 0.1 2.9 0.5
v 0.1 3.3 0.5
v 0.1 3.4 0.5
v 0.1 3.5 0.5
v 0.1 3.6 0.5
v 0.1 3.7 0.5
v 0.2 3.3 0.5
v 0.2 3.4 0.5
v 0.2 3.5 0.5
v 0.2 3.6 0.5
v 0.3 2.8 0.5
v 0.3 2.9 0.5
v 0.3 3.1 0.5
v 0.3 3.4 0.5
v 0.3 3.5 0.5
v 0.4 1 0.5
v 0.4 2.8 0.5
v -0.7 2.7 0.4
v -0.7 2.8 0.4
v -0.6 2.7 0.4
v -0.6 2.8 0.4
v -0.4 0.2 0.4
v -0.4 1 0.4
v -0.4 2.8 0.4
v -0.4 2.9 0.4
v -0.4 3.4 0.4
v -0.4 3.5 0.4
v -0.3 2.8 0.4
v -0.3 2.9 0.4
v -0.3 3.4 0.4
v -0.3 3.5 0.4
v -0.3 3.6 0.4
v -0.2 2.9 0.4
v -0.2 3 0.4
v -0.2 3.5 0.4
v -0.2 3.6 0.4
v -0.2 3.7 0.4
v -0.1 0.2 0.4
v -0.1 1 0.4
v -0.1 2.9 0.4
v -0.1 3 0.4
v -0.1 3.1 0.4
v -0.1 3.6 0.4
v -0.1 3.7 0.4
v 0.1 0.2 0.4
v 0.1 1 0.4
v 0.1 2.9 0.4
v 0.1 3 0.4
v 0.1 3.1 0.4
v 0.1 3.6 0.4
v 0.1 3.7 0.4
v 0.2 2.9 0.4
v 0.2 3 0.4
v 0.2 3.5 0.4
v 0.2 3.6 0.4
v 0.2 3.7 0.4
v 0.3 2.8 0.4
v 0.3 2.9 0.4
v 0.3 3.4 0.4
v 0.3 3.5 0.4
v 0.3 3.6 0.4
v 0.4 0.2 0.4
v 0.4 1 0.4
v 0.4 2.8 0.4
v 0.4 2.9 0.4
v 0.4 3.4 0.4
v 0.4 3.5 0.4
v -0.4 3.2 0.3
v -0.4 3.3 0.3
v -0.3 3.2 0.3
v -0.3 3.3 0.3
v 0.3 3.2 0.3
v 0.3 3.3 0.3
v 0.4 2.6 0.3
v 0.4 2.9 0.3
v 0.4 3.2 0.3
v 0.4 3.3 0.3
v 0.5 1.5 0.3
v 0.5 1.7 0.3
v 0.5 2.6 0.3
v 0.6 1.5 0.3
v 0.6 1.7 0.3
v 0.6 2.7 0.3
v 0.6 2.9 0.3
v 0.7 1.7 0.3
v 0.7 2.7 0.3
v -0.4 3.3 0.2
v -0.4 3.4 0.2
v -0.3 3.3 0.2
v -0.3 3.4 0.2
v -0.3 3.6 0.2
v -0.3 3.7 0.2
v -0.2 3.6 0.2
v -0.2 3.7 0.2
v 0.2 3.6 0.2
v 0.2 3.7 0.2
v 0.3 3.3 0.2
v 0.3 3.4 0.2
v 0.3 3.6 0.2
v 0.3 3.7 0.2
v 0.4 3.3 0.2
v 0.4 3.4 0.2
v 0.6 2.7 0.2
v 0.6 2.8 0.2
v 0.7 2.7 0.2
v 0.7 2.8 0.2
v -0.4 1.7 0.7
v -0.4 2.1 0.7
v -0.3 1.7 0.7
v -0.3 1.9 0.7
v -0.2 1.9 0.7
v -0.2 2.1 0.7
v -0.7 2.1 0.5
v -0.7 2.2 0.5
v -0.5 2.2 0.5
v -0.5 2.3 0.5
v -0.4 2.1 0.5
v -0.4 2.3 0.5
v -0.7 2.2 0.3
v -0.7 2.8 0.3
v -0.6 2.8 0.3
v -0.6 2.9 0.3
v -0.5 2.2 0.3
v -0.5 2.6 0.3
v -0.4 2.6 0.3
v -0.4 2.9 0.3
v -0.4 0 0.2
v -0.4 0.2 0.2
v -0.4 1 0.2
v -0.4 1.7 0.2
v -0.4 3.2 0.2
v -0.4 3.3 0.2
v -0.4 3.4 0.2
v -0.4 3.5 0.2
v -0.3 3.2 0.2
v -0.3 3.3 0.2
v -0.3 3.4 0.2
v -0.3 3.5 0.2
v -0.2 2.9 0.2
v -0.2 3 0.2
v -0.1 0 0.2
v -0.1 0.2 0.2
v -0.1 1 0.2
v -0.1 1.7 0.2
v -0.1 2.9 0.2
v -0.1 3 0.2
v -0.1 3.1 0.2
v 0.1 0 0.2
v 0.1 0.2 0.2
v 0.1 1 0.2
v 0.1 1.7 0.2
v 0.1 2.9 0.2
v 0.1 3 0.2
v 0.1 3.1 0.2
v 0.2 2.9 0.2
v 0.2 3 0.2
v 0.3 3.2 0.2
v 0.3 3.3 0.2
v 0.3 3.4 0.2
v 0.3 3.5 0.2
v 0.4 0 0.2
v 0.4 0.2 0.2
v 0.4 1 0.2
v 0.4 1.7 0.2
v 0.4 3.2 0.2
v 0.4 3.3 0.2
v 0.4 3.4 0.2
v 0.4 3.5 0.2
v 0.5 1.5 0.2
v 0.5 1.7 0.2
v 0.6 1.5 0.2
v 0.6 1.7 0.2
v -0.4 0.2 0.1
v -0.4 1 0.1
v -0.4 1.7 0.1
v -0.4 2.9 0.1
v -0.4 3.3 0.1
v -0.4 3.4 0.1
v -0.3 1.9 0.1
v -0.3 2.9 0.1
v -0.3 3.1 0.1
v -0.3 3.3 0.1
v -0.3 3.4 0.1
v -0.3 3.6 0.1
v -0.3 3.7 0.1
v -0.2 3.2 0.1
v -0.2 3.3 0.1
v -0.2 3.6 0.1
v -0.2 3.7 0.1
v -0.1 0.2 0.1
v -0.1 1 0.1
v -0.1 2.9 0.1
v -0.1 3 0.1
v -0.1 3.1 0.1
v -0.1 3.2 0.1
v 0.1 0.2 0.1
v 0.1 1 0.1
v 0.1 2.9 0.1
v 0.1 3 0.1
v 0.1 3.1 0.1
v 0.1 3.2 0.1
v 0.2 3.2 0.1
v 0.2 3.3 0.1
v 0.2 3.6 0.1
v 0.2 3.7 0.1
v 0.3 1.9 0.1
v 0.3 2.9 0.1
v 0.3 3.1 0.1
v 0.3 3.3 0.1
v 0.3 3.4 0.1
v 0.3 3.6 0.1
v 0.3 3.7 0.1
v 0.4 0.2 0.1
v 0.4 1 0.1
v 0.4 1.7 0.1
v 0.4 2.6 0.1
v 0.4 3.3 0.1
v 0.4 3.4 0.1
v 0.5 1.7 0.1
v 0.5 2.6 0.1
v 0.6 2.8 0.1
v 0.6 2.9 0.1
v 0.7 1.7 0.1
v 0.7 2.8 0.1
v -0.3 1.9 0
v -0.3 2.9 0
v -0.3 3.3 0
v -0.3 3.6 0
v -0.2 3.3 0
v -0.2 3.6 0
v -0.2 3.7 0
v -0.1 3.1 0
v -0.1 3.2 0
v -0.1 3.6 0
v -0.1 3.7 0
v 0.1 3.1 0
v 0.1 3.2 0
v 0.1 3.6 0
v 0.1 3.7 0
v 0.2 3.3 0
v 0.2 3.6 0
v 0.2 3.7 0
v 0.3 1.9 0
v 0.3 2.9 0
v 0.3 3.3 0
v 0.3 3.6 0
v -0.2 3.2 -0.1
v -0.2 3.6 -0.1
v -0.1 3.6 -0.1
v -0.1 3.7 -0.1
v 0.1 3.6 -0.1
v 0.1 3.7 -0.1
v 0.2 3.2 -0.1
v 0.2 3.6 -0.1
v -0.4 0 0.6
v -0.1 0 0.6
v 0.1 0 0.6
v 0.4 0 0.6
v -0.4 0 0.2
v -0.1 0 0.2
v 0.1 0 0.2
v 0.4 0 0.2
v -0.4 0.2 0.2
v -0.1 0.2 0.2
v 0.1 0.2 0.2
v 0.4 0.2 0.2
v -0.4 0.2 0.1
v -0.1 0.2 0.1
v 0.1 0.2 0.1
v 0.4 0.2 0.1
v -0.4 1 0.5
v -0.1 1 0.5
v 0.1 1 0.5
v 0.4 1 0.5
v -0.4 1 0.4
v -0.1 1 0.4
v 0.1 1 0.4
v 0.4 1 0.4
v 0.5 1.5 0.3
v 0.6 1.5 0.3
v 0.5 1.5 0.2
v 0.6 1.5 0.2
v -0.4 1.7 0.8
v -0.3 1.7 0.8
v -0.4 1.7 0.7
v -0.3 1.7 0.7
v -0.1 1.7 0.5
v 0.1 1.7 0.5
v 0.6 1.7 0.3
v 0.7 1.7 0.3
v -0.4 1.7 0.2
v -0.1 1.7 0.2
v 0.1 1.7 0.2
v 0.4 1.7 0.2
v 0.5 1.7 0.2
v 0.6 1.7 0.2
v -0.4 1.7 0.1
v 0.4 1.7 0.1
v 0.5 1.7 0.1
v 0.7 1.7 0.1
v -0.3 1.9 0.8
v -0.2 1.9 0.8
v -0.3 1.9 0.7
v -0.2 1.9 0.7
v -0.3 1.9 0.1
v 0.3 1.9 0.1
v -0.3 1.9 0
v 0.3 1.9 0
v -0.7 2.1 0.7
v -0.4 2.1 0.7
v -0.2 2.1 0.7
v -0.7 2.1 0.5
v -0.4 2.1 0.5
v -0.2 2.1 0.5
v -0.2 2.2 0.6
v 0 2.2 0.6
v -0.7 2.2 0.5
v -0.5 2.2 0.5
v -0.2 2.2 0.5
v 0 2.2 0.5
v -0.7 2.2 0.3
v -0.5 2.2 0.3
v -0.5 2.6 0.5
v -0.4 2.6 0.5
v -0.5 2.6 0.3
v -0.4 2.6 0.3
v 0.4 2.6 0.3
v 0.5 2.6 0.3
v 0.4 2.6 0.1
v 0.5 2.6 0.1
v -0.3 3.1 0.5
v 0.3 3.1 0.5
v -0.1 3.1 0.4
v 0.1 3.1 0.4
v -0.3 3.1 0.3
v -0.2 3.1 0.3
v 0.2 3.1 0.3
v 0.3 3.1 0.3
v -0.2 3.1 0.2
v -0.1 3.1 0.2
v 0.1 3.1 0.2
v 0.2 3.1 0.2
v -0.3 3.1 0.1
v -0.1 3.1 0.1
v 0.1 3.1 0.1
v 0.3 3.1 0.1
v -0.1 3.1 0
v 0.1 3.1 0
v -0.4 3.2 0.3
v -0.3 3.2 0.3
v 0.3 3.2 0.3
v 0.4 3.2 0.3
v -0.4 3.2 0.2
v -0.3 3.2 0.2
v 0.3 3.2 0.2
v 0.4 3.2 0.2
v -0.2 3.2 0.1
v -0.1 3.2 0.1
v 0.1 3.2 0.1
v 0.2 3.2 0.1
v -0.1 3.2 0
v 0.1 3.2 0
v -0.2 3.2 -0.1
v 0.2 3.2 -0.1
v -0.4 3.3 0.2
v -0.3 3.3 0.2
v 0.3 3.3 0.2
v 0.4 3.3 0.2
v -0.4 3.3 0.1
v -0.3 3.3 0.1
v -0.2 3.3 0.1
v 0.2 3.3 0.1
v 0.3 3.3 0.1
v 0.4 3.3 0.1
v -0.3 3.3 0
v -0.2 3.3 0
v 0.2 3.3 0
v 0.3 3.3 0
v -0.4 3.4 0.4
v -0.3 3.4 0.4
v 0.3 3.4 0.4
v 0.4 3.4 0.4
v -0.4 3.4 0.2
v -0.3 3.4 0.2
v 0.3 3.4 0.2
v 0.4 3.4 0.2
v -0.1 3.5 0.6
v 0.1 3.5 0.6
v -0.1 3.5 0.5
v 0.1 3.5 0.5
v -0.4 0.2 0.6
v -0.1 0.2 0.6
v 0.1 0.2 0.6
v 0.4 0.2 0.6
v -0.4 0.2 0.4
v -0.1 0.2 0.4
v 0.1 0.2 0.4
v 0.4 0.2 0.4
v -0.4 1 0.2
v -0.1 1 0.2
v 0.1 1 0.2
v 0.4 1 0.2
v -0.4 1 0.1
v -0.1 1 0.1
v 0.1 1 0.1
v 0.4 1 0.1
v -0.4 2.3 0.8
v -0.2 2.3 0.8
v -0.7 2.3 0.7
v -0.4 2.3 0.7
v -0.2 2.3 0.7
v -0.2 2.3 0.6
v 0 2.3 0.6
v -0.7 2.3 0.5
v -0.5 2.3 0.5
v -0.4 2.3 0.5
v -0.2 2.3 0.5
v 0 2.3 0.5
v -0.4 2.4 0.7
v -0.2 2.4 0.7
v -0.4 2.4 0.5
v -0.2 2.4 0.5
v -0.7 2.7 0.5
v -0.6 2.7 0.5
v -0.7 2.7 0.4
v -0.6 2.7 0.4
v 0.6 2.7 0.3
v 0.7 2.7 0.3
v 0.6 2.7 0.2
v 0.7 2.7 0.2
v -0.4 2.8 0.5
v -0.3 2.8 0.5
v 0.3 2.8 0.5
v 0.4 2.8 0.5
v -0.7 2.8 0.4
v -0.6 2.8 0.4
v -0.4 2.8 0.4
v -0.3 2.8 0.4
v 0.3 2.8 0.4
v 0.4 2.8 0.4
v -0.7 2.8 0.3
v -0.6 2.8 0.3
v 0.6 2.8 0.2
v 0.7 2.8 0.2
v 0.6 2.8 0.1
v 0.7 2.8 0.1
v -0.6 2.9 0.5
v -0.4 2.9 0.5
v -0.3 2.9 0.5
v -0.1 2.9 0.5
v 0.1 2.9 0.5
v 0.3 2.9 0.5
v -0.4 2.9 0.4
v -0.3 2.9 0.4
v -0.2 2.9 0.4
v -0.1 2.9 0.4
v 0.1 2.9 0.4
v 0.2 2.9 0.4
v 0.3 2.9 0.4
v 0.4 2.9 0.4
v -0.6 2.9 0.3
v -0.4 2.9 0.3
v -0.2 2.9 0.3
v 0.2 2.9 0.3
v 0.4 2.9 0.3
v 0.6 2.9 0.3
v -0.2 2.9 0.2
v -0.1 2.9 0.2
v 0.1 2.9 0.2
v 0.2 2.9 0.2
v -0.4 2.9 0.1
v -0.3 2.9 0.1
v -0.1 2.9 0.1
v 0.1 2.9 0.1
v 0.3 2.9 0.1
v 0.6 2.9 0.1
v -0.3 2.9 0
v 0.3 2.9 0
v -0.2 3 0.4
v -0.1 3 0.4
v 0.1 3 0.4
v 0.2 3 0.4
v -0.2 3 0.3
v -0.1 3 0.3
v 0.1 3 0.3
v 0.2 3 0.3
v -0.2 3 0.2
v -0.1 3 0.2
v 0.1 3 0.2
v 0.2 3 0.2
v -0.1 3 0.1
v 0.1 3 0.1
v -0.4 3.3 0.3
v -0.3 3.3 0.3
v 0.3 3.3 0.3
v 0.4 3.3 0.3
v -0.4 3.3 0.2
v -0.3 3.3 0.2
v 0.3 3.3 0.2
v 0.4 3.3 0.2
v -0.4 3.4 0.2
v -0.3 3.4 0.2
v 0.3 3.4 0.2
v 0.4 3.4 0.2
v -0.4 3.4 0.1
v -0.3 3.4 0.1
v 0.3 3.4 0.1
v 0.4 3.4 0.1
v -0.3 3.5 0.5
v -0.2 3.5 0.5
v 0.2 3.5 0.5
v 0.3 3.5 0.5
v -0.4 3.5 0.4
v -0.3 3.5 0.4
v -0.2 3.5 0.4
v 0.2 3.5 0.4
v 0.3 3.5 0.4
v 0.4 3.5 0.4
v -0.4 3.5 0.2
v -0.3 3.5 0.2
v 0.3 3.5 0.2
v 0.4 3.5 0.2
v -0.1 3.6 0.6
v 0.1 3.6 0.6
v -0.2 3.6 0.5
v -0.1 3.6 0.5
v 0.1 3.6 0.5
v 0.2 3.6 0.5
v -0.3 3.6 0.4
v -0.2 3.6 0.4
v -0.1 3.6 0.4
v 0.1 3.6 0.4
v 0.2 3.6 0.4
v 0.3 3.6 0.4
v -0.3 3.6 0.2
v -0.2 3.6 0.2
v 0.2 3.6 0.2
v 0.3 3.6 0.2
v -0.3 3.6 0.1
v -0.2 3.6 0.1
v 0.2 3.6 0.1
v 0.3 3.6 0.1
v -0.3 3.6 0
v -0.2 3.6 0
v -0.1 3.6 0
v 0.1 3.6 0
v 0.2 3.6 0
v 0.3 3.6 0
v -0.2 3.6 -0.1
v -0.1 3.6 -0.1
v 0.1 3.6 -0.1
v 0.2 3.6 -0.1
v -0.1 3.7 0.5
v 0.1 3.7 0.5
v -0.2 3.7 0.4
v -0.1 3.7 0.4
v 0.1 3.7 0.4
v 0.2 3.7 0.4
v -0.3 3.7 0.2
v -0.2 3.7 0.2
v 0.2 3.7 0.2
v 0.3 3.7 0.2
v -0.3 3.7 0.1
v -0.2 3.7 0.1
v 0.2 3.7 0.1
v 0.3 3.7 0.1
v -0.2 3.7 0
v -0.1 3.7 0
v 0.1 3.7 0
v 0.2 3.7 0
v -0.1 3.7 -0.1
v 0.1 3.7 -0.1

# faces
f 3/4/1 2/4/1 1/4/1
f 5/4/1 3/4/1 1/4/1
f 5/4/1 4/4/1 3/4/1
f 6/4/1 4/4/1 5/4/1
f 7/4/1 4/4/1 6/4/1
f 8/4/1 4/4/1 7/4/1
f 9/4/1 4/4/1 8/4/1
f 10/4/1 4/4/1 9/4/1
f 13/4/1 12/4/1 11/4/1
f 15/4/1 13/4/1 11/4/1
f 15/4/1 14/4/1 13/4/1
f 16/4/1 14/4/1 15/4/1
f 19/5/1 18/5/1 17/5/1
f 20/5/1 18/5/1 19/5/1
f 21/5/1 18/5/1 20/5/1
f 24/4/1 22/4/1 21/4/1
f 24/4/1 21/4/1 20/4/1
f 25/4/1 22/4/1 24/4/1
f 26/4/1 22/4/1 25/4/1
f 29/4/1 24/4/1 23/4/1
f 29/4/1 25/4/1 24/4/1
f 31/3/1 28/3/1 27/3/1
f 32/4/1 30/4/1 29/4/1
f 32/4/1 29/4/1 23/4/1
f 33/3/1 31/3/1 27/3/1
f 34/3/1 31/3/1 33/3/1
f 35/4/1 30/4/1 32/4/1
f 36/3/1 35/3/1 34/3/1
f 37/4/1 30/4/1 35/4/1
f 37/3/1 35/3/1 36/3/1
f 38/4/1 30/4/1 37/4/1
f 39/4/1 30/4/1 38/4/1
f 40/4/1 30/4/1 39/4/1
f 41/4/1 30/4/1 40/4/1
f 44/2/1 43/2/1 42/2/1
f 45/2/1 43/2/1 44/2/1
f 48/2/1 46/2/1 45/2/1
f 49/2/1 46/2/1 48/2/1
f 50/2/1 48/2/1 47/2/1
f 51/2/1 48/2/1 50/2/1
f 56/4/1 55/4/1 54/4/1
f 57/4/1 55/4/1 56/4/1
f 58/4/1 53/4/1 52/4/1
f 59/4/1 53/4/1 58/4/1
f 63/1/1 61/1/1 60/1/1
f 64/2/1 62/2/1 61/2/1
f 64/1/1 61/1/1 63/1/1
f 65/2/1 62/2/1 64/2/1
f 66/2/1 64/2/1 63/2/1
f 67/2/1 62/2/1 65/2/1
f 68/2/1 62/2/1 67/2/1
f 70/1/1 63/1/1 60/1/1
f 71/2/1 66/2/1 63/2/1
f 71/1/1 63/1/1 70/1/1
f 71/2/1 67/2/1 66/2/1
f 72/2/1 67/2/1 71/2/1
f 73/2/1 69/2/1 68/2/1
f 74/2/1 71/2/1 70/2/1
f 75/2/1 71/2/1 74/2/1
f 76/2/1 73/2/1 72/2/1
f 77/2/1 76/2/1 75/2/1
f 78/2/1 73/2/1 76/2/1
f 78/2/1 76/2/1 77/2/1
f 79/2/1 69/2/1 73/2/1
f 79/2/1 73/2/1 78/2/1
f 80/2/1 69/2/1 79/2/1
f 81/2/1 79/2/1 78/2/1
f 82/2/1 79/2/1 81/2/1
f 86/3/1 84/3/1 83/3/1
f 87/4/1 85/4/1 84/4/1
f 87/3/1 84/3/1 86/3/1
f 88/4/1 85/4/1 87/4/1
f 91/2/1 90/2/1 89/2/1
f 92/2/1 90/2/1 91/2/1
f 95/2/1 94/2/1 93/2/1
f 96/2/1 94/2/1 95/2/1
f 99/2/1 90/2/1 92/2/1
f 100/2/1 90/2/1 99/2/1
f 101/2/1 97/2/1 96/2/1
f 102/2/1 97/2/1 101/2/1
f 103/2/1 99/2/1 98/2/1
f 104/2/1 99/2/1 103/2/1
f 109/4/1 106/4/1 105/4/1
f 110/4/1 106/4/1 109/4/1
f 111/1/1 108/1/1 107/1/1
f 111/1/1 109/1/1 108/1/1
f 112/1/1 109/1/1 111/1/1
f 115/2/1 114/2/1 113/2/1
f 116/2/1 114/2/1 115/2/1
f 119/2/1 118/2/1 117/2/1
f 120/2/1 118/2/1 119/2/1
f 124/2/1 121/2/1 120/2/1
f 125/2/1 121/2/1 124/2/1
f 126/2/1 123/2/1 122/2/1
f 127/2/1 123/2/1 126/2/1
f 130/5/1 129/5/1 128/5/1
f 131/5/1 129/5/1 130/5/1
f 132/5/1 129/5/1 131/5/1
f 135/4/1 133/4/1 132/4/1
f 135/4/1 132/4/1 131/4/1
f 136/4/1 133/4/1 135/4/1
f 137/4/1 133/4/1 136/4/1
f 138/4/1 135/4/1 134/4/1
f 138/4/1 136/4/1 135/4/1
f 139/4/1 136/4/1 138/4/1
f 142/1/1 141/1/1 140/1/1
f 143/1/1 141/1/1 142/1/1
f 145/4/1 143/4/1 142/4/1
f 145/4/1 144/4/1 143/4/1
f 146/4/1 144/4/1 145/4/1
f 147/4/2 148/4/2 149/4/2
f 149/4/2 148/4/2 150/4/2
f 150/4/2 148/4/2 151/4/2
f 152/4/2 153/4/2 154/4/2
f 154/4/2 153/4/2 155/4/2
f 156/3/2 157/3/2 158/3/2
f 158/3/2 157/3/2 159/3/2
f 160/3/2 161/3/2 162/3/2
f 162/4/2 163/4/2 164/4/2
f 164/4/2 163/4/2 165/4/2
f 160/3/2 162/3/2 166/3/2
f 162/4/2 164/4/2 167/4/2
f 166/3/2 162/3/2 167/3/2
f 167/4/2 164/4/2 168/4/2
f 168/3/2 169/3/2 170/3/2
f 167/3/2 168/3/2 170/3/2
f 170/3/2 169/3/2 171/3/2
f 172/5/2 173/5/2 174/5/2
f 174/5/2 173/5/2 175/5/2
f 175/5/2 173/5/2 176/5/2
f 176/4/2 177/4/2 179/4/2
f 175/4/2 176/4/2 179/4/2
f 179/4/2 177/4/2 180/4/2
f 180/4/2 177/4/2 181/4/2
f 178/4/2 179/4/2 182/4/2
f 179/4/2 180/4/2 182/4/2
f 182/4/2 180/4/2 183/4/2
f 184/1/2 185/1/2 186/1/2
f 186/1/2 185/1/2 187/1/2
f 188/4/2 189/4/2 192/4/2
f 192/4/2 189/4/2 193/4/2
f 190/1/2 191/1/2 194/1/2
f 191/1/2 192/1/2 194/1/2
f 194/1/2 192/1/2 195/1/2
f 196/2/2 197/2/2 198/2/2
f 198/2/2 197/2/2 199/2/2
f 200/2/2 201/2/2 202/2/2
f 202/2/2 201/2/2 203/2/2
f 203/2/2 204/2/2 207/2/2
f 207/2/2 204/2/2 208/2/2
f 205/2/2 206/2/2 209/2/2
f 209/2/2 206/2/2 210/2/2
f 211/3/2 212/3/2 214/3/2
f 212/4/2 213/4/2 215/4/2
f 214/3/2 212/3/2 215/3/2
f 215/4/2 213/4/2 216/4/2
f 217/2/2 218/2/2 219/2/2
f 219/2/2 218/2/2 220/2/2
f 221/2/2 222/2/2 223/2/2
f 223/2/2 222/2/2 224/2/2
f 220/2/2 218/2/2 227/2/2
f 227/2/2 218/2/2 228/2/2
f 224/2/2 225/2/2 229/2/2
f 229/2/2 225/2/2 230/2/2
f 226/2/2 227/2/2 231/2/2
f 231/2/2 227/2/2 232/2/2
f 235/4/2 236/4/2 237/4/2
f 237/4/2 236/4/2 238/4/2
f 233/4/2 234/4/2 239/4/2
f 239/4/2 234/4/2 240/4/2
f 241/1/2 242/1/2 244/1/2
f 242/2/2 243/2/2 245/2/2
f 244/1/2 242/1/2 245/1/2
f 245/2/2 243/2/2 246/2/2
f 244/2/2 245/2/2 247/2/2
f 246/2/2 243/2/2 248/2/2
f 248/2/2 243/2/2 249/2/2
f 241/1/2 244/1/2 251/1/2
f 244/2/2 247/2/2 252/2/2
f 251/1/2 244/1/2 252/1/2
f 247/2/2 248/2/2 252/2/2
f 252/2/2 248/2/2 253/2/2
f 249/2/2 250/2/2 254/2/2
f 251/2/2 252/2/2 255/2/2
f 255/2/2 252/2/2 256/2/2
f 253/2/2 254/2/2 257/2/2
f 256/2/2 257/2/2 258/2/2
f 257/2/2 254/2/2 259/2/2
f 258/2/2 257/2/2 259/2/2
f 254/2/2 250/2/2 260/2/2
f 259/2/2 254/2/2 260/2/2
f 260/2/2 250/2/2 261/2/2
f 259/2/2 260/2/2 262/2/2
f 262/2/2 260/2/2 263/2/2
f 264/5/2 265/5/2 266/5/2
f 266/5/2 265/5/2 267/5/2
f 267/5/2 265/5/2 268/5/2
f 268/4/2 269/4/2 271/4/2
f 267/4/2 268/4/2 271/4/2
f 271/4/2 269/4/2 272/4/2
f 272/4/2 269/4/2 273/4/2
f 270/4/2 271/4/2 274/4/2
f 271/4/2 272/4/2 274/4/2
f 270/4/2 274/4/2 276/4/2
f 274/4/2 275/4/2 276/4/2
f 276/4/2 275/4/2 277/4/2
f 270/4/2 276/4/2 278/4/2
f 278/4/2 276/4/2 279/4/2
f 279/4/2 276/4/2 280/4/2
f 280/4/2 276/4/2 281/4/2
f 282/2/2 283/2/2 284/2/2
f 284/2/2 283/2/2 285/2/2
f 285/2/2 286/2/2 288/2/2
f 288/2/2 286/2/2 289/2/2
f 287/2/2 288/2/2 290/2/2
f 290/2/2 288/2/2 291/2/2
f 292/1/2 293/1/2 294/1/2
f 294/1/2 293/1/2 295/1/2
f 296/4/2 297/4/2 298/4/2
f 296/4/2 298/4/2 300/4/2
f 298/4/2 299/4/2 300/4/2
f 300/4/2 299/4/2 301/4/2
f 302/4/2 303/4/2 304/4/2
f 304/4/2 303/4/2 305/4/2
f 305/4/2 303/4/2 306/4/2
f 306/4/2 303/4/2 307/4/2
f 310/3/3 309/3/3 308/3/3
f 311/3/3 309/3/3 310/3/3
f 312/3/3 309/3/3 311/3/3
f 313/3/3 309/3/3 312/3/3
f 316/4/3 315/4/3 314/4/3
f 317/4/3 315/4/3 316/4/3
f 319/3/3 318/3/3 317/3/3
f 320/3/3 318/3/3 319/3/3
f 325/5/3 322/5/3 321/5/3
f 326/5/3 322/5/3 325/5/3
f 329/1/3 324/1/3 323/1/3
f 330/1/3 324/1/3 329/1/3
f 333/2/3 328/2/3 327/2/3
f 334/2/3 328/2/3 333/2/3
f 335/5/3 332/5/3 331/5/3
f 336/5/3 332/5/3 335/5/3
f 339/4/3 338/4/3 337/4/3
f 341/4/3 339/4/3 337/4/3
f 341/4/3 340/4/3 339/4/3
f 342/4/3 340/4/3 341/4/3
f 346/4/3 340/4/3 342/4/3
f 347/4/3 340/4/3 346/4/3
f 348/4/3 340/4/3 347/4/3
f 349/4/3 346/4/3 345/4/3
f 349/4/3 347/4/3 346/4/3
f 354/4/3 344/4/3 343/4/3
f 357/4/3 350/4/3 349/4/3
f 357/4/3 349/4/3 345/4/3
f 358/1/3 352/1/3 351/1/3
f 359/2/3 353/2/3 352/2/3
f 359/1/3 352/1/3 358/1/3
f 360/2/3 353/2/3 359/2/3
f 362/4/3 355/4/3 354/4/3
f 362/4/3 354/4/3 343/4/3
f 363/4/3 355/4/3 362/4/3
f 364/4/3 357/4/3 356/4/3
f 364/4/3 350/4/3 357/4/3
f 365/4/3 350/4/3 364/4/3
f 366/1/3 358/1/3 351/1/3
f 366/5/3 359/5/3 358/5/3
f 367/2/3 361/2/3 360/2/3
f 367/5/3 359/5/3 366/5/3
f 367/2/3 360/2/3 359/2/3
f 368/2/3 361/2/3 367/2/3
f 369/2/3 361/2/3 368/2/3
f 371/4/3 355/4/3 363/4/3
f 372/4/3 364/4/3 356/4/3
f 374/4/3 371/4/3 363/4/3
f 374/4/3 372/4/3 371/4/3
f 375/3/3 365/3/3 364/3/3
f 375/4/3 364/4/3 372/4/3
f 375/4/3 372/4/3 374/4/3
f 376/3/3 365/3/3 375/3/3
f 377/1/3 366/1/3 351/1/3
f 377/1/3 368/1/3 367/1/3
f 377/1/3 367/1/3 366/1/3
f 378/1/3 368/1/3 377/1/3
f 379/1/3 368/1/3 378/1/3
f 380/2/3 370/2/3 369/2/3
f 381/2/3 370/2/3 380/2/3
f 382/1/3 377/1/3 351/1/3
f 382/5/3 378/5/3 377/5/3
f 383/2/3 379/2/3 378/2/3
f 383/5/3 378/5/3 382/5/3
f 383/2/3 380/2/3 379/2/3
f 384/2/3 380/2/3 383/2/3
f 385/2/3 380/2/3 384/2/3
f 386/4/3 374/4/3 373/4/3
f 386/4/3 376/4/3 375/4/3
f 386/4/3 375/4/3 374/4/3
f 387/4/3 376/4/3 386/4/3
f 388/1/3 382/1/3 351/1/3
f 388/1/3 383/1/3 382/1/3
f 389/2/3 384/2/3 383/2/3
f 389/1/3 383/1/3 388/1/3
f 390/2/3 384/2/3 389/2/3
f 391/4/3 386/4/3 373/4/3
f 392/4/3 386/4/3 391/4/3
f 395/4/3 394/4/3 393/4/3
f 396/4/3 394/4/3 395/4/3
f 403/4/3 400/4/3 399/4/3
f 404/4/3 400/4/3 403/4/3
f 405/2/3 402/2/3 401/2/3
f 406/2/3 402/2/3 405/2/3
f 410/2/3 407/2/3 406/2/3
f 411/2/3 407/2/3 410/2/3
f 413/4/3 398/4/3 397/4/3
f 414/4/3 398/4/3 413/4/3
f 415/3/3 409/3/3 408/3/3
f 416/3/3 409/3/3 415/3/3
f 418/2/3 412/2/3 411/2/3
f 419/2/3 412/2/3 418/2/3
f 422/3/3 416/3/3 415/3/3
f 423/1/3 417/1/3 416/1/3
f 423/3/3 416/3/3 422/3/3
f 424/1/3 417/1/3 423/1/3
f 427/3/3 423/3/3 422/3/3
f 428/3/3 423/3/3 427/3/3
f 430/2/3 426/2/3 425/2/3
f 431/2/3 426/2/3 430/2/3
f 435/2/3 430/2/3 429/2/3
f 436/2/3 430/2/3 435/2/3
f 437/4/3 421/4/3 420/4/3
f 438/4/3 421/4/3 437/4/3
f 439/4/3 433/4/3 432/4/3
f 440/4/3 433/4/3 439/4/3
f 441/2/3 435/2/3 434/2/3
f 442/2/3 435/2/3 441/2/3
f 445/2/3 444/2/3 443/2/3
f 446/2/3 444/2/3 445/2/3
f 451/2/3 448/2/3 447/2/3
f 452/2/3 448/2/3 451/2/3
f 455/4/3 450/4/3 449/4/3
f 456/1/3 454/1/3 453/1/3
f 457/4/3 455/4/3 454/4/3
f 457/1/3 454/1/3 456/1/3
f 458/4/3 450/4/3 455/4/3
f 458/4/3 455/4/3 457/4/3
f 459/4/3 450/4/3 458/4/3
f 460/4/3 458/4/3 457/4/3
f 461/4/3 458/4/3 460/4/3
f 464/2/3 463/2/3 462/2/3
f 465/2/3 463/2/3 464/2/3
f 468/2/3 467/2/3 466/2/3
f 469/2/3 467/2/3 468/2/3
f 474/2/3 471/2/3 470/2/3
f 475/2/3 471/2/3 474/2/3
f 476/2/3 473/2/3 472/2/3
f 477/2/3 473/2/3 476/2/3
f 480/4/3 479/4/3 478/4/3
f 481/4/3 479/4/3 480/4/3
f 482/3/4 483/3/4 484/3/4
f 484/3/4 483/3/4 485/3/4
f 485/3/4 483/3/4 486/3/4
f 486/3/4 483/3/4 487/3/4
f 488/4/4 489/4/4 490/4/4
f 488/4/4 490/4/4 492/4/4
f 490/4/4 491/4/4 492/4/4
f 492/4/4 491/4/4 493/4/4
f 494/4/4 495/4/4 496/4/4
f 494/4/4 496/4/4 498/4/4
f 496/4/4 497/4/4 498/4/4
f 498/4/4 497/4/4 499/4/4
f 499/4/4 497/4/4 500/4/4
f 500/4/4 497/4/4 501/4/4
f 506/2/4 507/2/4 510/2/4
f 510/2/4 507/2/4 511/2/4
f 508/2/4 509/2/4 512/2/4
f 512/2/4 509/2/4 513/2/4
f 502/5/4 503/5/4 516/5/4
f 516/5/4 503/5/4 517/5/4
f 504/4/4 505/4/4 518/4/4
f 518/4/4 505/4/4 519/4/4
f 514/4/4 515/4/4 520/4/4
f 520/4/4 515/4/4 521/4/4
f 521/1/4 522/1/4 528/1/4
f 528/1/4 522/1/4 529/1/4
f 527/4/4 528/4/4 530/4/4
f 530/4/4 528/4/4 531/4/4
f 523/5/4 524/5/4 536/5/4
f 536/5/4 524/5/4 537/5/4
f 525/4/4 526/4/4 538/4/4
f 538/4/4 526/4/4 539/4/4
f 532/2/4 533/2/4 540/2/4
f 540/2/4 533/2/4 541/2/4
f 534/2/4 535/2/4 542/2/4
f 542/2/4 535/2/4 543/2/4
f 544/1/4 545/1/4 546/1/4
f 546/1/4 545/1/4 547/1/4
f 550/4/4 551/4/4 554/4/4
f 554/4/4 551/4/4 555/4/4
f 552/2/4 553/2/4 557/2/4
f 557/2/4 553/2/4 558/2/4
f 556/2/4 557/2/4 561/2/4
f 561/2/4 557/2/4 562/2/4
f 559/2/4 560/2/4 563/2/4
f 563/2/4 560/2/4 564/2/4
f 548/4/4 549/4/4 565/4/4
f 565/4/4 549/4/4 566/4/4
f 556/2/4 561/2/4 569/2/4
f 569/2/4 561/2/4 570/2/4
f 567/4/4 568/4/4 573/4/4
f 573/4/4 568/4/4 574/4/4
f 575/2/4 576/2/4 577/2/4
f 550/4/4 554/4/4 581/4/4
f 575/2/4 577/2/4 583/2/4
f 577/2/4 578/2/4 583/2/4
f 583/2/4 578/2/4 584/2/4
f 579/2/4 580/2/4 586/2/4
f 586/2/4 580/2/4 587/2/4
f 571/4/4 572/4/4 588/4/4
f 588/4/4 572/4/4 589/4/4
f 581/4/4 582/4/4 590/4/4
f 550/4/4 581/4/4 590/4/4
f 590/4/4 582/4/4 591/4/4
f 584/2/4 585/2/4 592/2/4
f 592/2/4 585/2/4 593/2/4
f 591/4/4 582/4/4 595/4/4
f 595/4/4 582/4/4 596/4/4
f 594/4/4 595/4/4 596/4/4
f 596/4/4 582/4/4 597/4/4
f 594/4/4 596/4/4 598/4/4
f 598/4/4 596/4/4 599/4/4
f 602/2/4 603/2/4 604/2/4
f 604/2/4 603/2/4 605/2/4
f 605/2/4 606/2/4 609/2/4
f 609/2/4 606/2/4 610/2/4
f 607/2/4 608/2/4 611/2/4
f 611/2/4 608/2/4 612/2/4
f 613/2/4 614/2/4 616/2/4
f 616/2/4 614/2/4 617/2/4
f 600/4/4 601/4/4 618/4/4
f 618/4/4 601/4/4 619/4/4
f 615/2/4 616/2/4 620/2/4
f 620/2/4 616/2/4 621/2/4
f 622/2/4 623/2/4 624/2/4
f 622/2/4 624/2/4 626/2/4
f 624/2/4 625/2/4 626/2/4
f 626/2/4 625/2/4 627/2/4
f 622/2/4 626/2/4 628/2/4
f 628/2/4 626/2/4 629/2/4
f 634/5/5 631/5/5 630/5/5
f 635/5/5 631/5/5 634/5/5
f 636/5/5 633/5/5 632/5/5
f 637/5/5 633/5/5 636/5/5
f 642/4/5 639/4/5 638/4/5
f 643/4/5 639/4/5 642/4/5
f 644/4/5 641/4/5 640/4/5
f 645/4/5 641/4/5 644/4/5
f 650/4/5 647/4/5 646/4/5
f 651/4/5 647/4/5 650/4/5
f 652/4/5 649/4/5 648/4/5
f 653/4/5 649/4/5 652/4/5
f 656/1/5 655/1/5 654/1/5
f 657/1/5 655/1/5 656/1/5
f 660/3/5 659/3/5 658/3/5
f 661/3/5 659/3/5 660/3/5
f 667/4/5 663/4/5 662/4/5
f 668/4/5 663/4/5 667/4/5
f 671/4/5 665/4/5 664/4/5
f 672/4/5 669/4/5 668/4/5
f 672/4/5 667/4/5 666/4/5
f 672/4/5 668/4/5 667/4/5
f 673/4/5 669/4/5 672/4/5
f 674/4/5 671/4/5 670/4/5
f 675/4/5 665/4/5 671/4/5
f 675/4/5 671/4/5 674/4/5
f 678/3/5 677/3/5 676/3/5
f 679/3/5 677/3/5 678/3/5
f 682/4/5 681/4/5 680/4/5
f 683/4/5 681/4/5 682/4/5
f 687/4/5 685/4/5 684/4/5
f 687/4/5 686/4/5 685/4/5
f 688/4/5 686/4/5 687/4/5
f 689/4/5 686/4/5 688/4/5
f 694/1/5 691/1/5 690/1/5
f 695/1/5 691/1/5 694/1/5
f 696/4/5 693/4/5 692/4/5
f 697/4/5 693/4/5 696/4/5
f 700/4/5 699/4/5 698/4/5
f 701/4/5 699/4/5 700/4/5
f 704/4/5 703/4/5 702/4/5
f 705/4/5 703/4/5 704/4/5
f 708/1/5 707/1/5 706/1/5
f 709/1/5 707/1/5 708/1/5
f 710/1/5 708/1/5 706/1/5
f 711/1/5 708/1/5 710/1/5
f 712/1/5 707/1/5 709/1/5
f 713/1/5 707/1/5 712/1/5
f 714/1/5 708/1/5 711/1/5
f 714/2/5 711/2/5 710/2/5
f 715/1/5 708/1/5 714/1/5
f 716/1/5 712/1/5 709/1/5
f 717/2/5 713/2/5 712/2/5
f 717/1/5 712/1/5 716/1/5
f 718/2/5 716/2/5 715/2/5
f 718/2/5 715/2/5 714/2/5
f 718/2/5 717/2/5 716/2/5
f 718/2/5 714/2/5 710/2/5
f 719/2/5 717/2/5 718/2/5
f 720/2/5 717/2/5 719/2/5
f 721/2/5 713/2/5 717/2/5
f 721/2/5 717/2/5 720/2/5
f 722/2/5 720/2/5 719/2/5
f 723/2/5 720/2/5 722/2/5
f 728/2/5 725/2/5 724/2/5
f 729/2/5 725/2/5 728/2/5
f 730/2/5 727/2/5 726/2/5
f 731/2/5 727/2/5 730/2/5
f 736/2/5 733/2/5 732/2/5
f 737/2/5 735/2/5 734/2/5
f 738/2/5 736/2/5 732/2/5
f 738/2/5 737/2/5 736/2/5
f 739/2/5 735/2/5 737/2/5
f 739/2/5 737/2/5 738/2/5
f 744/2/5 741/2/5 740/2/5
f 745/2/5 741/2/5 744/2/5
f 748/2/5 743/2/5 742/2/5
f 749/2/5 743/2/5 748/2/5
f 750/2/5 746/2/5 745/2/5
f 751/2/5 746/2/5 750/2/5
f 752/2/5 748/2/5 747/2/5
f 753/2/5 748/2/5 752/2/5
f 758/2/5 755/2/5 754/2/5
f 759/2/5 755/2/5 758/2/5
f 760/2/5 757/2/5 756/2/5
f 761/2/5 757/2/5 760/2/5
f 764/2/5 763/2/5 762/2/5
f 765/2/5 763/2/5 764/2/5
f 766/5/6 767/5/6 770/5/6
f 770/5/6 767/5/6 771/5/6
f 768/5/6 769/5/6 772/5/6
f 772/5/6 769/5/6 773/5/6
f 774/4/6 775/4/6 778/4/6
f 778/4/6 775/4/6 779/4/6
f 776/4/6 777/4/6 780/4/6
f 780/4/6 777/4/6 781/4/6
f 782/3/6 783/3/6 785/3/6
f 785/3/6 783/3/6 786/3/6
f 784/4/6 785/4/6 789/4/6
f 789/4/6 785/4/6 790/4/6
f 790/4/6 785/4/6 791/4/6
f 787/1/6 788/1/6 792/1/6
f 792/1/6 788/1/6 793/1/6
f 794/3/6 795/3/6 796/3/6
f 796/3/6 795/3/6 797/3/6
f 798/4/6 799/4/6 800/4/6
f 800/4/6 799/4/6 801/4/6
f 802/4/6 803/4/6 804/4/6
f 804/4/6 803/4/6 805/4/6
f 806/4/6 807/4/6 812/4/6
f 812/4/6 807/4/6 813/4/6
f 808/4/6 809/4/6 814/4/6
f 814/4/6 809/4/6 815/4/6
f 810/4/6 811/4/6 816/4/6
f 816/4/6 811/4/6 817/4/6
f 818/4/6 819/4/6 820/4/6
f 820/4/6 819/4/6 821/4/6
f 822/4/6 823/4/6 828/4/6
f 824/4/6 825/4/6 829/4/6
f 829/4/6 825/4/6 830/4/6
f 825/3/6 826/3/6 831/3/6
f 830/4/6 825/4/6 831/4/6
f 826/4/6 827/4/6 832/4/6
f 831/3/6 826/3/6 832/3/6
f 832/4/6 827/4/6 833/4/6
f 833/4/6 827/4/6 834/4/6
f 822/4/6 828/4/6 836/4/6
f 829/4/6 830/4/6 836/4/6
f 828/4/6 829/4/6 836/4/6
f 836/4/6 830/4/6 837/4/6
f 837/4/6 830/4/6 838/4/6
f 834/4/6 835/4/6 839/4/6
f 833/4/6 834/4/6 839/4/6
f 839/4/6 835/4/6 840/4/6
f 837/4/6 838/4/6 842/4/6
f 840/4/6 841/4/6 845/4/6
f 839/4/6 840/4/6 845/4/6
f 842/4/6 843/4/6 846/4/6
f 837/4/6 842/4/6 846/4/6
f 846/4/6 843/4/6 847/4/6
f 847/4/6 843/4/6 848/4/6
f 844/4/6 845/4/6 849/4/6
f 845/4/6 841/4/6 850/4/6
f 849/4/6 845/4/6 850/4/6
f 850/4/6 841/4/6 851/4/6
f 847/4/6 848/4/6 852/4/6
f 848/4/6 849/4/6 852/4/6
f 849/4/6 850/4/6 852/4/6
f 852/4/6 850/4/6 853/4/6
f 854/3/6 855/3/6 858/3/6
f 858/3/6 855/3/6 859/3/6
f 856/3/6 857/3/6 860/3/6
f 860/3/6 857/3/6 861/3/6
f 858/4/6 859/4/6 862/4/6
f 862/4/6 859/4/6 863/4/6
f 860/4/6 861/4/6 864/4/6
f 864/4/6 861/4/6 865/4/6
f 863/4/6 864/4/6 866/4/6
f 866/4/6 864/4/6 867/4/6
f 868/2/6 869/2/6 872/2/6
f 872/2/6 869/2/6 873/2/6
f 870/2/6 871/2/6 874/2/6
f 874/2/6 871/2/6 875/2/6
f 876/2/6 877/2/6 880/2/6
f 880/2/6 877/2/6 881/2/6
f 878/2/6 879/2/6 882/2/6
f 882/2/6 879/2/6 883/2/6
f 884/2/6 885/2/6 889/2/6
f 889/2/6 885/2/6 890/2/6
f 886/2/6 887/2/6 891/2/6
f 891/2/6 887/2/6 892/2/6
f 888/2/6 889/2/6 894/2/6
f 894/2/6 889/2/6 895/2/6
f 892/2/6 893/2/6 896/2/6
f 896/2/6 893/2/6 897/2/6
f 898/2/6 899/2/6 901/2/6
f 901/2/6 899/2/6 902/2/6
f 900/2/6 901/2/6 905/2/6
f 905/2/6 901/2/6 906/2/6
f 902/2/6 903/2/6 907/2/6
f 907/2/6 903/2/6 908/2/6
f 904/2/6 905/2/6 910/2/6
f 910/2/6 905/2/6 911/2/6
f 908/2/6 909/2/6 912/2/6
f 912/2/6 909/2/6 913/2/6
f 914/2/6 915/2/6 918/2/6
f 918/2/6 915/2/6 919/2/6
f 916/2/6 917/2/6 922/2/6
f 922/2/6 917/2/6 923/2/6
f 919/2/6 920/2/6 924/2/6
f 924/2/6 920/2/6 925/2/6
f 921/2/6 922/2/6 926/2/6
f 926/2/6 922/2/6 927/2/6
f 928/2/6 929/2/6 931/2/6
f 931/2/6 929/2/6 932/2/6
f 930/2/6 931/2/6 935/2/6
f 932/2/6 933/2/6 935/2/6
f 931/2/6 932/2/6 935/2/6
f 935/2/6 933/2/6 936/2/6
f 934/2/6 935/2/6 938/2/6
f 936/2/6 937/2/6 938/2/6
f 935/2/6 936/2/6 938/2/6
f 938/2/6 937/2/6 939/2/6
f 939/2/6 937/2/6 940/2/6
f 940/2/6 937/2/6 941/2/6
f 939/2/6 940/2/6 942/2/6
f 942/2/6 940/2/6 943/2/6
f 943/2/6 940/2/6 944/2/6
f 944/2/6 940/2/6 945/2/6
f 943/2/6 944/2/6 946/2/6
f 946/2/6 944/2/6 947/2/6
